<svg width="870" height="61" fill="none" xmlns="http://www.w3.org/2000/svg">
    <mask id="r" maskUnits="userSpaceOnUse" x=".125" y=".101" width="870" height="60" fill="#000">
        <path fill="#fff" d="M.125.101h870v60h-870z"/>
        <path d="M29.59 41.2c.843 0 1.577.312 2.2.935.623.623.935 1.357.935 2.2v2.53c0 .843-.312 1.577-.935 2.2-.623.623-1.357.935-2.2.935H7.26c-.843 0-1.577-.312-2.2-.935-.623-.623-.935-1.356-.935-2.2v-2.53c0-2.053.825-3.721 2.475-5.005 6.05-4.62 9.992-8.03 11.825-10.23 1.833-2.237 2.75-4.437 2.75-6.6 0-2.75-1.558-4.125-4.675-4.125-2.2 0-5.06.623-8.58 1.87-.733.257-1.412.183-2.035-.22-.623-.44-.935-1.026-.935-1.76v-3.63c0-.953.275-1.796.825-2.53.55-.77 1.265-1.265 2.145-1.485 3.593-.88 7.003-1.32 10.23-1.32 4.583 0 8.103 1.082 10.56 3.245 2.493 2.127 3.74 5.079 3.74 8.855 0 3.007-.953 5.867-2.86 8.58-1.87 2.713-5.573 6.399-11.11 11.055-.037.037-.055.074-.055.11 0 .037.018.055.055.055h11.11ZM85.424 7.375c.843 0 1.576.312 2.2.935.623.624.935 1.357.935 2.2v2.53c0 .844-.312 1.577-.935 2.2-.624.623-1.357.935-2.2.935h-22.77c-.33 0-.495.165-.495.495 0 2.2-.055 4.253-.165 6.16 0 .33.146.495.44.495h19.14c.843 0 1.576.312 2.2.935.623.623.935 1.357.935 2.2v5.115c0 3.153-.055 5.83-.165 8.03-.11 2.164-.257 4.125-.44 5.885-.184 1.724-.495 3.117-.935 4.18-.44 1.027-.917 1.889-1.43 2.585-.477.733-1.174 1.265-2.09 1.595-.917.33-1.852.55-2.805.66-.954.11-2.182.165-3.685.165-2.274 0-5.354-.11-9.24-.33-.917-.036-1.687-.385-2.31-1.045-.587-.623-.917-1.393-.99-2.31l-.22-2.805c-.074-.843.183-1.558.77-2.145.586-.587 1.301-.843 2.145-.77 3.116.22 5.665.33 7.645.33 1.026 0 1.76-.22 2.2-.66.44-.44.77-1.466.99-3.08.256-1.65.385-4.253.385-7.81v-1.705c0-.33-.165-.495-.495-.495H61.554c-.294 0-.477.165-.55.495-.844 4.803-2.292 8.855-4.345 12.155-2.054 3.264-4.987 6.398-8.8 9.405-.697.55-1.485.77-2.365.66-.88-.073-1.632-.44-2.255-1.1l-2.585-2.805c-.55-.586-.789-1.301-.715-2.145.073-.843.44-1.503 1.1-1.98 4.143-3.153 6.948-6.765 8.415-10.835 1.466-4.107 2.218-10.468 2.255-19.085 0-.293-.147-.44-.44-.44h-9.075c-.844 0-1.577-.312-2.2-.935-.624-.623-.935-1.357-.935-2.2v-2.53c0-.843.311-1.576.935-2.2.623-.623 1.356-.935 2.2-.935h43.23ZM139.324 6.55c.843 0 1.576.312 2.2.935.623.624.935 1.357.935 2.2V43.4c0 1.87-.037 3.337-.11 4.4a10.97 10.97 0 0 1-.495 2.97c-.294.917-.624 1.577-.99 1.98-.367.404-.99.752-1.87 1.045a9.247 9.247 0 0 1-2.695.495c-.954.074-2.292.11-4.015.11-1.137 0-3.209-.055-6.215-.165-.88-.036-1.65-.367-2.31-.99-.66-.623-1.009-1.375-1.045-2.255l-.11-2.255c-.074-.843.183-1.558.77-2.145.586-.623 1.283-.917 2.09-.88 2.383.11 3.923.165 4.62.165 1.1 0 1.741-.073 1.925-.22.183-.183.275-.752.275-1.705v-8.03c0-.33-.165-.495-.495-.495h-25.96c-.33 0-.495.165-.495.495v15.345c0 .843-.312 1.577-.935 2.2-.624.623-1.357.935-2.2.935h-3.905c-.844 0-1.577-.311-2.2-.935-.624-.623-.935-1.357-.935-2.2V9.685c0-.843.311-1.576.935-2.2.623-.623 1.356-.935 2.2-.935h41.03Zm-25.465 20.13V15.57c0-.33-.165-.495-.495-.495h-7.535c-.33 0-.495.165-.495.495v11.11c0 .33.165.495.495.495h7.535c.33 0 .495-.165.495-.495Zm18.425 0V15.57c0-.33-.165-.495-.495-.495h-7.59c-.294 0-.44.165-.44.495v11.11c0 .33.146.495.44.495h7.59c.33 0 .495-.165.495-.495ZM177.164 35.205c.256.88.22 1.742-.11 2.585a3.65 3.65 0 0 1-1.705 1.925c-7.444 4.107-15.015 7.645-22.715 10.615-.807.294-1.577.239-2.31-.165-.734-.367-1.229-.953-1.485-1.76l-.715-2.585c-.257-.843-.184-1.65.22-2.42.403-.806 1.008-1.356 1.815-1.65l1.32-.495c.293-.11.44-.33.44-.66V9.41c0-.843.311-1.576.935-2.2.623-.623 1.356-.935 2.2-.935h3.63c.843 0 1.576.312 2.2.935.623.624.935 1.357.935 2.2v26.95c0 .33.146.422.44.275a231.766 231.766 0 0 0 10.56-5.225c.696-.403 1.411-.44 2.145-.11.77.293 1.265.825 1.485 1.595l.715 2.31Zm-8.03-25.19c.623-.586 1.375-.861 2.255-.825.916.037 1.668.367 2.255.99 2.786 2.934 5.573 6.215 8.36 9.845.513.697.715 1.485.605 2.365-.11.843-.514 1.54-1.21 2.09l-2.31 1.815a3.11 3.11 0 0 1-2.255.66c-.844-.11-1.522-.495-2.035-1.155-2.86-3.593-5.555-6.71-8.085-9.35-.587-.586-.862-1.301-.825-2.145.036-.843.366-1.558.99-2.145l2.255-2.145Zm23.925 28.49c2.456 3.227 4.601 6.197 6.435 8.91.476.733.623 1.522.44 2.365-.184.807-.642 1.448-1.375 1.925l-2.805 1.815c-.697.477-1.467.623-2.31.44-.844-.183-1.504-.623-1.98-1.32-1.724-2.566-3.117-4.547-4.18-5.94-.22-.293-.459-.33-.715-.11-3.374 2.933-8.745 5.812-16.115 8.635-.844.33-1.687.33-2.53 0-.807-.293-1.43-.825-1.87-1.595l-1.595-2.86c-.404-.733-.477-1.485-.22-2.255a2.641 2.641 0 0 1 1.595-1.595c2.566-1.026 4.675-1.907 6.325-2.64a38.525 38.525 0 0 0 4.84-2.585c1.613-1.026 2.841-1.962 3.685-2.805.88-.88 1.723-2.053 2.53-3.52.806-1.503 1.375-2.951 1.705-4.345.366-1.393.696-3.3.99-5.72.293-2.42.476-4.84.55-7.26.073-2.42.11-5.5.11-9.24 0-.843.311-1.558.935-2.145.623-.623 1.356-.935 2.2-.935h3.905c.843 0 1.576.312 2.2.935.623.624.935 1.357.935 2.2-.074 7.04-.385 12.834-.935 17.38-.55 4.547-1.485 8.378-2.805 11.495-.11.294-.092.55.055.77ZM250.974 45.325c.843 0 1.576.312 2.2.935.623.623.935 1.357.935 2.2v2.53c0 .843-.312 1.577-.935 2.2-.624.623-1.357.935-2.2.935h-44.33c-.844 0-1.577-.312-2.2-.935-.624-.623-.935-1.356-.935-2.2v-2.53c0-.843.311-1.577.935-2.2.623-.623 1.356-.935 2.2-.935h14.41c.33 0 .495-.165.495-.495V8.86c0-.843.293-1.576.88-2.2.623-.623 1.356-.935 2.2-.935h4.235c.843 0 1.576.312 2.2.935.623.624.935 1.357.935 2.2v10.12c0 .33.146.495.44.495h15.785c.843 0 1.576.312 2.2.935.623.623.935 1.357.935 2.2v2.255c0 .844-.312 1.577-.935 2.2-.624.623-1.357.935-2.2.935h-15.785c-.294 0-.44.147-.44.44v16.39c0 .33.146.495.44.495h18.535ZM273.669 24.4h3.28c.693 0 1.493.094 2.4.28.933.16 1.546.294 1.84.4.32.107.706.454 1.16 1.04.453.587.72 1.093.8 1.52.08.427.186 1.24.32 2.44.133 1.174.2 2.227.2 3.16v4.36c0 5.307-.654 9.107-1.96 11.4-1.28 2.267-3.16 3.4-5.64 3.4-1.787 0-3.987-.32-6.6-.96a2.193 2.193 0 0 1-1.4-1.08c-.32-.56-.4-1.146-.24-1.76l.48-2c.16-.587.506-1.04 1.04-1.36a2.285 2.285 0 0 1 1.72-.28c1.706.427 2.84.64 3.4.64 1.066 0 1.6-3.067 1.6-9.2 0-2.773-.107-4.4-.32-4.88-.187-.48-.88-.72-2.08-.72h-2.76c-.24 0-.387.107-.44.32-1.44 6.454-3.32 12.96-5.64 19.52a2.182 2.182 0 0 1-1.2 1.32 2.16 2.16 0 0 1-1.72.16l-1.88-.64a2.193 2.193 0 0 1-1.32-1.12c-.267-.533-.294-1.106-.08-1.72a182.072 182.072 0 0 0 4.92-17.48c.053-.24-.027-.36-.24-.36h-2.56c-.614 0-1.147-.227-1.6-.68-.454-.453-.68-.986-.68-1.6v-1.84c0-.613.226-1.146.68-1.6.453-.453.986-.68 1.6-.68h3.88c.213 0 .346-.106.4-.32.186-.933.48-2.613.88-5.04.106-.64.413-1.16.92-1.56.506-.427 1.08-.613 1.72-.56l2.04.16c.613.054 1.12.32 1.52.8.4.454.56.974.48 1.56a108.47 108.47 0 0 1-.72 4.64c-.054.214.04.32.28.32h1.52Zm17.16-.24c1.68 4.96 3.24 10.187 4.68 15.68a2.08 2.08 0 0 1-.24 1.68c-.32.533-.787.867-1.4 1l-2.56.64a2.285 2.285 0 0 1-1.72-.28 2.223 2.223 0 0 1-1.04-1.4c-1.28-4.88-2.854-10.08-4.72-15.6a2.053 2.053 0 0 1 .16-1.68 1.935 1.935 0 0 1 1.32-1l2.56-.64c.613-.16 1.2-.08 1.76.24.586.293.986.747 1.2 1.36ZM320.269 30.8c4.213 0 7.266.813 9.16 2.44 1.893 1.6 2.84 4.12 2.84 7.56 0 3.574-1.534 6.4-4.6 8.48-3.04 2.08-7.374 3.12-13 3.12-2.64 0-5.294-.12-7.96-.36-.614-.053-1.12-.333-1.52-.84a2.174 2.174 0 0 1-.52-1.64l.2-1.92c.053-.613.32-1.107.8-1.48.48-.4 1.026-.573 1.64-.52 2.853.24 5.306.36 7.36.36 2.8 0 5-.48 6.6-1.44 1.6-.986 2.4-2.24 2.4-3.76 0-2.4-1.534-3.6-4.6-3.6-2.16 0-5.227 1.04-9.2 3.12-1.334.72-2.747.934-4.24.64l-2.32-.52a2.255 2.255 0 0 1-1.48-.92 2.32 2.32 0 0 1-.36-1.72c.426-2.48.853-5.133 1.28-7.96.106-.64.4-1.146.88-1.52.506-.4 1.08-.573 1.72-.52l2.84.2c.613.053 1.12.334 1.52.84.4.48.56 1.027.48 1.64a50.552 50.552 0 0 1-.28 1.92c-.107.8-.187 1.387-.24 1.76v.04h.08c3.786-2.267 7.293-3.4 10.52-3.4Zm-10.72-11.36c5.493.56 10.706.88 15.64.96.613 0 1.146.227 1.6.68.453.454.68.987.68 1.6v1.84c0 .614-.227 1.147-.68 1.6-.454.453-.987.68-1.6.68-5.814-.08-11.307-.4-16.48-.96a2.15 2.15 0 0 1-1.52-.8 2.244 2.244 0 0 1-.44-1.68l.24-1.92a2.11 2.11 0 0 1 .88-1.48c.506-.4 1.066-.573 1.68-.52ZM374.259 30.035c4.583 3.85 8.195 6.967 10.835 9.35.623.587.971 1.32 1.045 2.2.073.843-.184 1.595-.77 2.255l-2.805 3.245c-.55.66-1.265 1.027-2.145 1.1-.844.037-1.577-.238-2.2-.825a327.996 327.996 0 0 0-10.56-9.24c-.257-.22-.495-.183-.715.11-4.95 5.17-10.78 9.68-17.49 13.53-.77.44-1.595.569-2.475.385a3.28 3.28 0 0 1-2.09-1.375l-2.695-3.74c-.477-.697-.642-1.448-.495-2.255.183-.806.641-1.43 1.375-1.87 6.013-3.666 11.055-7.627 15.125-11.88.22-.183.22-.385 0-.605a390.208 390.208 0 0 0-10.615-8.03c-.697-.513-1.1-1.173-1.21-1.98-.11-.843.11-1.595.66-2.255l2.64-3.135c.55-.697 1.246-1.1 2.09-1.21a3.36 3.36 0 0 1 2.42.605 344.486 344.486 0 0 1 10.505 7.92c.073.073.183.11.33.11.146-.037.238-.11.275-.22 2.603-3.923 4.766-8.177 6.49-12.76.293-.806.843-1.43 1.65-1.87.806-.476 1.631-.623 2.475-.44l4.565.99c.843.184 1.485.624 1.925 1.32.44.697.531 1.449.275 2.255-1.944 6.16-4.785 12.027-8.525 17.6-.22.257-.184.495.11.715ZM442.404 26.46c.843.11 1.54.514 2.09 1.21.55.66.77 1.412.66 2.255-1.064 7.774-3.557 13.439-7.48 16.995-3.924 3.52-9.644 5.372-17.16 5.555-.844.037-1.577-.257-2.2-.88-.587-.623-.88-1.375-.88-2.255V10.785c0-.843.311-1.576.935-2.2.623-.623 1.356-.935 2.2-.935h4.455c.843 0 1.576.312 2.2.935.623.624.935 1.357.935 2.2V40.87c0 .33.146.422.44.275 1.87-.88 3.3-2.273 4.29-4.18 1.026-1.943 1.796-4.712 2.31-8.305.11-.843.495-1.521 1.155-2.035.696-.55 1.466-.77 2.31-.66l3.74.495ZM409.899 7.65c.843 0 1.576.312 2.2.935.623.624.935 1.357.935 2.2V19.2c0 7.003-.349 12.54-1.045 16.61-.66 4.07-1.779 7.315-3.355 9.735-1.577 2.42-3.869 4.51-6.875 6.27-.77.44-1.577.55-2.42.33-.844-.22-1.522-.697-2.035-1.43l-2.365-3.63c-.477-.697-.624-1.448-.44-2.255.22-.806.696-1.43 1.43-1.87 1.503-.953 2.658-1.907 3.465-2.86.843-.99 1.521-2.42 2.035-4.29.513-1.87.825-3.997.935-6.38.146-2.42.22-5.83.22-10.23v-8.415c0-.843.311-1.576.935-2.2.623-.623 1.356-.935 2.2-.935h4.18ZM483.544 23.82c5.463 5.977 10.56 11.404 15.29 16.28.623.623.935 1.375.935 2.255 0 .844-.312 1.577-.935 2.2l-3.41 3.465c-.624.623-1.357.935-2.2.935-.807 0-1.522-.293-2.145-.88-4.144-4.29-9.259-9.827-15.345-16.61-2.127-2.42-3.594-4.015-4.4-4.785-.807-.77-1.467-1.155-1.98-1.155-.44 0-1.009.459-1.705 1.375-.66.88-1.815 2.585-3.465 5.115-3.85 5.794-6.014 9.02-6.49 9.68-.477.697-1.155 1.137-2.035 1.32-.88.147-1.669-.018-2.365-.495l-3.63-2.365c-.734-.477-1.174-1.118-1.32-1.925-.147-.843.018-1.631.495-2.365l5.995-8.635c4.07-5.903 6.691-9.46 7.865-10.67 1.32-1.356 2.805-2.108 4.455-2.255a33.085 33.085 0 0 1 2.2-.055c2.64 0 4.601.44 5.885 1.32 1.283.88 4.051 3.63 8.305 8.25Zm3.685-7.37a3.85 3.85 0 0 0 2.75 1.1c1.063 0 1.961-.367 2.695-1.1.77-.77 1.155-1.686 1.155-2.75 0-1.063-.385-1.961-1.155-2.695-.734-.77-1.632-1.155-2.695-1.155-1.064 0-1.98.385-2.75 1.155-.734.733-1.1 1.632-1.1 2.695 0 1.064.366 1.98 1.1 2.75Zm-3.465-8.965c1.723-1.723 3.795-2.585 6.215-2.585s4.491.862 6.215 2.585c1.723 1.724 2.585 3.795 2.585 6.215s-.862 4.492-2.585 6.215c-1.724 1.724-3.795 2.585-6.215 2.585s-4.492-.861-6.215-2.585c-1.724-1.723-2.585-3.795-2.585-6.215s.861-4.491 2.585-6.215ZM548.664 10.29l2.255 2.695c.586.66.843 1.43.77 2.31-.074.88-.44 1.595-1.1 2.145-3.85 3.19-8.049 6.013-12.595 8.47-.294.183-.44.422-.44.715V49.89c0 .843-.312 1.577-.935 2.2-.624.623-1.357.935-2.2.935h-5.005c-.844 0-1.577-.311-2.2-.935-.624-.623-.935-1.357-.935-2.2V31.795c0-.11-.055-.202-.165-.275a.364.364 0 0 0-.33-.055c-5.244 1.98-10.377 3.41-15.4 4.29-.844.147-1.632-.037-2.365-.55a3.1 3.1 0 0 1-1.265-2.035l-.55-3.465c-.147-.843.018-1.595.495-2.255a3.325 3.325 0 0 1 2.035-1.32 80.522 80.522 0 0 0 19.085-5.94c6.196-2.823 11.678-6.215 16.445-10.175a3.194 3.194 0 0 1 2.255-.77c.88.037 1.595.385 2.145 1.045ZM576.934 33.885l-.165 2.97c-.257 5.647-.624 9.79-1.1 12.43-.44 2.64-1.027 4.327-1.76 5.06-.734.77-1.889 1.155-3.465 1.155-1.32 0-3.685-.055-7.095-.165a3.277 3.277 0 0 1-2.255-.99c-.587-.623-.899-1.375-.935-2.255l-.055-2.255c-.037-.843.256-1.558.88-2.145.623-.587 1.356-.861 2.2-.825.44 0 .898.018 1.375.055.513 0 .898.018 1.155.055h.605c.44 0 .715-.202.825-.605.183-.66.366-3.043.55-7.15 0-.33-.165-.495-.495-.495h-.385c-.33 0-.495.147-.495.44a2.8 2.8 0 0 1-1.045 1.98 2.849 2.849 0 0 1-2.145.66l-1.925-.11c-.844-.073-1.559-.44-2.145-1.1-.55-.66-.789-1.411-.715-2.255.586-6.893.99-12.503 1.21-16.83.073-.88.421-1.613 1.045-2.2a3.073 3.073 0 0 1 2.255-.935h4.345c.33 0 .495-.146.495-.44v-3.19c0-.33-.165-.495-.495-.495h-5.17c-.844 0-1.577-.312-2.2-.935-.624-.623-.935-1.356-.935-2.2v-1.98c0-.843.311-1.576.935-2.2.623-.623 1.356-.935 2.2-.935h11.605c.843 0 1.576.312 2.2.935.623.624.935 1.357.935 2.2v14.08c0 .843-.312 1.577-.935 2.2-.624.623-1.357.935-2.2.935h-5.775c-.33 0-.495.165-.495.495-.037.367-.074.935-.11 1.705a37.76 37.76 0 0 1-.11 1.705c0 .33.146.495.44.495h6.325c.843 0 1.558.312 2.145.935.623.624.916 1.357.88 2.2Zm30.525 6.38a193.665 193.665 0 0 1 2.585 11.55c.183.843.018 1.65-.495 2.42-.514.77-1.192 1.229-2.035 1.375l-1.815.385c-.844.184-1.614.019-2.31-.495-.697-.477-1.119-1.118-1.265-1.925a27.919 27.919 0 0 0-.275-1.43c-.074-.33-.239-.477-.495-.44-7.187 1.247-14.245 2.09-21.175 2.53-.844.037-1.595-.238-2.255-.825-.66-.586-1.027-1.301-1.1-2.145l-.11-1.98a3.007 3.007 0 0 1 .77-2.2c.586-.66 1.301-1.026 2.145-1.1 1.796-.11 4.528-.348 8.195-.715.33 0 .495-.165.495-.495v-4.18c0-.33-.165-.495-.495-.495h-1.32c-.257 0-.385.128-.385.385a2.33 2.33 0 0 1-.715 1.705c-.44.44-.99.66-1.65.66h-2.475c-.844 0-1.577-.312-2.2-.935-.624-.623-.935-1.356-.935-2.2V24.81c0-.843.311-1.576.935-2.2.623-.623 1.356-.935 2.2-.935h6.545c.33 0 .495-.165.495-.495v-.77c0-.256-.147-.385-.44-.385-1.43.11-3.63.239-6.6.385-.88.037-1.65-.22-2.31-.77-.624-.587-.972-1.32-1.045-2.2l-.165-2.42a2.231 2.231 0 0 1 .605-1.705c.476-.513 1.045-.788 1.705-.825.22 0 .385-.128.495-.385 1.246-2.896 1.998-4.693 2.255-5.39.33-.843.88-1.503 1.65-1.98a3.642 3.642 0 0 1 2.53-.605l3.465.44c.77.074 1.338.44 1.705 1.1.403.66.458 1.339.165 2.035-.184.404-.459 1.027-.825 1.87-.33.807-.587 1.412-.77 1.815-.037.11-.019.202.055.275.073.074.165.11.275.11 1.356-.11 3.391-.312 6.105-.605.293 0 .366-.146.22-.44-.037-.037-.055-.073-.055-.11 0-.073-.019-.128-.055-.165-.33-.77-.33-1.521 0-2.255.33-.733.898-1.246 1.705-1.54l2.035-.77a3.22 3.22 0 0 1 2.475.11c.843.33 1.466.899 1.87 1.705.953 2.054 2.236 5.097 3.85 9.13a2.955 2.955 0 0 1-.11 2.365c-.367.77-.954 1.284-1.76 1.54l-2.365.77c0 .037.018.092.055.165h.77c.843 0 1.576.312 2.2.935.623.623.935 1.357.935 2.2v13.97c0 .367-.129.678-.385.935a1.274 1.274 0 0 1-.935.385c-.11 0-.165.055-.165.165Zm-19.14-6.985v-4.785c0-.33-.165-.495-.495-.495h-1.265c-.294 0-.44.165-.44.495v4.785c0 .33.146.495.44.495h1.265c.33 0 .495-.165.495-.495Zm9.625-13.805v1.705c0 .33.165.495.495.495h2.86c.293 0 .403-.165.33-.495l-.825-2.145c-.147-.293-.33-.403-.55-.33a9.33 9.33 0 0 1-.88.11c-.404.037-.715.073-.935.11-.33.073-.495.257-.495.55Zm0 9.02v4.785c0 .33.165.495.495.495h1.21c.33 0 .495-.165.495-.495v-4.785c0-.33-.165-.495-.495-.495h-1.21c-.33 0-.495.165-.495.495Zm6.435 11.715c.036 0 .055-.018.055-.055 0-.037-.019-.055-.055-.055h-5.94c-.33 0-.495.165-.495.495v3.025c0 .11.036.22.11.33.11.11.22.147.33.11.183 0 .44-.037.77-.11.366-.073.641-.11.825-.11.073 0 .146-.037.22-.11.11-.11.146-.201.11-.275-.11-.623 0-1.191.33-1.705.366-.55.843-.898 1.43-1.045l2.31-.495ZM631.659 5.56c.843.147 1.503.569 1.98 1.265.513.66.696 1.394.55 2.2-.844 4.034-1.962 7.59-3.355 10.67-.147.367-.22.678-.22.935v31.735c0 .843-.312 1.577-.935 2.2-.624.623-1.357.935-2.2.935h-3.905c-.844 0-1.577-.312-2.2-.935-.624-.623-.935-1.356-.935-2.2v-18.59c0-.073-.037-.128-.11-.165-.074-.036-.129-.018-.165.055a47.12 47.12 0 0 1-1.65 1.98c-.514.55-1.137.752-1.87.605-.697-.147-1.192-.568-1.485-1.265l-1.815-4.345a4.351 4.351 0 0 1-.165-2.64c.22-.916.66-1.705 1.32-2.365 4.73-4.62 8.103-10.615 10.12-17.985.22-.843.696-1.521 1.43-2.035a3.163 3.163 0 0 1 2.42-.55l3.19.495Zm29.7 27.61c.88.11 1.595.495 2.145 1.155.586.623.861 1.375.825 2.255-.11 3.373-.275 6.069-.495 8.085-.22 2.017-.477 3.703-.77 5.06-.294 1.357-.77 2.347-1.43 2.97-.66.66-1.357 1.118-2.09 1.375-.697.257-1.724.459-3.08.605-1.577.184-3.41.275-5.5.275-1.467 0-3.3-.037-5.5-.11-2.53-.11-4.327-.403-5.39-.88-1.064-.44-1.815-1.265-2.255-2.475-.404-1.173-.605-3.135-.605-5.885V8.86c0-.843.311-1.576.935-2.2.623-.623 1.356-.935 2.2-.935h3.905c.843 0 1.576.312 2.2.935.623.624.935 1.357.935 2.2v9.9c0 .11.055.202.165.275.11.037.201.018.275-.055 3.006-1.833 6.013-4.015 9.02-6.545.66-.55 1.411-.788 2.255-.715.88.037 1.613.367 2.2.99l2.145 2.53c.586.66.843 1.412.77 2.255-.074.843-.44 1.54-1.1 2.09-5.134 4.18-10.249 7.59-15.345 10.23-.257.11-.385.33-.385.66V44.5c0 .697.055 1.137.165 1.32.11.147.421.257.935.33.806.074 1.54.11 2.2.11.88 0 1.613-.036 2.2-.11.403-.036.678-.11.825-.22.183-.147.348-.587.495-1.32.183-.733.293-1.742.33-3.025.073-1.32.146-3.337.22-6.05.036-.843.366-1.54.99-2.09.623-.55 1.338-.788 2.145-.715l3.465.44ZM717.844 48.57c.733.294 1.21.825 1.43 1.595.22.77.11 1.485-.33 2.145l-1.155 1.705c-.477.733-1.174 1.228-2.09 1.485-.88.257-1.724.202-2.53-.165a143.707 143.707 0 0 0-12.32-4.675c-.77-.256-1.32-.752-1.65-1.485-.294-.733-.257-1.466.11-2.2l.22-.385c.073-.073.073-.165 0-.275-.074-.11-.165-.165-.275-.165h-9.9c-.11 0-.202.055-.275.165-.037.074-.019.147.055.22.44.734.55 1.522.33 2.365-.22.843-.715 1.449-1.485 1.815-3.557 1.76-7.975 3.373-13.255 4.84-.88.257-1.742.184-2.585-.22-.807-.367-1.43-.953-1.87-1.76l-.88-1.65c-.404-.697-.44-1.411-.11-2.145.33-.733.88-1.191 1.65-1.375 2.31-.587 4.711-1.283 7.205-2.09.036 0 .055-.018.055-.055 0-.073-.019-.11-.055-.11h-2.695c-.844 0-1.577-.311-2.2-.935-.624-.623-.935-1.357-.935-2.2V24.26c0-.843.311-1.577.935-2.2.623-.623 1.356-.935 2.2-.935h37.73c.843 0 1.576.312 2.2.935.623.623.935 1.357.935 2.2v18.755c0 .843-.312 1.577-.935 2.2-.624.623-1.357.935-2.2.935h-1.705c-.037 0-.055.037-.055.11 0 .037.018.055.055.055 1.906.587 4.033 1.339 6.38 2.255Zm-35.365-21.175v.715c0 .294.165.44.495.44h22.66c.33 0 .495-.146.495-.44v-.715c0-.33-.165-.495-.495-.495h-22.66c-.33 0-.495.165-.495.495Zm0 6.325v.66c0 .33.165.495.495.495h22.66c.33 0 .495-.165.495-.495v-.66c0-.33-.165-.495-.495-.495h-22.66c-.33 0-.495.165-.495.495Zm0 6.325v.715c0 .294.165.44.495.44h22.66c.33 0 .495-.147.495-.44v-.715c0-.33-.165-.495-.495-.495h-22.66c-.33 0-.495.165-.495.495Zm32.89-34.595c.843 0 1.576.312 2.2.935.623.624.935 1.357.935 2.2v8.03c0 .844-.312 1.577-.935 2.2-.624.623-1.357.935-2.2.935h-42.13c-.844 0-1.577-.311-2.2-.935-.624-.623-.935-1.357-.935-2.2v-8.03c0-.843.311-1.576.935-2.2.623-.623 1.356-.935 2.2-.935h42.13Zm-31.515 8.58v-1.54c0-.293-.165-.44-.495-.44h-4.015c-.294 0-.44.147-.44.44v1.54c0 .33.146.495.44.495h4.015c.33 0 .495-.165.495-.495Zm13.2 0v-1.54c0-.293-.165-.44-.495-.44h-4.565c-.294 0-.44.147-.44.44v1.54c0 .33.146.495.44.495h4.565c.33 0 .495-.165.495-.495Zm12.65 0v-1.54c0-.293-.165-.44-.495-.44h-4.015c-.294 0-.44.147-.44.44v1.54c0 .33.146.495.44.495h4.015c.33 0 .495-.165.495-.495ZM773.174 44.775a3.762 3.762 0 0 1 1.485 2.035c.256.807.201 1.613-.165 2.42l-1.65 3.19a2.852 2.852 0 0 1-1.815 1.43c-.77.22-1.504.092-2.2-.385a49.44 49.44 0 0 1-6.545-5.5c-.22-.22-.44-.202-.66.055-1.687 1.87-3.612 3.648-5.775 5.335-.66.514-1.412.697-2.255.55-.844-.147-1.504-.587-1.98-1.32l-1.595-2.53c-.037-.036-.092-.055-.165-.055-.074.037-.11.092-.11.165v2.2c0 .843-.312 1.577-.935 2.2-.624.623-1.357.935-2.2.935h-3.355c-.844 0-1.577-.312-2.2-.935-.624-.623-.935-1.356-.935-2.2V49.01c0-.33-.147-.458-.44-.385-5.134.697-9.442 1.228-12.925 1.595a3.295 3.295 0 0 1-2.31-.66c-.697-.55-1.082-1.247-1.155-2.09l-.165-2.09c-.074-.843.165-1.595.715-2.255.55-.697 1.246-1.081 2.09-1.155.293-.073.44-.238.44-.495v-26.84c0-.256-.129-.385-.385-.385-.66 0-1.229-.22-1.705-.66a2.428 2.428 0 0 1-.66-1.705v-2.75c0-.843.311-1.576.935-2.2.623-.623 1.356-.935 2.2-.935h23.43c.77 0 1.448.257 2.035.77.586.514.935 1.137 1.045 1.87.073.257.238.349.495.275.33-.11.678-.165 1.045-.165h16.28c.843 0 1.576.312 2.2.935.623.623.935 1.357.935 2.2v5.39c-.99 8.58-3.172 15.987-6.545 22.22-.184.257-.147.514.11.77a28.842 28.842 0 0 0 5.39 4.51Zm-33.055-5.06v-2.97c0-.33-.165-.495-.495-.495h-3.465c-.294 0-.44.165-.44.495v3.575c0 .11.036.22.11.33.073.074.165.092.275.055.403-.036.99-.11 1.76-.22s1.356-.183 1.76-.22c.33-.073.495-.257.495-.55Zm0-10.835v-3.19c0-.293-.165-.44-.495-.44h-3.465c-.294 0-.44.147-.44.44v3.19c0 .33.146.495.44.495h3.465c.33 0 .495-.165.495-.495Zm0-11v-3.19c0-.293-.165-.44-.495-.44h-3.465c-.294 0-.44.147-.44.44v3.19c0 .33.146.495.44.495h3.465c.33 0 .495-.165.495-.495Zm21.395 11.495c1.246-3.447 2.126-7.333 2.64-11.66 0-.293-.147-.44-.44-.44h-8.91c-.807 0-1.522-.275-2.145-.825a3.347 3.347 0 0 1-.99-2.145c0-.22-.147-.293-.44-.22-.33.11-.679.165-1.045.165-.294 0-.44.147-.44.44v30.415c0 .074.018.129.055.165a.234.234 0 0 0 .22 0l.33-.33c2.016-1.54 3.758-3.208 5.225-5.005.256-.257.293-.532.11-.825-2.494-4.4-4.437-9.662-5.83-15.785a3.14 3.14 0 0 1 .385-2.365c.476-.733 1.136-1.192 1.98-1.375l3.025-.77c.843-.183 1.613-.037 2.31.44.733.44 1.173 1.064 1.32 1.87.733 3.41 1.503 6.142 2.31 8.195a.354.354 0 0 0 .165.165c.073 0 .128-.037.165-.11ZM824.874 12.875c.843 0 1.576.312 2.2.935.623.623.935 1.357.935 2.2v24.53c0 .843-.312 1.577-.935 2.2-.624.623-1.357.935-2.2.935h-4.125c-.66 0-1.229-.22-1.705-.66a2.428 2.428 0 0 1-.66-1.705c0-.257-.129-.385-.385-.385h-8.47c-.33 0-.495.165-.495.495v11.495c0 .843-.312 1.577-.935 2.2-.624.623-1.357.935-2.2.935h-4.18c-.844 0-1.577-.311-2.2-.935-.624-.623-.935-1.357-.935-2.2V41.42c0-.33-.165-.495-.495-.495h-8.47c-.257 0-.385.129-.385.385a2.33 2.33 0 0 1-.715 1.705c-.44.44-.99.66-1.65.66h-4.125c-.844 0-1.577-.311-2.2-.935-.624-.623-.935-1.357-.935-2.2V16.01c0-.843.311-1.577.935-2.2.623-.623 1.356-.935 2.2-.935h15.345c.33 0 .495-.165.495-.495V7.485c0-.843.311-1.576.935-2.2.623-.623 1.356-.935 2.2-.935h4.18c.843 0 1.576.312 2.2.935.623.624.935 1.357.935 2.2v4.895c0 .33.165.495.495.495h15.345Zm-35.145 19.8h8.36c.33 0 .495-.165.495-.495V21.84c0-.293-.165-.44-.495-.44h-8.36c-.33 0-.495.147-.495.44v10.34c0 .33.165.495.495.495Zm28.655-.495V21.84c0-.293-.165-.44-.495-.44h-8.36c-.33 0-.495.147-.495.44v10.34c0 .33.165.495.495.495h8.36c.33 0 .495-.165.495-.495ZM862.329 9.85c.843 0 1.558.312 2.145.935.586.623.861 1.357.825 2.2l-1.32 20.68a3.511 3.511 0 0 1-1.045 2.255c-.624.587-1.375.88-2.255.88h-3.63c-.88 0-1.632-.293-2.255-.88a3.501 3.501 0 0 1-1.045-2.255l-1.32-20.68c-.037-.843.238-1.576.825-2.2.586-.623 1.301-.935 2.145-.935h6.93Zm-1.1 31.35c.843 0 1.576.312 2.2.935.623.623.935 1.357.935 2.2v2.53c0 .843-.312 1.577-.935 2.2-.624.623-1.357.935-2.2.935h-4.73c-.844 0-1.577-.312-2.2-.935-.624-.623-.935-1.356-.935-2.2v-2.53c0-.843.311-1.577.935-2.2.623-.623 1.356-.935 2.2-.935h4.73Z"/>
    </mask>
    <path d="M29.59 41.2c.843 0 1.577.312 2.2.935.623.623.935 1.357.935 2.2v2.53c0 .843-.312 1.577-.935 2.2-.623.623-1.357.935-2.2.935H7.26c-.843 0-1.577-.312-2.2-.935-.623-.623-.935-1.356-.935-2.2v-2.53c0-2.053.825-3.721 2.475-5.005 6.05-4.62 9.992-8.03 11.825-10.23 1.833-2.237 2.75-4.437 2.75-6.6 0-2.75-1.558-4.125-4.675-4.125-2.2 0-5.06.623-8.58 1.87-.733.257-1.412.183-2.035-.22-.623-.44-.935-1.026-.935-1.76v-3.63c0-.953.275-1.796.825-2.53.55-.77 1.265-1.265 2.145-1.485 3.593-.88 7.003-1.32 10.23-1.32 4.583 0 8.103 1.082 10.56 3.245 2.493 2.127 3.74 5.079 3.74 8.855 0 3.007-.953 5.867-2.86 8.58-1.87 2.713-5.573 6.399-11.11 11.055-.037.037-.055.074-.055.11 0 .037.018.055.055.055h11.11Z" fill="url(#a)"/>
    <path d="M85.424 7.375c.843 0 1.576.312 2.2.935.623.624.935 1.357.935 2.2v2.53c0 .844-.312 1.577-.935 2.2-.624.623-1.357.935-2.2.935h-22.77c-.33 0-.495.165-.495.495 0 2.2-.055 4.253-.165 6.16 0 .33.146.495.44.495h19.14c.843 0 1.576.312 2.2.935.623.623.935 1.357.935 2.2v5.115c0 3.153-.055 5.83-.165 8.03-.11 2.164-.257 4.125-.44 5.885-.184 1.724-.495 3.117-.935 4.18-.44 1.027-.917 1.889-1.43 2.585-.477.733-1.174 1.265-2.09 1.595-.917.33-1.852.55-2.805.66-.954.11-2.182.165-3.685.165-2.274 0-5.354-.11-9.24-.33-.917-.036-1.687-.385-2.31-1.045-.587-.623-.917-1.393-.99-2.31l-.22-2.805c-.074-.843.183-1.558.77-2.145.586-.587 1.301-.843 2.145-.77 3.116.22 5.665.33 7.645.33 1.026 0 1.76-.22 2.2-.66.44-.44.77-1.466.99-3.08.256-1.65.385-4.253.385-7.81v-1.705c0-.33-.165-.495-.495-.495H61.554c-.294 0-.477.165-.55.495-.844 4.803-2.292 8.855-4.345 12.155-2.054 3.264-4.987 6.398-8.8 9.405-.697.55-1.485.77-2.365.66-.88-.073-1.632-.44-2.255-1.1l-2.585-2.805c-.55-.586-.789-1.301-.715-2.145.073-.843.44-1.503 1.1-1.98 4.143-3.153 6.948-6.765 8.415-10.835 1.466-4.107 2.218-10.468 2.255-19.085 0-.293-.147-.44-.44-.44h-9.075c-.844 0-1.577-.312-2.2-.935-.624-.623-.935-1.357-.935-2.2v-2.53c0-.843.311-1.576.935-2.2.623-.623 1.356-.935 2.2-.935h43.23Z" fill="url(#b)"/>
    <path d="M139.324 6.55c.843 0 1.576.312 2.2.935.623.624.935 1.357.935 2.2V43.4c0 1.87-.037 3.337-.11 4.4a10.97 10.97 0 0 1-.495 2.97c-.294.917-.624 1.577-.99 1.98-.367.404-.99.752-1.87 1.045a9.247 9.247 0 0 1-2.695.495c-.954.074-2.292.11-4.015.11-1.137 0-3.209-.055-6.215-.165-.88-.036-1.65-.367-2.31-.99-.66-.623-1.009-1.375-1.045-2.255l-.11-2.255c-.074-.843.183-1.558.77-2.145.586-.623 1.283-.917 2.09-.88 2.383.11 3.923.165 4.62.165 1.1 0 1.741-.073 1.925-.22.183-.183.275-.752.275-1.705v-8.03c0-.33-.165-.495-.495-.495h-25.96c-.33 0-.495.165-.495.495v15.345c0 .843-.312 1.577-.935 2.2-.624.623-1.357.935-2.2.935h-3.905c-.844 0-1.577-.311-2.2-.935-.624-.623-.935-1.357-.935-2.2V9.685c0-.843.311-1.576.935-2.2.623-.623 1.356-.935 2.2-.935h41.03Zm-25.465 20.13V15.57c0-.33-.165-.495-.495-.495h-7.535c-.33 0-.495.165-.495.495v11.11c0 .33.165.495.495.495h7.535c.33 0 .495-.165.495-.495Zm18.425 0V15.57c0-.33-.165-.495-.495-.495h-7.59c-.294 0-.44.165-.44.495v11.11c0 .33.146.495.44.495h7.59c.33 0 .495-.165.495-.495Z" fill="url(#c)"/>
    <path d="M177.164 35.205c.256.88.22 1.742-.11 2.585a3.65 3.65 0 0 1-1.705 1.925c-7.444 4.107-15.015 7.645-22.715 10.615-.807.294-1.577.239-2.31-.165-.734-.367-1.229-.953-1.485-1.76l-.715-2.585c-.257-.843-.184-1.65.22-2.42.403-.806 1.008-1.356 1.815-1.65l1.32-.495c.293-.11.44-.33.44-.66V9.41c0-.843.311-1.576.935-2.2.623-.623 1.356-.935 2.2-.935h3.63c.843 0 1.576.312 2.2.935.623.624.935 1.357.935 2.2v26.95c0 .33.146.422.44.275a231.766 231.766 0 0 0 10.56-5.225c.696-.403 1.411-.44 2.145-.11.77.293 1.265.825 1.485 1.595l.715 2.31Zm-8.03-25.19c.623-.586 1.375-.861 2.255-.825.916.037 1.668.367 2.255.99 2.786 2.934 5.573 6.215 8.36 9.845.513.697.715 1.485.605 2.365-.11.843-.514 1.54-1.21 2.09l-2.31 1.815a3.11 3.11 0 0 1-2.255.66c-.844-.11-1.522-.495-2.035-1.155-2.86-3.593-5.555-6.71-8.085-9.35-.587-.586-.862-1.301-.825-2.145.036-.843.366-1.558.99-2.145l2.255-2.145Zm23.925 28.49c2.456 3.227 4.601 6.197 6.435 8.91.476.733.623 1.522.44 2.365-.184.807-.642 1.448-1.375 1.925l-2.805 1.815c-.697.477-1.467.623-2.31.44-.844-.183-1.504-.623-1.98-1.32-1.724-2.566-3.117-4.547-4.18-5.94-.22-.293-.459-.33-.715-.11-3.374 2.933-8.745 5.812-16.115 8.635-.844.33-1.687.33-2.53 0-.807-.293-1.43-.825-1.87-1.595l-1.595-2.86c-.404-.733-.477-1.485-.22-2.255a2.641 2.641 0 0 1 1.595-1.595c2.566-1.026 4.675-1.907 6.325-2.64a38.525 38.525 0 0 0 4.84-2.585c1.613-1.026 2.841-1.962 3.685-2.805.88-.88 1.723-2.053 2.53-3.52.806-1.503 1.375-2.951 1.705-4.345.366-1.393.696-3.3.99-5.72.293-2.42.476-4.84.55-7.26.073-2.42.11-5.5.11-9.24 0-.843.311-1.558.935-2.145.623-.623 1.356-.935 2.2-.935h3.905c.843 0 1.576.312 2.2.935.623.624.935 1.357.935 2.2-.074 7.04-.385 12.834-.935 17.38-.55 4.547-1.485 8.378-2.805 11.495-.11.294-.092.55.055.77Z" fill="url(#d)"/>
    <path d="M250.974 45.325c.843 0 1.576.312 2.2.935.623.623.935 1.357.935 2.2v2.53c0 .843-.312 1.577-.935 2.2-.624.623-1.357.935-2.2.935h-44.33c-.844 0-1.577-.312-2.2-.935-.624-.623-.935-1.356-.935-2.2v-2.53c0-.843.311-1.577.935-2.2.623-.623 1.356-.935 2.2-.935h14.41c.33 0 .495-.165.495-.495V8.86c0-.843.293-1.576.88-2.2.623-.623 1.356-.935 2.2-.935h4.235c.843 0 1.576.312 2.2.935.623.624.935 1.357.935 2.2v10.12c0 .33.146.495.44.495h15.785c.843 0 1.576.312 2.2.935.623.623.935 1.357.935 2.2v2.255c0 .844-.312 1.577-.935 2.2-.624.623-1.357.935-2.2.935h-15.785c-.294 0-.44.147-.44.44v16.39c0 .33.146.495.44.495h18.535Z" fill="url(#e)"/>
    <path d="M273.669 24.4h3.28c.693 0 1.493.094 2.4.28.933.16 1.546.294 1.84.4.32.107.706.454 1.16 1.04.453.587.72 1.093.8 1.52.08.427.186 1.24.32 2.44.133 1.174.2 2.227.2 3.16v4.36c0 5.307-.654 9.107-1.96 11.4-1.28 2.267-3.16 3.4-5.64 3.4-1.787 0-3.987-.32-6.6-.96a2.193 2.193 0 0 1-1.4-1.08c-.32-.56-.4-1.146-.24-1.76l.48-2c.16-.587.506-1.04 1.04-1.36a2.285 2.285 0 0 1 1.72-.28c1.706.427 2.84.64 3.4.64 1.066 0 1.6-3.067 1.6-9.2 0-2.773-.107-4.4-.32-4.88-.187-.48-.88-.72-2.08-.72h-2.76c-.24 0-.387.107-.44.32-1.44 6.454-3.32 12.96-5.64 19.52a2.182 2.182 0 0 1-1.2 1.32 2.16 2.16 0 0 1-1.72.16l-1.88-.64a2.193 2.193 0 0 1-1.32-1.12c-.267-.533-.294-1.106-.08-1.72a182.072 182.072 0 0 0 4.92-17.48c.053-.24-.027-.36-.24-.36h-2.56c-.614 0-1.147-.227-1.6-.68-.454-.453-.68-.986-.68-1.6v-1.84c0-.613.226-1.146.68-1.6.453-.453.986-.68 1.6-.68h3.88c.213 0 .346-.106.4-.32.186-.933.48-2.613.88-5.04.106-.64.413-1.16.92-1.56.506-.427 1.08-.613 1.72-.56l2.04.16c.613.054 1.12.32 1.52.8.4.454.56.974.48 1.56a108.47 108.47 0 0 1-.72 4.64c-.054.214.04.32.28.32h1.52Zm17.16-.24c1.68 4.96 3.24 10.187 4.68 15.68a2.08 2.08 0 0 1-.24 1.68c-.32.533-.787.867-1.4 1l-2.56.64a2.285 2.285 0 0 1-1.72-.28 2.223 2.223 0 0 1-1.04-1.4c-1.28-4.88-2.854-10.08-4.72-15.6a2.053 2.053 0 0 1 .16-1.68 1.935 1.935 0 0 1 1.32-1l2.56-.64c.613-.16 1.2-.08 1.76.24.586.293.986.747 1.2 1.36Z" fill="url(#f)"/>
    <path d="M320.269 30.8c4.213 0 7.266.813 9.16 2.44 1.893 1.6 2.84 4.12 2.84 7.56 0 3.574-1.534 6.4-4.6 8.48-3.04 2.08-7.374 3.12-13 3.12-2.64 0-5.294-.12-7.96-.36-.614-.053-1.12-.333-1.52-.84a2.174 2.174 0 0 1-.52-1.64l.2-1.92c.053-.613.32-1.107.8-1.48.48-.4 1.026-.573 1.64-.52 2.853.24 5.306.36 7.36.36 2.8 0 5-.48 6.6-1.44 1.6-.986 2.4-2.24 2.4-3.76 0-2.4-1.534-3.6-4.6-3.6-2.16 0-5.227 1.04-9.2 3.12-1.334.72-2.747.934-4.24.64l-2.32-.52a2.255 2.255 0 0 1-1.48-.92 2.32 2.32 0 0 1-.36-1.72c.426-2.48.853-5.133 1.28-7.96.106-.64.4-1.146.88-1.52.506-.4 1.08-.573 1.72-.52l2.84.2c.613.053 1.12.334 1.52.84.4.48.56 1.027.48 1.64a50.552 50.552 0 0 1-.28 1.92c-.107.8-.187 1.387-.24 1.76v.04h.08c3.786-2.267 7.293-3.4 10.52-3.4Zm-10.72-11.36c5.493.56 10.706.88 15.64.96.613 0 1.146.227 1.6.68.453.454.68.987.68 1.6v1.84c0 .614-.227 1.147-.68 1.6-.454.453-.987.68-1.6.68-5.814-.08-11.307-.4-16.48-.96a2.15 2.15 0 0 1-1.52-.8 2.244 2.244 0 0 1-.44-1.68l.24-1.92a2.11 2.11 0 0 1 .88-1.48c.506-.4 1.066-.573 1.68-.52Z" fill="url(#g)"/>
    <path d="M374.259 30.035c4.583 3.85 8.195 6.967 10.835 9.35.623.587.971 1.32 1.045 2.2.073.843-.184 1.595-.77 2.255l-2.805 3.245c-.55.66-1.265 1.027-2.145 1.1-.844.037-1.577-.238-2.2-.825a327.996 327.996 0 0 0-10.56-9.24c-.257-.22-.495-.183-.715.11-4.95 5.17-10.78 9.68-17.49 13.53-.77.44-1.595.569-2.475.385a3.28 3.28 0 0 1-2.09-1.375l-2.695-3.74c-.477-.697-.642-1.448-.495-2.255.183-.806.641-1.43 1.375-1.87 6.013-3.666 11.055-7.627 15.125-11.88.22-.183.22-.385 0-.605a390.208 390.208 0 0 0-10.615-8.03c-.697-.513-1.1-1.173-1.21-1.98-.11-.843.11-1.595.66-2.255l2.64-3.135c.55-.697 1.246-1.1 2.09-1.21a3.36 3.36 0 0 1 2.42.605 344.486 344.486 0 0 1 10.505 7.92c.073.073.183.11.33.11.146-.037.238-.11.275-.22 2.603-3.923 4.766-8.177 6.49-12.76.293-.806.843-1.43 1.65-1.87.806-.476 1.631-.623 2.475-.44l4.565.99c.843.184 1.485.624 1.925 1.32.44.697.531 1.449.275 2.255-1.944 6.16-4.785 12.027-8.525 17.6-.22.257-.184.495.11.715Z" fill="url(#h)"/>
    <path d="M442.404 26.46c.843.11 1.54.514 2.09 1.21.55.66.77 1.412.66 2.255-1.064 7.774-3.557 13.439-7.48 16.995-3.924 3.52-9.644 5.372-17.16 5.555-.844.037-1.577-.257-2.2-.88-.587-.623-.88-1.375-.88-2.255V10.785c0-.843.311-1.576.935-2.2.623-.623 1.356-.935 2.2-.935h4.455c.843 0 1.576.312 2.2.935.623.624.935 1.357.935 2.2V40.87c0 .33.146.422.44.275 1.87-.88 3.3-2.273 4.29-4.18 1.026-1.943 1.796-4.712 2.31-8.305.11-.843.495-1.521 1.155-2.035.696-.55 1.466-.77 2.31-.66l3.74.495ZM409.899 7.65c.843 0 1.576.312 2.2.935.623.624.935 1.357.935 2.2V19.2c0 7.003-.349 12.54-1.045 16.61-.66 4.07-1.779 7.315-3.355 9.735-1.577 2.42-3.869 4.51-6.875 6.27-.77.44-1.577.55-2.42.33-.844-.22-1.522-.697-2.035-1.43l-2.365-3.63c-.477-.697-.624-1.448-.44-2.255.22-.806.696-1.43 1.43-1.87 1.503-.953 2.658-1.907 3.465-2.86.843-.99 1.521-2.42 2.035-4.29.513-1.87.825-3.997.935-6.38.146-2.42.22-5.83.22-10.23v-8.415c0-.843.311-1.576.935-2.2.623-.623 1.356-.935 2.2-.935h4.18Z" fill="url(#i)"/>
    <path d="M483.544 23.82c5.463 5.977 10.56 11.404 15.29 16.28.623.623.935 1.375.935 2.255 0 .844-.312 1.577-.935 2.2l-3.41 3.465c-.624.623-1.357.935-2.2.935-.807 0-1.522-.293-2.145-.88-4.144-4.29-9.259-9.827-15.345-16.61-2.127-2.42-3.594-4.015-4.4-4.785-.807-.77-1.467-1.155-1.98-1.155-.44 0-1.009.459-1.705 1.375-.66.88-1.815 2.585-3.465 5.115-3.85 5.794-6.014 9.02-6.49 9.68-.477.697-1.155 1.137-2.035 1.32-.88.147-1.669-.018-2.365-.495l-3.63-2.365c-.734-.477-1.174-1.118-1.32-1.925-.147-.843.018-1.631.495-2.365l5.995-8.635c4.07-5.903 6.691-9.46 7.865-10.67 1.32-1.356 2.805-2.108 4.455-2.255a33.085 33.085 0 0 1 2.2-.055c2.64 0 4.601.44 5.885 1.32 1.283.88 4.051 3.63 8.305 8.25Zm3.685-7.37a3.85 3.85 0 0 0 2.75 1.1c1.063 0 1.961-.367 2.695-1.1.77-.77 1.155-1.686 1.155-2.75 0-1.063-.385-1.961-1.155-2.695-.734-.77-1.632-1.155-2.695-1.155-1.064 0-1.98.385-2.75 1.155-.734.733-1.1 1.632-1.1 2.695 0 1.064.366 1.98 1.1 2.75Zm-3.465-8.965c1.723-1.723 3.795-2.585 6.215-2.585s4.491.862 6.215 2.585c1.723 1.724 2.585 3.795 2.585 6.215s-.862 4.492-2.585 6.215c-1.724 1.724-3.795 2.585-6.215 2.585s-4.492-.861-6.215-2.585c-1.724-1.723-2.585-3.795-2.585-6.215s.861-4.491 2.585-6.215Z" fill="url(#j)"/>
    <path d="m548.664 10.29 2.255 2.695c.586.66.843 1.43.77 2.31-.074.88-.44 1.595-1.1 2.145-3.85 3.19-8.049 6.013-12.595 8.47-.294.183-.44.422-.44.715V49.89c0 .843-.312 1.577-.935 2.2-.624.623-1.357.935-2.2.935h-5.005c-.844 0-1.577-.311-2.2-.935-.624-.623-.935-1.357-.935-2.2V31.795c0-.11-.055-.202-.165-.275a.364.364 0 0 0-.33-.055c-5.244 1.98-10.377 3.41-15.4 4.29-.844.147-1.632-.037-2.365-.55a3.1 3.1 0 0 1-1.265-2.035l-.55-3.465c-.147-.843.018-1.595.495-2.255a3.325 3.325 0 0 1 2.035-1.32 80.522 80.522 0 0 0 19.085-5.94c6.196-2.823 11.678-6.215 16.445-10.175a3.194 3.194 0 0 1 2.255-.77c.88.037 1.595.385 2.145 1.045Z" fill="url(#k)"/>
    <path d="m576.934 33.885-.165 2.97c-.257 5.647-.624 9.79-1.1 12.43-.44 2.64-1.027 4.327-1.76 5.06-.734.77-1.889 1.155-3.465 1.155-1.32 0-3.685-.055-7.095-.165a3.277 3.277 0 0 1-2.255-.99c-.587-.623-.899-1.375-.935-2.255l-.055-2.255c-.037-.843.256-1.558.88-2.145.623-.587 1.356-.861 2.2-.825.44 0 .898.018 1.375.055.513 0 .898.018 1.155.055h.605c.44 0 .715-.202.825-.605.183-.66.366-3.043.55-7.15 0-.33-.165-.495-.495-.495h-.385c-.33 0-.495.147-.495.44a2.8 2.8 0 0 1-1.045 1.98 2.849 2.849 0 0 1-2.145.66l-1.925-.11c-.844-.073-1.559-.44-2.145-1.1-.55-.66-.789-1.411-.715-2.255.586-6.893.99-12.503 1.21-16.83.073-.88.421-1.613 1.045-2.2a3.073 3.073 0 0 1 2.255-.935h4.345c.33 0 .495-.146.495-.44v-3.19c0-.33-.165-.495-.495-.495h-5.17c-.844 0-1.577-.312-2.2-.935-.624-.623-.935-1.356-.935-2.2v-1.98c0-.843.311-1.576.935-2.2.623-.623 1.356-.935 2.2-.935h11.605c.843 0 1.576.312 2.2.935.623.624.935 1.357.935 2.2v14.08c0 .843-.312 1.577-.935 2.2-.624.623-1.357.935-2.2.935h-5.775c-.33 0-.495.165-.495.495-.037.367-.074.935-.11 1.705a37.76 37.76 0 0 1-.11 1.705c0 .33.146.495.44.495h6.325c.843 0 1.558.312 2.145.935.623.624.916 1.357.88 2.2Zm30.525 6.38a193.665 193.665 0 0 1 2.585 11.55c.183.843.018 1.65-.495 2.42-.514.77-1.192 1.229-2.035 1.375l-1.815.385c-.844.184-1.614.019-2.31-.495-.697-.477-1.119-1.118-1.265-1.925a27.919 27.919 0 0 0-.275-1.43c-.074-.33-.239-.477-.495-.44-7.187 1.247-14.245 2.09-21.175 2.53-.844.037-1.595-.238-2.255-.825-.66-.586-1.027-1.301-1.1-2.145l-.11-1.98a3.007 3.007 0 0 1 .77-2.2c.586-.66 1.301-1.026 2.145-1.1 1.796-.11 4.528-.348 8.195-.715.33 0 .495-.165.495-.495v-4.18c0-.33-.165-.495-.495-.495h-1.32c-.257 0-.385.128-.385.385a2.33 2.33 0 0 1-.715 1.705c-.44.44-.99.66-1.65.66h-2.475c-.844 0-1.577-.312-2.2-.935-.624-.623-.935-1.356-.935-2.2V24.81c0-.843.311-1.576.935-2.2.623-.623 1.356-.935 2.2-.935h6.545c.33 0 .495-.165.495-.495v-.77c0-.256-.147-.385-.44-.385-1.43.11-3.63.239-6.6.385-.88.037-1.65-.22-2.31-.77-.624-.587-.972-1.32-1.045-2.2l-.165-2.42a2.231 2.231 0 0 1 .605-1.705c.476-.513 1.045-.788 1.705-.825.22 0 .385-.128.495-.385 1.246-2.896 1.998-4.693 2.255-5.39.33-.843.88-1.503 1.65-1.98a3.642 3.642 0 0 1 2.53-.605l3.465.44c.77.074 1.338.44 1.705 1.1.403.66.458 1.339.165 2.035-.184.404-.459 1.027-.825 1.87-.33.807-.587 1.412-.77 1.815-.037.11-.019.202.055.275.073.074.165.11.275.11 1.356-.11 3.391-.312 6.105-.605.293 0 .366-.146.22-.44-.037-.037-.055-.073-.055-.11 0-.073-.019-.128-.055-.165-.33-.77-.33-1.521 0-2.255.33-.733.898-1.246 1.705-1.54l2.035-.77a3.22 3.22 0 0 1 2.475.11c.843.33 1.466.899 1.87 1.705.953 2.054 2.236 5.097 3.85 9.13a2.955 2.955 0 0 1-.11 2.365c-.367.77-.954 1.284-1.76 1.54l-2.365.77c0 .037.018.092.055.165h.77c.843 0 1.576.312 2.2.935.623.623.935 1.357.935 2.2v13.97c0 .367-.129.678-.385.935a1.274 1.274 0 0 1-.935.385c-.11 0-.165.055-.165.165Zm-19.14-6.985v-4.785c0-.33-.165-.495-.495-.495h-1.265c-.294 0-.44.165-.44.495v4.785c0 .33.146.495.44.495h1.265c.33 0 .495-.165.495-.495Zm9.625-13.805v1.705c0 .33.165.495.495.495h2.86c.293 0 .403-.165.33-.495l-.825-2.145c-.147-.293-.33-.403-.55-.33a9.33 9.33 0 0 1-.88.11c-.404.037-.715.073-.935.11-.33.073-.495.257-.495.55Zm0 9.02v4.785c0 .33.165.495.495.495h1.21c.33 0 .495-.165.495-.495v-4.785c0-.33-.165-.495-.495-.495h-1.21c-.33 0-.495.165-.495.495Zm6.435 11.715c.036 0 .055-.018.055-.055 0-.037-.019-.055-.055-.055h-5.94c-.33 0-.495.165-.495.495v3.025c0 .11.036.22.11.33.11.11.22.147.33.11.183 0 .44-.037.77-.11.366-.073.641-.11.825-.11.073 0 .146-.037.22-.11.11-.11.146-.201.11-.275-.11-.623 0-1.191.33-1.705.366-.55.843-.898 1.43-1.045l2.31-.495Z" fill="url(#l)"/>
    <path d="M631.659 5.56c.843.147 1.503.569 1.98 1.265.513.66.696 1.394.55 2.2-.844 4.034-1.962 7.59-3.355 10.67-.147.367-.22.678-.22.935v31.735c0 .843-.312 1.577-.935 2.2-.624.623-1.357.935-2.2.935h-3.905c-.844 0-1.577-.312-2.2-.935-.624-.623-.935-1.356-.935-2.2v-18.59c0-.073-.037-.128-.11-.165-.074-.036-.129-.018-.165.055a47.12 47.12 0 0 1-1.65 1.98c-.514.55-1.137.752-1.87.605-.697-.147-1.192-.568-1.485-1.265l-1.815-4.345a4.351 4.351 0 0 1-.165-2.64c.22-.916.66-1.705 1.32-2.365 4.73-4.62 8.103-10.615 10.12-17.985.22-.843.696-1.521 1.43-2.035a3.163 3.163 0 0 1 2.42-.55l3.19.495Zm29.7 27.61c.88.11 1.595.495 2.145 1.155.586.623.861 1.375.825 2.255-.11 3.373-.275 6.069-.495 8.085-.22 2.017-.477 3.703-.77 5.06-.294 1.357-.77 2.347-1.43 2.97-.66.66-1.357 1.118-2.09 1.375-.697.257-1.724.459-3.08.605-1.577.184-3.41.275-5.5.275-1.467 0-3.3-.037-5.5-.11-2.53-.11-4.327-.403-5.39-.88-1.064-.44-1.815-1.265-2.255-2.475-.404-1.173-.605-3.135-.605-5.885V8.86c0-.843.311-1.576.935-2.2.623-.623 1.356-.935 2.2-.935h3.905c.843 0 1.576.312 2.2.935.623.624.935 1.357.935 2.2v9.9c0 .11.055.202.165.275.11.037.201.018.275-.055 3.006-1.833 6.013-4.015 9.02-6.545.66-.55 1.411-.788 2.255-.715.88.037 1.613.367 2.2.99l2.145 2.53c.586.66.843 1.412.77 2.255-.074.843-.44 1.54-1.1 2.09-5.134 4.18-10.249 7.59-15.345 10.23-.257.11-.385.33-.385.66V44.5c0 .697.055 1.137.165 1.32.11.147.421.257.935.33.806.074 1.54.11 2.2.11.88 0 1.613-.036 2.2-.11.403-.036.678-.11.825-.22.183-.147.348-.587.495-1.32.183-.733.293-1.742.33-3.025.073-1.32.146-3.337.22-6.05.036-.843.366-1.54.99-2.09.623-.55 1.338-.788 2.145-.715l3.465.44Z" fill="url(#m)"/>
    <path d="M717.844 48.57c.733.294 1.21.825 1.43 1.595.22.77.11 1.485-.33 2.145l-1.155 1.705c-.477.733-1.174 1.228-2.09 1.485-.88.257-1.724.202-2.53-.165a143.707 143.707 0 0 0-12.32-4.675c-.77-.256-1.32-.752-1.65-1.485-.294-.733-.257-1.466.11-2.2l.22-.385c.073-.073.073-.165 0-.275-.074-.11-.165-.165-.275-.165h-9.9c-.11 0-.202.055-.275.165-.037.074-.019.147.055.22.44.734.55 1.522.33 2.365-.22.843-.715 1.449-1.485 1.815-3.557 1.76-7.975 3.373-13.255 4.84-.88.257-1.742.184-2.585-.22-.807-.367-1.43-.953-1.87-1.76l-.88-1.65c-.404-.697-.44-1.411-.11-2.145.33-.733.88-1.191 1.65-1.375 2.31-.587 4.711-1.283 7.205-2.09.036 0 .055-.018.055-.055 0-.073-.019-.11-.055-.11h-2.695c-.844 0-1.577-.311-2.2-.935-.624-.623-.935-1.357-.935-2.2V24.26c0-.843.311-1.577.935-2.2.623-.623 1.356-.935 2.2-.935h37.73c.843 0 1.576.312 2.2.935.623.623.935 1.357.935 2.2v18.755c0 .843-.312 1.577-.935 2.2-.624.623-1.357.935-2.2.935h-1.705c-.037 0-.055.037-.055.11 0 .037.018.055.055.055 1.906.587 4.033 1.339 6.38 2.255Zm-35.365-21.175v.715c0 .294.165.44.495.44h22.66c.33 0 .495-.146.495-.44v-.715c0-.33-.165-.495-.495-.495h-22.66c-.33 0-.495.165-.495.495Zm0 6.325v.66c0 .33.165.495.495.495h22.66c.33 0 .495-.165.495-.495v-.66c0-.33-.165-.495-.495-.495h-22.66c-.33 0-.495.165-.495.495Zm0 6.325v.715c0 .294.165.44.495.44h22.66c.33 0 .495-.147.495-.44v-.715c0-.33-.165-.495-.495-.495h-22.66c-.33 0-.495.165-.495.495Zm32.89-34.595c.843 0 1.576.312 2.2.935.623.624.935 1.357.935 2.2v8.03c0 .844-.312 1.577-.935 2.2-.624.623-1.357.935-2.2.935h-42.13c-.844 0-1.577-.311-2.2-.935-.624-.623-.935-1.357-.935-2.2v-8.03c0-.843.311-1.576.935-2.2.623-.623 1.356-.935 2.2-.935h42.13Zm-31.515 8.58v-1.54c0-.293-.165-.44-.495-.44h-4.015c-.294 0-.44.147-.44.44v1.54c0 .33.146.495.44.495h4.015c.33 0 .495-.165.495-.495Zm13.2 0v-1.54c0-.293-.165-.44-.495-.44h-4.565c-.294 0-.44.147-.44.44v1.54c0 .33.146.495.44.495h4.565c.33 0 .495-.165.495-.495Zm12.65 0v-1.54c0-.293-.165-.44-.495-.44h-4.015c-.294 0-.44.147-.44.44v1.54c0 .33.146.495.44.495h4.015c.33 0 .495-.165.495-.495Z" fill="url(#n)"/>
    <path d="M773.174 44.775a3.762 3.762 0 0 1 1.485 2.035c.256.807.201 1.613-.165 2.42l-1.65 3.19a2.852 2.852 0 0 1-1.815 1.43c-.77.22-1.504.092-2.2-.385a49.44 49.44 0 0 1-6.545-5.5c-.22-.22-.44-.202-.66.055-1.687 1.87-3.612 3.648-5.775 5.335-.66.514-1.412.697-2.255.55-.844-.147-1.504-.587-1.98-1.32l-1.595-2.53c-.037-.036-.092-.055-.165-.055-.074.037-.11.092-.11.165v2.2c0 .843-.312 1.577-.935 2.2-.624.623-1.357.935-2.2.935h-3.355c-.844 0-1.577-.312-2.2-.935-.624-.623-.935-1.356-.935-2.2V49.01c0-.33-.147-.458-.44-.385-5.134.697-9.442 1.228-12.925 1.595a3.295 3.295 0 0 1-2.31-.66c-.697-.55-1.082-1.247-1.155-2.09l-.165-2.09c-.074-.843.165-1.595.715-2.255.55-.697 1.246-1.081 2.09-1.155.293-.073.44-.238.44-.495v-26.84c0-.256-.129-.385-.385-.385-.66 0-1.229-.22-1.705-.66a2.428 2.428 0 0 1-.66-1.705v-2.75c0-.843.311-1.576.935-2.2.623-.623 1.356-.935 2.2-.935h23.43c.77 0 1.448.257 2.035.77.586.514.935 1.137 1.045 1.87.073.257.238.349.495.275.33-.11.678-.165 1.045-.165h16.28c.843 0 1.576.312 2.2.935.623.623.935 1.357.935 2.2v5.39c-.99 8.58-3.172 15.987-6.545 22.22-.184.257-.147.514.11.77a28.842 28.842 0 0 0 5.39 4.51Zm-33.055-5.06v-2.97c0-.33-.165-.495-.495-.495h-3.465c-.294 0-.44.165-.44.495v3.575c0 .11.036.22.11.33.073.074.165.092.275.055.403-.036.99-.11 1.76-.22s1.356-.183 1.76-.22c.33-.073.495-.257.495-.55Zm0-10.835v-3.19c0-.293-.165-.44-.495-.44h-3.465c-.294 0-.44.147-.44.44v3.19c0 .33.146.495.44.495h3.465c.33 0 .495-.165.495-.495Zm0-11v-3.19c0-.293-.165-.44-.495-.44h-3.465c-.294 0-.44.147-.44.44v3.19c0 .33.146.495.44.495h3.465c.33 0 .495-.165.495-.495Zm21.395 11.495c1.246-3.447 2.126-7.333 2.64-11.66 0-.293-.147-.44-.44-.44h-8.91c-.807 0-1.522-.275-2.145-.825a3.347 3.347 0 0 1-.99-2.145c0-.22-.147-.293-.44-.22-.33.11-.679.165-1.045.165-.294 0-.44.147-.44.44v30.415c0 .074.018.129.055.165a.234.234 0 0 0 .22 0l.33-.33c2.016-1.54 3.758-3.208 5.225-5.005.256-.257.293-.532.11-.825-2.494-4.4-4.437-9.662-5.83-15.785a3.14 3.14 0 0 1 .385-2.365c.476-.733 1.136-1.192 1.98-1.375l3.025-.77c.843-.183 1.613-.037 2.31.44.733.44 1.173 1.064 1.32 1.87.733 3.41 1.503 6.142 2.31 8.195a.354.354 0 0 0 .165.165c.073 0 .128-.037.165-.11Z" fill="url(#o)"/>
    <path d="M824.874 12.875c.843 0 1.576.312 2.2.935.623.623.935 1.357.935 2.2v24.53c0 .843-.312 1.577-.935 2.2-.624.623-1.357.935-2.2.935h-4.125c-.66 0-1.229-.22-1.705-.66a2.428 2.428 0 0 1-.66-1.705c0-.257-.129-.385-.385-.385h-8.47c-.33 0-.495.165-.495.495v11.495c0 .843-.312 1.577-.935 2.2-.624.623-1.357.935-2.2.935h-4.18c-.844 0-1.577-.311-2.2-.935-.624-.623-.935-1.357-.935-2.2V41.42c0-.33-.165-.495-.495-.495h-8.47c-.257 0-.385.129-.385.385a2.33 2.33 0 0 1-.715 1.705c-.44.44-.99.66-1.65.66h-4.125c-.844 0-1.577-.311-2.2-.935-.624-.623-.935-1.357-.935-2.2V16.01c0-.843.311-1.577.935-2.2.623-.623 1.356-.935 2.2-.935h15.345c.33 0 .495-.165.495-.495V7.485c0-.843.311-1.576.935-2.2.623-.623 1.356-.935 2.2-.935h4.18c.843 0 1.576.312 2.2.935.623.624.935 1.357.935 2.2v4.895c0 .33.165.495.495.495h15.345Zm-35.145 19.8h8.36c.33 0 .495-.165.495-.495V21.84c0-.293-.165-.44-.495-.44h-8.36c-.33 0-.495.147-.495.44v10.34c0 .33.165.495.495.495Zm28.655-.495V21.84c0-.293-.165-.44-.495-.44h-8.36c-.33 0-.495.147-.495.44v10.34c0 .33.165.495.495.495h8.36c.33 0 .495-.165.495-.495Z" fill="url(#p)"/>
    <path d="M862.329 9.85c.843 0 1.558.312 2.145.935.586.623.861 1.357.825 2.2l-1.32 20.68a3.511 3.511 0 0 1-1.045 2.255c-.624.587-1.375.88-2.255.88h-3.63c-.88 0-1.632-.293-2.255-.88a3.501 3.501 0 0 1-1.045-2.255l-1.32-20.68c-.037-.843.238-1.576.825-2.2.586-.623 1.301-.935 2.145-.935h6.93Zm-1.1 31.35c.843 0 1.576.312 2.2.935.623.623.935 1.357.935 2.2v2.53c0 .843-.312 1.577-.935 2.2-.624.623-1.357.935-2.2.935h-4.73c-.844 0-1.577-.312-2.2-.935-.624-.623-.935-1.356-.935-2.2v-2.53c0-.843.311-1.577.935-2.2.623-.623 1.356-.935 2.2-.935h4.73Z" fill="url(#q)"/>
    <path d="M29.59 41.2c.843 0 1.577.312 2.2.935.623.623.935 1.357.935 2.2v2.53c0 .843-.312 1.577-.935 2.2-.623.623-1.357.935-2.2.935H7.26c-.843 0-1.577-.312-2.2-.935-.623-.623-.935-1.356-.935-2.2v-2.53c0-2.053.825-3.721 2.475-5.005 6.05-4.62 9.992-8.03 11.825-10.23 1.833-2.237 2.75-4.437 2.75-6.6 0-2.75-1.558-4.125-4.675-4.125-2.2 0-5.06.623-8.58 1.87-.733.257-1.412.183-2.035-.22-.623-.44-.935-1.026-.935-1.76v-3.63c0-.953.275-1.796.825-2.53.55-.77 1.265-1.265 2.145-1.485 3.593-.88 7.003-1.32 10.23-1.32 4.583 0 8.103 1.082 10.56 3.245 2.493 2.127 3.74 5.079 3.74 8.855 0 3.007-.953 5.867-2.86 8.58-1.87 2.713-5.573 6.399-11.11 11.055-.037.037-.055.074-.055.11 0 .037.018.055.055.055h11.11ZM85.424 7.375c.843 0 1.576.312 2.2.935.623.624.935 1.357.935 2.2v2.53c0 .844-.312 1.577-.935 2.2-.624.623-1.357.935-2.2.935h-22.77c-.33 0-.495.165-.495.495 0 2.2-.055 4.253-.165 6.16 0 .33.146.495.44.495h19.14c.843 0 1.576.312 2.2.935.623.623.935 1.357.935 2.2v5.115c0 3.153-.055 5.83-.165 8.03-.11 2.164-.257 4.125-.44 5.885-.184 1.724-.495 3.117-.935 4.18-.44 1.027-.917 1.889-1.43 2.585-.477.733-1.174 1.265-2.09 1.595-.917.33-1.852.55-2.805.66-.954.11-2.182.165-3.685.165-2.274 0-5.354-.11-9.24-.33-.917-.036-1.687-.385-2.31-1.045-.587-.623-.917-1.393-.99-2.31l-.22-2.805c-.074-.843.183-1.558.77-2.145.586-.587 1.301-.843 2.145-.77 3.116.22 5.665.33 7.645.33 1.026 0 1.76-.22 2.2-.66.44-.44.77-1.466.99-3.08.256-1.65.385-4.253.385-7.81v-1.705c0-.33-.165-.495-.495-.495H61.554c-.294 0-.477.165-.55.495-.844 4.803-2.292 8.855-4.345 12.155-2.054 3.264-4.987 6.398-8.8 9.405-.697.55-1.485.77-2.365.66-.88-.073-1.632-.44-2.255-1.1l-2.585-2.805c-.55-.586-.789-1.301-.715-2.145.073-.843.44-1.503 1.1-1.98 4.143-3.153 6.948-6.765 8.415-10.835 1.466-4.107 2.218-10.468 2.255-19.085 0-.293-.147-.44-.44-.44h-9.075c-.844 0-1.577-.312-2.2-.935-.624-.623-.935-1.357-.935-2.2v-2.53c0-.843.311-1.576.935-2.2.623-.623 1.356-.935 2.2-.935h43.23ZM139.324 6.55c.843 0 1.576.312 2.2.935.623.624.935 1.357.935 2.2V43.4c0 1.87-.037 3.337-.11 4.4a10.97 10.97 0 0 1-.495 2.97c-.294.917-.624 1.577-.99 1.98-.367.404-.99.752-1.87 1.045a9.247 9.247 0 0 1-2.695.495c-.954.074-2.292.11-4.015.11-1.137 0-3.209-.055-6.215-.165-.88-.036-1.65-.367-2.31-.99-.66-.623-1.009-1.375-1.045-2.255l-.11-2.255c-.074-.843.183-1.558.77-2.145.586-.623 1.283-.917 2.09-.88 2.383.11 3.923.165 4.62.165 1.1 0 1.741-.073 1.925-.22.183-.183.275-.752.275-1.705v-8.03c0-.33-.165-.495-.495-.495h-25.96c-.33 0-.495.165-.495.495v15.345c0 .843-.312 1.577-.935 2.2-.624.623-1.357.935-2.2.935h-3.905c-.844 0-1.577-.311-2.2-.935-.624-.623-.935-1.357-.935-2.2V9.685c0-.843.311-1.576.935-2.2.623-.623 1.356-.935 2.2-.935h41.03Zm-25.465 20.13V15.57c0-.33-.165-.495-.495-.495h-7.535c-.33 0-.495.165-.495.495v11.11c0 .33.165.495.495.495h7.535c.33 0 .495-.165.495-.495Zm18.425 0V15.57c0-.33-.165-.495-.495-.495h-7.59c-.294 0-.44.165-.44.495v11.11c0 .33.146.495.44.495h7.59c.33 0 .495-.165.495-.495ZM177.164 35.205c.256.88.22 1.742-.11 2.585a3.65 3.65 0 0 1-1.705 1.925c-7.444 4.107-15.015 7.645-22.715 10.615-.807.294-1.577.239-2.31-.165-.734-.367-1.229-.953-1.485-1.76l-.715-2.585c-.257-.843-.184-1.65.22-2.42.403-.806 1.008-1.356 1.815-1.65l1.32-.495c.293-.11.44-.33.44-.66V9.41c0-.843.311-1.576.935-2.2.623-.623 1.356-.935 2.2-.935h3.63c.843 0 1.576.312 2.2.935.623.624.935 1.357.935 2.2v26.95c0 .33.146.422.44.275a231.766 231.766 0 0 0 10.56-5.225c.696-.403 1.411-.44 2.145-.11.77.293 1.265.825 1.485 1.595l.715 2.31Zm-8.03-25.19c.623-.586 1.375-.861 2.255-.825.916.037 1.668.367 2.255.99 2.786 2.934 5.573 6.215 8.36 9.845.513.697.715 1.485.605 2.365-.11.843-.514 1.54-1.21 2.09l-2.31 1.815a3.11 3.11 0 0 1-2.255.66c-.844-.11-1.522-.495-2.035-1.155-2.86-3.593-5.555-6.71-8.085-9.35-.587-.586-.862-1.301-.825-2.145.036-.843.366-1.558.99-2.145l2.255-2.145Zm23.925 28.49c2.456 3.227 4.601 6.197 6.435 8.91.476.733.623 1.522.44 2.365-.184.807-.642 1.448-1.375 1.925l-2.805 1.815c-.697.477-1.467.623-2.31.44-.844-.183-1.504-.623-1.98-1.32-1.724-2.566-3.117-4.547-4.18-5.94-.22-.293-.459-.33-.715-.11-3.374 2.933-8.745 5.812-16.115 8.635-.844.33-1.687.33-2.53 0-.807-.293-1.43-.825-1.87-1.595l-1.595-2.86c-.404-.733-.477-1.485-.22-2.255a2.641 2.641 0 0 1 1.595-1.595c2.566-1.026 4.675-1.907 6.325-2.64a38.525 38.525 0 0 0 4.84-2.585c1.613-1.026 2.841-1.962 3.685-2.805.88-.88 1.723-2.053 2.53-3.52.806-1.503 1.375-2.951 1.705-4.345.366-1.393.696-3.3.99-5.72.293-2.42.476-4.84.55-7.26.073-2.42.11-5.5.11-9.24 0-.843.311-1.558.935-2.145.623-.623 1.356-.935 2.2-.935h3.905c.843 0 1.576.312 2.2.935.623.624.935 1.357.935 2.2-.074 7.04-.385 12.834-.935 17.38-.55 4.547-1.485 8.378-2.805 11.495-.11.294-.092.55.055.77ZM250.974 45.325c.843 0 1.576.312 2.2.935.623.623.935 1.357.935 2.2v2.53c0 .843-.312 1.577-.935 2.2-.624.623-1.357.935-2.2.935h-44.33c-.844 0-1.577-.312-2.2-.935-.624-.623-.935-1.356-.935-2.2v-2.53c0-.843.311-1.577.935-2.2.623-.623 1.356-.935 2.2-.935h14.41c.33 0 .495-.165.495-.495V8.86c0-.843.293-1.576.88-2.2.623-.623 1.356-.935 2.2-.935h4.235c.843 0 1.576.312 2.2.935.623.624.935 1.357.935 2.2v10.12c0 .33.146.495.44.495h15.785c.843 0 1.576.312 2.2.935.623.623.935 1.357.935 2.2v2.255c0 .844-.312 1.577-.935 2.2-.624.623-1.357.935-2.2.935h-15.785c-.294 0-.44.147-.44.44v16.39c0 .33.146.495.44.495h18.535ZM273.669 24.4h3.28c.693 0 1.493.094 2.4.28.933.16 1.546.294 1.84.4.32.107.706.454 1.16 1.04.453.587.72 1.093.8 1.52.08.427.186 1.24.32 2.44.133 1.174.2 2.227.2 3.16v4.36c0 5.307-.654 9.107-1.96 11.4-1.28 2.267-3.16 3.4-5.64 3.4-1.787 0-3.987-.32-6.6-.96a2.193 2.193 0 0 1-1.4-1.08c-.32-.56-.4-1.146-.24-1.76l.48-2c.16-.587.506-1.04 1.04-1.36a2.285 2.285 0 0 1 1.72-.28c1.706.427 2.84.64 3.4.64 1.066 0 1.6-3.067 1.6-9.2 0-2.773-.107-4.4-.32-4.88-.187-.48-.88-.72-2.08-.72h-2.76c-.24 0-.387.107-.44.32-1.44 6.454-3.32 12.96-5.64 19.52a2.182 2.182 0 0 1-1.2 1.32 2.16 2.16 0 0 1-1.72.16l-1.88-.64a2.193 2.193 0 0 1-1.32-1.12c-.267-.533-.294-1.106-.08-1.72a182.072 182.072 0 0 0 4.92-17.48c.053-.24-.027-.36-.24-.36h-2.56c-.614 0-1.147-.227-1.6-.68-.454-.453-.68-.986-.68-1.6v-1.84c0-.613.226-1.146.68-1.6.453-.453.986-.68 1.6-.68h3.88c.213 0 .346-.106.4-.32.186-.933.48-2.613.88-5.04.106-.64.413-1.16.92-1.56.506-.427 1.08-.613 1.72-.56l2.04.16c.613.054 1.12.32 1.52.8.4.454.56.974.48 1.56a108.47 108.47 0 0 1-.72 4.64c-.054.214.04.32.28.32h1.52Zm17.16-.24c1.68 4.96 3.24 10.187 4.68 15.68a2.08 2.08 0 0 1-.24 1.68c-.32.533-.787.867-1.4 1l-2.56.64a2.285 2.285 0 0 1-1.72-.28 2.223 2.223 0 0 1-1.04-1.4c-1.28-4.88-2.854-10.08-4.72-15.6a2.053 2.053 0 0 1 .16-1.68 1.935 1.935 0 0 1 1.32-1l2.56-.64c.613-.16 1.2-.08 1.76.24.586.293.986.747 1.2 1.36ZM320.269 30.8c4.213 0 7.266.813 9.16 2.44 1.893 1.6 2.84 4.12 2.84 7.56 0 3.574-1.534 6.4-4.6 8.48-3.04 2.08-7.374 3.12-13 3.12-2.64 0-5.294-.12-7.96-.36-.614-.053-1.12-.333-1.52-.84a2.174 2.174 0 0 1-.52-1.64l.2-1.92c.053-.613.32-1.107.8-1.48.48-.4 1.026-.573 1.64-.52 2.853.24 5.306.36 7.36.36 2.8 0 5-.48 6.6-1.44 1.6-.986 2.4-2.24 2.4-3.76 0-2.4-1.534-3.6-4.6-3.6-2.16 0-5.227 1.04-9.2 3.12-1.334.72-2.747.934-4.24.64l-2.32-.52a2.255 2.255 0 0 1-1.48-.92 2.32 2.32 0 0 1-.36-1.72c.426-2.48.853-5.133 1.28-7.96.106-.64.4-1.146.88-1.52.506-.4 1.08-.573 1.72-.52l2.84.2c.613.053 1.12.334 1.52.84.4.48.56 1.027.48 1.64a50.552 50.552 0 0 1-.28 1.92c-.107.8-.187 1.387-.24 1.76v.04h.08c3.786-2.267 7.293-3.4 10.52-3.4Zm-10.72-11.36c5.493.56 10.706.88 15.64.96.613 0 1.146.227 1.6.68.453.454.68.987.68 1.6v1.84c0 .614-.227 1.147-.68 1.6-.454.453-.987.68-1.6.68-5.814-.08-11.307-.4-16.48-.96a2.15 2.15 0 0 1-1.52-.8 2.244 2.244 0 0 1-.44-1.68l.24-1.92a2.11 2.11 0 0 1 .88-1.48c.506-.4 1.066-.573 1.68-.52ZM374.259 30.035c4.583 3.85 8.195 6.967 10.835 9.35.623.587.971 1.32 1.045 2.2.073.843-.184 1.595-.77 2.255l-2.805 3.245c-.55.66-1.265 1.027-2.145 1.1-.844.037-1.577-.238-2.2-.825a327.996 327.996 0 0 0-10.56-9.24c-.257-.22-.495-.183-.715.11-4.95 5.17-10.78 9.68-17.49 13.53-.77.44-1.595.569-2.475.385a3.28 3.28 0 0 1-2.09-1.375l-2.695-3.74c-.477-.697-.642-1.448-.495-2.255.183-.806.641-1.43 1.375-1.87 6.013-3.666 11.055-7.627 15.125-11.88.22-.183.22-.385 0-.605a390.208 390.208 0 0 0-10.615-8.03c-.697-.513-1.1-1.173-1.21-1.98-.11-.843.11-1.595.66-2.255l2.64-3.135c.55-.697 1.246-1.1 2.09-1.21a3.36 3.36 0 0 1 2.42.605 344.486 344.486 0 0 1 10.505 7.92c.073.073.183.11.33.11.146-.037.238-.11.275-.22 2.603-3.923 4.766-8.177 6.49-12.76.293-.806.843-1.43 1.65-1.87.806-.476 1.631-.623 2.475-.44l4.565.99c.843.184 1.485.624 1.925 1.32.44.697.531 1.449.275 2.255-1.944 6.16-4.785 12.027-8.525 17.6-.22.257-.184.495.11.715ZM442.404 26.46c.843.11 1.54.514 2.09 1.21.55.66.77 1.412.66 2.255-1.064 7.774-3.557 13.439-7.48 16.995-3.924 3.52-9.644 5.372-17.16 5.555-.844.037-1.577-.257-2.2-.88-.587-.623-.88-1.375-.88-2.255V10.785c0-.843.311-1.576.935-2.2.623-.623 1.356-.935 2.2-.935h4.455c.843 0 1.576.312 2.2.935.623.624.935 1.357.935 2.2V40.87c0 .33.146.422.44.275 1.87-.88 3.3-2.273 4.29-4.18 1.026-1.943 1.796-4.712 2.31-8.305.11-.843.495-1.521 1.155-2.035.696-.55 1.466-.77 2.31-.66l3.74.495ZM409.899 7.65c.843 0 1.576.312 2.2.935.623.624.935 1.357.935 2.2V19.2c0 7.003-.349 12.54-1.045 16.61-.66 4.07-1.779 7.315-3.355 9.735-1.577 2.42-3.869 4.51-6.875 6.27-.77.44-1.577.55-2.42.33-.844-.22-1.522-.697-2.035-1.43l-2.365-3.63c-.477-.697-.624-1.448-.44-2.255.22-.806.696-1.43 1.43-1.87 1.503-.953 2.658-1.907 3.465-2.86.843-.99 1.521-2.42 2.035-4.29.513-1.87.825-3.997.935-6.38.146-2.42.22-5.83.22-10.23v-8.415c0-.843.311-1.576.935-2.2.623-.623 1.356-.935 2.2-.935h4.18ZM483.544 23.82c5.463 5.977 10.56 11.404 15.29 16.28.623.623.935 1.375.935 2.255 0 .844-.312 1.577-.935 2.2l-3.41 3.465c-.624.623-1.357.935-2.2.935-.807 0-1.522-.293-2.145-.88-4.144-4.29-9.259-9.827-15.345-16.61-2.127-2.42-3.594-4.015-4.4-4.785-.807-.77-1.467-1.155-1.98-1.155-.44 0-1.009.459-1.705 1.375-.66.88-1.815 2.585-3.465 5.115-3.85 5.794-6.014 9.02-6.49 9.68-.477.697-1.155 1.137-2.035 1.32-.88.147-1.669-.018-2.365-.495l-3.63-2.365c-.734-.477-1.174-1.118-1.32-1.925-.147-.843.018-1.631.495-2.365l5.995-8.635c4.07-5.903 6.691-9.46 7.865-10.67 1.32-1.356 2.805-2.108 4.455-2.255a33.085 33.085 0 0 1 2.2-.055c2.64 0 4.601.44 5.885 1.32 1.283.88 4.051 3.63 8.305 8.25Zm3.685-7.37a3.85 3.85 0 0 0 2.75 1.1c1.063 0 1.961-.367 2.695-1.1.77-.77 1.155-1.686 1.155-2.75 0-1.063-.385-1.961-1.155-2.695-.734-.77-1.632-1.155-2.695-1.155-1.064 0-1.98.385-2.75 1.155-.734.733-1.1 1.632-1.1 2.695 0 1.064.366 1.98 1.1 2.75Zm-3.465-8.965c1.723-1.723 3.795-2.585 6.215-2.585s4.491.862 6.215 2.585c1.723 1.724 2.585 3.795 2.585 6.215s-.862 4.492-2.585 6.215c-1.724 1.724-3.795 2.585-6.215 2.585s-4.492-.861-6.215-2.585c-1.724-1.723-2.585-3.795-2.585-6.215s.861-4.491 2.585-6.215ZM548.664 10.29l2.255 2.695c.586.66.843 1.43.77 2.31-.074.88-.44 1.595-1.1 2.145-3.85 3.19-8.049 6.013-12.595 8.47-.294.183-.44.422-.44.715V49.89c0 .843-.312 1.577-.935 2.2-.624.623-1.357.935-2.2.935h-5.005c-.844 0-1.577-.311-2.2-.935-.624-.623-.935-1.357-.935-2.2V31.795c0-.11-.055-.202-.165-.275a.364.364 0 0 0-.33-.055c-5.244 1.98-10.377 3.41-15.4 4.29-.844.147-1.632-.037-2.365-.55a3.1 3.1 0 0 1-1.265-2.035l-.55-3.465c-.147-.843.018-1.595.495-2.255a3.325 3.325 0 0 1 2.035-1.32 80.522 80.522 0 0 0 19.085-5.94c6.196-2.823 11.678-6.215 16.445-10.175a3.194 3.194 0 0 1 2.255-.77c.88.037 1.595.385 2.145 1.045ZM576.934 33.885l-.165 2.97c-.257 5.647-.624 9.79-1.1 12.43-.44 2.64-1.027 4.327-1.76 5.06-.734.77-1.889 1.155-3.465 1.155-1.32 0-3.685-.055-7.095-.165a3.277 3.277 0 0 1-2.255-.99c-.587-.623-.899-1.375-.935-2.255l-.055-2.255c-.037-.843.256-1.558.88-2.145.623-.587 1.356-.861 2.2-.825.44 0 .898.018 1.375.055.513 0 .898.018 1.155.055h.605c.44 0 .715-.202.825-.605.183-.66.366-3.043.55-7.15 0-.33-.165-.495-.495-.495h-.385c-.33 0-.495.147-.495.44a2.8 2.8 0 0 1-1.045 1.98 2.849 2.849 0 0 1-2.145.66l-1.925-.11c-.844-.073-1.559-.44-2.145-1.1-.55-.66-.789-1.411-.715-2.255.586-6.893.99-12.503 1.21-16.83.073-.88.421-1.613 1.045-2.2a3.073 3.073 0 0 1 2.255-.935h4.345c.33 0 .495-.146.495-.44v-3.19c0-.33-.165-.495-.495-.495h-5.17c-.844 0-1.577-.312-2.2-.935-.624-.623-.935-1.356-.935-2.2v-1.98c0-.843.311-1.576.935-2.2.623-.623 1.356-.935 2.2-.935h11.605c.843 0 1.576.312 2.2.935.623.624.935 1.357.935 2.2v14.08c0 .843-.312 1.577-.935 2.2-.624.623-1.357.935-2.2.935h-5.775c-.33 0-.495.165-.495.495-.037.367-.074.935-.11 1.705a37.76 37.76 0 0 1-.11 1.705c0 .33.146.495.44.495h6.325c.843 0 1.558.312 2.145.935.623.624.916 1.357.88 2.2Zm30.525 6.38a193.665 193.665 0 0 1 2.585 11.55c.183.843.018 1.65-.495 2.42-.514.77-1.192 1.229-2.035 1.375l-1.815.385c-.844.184-1.614.019-2.31-.495-.697-.477-1.119-1.118-1.265-1.925a27.919 27.919 0 0 0-.275-1.43c-.074-.33-.239-.477-.495-.44-7.187 1.247-14.245 2.09-21.175 2.53-.844.037-1.595-.238-2.255-.825-.66-.586-1.027-1.301-1.1-2.145l-.11-1.98a3.007 3.007 0 0 1 .77-2.2c.586-.66 1.301-1.026 2.145-1.1 1.796-.11 4.528-.348 8.195-.715.33 0 .495-.165.495-.495v-4.18c0-.33-.165-.495-.495-.495h-1.32c-.257 0-.385.128-.385.385a2.33 2.33 0 0 1-.715 1.705c-.44.44-.99.66-1.65.66h-2.475c-.844 0-1.577-.312-2.2-.935-.624-.623-.935-1.356-.935-2.2V24.81c0-.843.311-1.576.935-2.2.623-.623 1.356-.935 2.2-.935h6.545c.33 0 .495-.165.495-.495v-.77c0-.256-.147-.385-.44-.385-1.43.11-3.63.239-6.6.385-.88.037-1.65-.22-2.31-.77-.624-.587-.972-1.32-1.045-2.2l-.165-2.42a2.231 2.231 0 0 1 .605-1.705c.476-.513 1.045-.788 1.705-.825.22 0 .385-.128.495-.385 1.246-2.896 1.998-4.693 2.255-5.39.33-.843.88-1.503 1.65-1.98a3.642 3.642 0 0 1 2.53-.605l3.465.44c.77.074 1.338.44 1.705 1.1.403.66.458 1.339.165 2.035-.184.404-.459 1.027-.825 1.87-.33.807-.587 1.412-.77 1.815-.037.11-.019.202.055.275.073.074.165.11.275.11 1.356-.11 3.391-.312 6.105-.605.293 0 .366-.146.22-.44-.037-.037-.055-.073-.055-.11 0-.073-.019-.128-.055-.165-.33-.77-.33-1.521 0-2.255.33-.733.898-1.246 1.705-1.54l2.035-.77a3.22 3.22 0 0 1 2.475.11c.843.33 1.466.899 1.87 1.705.953 2.054 2.236 5.097 3.85 9.13a2.955 2.955 0 0 1-.11 2.365c-.367.77-.954 1.284-1.76 1.54l-2.365.77c0 .037.018.092.055.165h.77c.843 0 1.576.312 2.2.935.623.623.935 1.357.935 2.2v13.97c0 .367-.129.678-.385.935a1.274 1.274 0 0 1-.935.385c-.11 0-.165.055-.165.165Zm-19.14-6.985v-4.785c0-.33-.165-.495-.495-.495h-1.265c-.294 0-.44.165-.44.495v4.785c0 .33.146.495.44.495h1.265c.33 0 .495-.165.495-.495Zm9.625-13.805v1.705c0 .33.165.495.495.495h2.86c.293 0 .403-.165.33-.495l-.825-2.145c-.147-.293-.33-.403-.55-.33a9.33 9.33 0 0 1-.88.11c-.404.037-.715.073-.935.11-.33.073-.495.257-.495.55Zm0 9.02v4.785c0 .33.165.495.495.495h1.21c.33 0 .495-.165.495-.495v-4.785c0-.33-.165-.495-.495-.495h-1.21c-.33 0-.495.165-.495.495Zm6.435 11.715c.036 0 .055-.018.055-.055 0-.037-.019-.055-.055-.055h-5.94c-.33 0-.495.165-.495.495v3.025c0 .11.036.22.11.33.11.11.22.147.33.11.183 0 .44-.037.77-.11.366-.073.641-.11.825-.11.073 0 .146-.037.22-.11.11-.11.146-.201.11-.275-.11-.623 0-1.191.33-1.705.366-.55.843-.898 1.43-1.045l2.31-.495ZM631.659 5.56c.843.147 1.503.569 1.98 1.265.513.66.696 1.394.55 2.2-.844 4.034-1.962 7.59-3.355 10.67-.147.367-.22.678-.22.935v31.735c0 .843-.312 1.577-.935 2.2-.624.623-1.357.935-2.2.935h-3.905c-.844 0-1.577-.312-2.2-.935-.624-.623-.935-1.356-.935-2.2v-18.59c0-.073-.037-.128-.11-.165-.074-.036-.129-.018-.165.055a47.12 47.12 0 0 1-1.65 1.98c-.514.55-1.137.752-1.87.605-.697-.147-1.192-.568-1.485-1.265l-1.815-4.345a4.351 4.351 0 0 1-.165-2.64c.22-.916.66-1.705 1.32-2.365 4.73-4.62 8.103-10.615 10.12-17.985.22-.843.696-1.521 1.43-2.035a3.163 3.163 0 0 1 2.42-.55l3.19.495Zm29.7 27.61c.88.11 1.595.495 2.145 1.155.586.623.861 1.375.825 2.255-.11 3.373-.275 6.069-.495 8.085-.22 2.017-.477 3.703-.77 5.06-.294 1.357-.77 2.347-1.43 2.97-.66.66-1.357 1.118-2.09 1.375-.697.257-1.724.459-3.08.605-1.577.184-3.41.275-5.5.275-1.467 0-3.3-.037-5.5-.11-2.53-.11-4.327-.403-5.39-.88-1.064-.44-1.815-1.265-2.255-2.475-.404-1.173-.605-3.135-.605-5.885V8.86c0-.843.311-1.576.935-2.2.623-.623 1.356-.935 2.2-.935h3.905c.843 0 1.576.312 2.2.935.623.624.935 1.357.935 2.2v9.9c0 .11.055.202.165.275.11.037.201.018.275-.055 3.006-1.833 6.013-4.015 9.02-6.545.66-.55 1.411-.788 2.255-.715.88.037 1.613.367 2.2.99l2.145 2.53c.586.66.843 1.412.77 2.255-.074.843-.44 1.54-1.1 2.09-5.134 4.18-10.249 7.59-15.345 10.23-.257.11-.385.33-.385.66V44.5c0 .697.055 1.137.165 1.32.11.147.421.257.935.33.806.074 1.54.11 2.2.11.88 0 1.613-.036 2.2-.11.403-.036.678-.11.825-.22.183-.147.348-.587.495-1.32.183-.733.293-1.742.33-3.025.073-1.32.146-3.337.22-6.05.036-.843.366-1.54.99-2.09.623-.55 1.338-.788 2.145-.715l3.465.44ZM717.844 48.57c.733.294 1.21.825 1.43 1.595.22.77.11 1.485-.33 2.145l-1.155 1.705c-.477.733-1.174 1.228-2.09 1.485-.88.257-1.724.202-2.53-.165a143.707 143.707 0 0 0-12.32-4.675c-.77-.256-1.32-.752-1.65-1.485-.294-.733-.257-1.466.11-2.2l.22-.385c.073-.073.073-.165 0-.275-.074-.11-.165-.165-.275-.165h-9.9c-.11 0-.202.055-.275.165-.037.074-.019.147.055.22.44.734.55 1.522.33 2.365-.22.843-.715 1.449-1.485 1.815-3.557 1.76-7.975 3.373-13.255 4.84-.88.257-1.742.184-2.585-.22-.807-.367-1.43-.953-1.87-1.76l-.88-1.65c-.404-.697-.44-1.411-.11-2.145.33-.733.88-1.191 1.65-1.375 2.31-.587 4.711-1.283 7.205-2.09.036 0 .055-.018.055-.055 0-.073-.019-.11-.055-.11h-2.695c-.844 0-1.577-.311-2.2-.935-.624-.623-.935-1.357-.935-2.2V24.26c0-.843.311-1.577.935-2.2.623-.623 1.356-.935 2.2-.935h37.73c.843 0 1.576.312 2.2.935.623.623.935 1.357.935 2.2v18.755c0 .843-.312 1.577-.935 2.2-.624.623-1.357.935-2.2.935h-1.705c-.037 0-.055.037-.055.11 0 .037.018.055.055.055 1.906.587 4.033 1.339 6.38 2.255Zm-35.365-21.175v.715c0 .294.165.44.495.44h22.66c.33 0 .495-.146.495-.44v-.715c0-.33-.165-.495-.495-.495h-22.66c-.33 0-.495.165-.495.495Zm0 6.325v.66c0 .33.165.495.495.495h22.66c.33 0 .495-.165.495-.495v-.66c0-.33-.165-.495-.495-.495h-22.66c-.33 0-.495.165-.495.495Zm0 6.325v.715c0 .294.165.44.495.44h22.66c.33 0 .495-.147.495-.44v-.715c0-.33-.165-.495-.495-.495h-22.66c-.33 0-.495.165-.495.495Zm32.89-34.595c.843 0 1.576.312 2.2.935.623.624.935 1.357.935 2.2v8.03c0 .844-.312 1.577-.935 2.2-.624.623-1.357.935-2.2.935h-42.13c-.844 0-1.577-.311-2.2-.935-.624-.623-.935-1.357-.935-2.2v-8.03c0-.843.311-1.576.935-2.2.623-.623 1.356-.935 2.2-.935h42.13Zm-31.515 8.58v-1.54c0-.293-.165-.44-.495-.44h-4.015c-.294 0-.44.147-.44.44v1.54c0 .33.146.495.44.495h4.015c.33 0 .495-.165.495-.495Zm13.2 0v-1.54c0-.293-.165-.44-.495-.44h-4.565c-.294 0-.44.147-.44.44v1.54c0 .33.146.495.44.495h4.565c.33 0 .495-.165.495-.495Zm12.65 0v-1.54c0-.293-.165-.44-.495-.44h-4.015c-.294 0-.44.147-.44.44v1.54c0 .33.146.495.44.495h4.015c.33 0 .495-.165.495-.495ZM773.174 44.775a3.762 3.762 0 0 1 1.485 2.035c.256.807.201 1.613-.165 2.42l-1.65 3.19a2.852 2.852 0 0 1-1.815 1.43c-.77.22-1.504.092-2.2-.385a49.44 49.44 0 0 1-6.545-5.5c-.22-.22-.44-.202-.66.055-1.687 1.87-3.612 3.648-5.775 5.335-.66.514-1.412.697-2.255.55-.844-.147-1.504-.587-1.98-1.32l-1.595-2.53c-.037-.036-.092-.055-.165-.055-.074.037-.11.092-.11.165v2.2c0 .843-.312 1.577-.935 2.2-.624.623-1.357.935-2.2.935h-3.355c-.844 0-1.577-.312-2.2-.935-.624-.623-.935-1.356-.935-2.2V49.01c0-.33-.147-.458-.44-.385-5.134.697-9.442 1.228-12.925 1.595a3.295 3.295 0 0 1-2.31-.66c-.697-.55-1.082-1.247-1.155-2.09l-.165-2.09c-.074-.843.165-1.595.715-2.255.55-.697 1.246-1.081 2.09-1.155.293-.073.44-.238.44-.495v-26.84c0-.256-.129-.385-.385-.385-.66 0-1.229-.22-1.705-.66a2.428 2.428 0 0 1-.66-1.705v-2.75c0-.843.311-1.576.935-2.2.623-.623 1.356-.935 2.2-.935h23.43c.77 0 1.448.257 2.035.77.586.514.935 1.137 1.045 1.87.073.257.238.349.495.275.33-.11.678-.165 1.045-.165h16.28c.843 0 1.576.312 2.2.935.623.623.935 1.357.935 2.2v5.39c-.99 8.58-3.172 15.987-6.545 22.22-.184.257-.147.514.11.77a28.842 28.842 0 0 0 5.39 4.51Zm-33.055-5.06v-2.97c0-.33-.165-.495-.495-.495h-3.465c-.294 0-.44.165-.44.495v3.575c0 .11.036.22.11.33.073.074.165.092.275.055.403-.036.99-.11 1.76-.22s1.356-.183 1.76-.22c.33-.073.495-.257.495-.55Zm0-10.835v-3.19c0-.293-.165-.44-.495-.44h-3.465c-.294 0-.44.147-.44.44v3.19c0 .33.146.495.44.495h3.465c.33 0 .495-.165.495-.495Zm0-11v-3.19c0-.293-.165-.44-.495-.44h-3.465c-.294 0-.44.147-.44.44v3.19c0 .33.146.495.44.495h3.465c.33 0 .495-.165.495-.495Zm21.395 11.495c1.246-3.447 2.126-7.333 2.64-11.66 0-.293-.147-.44-.44-.44h-8.91c-.807 0-1.522-.275-2.145-.825a3.347 3.347 0 0 1-.99-2.145c0-.22-.147-.293-.44-.22-.33.11-.679.165-1.045.165-.294 0-.44.147-.44.44v30.415c0 .074.018.129.055.165a.234.234 0 0 0 .22 0l.33-.33c2.016-1.54 3.758-3.208 5.225-5.005.256-.257.293-.532.11-.825-2.494-4.4-4.437-9.662-5.83-15.785a3.14 3.14 0 0 1 .385-2.365c.476-.733 1.136-1.192 1.98-1.375l3.025-.77c.843-.183 1.613-.037 2.31.44.733.44 1.173 1.064 1.32 1.87.733 3.41 1.503 6.142 2.31 8.195a.354.354 0 0 0 .165.165c.073 0 .128-.037.165-.11ZM824.874 12.875c.843 0 1.576.312 2.2.935.623.623.935 1.357.935 2.2v24.53c0 .843-.312 1.577-.935 2.2-.624.623-1.357.935-2.2.935h-4.125c-.66 0-1.229-.22-1.705-.66a2.428 2.428 0 0 1-.66-1.705c0-.257-.129-.385-.385-.385h-8.47c-.33 0-.495.165-.495.495v11.495c0 .843-.312 1.577-.935 2.2-.624.623-1.357.935-2.2.935h-4.18c-.844 0-1.577-.311-2.2-.935-.624-.623-.935-1.357-.935-2.2V41.42c0-.33-.165-.495-.495-.495h-8.47c-.257 0-.385.129-.385.385a2.33 2.33 0 0 1-.715 1.705c-.44.44-.99.66-1.65.66h-4.125c-.844 0-1.577-.311-2.2-.935-.624-.623-.935-1.357-.935-2.2V16.01c0-.843.311-1.577.935-2.2.623-.623 1.356-.935 2.2-.935h15.345c.33 0 .495-.165.495-.495V7.485c0-.843.311-1.576.935-2.2.623-.623 1.356-.935 2.2-.935h4.18c.843 0 1.576.312 2.2.935.623.624.935 1.357.935 2.2v4.895c0 .33.165.495.495.495h15.345Zm-35.145 19.8h8.36c.33 0 .495-.165.495-.495V21.84c0-.293-.165-.44-.495-.44h-8.36c-.33 0-.495.147-.495.44v10.34c0 .33.165.495.495.495Zm28.655-.495V21.84c0-.293-.165-.44-.495-.44h-8.36c-.33 0-.495.147-.495.44v10.34c0 .33.165.495.495.495h8.36c.33 0 .495-.165.495-.495ZM862.329 9.85c.843 0 1.558.312 2.145.935.586.623.861 1.357.825 2.2l-1.32 20.68a3.511 3.511 0 0 1-1.045 2.255c-.624.587-1.375.88-2.255.88h-3.63c-.88 0-1.632-.293-2.255-.88a3.501 3.501 0 0 1-1.045-2.255l-1.32-20.68c-.037-.843.238-1.576.825-2.2.586-.623 1.301-.935 2.145-.935h6.93Zm-1.1 31.35c.843 0 1.576.312 2.2.935.623.623.935 1.357.935 2.2v2.53c0 .843-.312 1.577-.935 2.2-.624.623-1.357.935-2.2.935h-4.73c-.844 0-1.577-.312-2.2-.935-.624-.623-.935-1.356-.935-2.2v-2.53c0-.843.311-1.577.935-2.2.623-.623 1.356-.935 2.2-.935h4.73Z" stroke="#000" stroke-width="8" mask="url(#r)"/>
    <defs>
        <linearGradient id="a" x1="88.117" y1="-.99" x2="754.534" y2="77.76" gradientUnits="userSpaceOnUse">
            <stop stop-color="#FF8C00"/>
            <stop offset="1" stop-color="#FFE500"/>
        </linearGradient>
        <linearGradient id="b" x1="88.117" y1="-.99" x2="754.534" y2="77.76" gradientUnits="userSpaceOnUse">
            <stop stop-color="#FF8C00"/>
            <stop offset="1" stop-color="#FFE500"/>
        </linearGradient>
        <linearGradient id="c" x1="88.117" y1="-.99" x2="754.534" y2="77.76" gradientUnits="userSpaceOnUse">
            <stop stop-color="#FF8C00"/>
            <stop offset="1" stop-color="#FFE500"/>
        </linearGradient>
        <linearGradient id="d" x1="88.117" y1="-.99" x2="754.534" y2="77.76" gradientUnits="userSpaceOnUse">
            <stop stop-color="#FF8C00"/>
            <stop offset="1" stop-color="#FFE500"/>
        </linearGradient>
        <linearGradient id="e" x1="88.117" y1="-.99" x2="754.534" y2="77.76" gradientUnits="userSpaceOnUse">
            <stop stop-color="#FF8C00"/>
            <stop offset="1" stop-color="#FFE500"/>
        </linearGradient>
        <linearGradient id="f" x1="88.117" y1="-.99" x2="754.534" y2="77.76" gradientUnits="userSpaceOnUse">
            <stop stop-color="#FF8C00"/>
            <stop offset="1" stop-color="#FFE500"/>
        </linearGradient>
        <linearGradient id="g" x1="88.117" y1="-.99" x2="754.534" y2="77.76" gradientUnits="userSpaceOnUse">
            <stop stop-color="#FF8C00"/>
            <stop offset="1" stop-color="#FFE500"/>
        </linearGradient>
        <linearGradient id="h" x1="88.117" y1="-.99" x2="754.534" y2="77.76" gradientUnits="userSpaceOnUse">
            <stop stop-color="#FF8C00"/>
            <stop offset="1" stop-color="#FFE500"/>
        </linearGradient>
        <linearGradient id="i" x1="88.117" y1="-.99" x2="754.534" y2="77.76" gradientUnits="userSpaceOnUse">
            <stop stop-color="#FF8C00"/>
            <stop offset="1" stop-color="#FFE500"/>
        </linearGradient>
        <linearGradient id="j" x1="88.117" y1="-.99" x2="754.534" y2="77.76" gradientUnits="userSpaceOnUse">
            <stop stop-color="#FF8C00"/>
            <stop offset="1" stop-color="#FFE500"/>
        </linearGradient>
        <linearGradient id="k" x1="88.117" y1="-.99" x2="754.534" y2="77.76" gradientUnits="userSpaceOnUse">
            <stop stop-color="#FF8C00"/>
            <stop offset="1" stop-color="#FFE500"/>
        </linearGradient>
        <linearGradient id="l" x1="88.117" y1="-.99" x2="754.534" y2="77.76" gradientUnits="userSpaceOnUse">
            <stop stop-color="#FF8C00"/>
            <stop offset="1" stop-color="#FFE500"/>
        </linearGradient>
        <linearGradient id="m" x1="88.117" y1="-.99" x2="754.534" y2="77.76" gradientUnits="userSpaceOnUse">
            <stop stop-color="#FF8C00"/>
            <stop offset="1" stop-color="#FFE500"/>
        </linearGradient>
        <linearGradient id="n" x1="88.117" y1="-.99" x2="754.534" y2="77.76" gradientUnits="userSpaceOnUse">
            <stop stop-color="#FF8C00"/>
            <stop offset="1" stop-color="#FFE500"/>
        </linearGradient>
        <linearGradient id="o" x1="88.117" y1="-.99" x2="754.534" y2="77.76" gradientUnits="userSpaceOnUse">
            <stop stop-color="#FF8C00"/>
            <stop offset="1" stop-color="#FFE500"/>
        </linearGradient>
        <linearGradient id="p" x1="88.117" y1="-.99" x2="754.534" y2="77.76" gradientUnits="userSpaceOnUse">
            <stop stop-color="#FF8C00"/>
            <stop offset="1" stop-color="#FFE500"/>
        </linearGradient>
        <linearGradient id="q" x1="88.117" y1="-.99" x2="754.534" y2="77.76" gradientUnits="userSpaceOnUse">
            <stop stop-color="#FF8C00"/>
            <stop offset="1" stop-color="#FFE500"/>
        </linearGradient>
    </defs>
</svg>
