<svg xmlns="http://www.w3.org/2000/svg" width="532" height="142" fill="none" xmlns:v="https://vecta.io/nano"><mask id="A" maskUnits="userSpaceOnUse" x="-.662" y=".725" width="533" height="141" fill="#000"><path fill="#fff" d="M-.662.725h533v141h-533z"/><path d="M135.436 40.2c.843 0 1.576.312 2.2.935s.935 1.357.935 2.2v2.53a3.01 3.01 0 0 1-.935 2.2 3.01 3.01 0 0 1-2.2.935h-22.33c-.844 0-1.577-.312-2.2-.935a3.01 3.01 0 0 1-.935-2.2v-2.53c0-2.053.825-3.722 2.475-5.005 6.05-4.62 9.991-8.03 11.825-10.23 1.833-2.237 2.75-4.437 2.75-6.6 0-2.75-1.559-4.125-4.675-4.125-2.2 0-5.06.623-8.58 1.87-.734.257-1.412.183-2.035-.22-.624-.44-.935-1.027-.935-1.76v-3.63c0-.953.275-1.797.825-2.53.55-.77 1.265-1.265 2.145-1.485 3.593-.88 7.003-1.32 10.23-1.32 4.583 0 8.103 1.082 10.56 3.245 2.493 2.127 3.74 5.078 3.74 8.855 0 3.007-.954 5.867-2.86 8.58-1.87 2.713-5.574 6.398-11.11 11.055-.037.037-.055.073-.055.11s.018.055.055.055h11.11zm55.833-33.825c.844 0 1.577.312 2.2.935a3.01 3.01 0 0 1 .935 2.2v2.53c0 .843-.311 1.577-.935 2.2s-1.356.935-2.2.935h-22.77c-.33 0-.495.165-.495.495l-.165 6.16c0 .33.147.495.44.495h19.14c.844 0 1.577.312 2.2.935a3.01 3.01 0 0 1 .935 2.2v5.115l-.165 8.03-.44 5.885c-.183 1.723-.495 3.117-.935 4.18-.44 1.027-.916 1.888-1.43 2.585-.476.733-1.173 1.265-2.09 1.595a12.46 12.46 0 0 1-2.805.66c-.953.11-2.181.165-3.685.165-2.273 0-5.353-.11-9.24-.33a3.24 3.24 0 0 1-2.31-1.045c-.586-.623-.916-1.393-.99-2.31l-.22-2.805a2.58 2.58 0 0 1 .77-2.145c.587-.587 1.302-.843 2.145-.77l7.645.33c1.027 0 1.76-.22 2.2-.66s.77-1.467.99-3.08c.257-1.65.385-4.253.385-7.81v-1.705c0-.33-.165-.495-.495-.495h-12.485c-.293 0-.476.165-.55.495-.843 4.803-2.291 8.855-4.345 12.155-2.053 3.263-4.986 6.398-8.8 9.405a3.06 3.06 0 0 1-2.365.66 3.4 3.4 0 0 1-2.255-1.1l-2.585-2.805c-.55-.587-.788-1.302-.715-2.145s.44-1.503 1.1-1.98c4.144-3.153 6.949-6.765 8.415-10.835 1.467-4.107 2.219-10.468 2.255-19.085 0-.293-.146-.44-.44-.44h-9.075c-.843 0-1.576-.312-2.2-.935s-.935-1.357-.935-2.2V9.51a3.01 3.01 0 0 1 .935-2.2 3.01 3.01 0 0 1 2.2-.935h43.23zm53.9-.825c.844 0 1.577.312 2.2.935a3.01 3.01 0 0 1 .935 2.2V42.4l-.11 4.4c-.036 1.063-.201 2.053-.495 2.97s-.623 1.577-.99 1.98-.99.752-1.87 1.045c-.843.293-1.741.458-2.695.495l-4.015.11c-1.136 0-3.208-.055-6.215-.165a3.48 3.48 0 0 1-2.31-.99c-.66-.623-1.008-1.375-1.045-2.255l-.11-2.255a2.58 2.58 0 0 1 .77-2.145c.587-.623 1.284-.917 2.09-.88l4.62.165c1.1 0 1.742-.073 1.925-.22.184-.183.275-.752.275-1.705v-8.03c0-.33-.165-.495-.495-.495h-25.96c-.33 0-.495.165-.495.495v15.345c0 .843-.311 1.577-.935 2.2s-1.356.935-2.2.935h-3.905c-.843 0-1.576-.312-2.2-.935s-.935-1.357-.935-2.2V8.685a3.01 3.01 0 0 1 .935-2.2 3.01 3.01 0 0 1 2.2-.935h41.03zm-25.465 20.13V14.57c0-.33-.165-.495-.495-.495h-7.535c-.33 0-.495.165-.495.495v11.11c0 .33.165.495.495.495h7.535c.33 0 .495-.165.495-.495zm18.425 0V14.57c0-.33-.165-.495-.495-.495h-7.59c-.293 0-.44.165-.44.495v11.11c0 .33.147.495.44.495h7.59c.33 0 .495-.165.495-.495zm44.88 8.525c.257.88.22 1.742-.11 2.585s-.898 1.485-1.705 1.925c-7.443 4.107-15.015 7.645-22.715 10.615-.806.293-1.576.238-2.31-.165-.733-.367-1.228-.953-1.485-1.76l-.715-2.585a3.09 3.09 0 0 1 .22-2.42c.404-.807 1.009-1.357 1.815-1.65l1.32-.495c.294-.11.44-.33.44-.66V8.41a3.01 3.01 0 0 1 .935-2.2 3.01 3.01 0 0 1 2.2-.935h3.63c.844 0 1.577.312 2.2.935a3.01 3.01 0 0 1 .935 2.2v26.95c0 .33.147.422.44.275 3.264-1.503 6.784-3.245 10.56-5.225a2.23 2.23 0 0 1 2.145-.11 2.31 2.31 0 0 1 1.485 1.595l.715 2.31zm-8.03-25.19c.624-.587 1.375-.862 2.255-.825.917.037 1.669.367 2.255.99 2.787 2.933 5.574 6.215 8.36 9.845.514.697.715 1.485.605 2.365-.11.843-.513 1.54-1.21 2.09l-2.31 1.815a3.11 3.11 0 0 1-2.255.66c-.843-.11-1.521-.495-2.035-1.155-2.86-3.593-5.555-6.71-8.085-9.35a2.74 2.74 0 0 1-.825-2.145c.037-.843.367-1.558.99-2.145l2.255-2.145zm23.925 28.49c2.457 3.227 4.602 6.197 6.435 8.91.477.733.624 1.522.44 2.365-.183.807-.641 1.448-1.375 1.925l-2.805 1.815a2.85 2.85 0 0 1-2.31.44 3.11 3.11 0 0 1-1.98-1.32c-1.723-2.567-3.116-4.547-4.18-5.94-.22-.293-.458-.33-.715-.11-3.373 2.933-8.745 5.812-16.115 8.635-.843.33-1.686.33-2.53 0-.806-.293-1.43-.825-1.87-1.595l-1.595-2.86c-.403-.733-.476-1.485-.22-2.255a2.64 2.64 0 0 1 1.595-1.595l6.325-2.64c1.65-.733 3.264-1.595 4.84-2.585 1.614-1.027 2.842-1.962 3.685-2.805.88-.88 1.724-2.053 2.53-3.52.807-1.503 1.375-2.952 1.705-4.345.367-1.393.697-3.3.99-5.72a80.59 80.59 0 0 0 .55-7.26c.073-2.42.11-5.5.11-9.24 0-.843.312-1.558.935-2.145a3.01 3.01 0 0 1 2.2-.935h3.905c.844 0 1.577.312 2.2.935a3.01 3.01 0 0 1 .935 2.2c-.073 7.04-.385 12.833-.935 17.38s-1.485 8.378-2.805 11.495c-.11.293-.091.55.055.77zm57.915 6.82c.844 0 1.577.312 2.2.935a3.01 3.01 0 0 1 .935 2.2v2.53c0 .843-.311 1.577-.935 2.2s-1.356.935-2.2.935h-44.33c-.843 0-1.576-.312-2.2-.935s-.935-1.357-.935-2.2v-2.53a3.01 3.01 0 0 1 .935-2.2 3.01 3.01 0 0 1 2.2-.935h14.41c.33 0 .495-.165.495-.495V7.86c0-.843.294-1.577.88-2.2a3.01 3.01 0 0 1 2.2-.935h4.235c.844 0 1.577.312 2.2.935a3.01 3.01 0 0 1 .935 2.2v10.12c0 .33.147.495.44.495h15.785c.844 0 1.577.312 2.2.935a3.01 3.01 0 0 1 .935 2.2v2.255c0 .843-.311 1.577-.935 2.2s-1.356.935-2.2.935h-15.785c-.293 0-.44.147-.44.44v16.39c0 .33.147.495.44.495h18.535zM379.514 23.4h3.28c.694 0 1.494.093 2.4.28l1.84.4c.32.107.707.453 1.16 1.04s.72 1.093.8 1.52.187 1.24.32 2.44c.134 1.173.2 2.227.2 3.16v4.36c0 5.307-.653 9.107-1.96 11.4-1.28 2.267-3.16 3.4-5.64 3.4-1.786 0-3.986-.32-6.6-.96-.613-.16-1.08-.52-1.4-1.08s-.4-1.147-.24-1.76l.48-2c.16-.587.507-1.04 1.04-1.36s1.107-.413 1.72-.28c1.707.427 2.84.64 3.4.64 1.067 0 1.6-3.067 1.6-9.2 0-2.773-.106-4.4-.32-4.88-.186-.48-.88-.72-2.08-.72h-2.76c-.24 0-.386.107-.44.32-1.44 6.453-3.32 12.96-5.64 19.52-.213.613-.613 1.053-1.2 1.32a2.16 2.16 0 0 1-1.72.16l-1.88-.64c-.586-.187-1.026-.56-1.32-1.12-.266-.533-.293-1.107-.08-1.72 1.92-5.707 3.56-11.533 4.92-17.48.054-.24-.026-.36-.24-.36h-2.56a2.19 2.19 0 0 1-1.6-.68 2.19 2.19 0 0 1-.68-1.6v-1.84a2.19 2.19 0 0 1 .68-1.6 2.19 2.19 0 0 1 1.6-.68h3.88c.214 0 .347-.107.4-.32.187-.933.48-2.613.88-5.04.107-.64.414-1.16.92-1.56.507-.427 1.08-.613 1.72-.56l2.04.16a2.15 2.15 0 0 1 1.52.8c.4.453.56.973.48 1.56-.213 1.6-.453 3.147-.72 4.64-.053.213.04.32.28.32h1.52zm17.16-.24c1.68 4.96 3.24 10.187 4.68 15.68.16.587.08 1.147-.24 1.68a2.08 2.08 0 0 1-1.4 1l-2.56.64c-.613.133-1.186.04-1.72-.28s-.88-.787-1.04-1.4c-1.28-4.88-2.853-10.08-4.72-15.6a2.06 2.06 0 0 1 .16-1.68c.294-.533.734-.867 1.32-1l2.56-.64c.614-.16 1.2-.08 1.76.24a2.32 2.32 0 0 1 1.2 1.36zm29.44 6.64c4.214 0 7.267.813 9.16 2.44 1.894 1.6 2.84 4.12 2.84 7.56 0 3.573-1.533 6.4-4.6 8.48-3.04 2.08-7.373 3.12-13 3.12-2.64 0-5.293-.12-7.96-.36-.613-.053-1.12-.333-1.52-.84-.4-.48-.573-1.027-.52-1.64l.2-1.92a2.02 2.02 0 0 1 .8-1.48c.48-.4 1.027-.573 1.64-.52 2.854.24 5.307.36 7.36.36 2.8 0 5-.48 6.6-1.44 1.6-.987 2.4-2.24 2.4-3.76 0-2.4-1.533-3.6-4.6-3.6-2.16 0-5.226 1.04-9.2 3.12-1.333.72-2.746.933-4.24.64l-2.32-.52a2.26 2.26 0 0 1-1.48-.92 2.33 2.33 0 0 1-.36-1.72l1.28-7.96c.107-.64.4-1.147.88-1.52.507-.4 1.08-.573 1.72-.52l2.84.2c.614.053 1.12.333 1.52.84.4.48.56 1.027.48 1.64-.053.453-.146 1.093-.28 1.92l-.24 1.76v.04h.08c3.787-2.267 7.294-3.4 10.52-3.4zm-10.72-11.36c5.494.56 10.707.88 15.64.96.614 0 1.147.227 1.6.68a2.19 2.19 0 0 1 .68 1.6v1.84c0 .613-.226 1.147-.68 1.6s-.986.68-1.6.68c-5.813-.08-11.306-.4-16.48-.96a2.15 2.15 0 0 1-1.52-.8c-.373-.507-.52-1.067-.44-1.68l.24-1.92c.08-.613.374-1.107.88-1.48.507-.4 1.067-.573 1.68-.52zM36.95 111.035l10.835 9.35c.623.587.972 1.32 1.045 2.2.073.843-.183 1.595-.77 2.255l-2.805 3.245c-.55.66-1.265 1.027-2.145 1.1-.843.037-1.577-.238-2.2-.825-3.41-3.117-6.93-6.197-10.56-9.24-.257-.22-.495-.183-.715.11-4.95 5.17-10.78 9.68-17.49 13.53-.77.44-1.595.568-2.475.385a3.28 3.28 0 0 1-2.09-1.375l-2.695-3.74c-.477-.697-.642-1.448-.495-2.255a2.84 2.84 0 0 1 1.375-1.87c6.013-3.667 11.055-7.627 15.125-11.88.22-.183.22-.385 0-.605a388.66 388.66 0 0 0-10.615-8.03c-.697-.513-1.1-1.173-1.21-1.98-.11-.843.11-1.595.66-2.255l2.64-3.135a3.09 3.09 0 0 1 2.09-1.21 3.36 3.36 0 0 1 2.42.605c3.447 2.493 6.948 5.133 10.505 7.92.073.073.183.11.33.11.147-.037.238-.11.275-.22 2.603-3.923 4.767-8.177 6.49-12.76.293-.807.843-1.43 1.65-1.87.807-.477 1.632-.623 2.475-.44l4.565.99c.843.183 1.485.623 1.925 1.32a2.57 2.57 0 0 1 .275 2.255c-1.943 6.16-4.785 12.027-8.525 17.6-.22.257-.183.495.11.715zm68.145-3.575c.843.11 1.54.513 2.09 1.21.55.66.77 1.412.66 2.255-1.063 7.773-3.557 13.438-7.48 16.995-3.923 3.52-9.643 5.372-17.16 5.555-.843.037-1.577-.257-2.2-.88a3.17 3.17 0 0 1-.88-2.255V91.785a3.01 3.01 0 0 1 .935-2.2 3.01 3.01 0 0 1 2.2-.935h4.455a3.01 3.01 0 0 1 2.2.935 3.01 3.01 0 0 1 .935 2.2v30.085c0 .33.147.422.44.275 1.87-.88 3.3-2.273 4.29-4.18 1.027-1.943 1.797-4.712 2.31-8.305.11-.843.495-1.522 1.155-2.035.697-.55 1.467-.77 2.31-.66l3.74.495zM72.59 88.65a3.01 3.01 0 0 1 2.2.935 3.01 3.01 0 0 1 .935 2.2v8.415c0 7.003-.348 12.54-1.045 16.61-.66 4.07-1.778 7.315-3.355 9.735s-3.868 4.51-6.875 6.27c-.77.44-1.577.55-2.42.33s-1.522-.697-2.035-1.43l-2.365-3.63c-.477-.697-.623-1.448-.44-2.255.22-.807.697-1.43 1.43-1.87 1.503-.953 2.658-1.907 3.465-2.86.843-.99 1.522-2.42 2.035-4.29s.825-3.997.935-6.38c.147-2.42.22-5.83.22-10.23v-8.415a3.01 3.01 0 0 1 .935-2.2 3.01 3.01 0 0 1 2.2-.935h4.18zm73.645 16.17l15.29 16.28a3.07 3.07 0 0 1 .935 2.255 3.01 3.01 0 0 1-.935 2.2l-3.41 3.465a3.01 3.01 0 0 1-2.2.935c-.807 0-1.522-.293-2.145-.88-4.143-4.29-9.258-9.827-15.345-16.61-2.127-2.42-3.593-4.015-4.4-4.785s-1.467-1.155-1.98-1.155c-.44 0-1.008.458-1.705 1.375-.66.88-1.815 2.585-3.465 5.115l-6.49 9.68c-.477.697-1.155 1.137-2.035 1.32-.88.147-1.668-.018-2.365-.495l-3.63-2.365c-.733-.477-1.173-1.118-1.32-1.925a3.19 3.19 0 0 1 .495-2.365l5.995-8.635c4.07-5.903 6.692-9.46 7.865-10.67 1.32-1.357 2.805-2.108 4.455-2.255.513-.037 1.247-.055 2.2-.055 2.64 0 4.602.44 5.885 1.32s4.052 3.63 8.305 8.25zm3.685-7.37a3.85 3.85 0 0 0 2.75 1.1c1.063 0 1.962-.367 2.695-1.1.77-.77 1.155-1.687 1.155-2.75s-.385-1.962-1.155-2.695c-.733-.77-1.632-1.155-2.695-1.155s-1.98.385-2.75 1.155c-.733.733-1.1 1.632-1.1 2.695a3.85 3.85 0 0 0 1.1 2.75zm-3.465-8.965a8.47 8.47 0 0 1 6.215-2.585 8.47 8.47 0 0 1 6.215 2.585 8.47 8.47 0 0 1 2.585 6.215 8.47 8.47 0 0 1-2.585 6.215 8.47 8.47 0 0 1-6.215 2.585 8.47 8.47 0 0 1-6.215-2.585 8.47 8.47 0 0 1-2.585-6.215 8.47 8.47 0 0 1 2.585-6.215zm64.9 2.805l2.255 2.695a2.97 2.97 0 0 1 .77 2.31c-.073.88-.44 1.595-1.1 2.145-3.85 3.19-8.048 6.013-12.595 8.47-.293.183-.44.422-.44.715v23.265a3.01 3.01 0 0 1-3.135 3.135h-5.005a3.01 3.01 0 0 1-3.135-3.135v-18.095c0-.11-.055-.202-.165-.275s-.22-.092-.33-.055c-5.243 1.98-10.377 3.41-15.4 4.29-.843.147-1.632-.037-2.365-.55-.697-.513-1.118-1.192-1.265-2.035l-.55-3.465c-.147-.843.018-1.595.495-2.255.513-.697 1.192-1.137 2.035-1.32 6.563-1.173 12.925-3.153 19.085-5.94 6.197-2.823 11.678-6.215 16.445-10.175.66-.55 1.412-.807 2.255-.77.88.037 1.595.385 2.145 1.045zm28.27 23.595l-.165 2.97c-.257 5.647-.623 9.79-1.1 12.43-.44 2.64-1.027 4.327-1.76 5.06-.733.77-1.888 1.155-3.465 1.155-1.32 0-3.685-.055-7.095-.165a3.28 3.28 0 0 1-2.255-.99c-.587-.623-.898-1.375-.935-2.255l-.055-2.255c-.037-.843.257-1.558.88-2.145s1.357-.862 2.2-.825c.44 0 .898.018 1.375.055.513 0 .898.018 1.155.055h.605c.44 0 .715-.202.825-.605.183-.66.367-3.043.55-7.15 0-.33-.165-.495-.495-.495h-.385c-.33 0-.495.147-.495.44-.073.807-.422 1.467-1.045 1.98s-1.338.733-2.145.66l-1.925-.11c-.843-.073-1.558-.44-2.145-1.1-.55-.66-.788-1.412-.715-2.255l1.21-16.83c.073-.88.422-1.613 1.045-2.2a3.07 3.07 0 0 1 2.255-.935h4.345c.33 0 .495-.147.495-.44v-3.19c0-.33-.165-.495-.495-.495h-5.17a3.01 3.01 0 0 1-2.2-.935 3.01 3.01 0 0 1-.935-2.2v-1.98a3.01 3.01 0 0 1 .935-2.2 3.01 3.01 0 0 1 2.2-.935h11.605a3.01 3.01 0 0 1 2.2.935 3.01 3.01 0 0 1 .935 2.2v14.08a3.01 3.01 0 0 1-.935 2.2 3.01 3.01 0 0 1-2.2.935h-5.775c-.33 0-.495.165-.495.495-.037.367-.073.935-.11 1.705s-.073 1.338-.11 1.705c0 .33.147.495.44.495h6.325c.843 0 1.558.312 2.145.935.623.623.917 1.357.88 2.2zm30.525 6.38a192.78 192.78 0 0 1 2.585 11.55c.183.843.018 1.65-.495 2.42s-1.192 1.228-2.035 1.375l-1.815.385c-.843.183-1.613.018-2.31-.495-.697-.477-1.118-1.118-1.265-1.925-.037-.257-.128-.733-.275-1.43-.073-.33-.238-.477-.495-.44-7.187 1.247-14.245 2.09-21.175 2.53-.843.037-1.595-.238-2.255-.825s-1.027-1.302-1.1-2.145l-.11-1.98c-.037-.843.22-1.577.77-2.2.587-.66 1.302-1.027 2.145-1.1 1.797-.11 4.528-.348 8.195-.715.33 0 .495-.165.495-.495v-4.18c0-.33-.165-.495-.495-.495h-1.32c-.257 0-.385.128-.385.385 0 .66-.238 1.228-.715 1.705-.44.44-.99.66-1.65.66h-2.475a3.01 3.01 0 0 1-3.135-3.135V105.81a3.01 3.01 0 0 1 3.135-3.135h6.545c.33 0 .495-.165.495-.495v-.77c0-.257-.147-.385-.44-.385-1.43.11-3.63.238-6.6.385a3.27 3.27 0 0 1-2.31-.77 3.29 3.29 0 0 1-1.045-2.2l-.165-2.42a2.23 2.23 0 0 1 .605-1.705c.477-.513 1.045-.788 1.705-.825.22 0 .385-.128.495-.385l2.255-5.39c.33-.843.88-1.503 1.65-1.98a3.64 3.64 0 0 1 2.53-.605l3.465.44a2.06 2.06 0 0 1 1.705 1.1c.403.66.458 1.338.165 2.035l-.825 1.87-.77 1.815c-.037.11-.018.202.055.275s.165.11.275.11c1.357-.11 3.392-.312 6.105-.605.293 0 .367-.147.22-.44-.037-.037-.055-.073-.055-.11 0-.073-.018-.128-.055-.165-.33-.77-.33-1.522 0-2.255s.898-1.247 1.705-1.54l2.035-.77c.843-.293 1.668-.257 2.475.11a3.41 3.41 0 0 1 1.87 1.705c.953 2.053 2.237 5.097 3.85 9.13a2.95 2.95 0 0 1-.11 2.365c-.367.77-.953 1.283-1.76 1.54l-2.365.77c0 .037.018.092.055.165h.77a3.01 3.01 0 0 1 3.135 3.135v13.97a1.27 1.27 0 0 1-1.32 1.32c-.11 0-.165.055-.165.165zm-19.14-6.985v-4.785c0-.33-.165-.495-.495-.495h-1.265c-.293 0-.44.165-.44.495v4.785c0 .33.147.495.44.495h1.265c.33 0 .495-.165.495-.495zm9.625-13.805v1.705c0 .33.165.495.495.495h2.86c.293 0 .403-.165.33-.495l-.825-2.145c-.147-.293-.33-.403-.55-.33-.183.037-.477.073-.88.11s-.715.073-.935.11c-.33.073-.495.257-.495.55zm0 9.02v4.785c0 .33.165.495.495.495h1.21c.33 0 .495-.165.495-.495v-4.785c0-.33-.165-.495-.495-.495h-1.21c-.33 0-.495.165-.495.495zm6.435 11.715c.037 0 .055-.018.055-.055s-.018-.055-.055-.055h-5.94c-.33 0-.495.165-.495.495v3.025c0 .11.037.22.11.33.11.11.22.147.33.11.183 0 .44-.037.77-.11.367-.073.642-.11.825-.11.073 0 .147-.037.22-.11.11-.11.147-.202.11-.275-.11-.623 0-1.192.33-1.705.367-.55.843-.898 1.43-1.045l2.31-.495zm27.28-34.65c.843.147 1.503.568 1.98 1.265a2.66 2.66 0 0 1 .55 2.2c-.843 4.033-1.962 7.59-3.355 10.67-.147.367-.22.678-.22.935v31.735a3.01 3.01 0 0 1-3.135 3.135h-3.905a3.01 3.01 0 0 1-3.135-3.135v-18.59c0-.073-.037-.128-.11-.165s-.128-.018-.165.055c-.55.697-1.1 1.357-1.65 1.98-.513.55-1.137.752-1.87.605-.697-.147-1.192-.568-1.485-1.265l-1.815-4.345a4.35 4.35 0 0 1-.165-2.64c.22-.917.66-1.705 1.32-2.365 4.73-4.62 8.103-10.615 10.12-17.985.22-.843.697-1.522 1.43-2.035a3.16 3.16 0 0 1 2.42-.55l3.19.495zm29.7 27.61c.88.11 1.595.495 2.145 1.155.587.623.862 1.375.825 2.255-.11 3.373-.275 6.068-.495 8.085s-.477 3.703-.77 5.06-.77 2.347-1.43 2.97c-.66.66-1.357 1.118-2.09 1.375-.697.257-1.723.458-3.08.605-1.577.183-3.41.275-5.5.275-1.467 0-3.3-.037-5.5-.11-2.53-.11-4.327-.403-5.39-.88-1.063-.44-1.815-1.265-2.255-2.475-.403-1.173-.605-3.135-.605-5.885V89.86a3.01 3.01 0 0 1 .935-2.2 3.01 3.01 0 0 1 2.2-.935h3.905a3.01 3.01 0 0 1 2.2.935 3.01 3.01 0 0 1 .935 2.2v9.9c0 .11.055.202.165.275.11.037.202.018.275-.055 3.007-1.833 6.013-4.015 9.02-6.545.66-.55 1.412-.788 2.255-.715.88.037 1.613.367 2.2.99l2.145 2.53c.587.66.843 1.412.77 2.255s-.44 1.54-1.1 2.09c-5.133 4.18-10.248 7.59-15.345 10.23-.257.11-.385.33-.385.66V125.5c0 .697.055 1.137.165 1.32.11.147.422.257.935.33.807.073 1.54.11 2.2.11.88 0 1.613-.037 2.2-.11.403-.037.678-.11.825-.22.183-.147.348-.587.495-1.32.183-.733.293-1.742.33-3.025.073-1.32.147-3.337.22-6.05.037-.843.367-1.54.99-2.09s1.338-.788 2.145-.715l3.465.44zm56.485 15.4c.733.293 1.21.825 1.43 1.595a2.47 2.47 0 0 1-.33 2.145l-1.155 1.705c-.477.733-1.173 1.228-2.09 1.485-.88.257-1.723.202-2.53-.165-4.07-1.76-8.177-3.318-12.32-4.675-.77-.257-1.32-.752-1.65-1.485-.293-.733-.257-1.467.11-2.2l.22-.385c.073-.073.073-.165 0-.275s-.165-.165-.275-.165h-9.9c-.11 0-.202.055-.275.165-.037.073-.018.147.055.22.44.733.55 1.522.33 2.365s-.715 1.448-1.485 1.815c-3.557 1.76-7.975 3.373-13.255 4.84-.88.257-1.742.183-2.585-.22a3.95 3.95 0 0 1-1.87-1.76l-.88-1.65a2.23 2.23 0 0 1-.11-2.145c.33-.733.88-1.192 1.65-1.375a116.99 116.99 0 0 0 7.205-2.09c.037 0 .055-.018.055-.055 0-.073-.018-.11-.055-.11h-2.695a3.01 3.01 0 0 1-3.135-3.135V105.26a3.01 3.01 0 0 1 3.135-3.135h37.73a3.01 3.01 0 0 1 3.135 3.135v18.755a3.01 3.01 0 0 1-3.135 3.135h-1.705c-.037 0-.055.037-.055.11 0 .037.018.055.055.055 1.907.587 4.033 1.338 6.38 2.255zm-35.365-21.175v.715c0 .293.165.44.495.44h22.66c.33 0 .495-.147.495-.44v-.715c0-.33-.165-.495-.495-.495h-22.66c-.33 0-.495.165-.495.495zm0 6.325v.66c0 .33.165.495.495.495h22.66c.33 0 .495-.165.495-.495v-.66c0-.33-.165-.495-.495-.495h-22.66c-.33 0-.495.165-.495.495zm0 6.325v.715c0 .293.165.44.495.44h22.66c.33 0 .495-.147.495-.44v-.715c0-.33-.165-.495-.495-.495h-22.66c-.33 0-.495.165-.495.495zm32.89-34.595a3.01 3.01 0 0 1 2.2.935 3.01 3.01 0 0 1 .935 2.2v8.03a3.01 3.01 0 0 1-.935 2.2 3.01 3.01 0 0 1-2.2.935h-42.13a3.01 3.01 0 0 1-2.2-.935 3.01 3.01 0 0 1-.935-2.2v-8.03a3.01 3.01 0 0 1 .935-2.2 3.01 3.01 0 0 1 2.2-.935h42.13zm-31.515 8.58v-1.54c0-.293-.165-.44-.495-.44h-4.015c-.293 0-.44.147-.44.44v1.54c0 .33.147.495.44.495h4.015c.33 0 .495-.165.495-.495zm13.2 0v-1.54c0-.293-.165-.44-.495-.44h-4.565c-.293 0-.44.147-.44.44v1.54c0 .33.147.495.44.495h4.565c.33 0 .495-.165.495-.495zm12.65 0v-1.54c0-.293-.165-.44-.495-.44h-4.015c-.293 0-.44.147-.44.44v1.54c0 .33.147.495.44.495h4.015c.33 0 .495-.165.495-.495zm63.47 30.745a3.76 3.76 0 0 1 1.485 2.035c.257.807.202 1.613-.165 2.42l-1.65 3.19c-.403.733-1.008 1.21-1.815 1.43-.77.22-1.503.092-2.2-.385a49.48 49.48 0 0 1-6.545-5.5c-.22-.22-.44-.202-.66.055-1.687 1.87-3.612 3.648-5.775 5.335a2.75 2.75 0 0 1-2.255.55 2.86 2.86 0 0 1-1.98-1.32l-1.595-2.53c-.037-.037-.092-.055-.165-.055-.073.037-.11.092-.11.165v2.2a3.01 3.01 0 0 1-3.135 3.135h-3.355a3.01 3.01 0 0 1-3.135-3.135v-3.355c0-.33-.147-.458-.44-.385l-12.925 1.595a3.3 3.3 0 0 1-2.31-.66c-.697-.55-1.082-1.247-1.155-2.09l-.165-2.09c-.073-.843.165-1.595.715-2.255.55-.697 1.247-1.082 2.09-1.155.293-.073.44-.238.44-.495v-26.84c0-.257-.128-.385-.385-.385-.66 0-1.228-.22-1.705-.66-.44-.477-.66-1.045-.66-1.705v-2.75a3.01 3.01 0 0 1 .935-2.2 3.01 3.01 0 0 1 2.2-.935h23.43a3 3 0 0 1 2.035.77c.587.513.935 1.137 1.045 1.87a.35.35 0 0 0 .495.275 3.28 3.28 0 0 1 1.045-.165h16.28a3.01 3.01 0 0 1 2.2.935 3.01 3.01 0 0 1 .935 2.2v5.39c-.99 8.58-3.172 15.987-6.545 22.22-.183.257-.147.513.11.77a28.84 28.84 0 0 0 5.39 4.51zm-33.055-5.06v-2.97c0-.33-.165-.495-.495-.495h-3.465c-.293 0-.44.165-.44.495v3.575c0 .11.037.22.11.33.073.073.165.092.275.055.403-.037.99-.11 1.76-.22s1.357-.183 1.76-.22c.33-.073.495-.257.495-.55zm0-10.835v-3.19c0-.293-.165-.44-.495-.44h-3.465c-.293 0-.44.147-.44.44v3.19c0 .33.147.495.44.495h3.465c.33 0 .495-.165.495-.495zm0-11v-3.19c0-.293-.165-.44-.495-.44h-3.465c-.293 0-.44.147-.44.44v3.19c0 .33.147.495.44.495h3.465c.33 0 .495-.165.495-.495zm21.395 11.495c1.247-3.447 2.127-7.333 2.64-11.66 0-.293-.147-.44-.44-.44h-8.91c-.807 0-1.522-.275-2.145-.825-.587-.587-.917-1.302-.99-2.145 0-.22-.147-.293-.44-.22a3.28 3.28 0 0 1-1.045.165c-.293 0-.44.147-.44.44v30.415c0 .073.018.128.055.165.073.037.147.037.22 0l.33-.33c2.017-1.54 3.758-3.208 5.225-5.005.257-.257.293-.532.11-.825-2.493-4.4-4.437-9.662-5.83-15.785-.183-.843-.055-1.632.385-2.365.477-.733 1.137-1.192 1.98-1.375l3.025-.77c.843-.183 1.613-.037 2.31.44.733.44 1.173 1.063 1.32 1.87.733 3.41 1.503 6.142 2.31 8.195.037.073.092.128.165.165.073 0 .128-.037.165-.11zm63.36-16.5a3.01 3.01 0 0 1 2.2.935 3.01 3.01 0 0 1 .935 2.2v24.53a3.01 3.01 0 0 1-3.135 3.135h-4.125c-.66 0-1.228-.22-1.705-.66-.44-.477-.66-1.045-.66-1.705 0-.257-.128-.385-.385-.385h-8.47c-.33 0-.495.165-.495.495v11.495a3.01 3.01 0 0 1-3.135 3.135h-4.18a3.01 3.01 0 0 1-3.135-3.135V122.42c0-.33-.165-.495-.495-.495h-8.47c-.257 0-.385.128-.385.385 0 .66-.238 1.228-.715 1.705-.44.44-.99.66-1.65.66h-4.125a3.01 3.01 0 0 1-3.135-3.135V97.01a3.01 3.01 0 0 1 .935-2.2 3.01 3.01 0 0 1 2.2-.935h15.345c.33 0 .495-.165.495-.495v-4.895a3.01 3.01 0 0 1 .935-2.2 3.01 3.01 0 0 1 2.2-.935h4.18a3.01 3.01 0 0 1 2.2.935 3.01 3.01 0 0 1 .935 2.2v4.895c0 .33.165.495.495.495h15.345zm-35.145 19.8h8.36c.33 0 .495-.165.495-.495v-10.34c0-.293-.165-.44-.495-.44h-8.36c-.33 0-.495.147-.495.44v10.34c0 .33.165.495.495.495zm28.655-.495v-10.34c0-.293-.165-.44-.495-.44h-8.36c-.33 0-.495.147-.495.44v10.34c0 .33.165.495.495.495h8.36c.33 0 .495-.165.495-.495zm43.945-22.33c.843 0 1.558.312 2.145.935s.862 1.357.825 2.2l-1.32 20.68c-.073.88-.422 1.632-1.045 2.255-.623.587-1.375.88-2.255.88h-3.63c-.88 0-1.632-.293-2.255-.88-.623-.623-.972-1.375-1.045-2.255l-1.32-20.68c-.037-.843.238-1.577.825-2.2s1.302-.935 2.145-.935h6.93zm-1.1 31.35a3.01 3.01 0 0 1 3.135 3.135v2.53A3.01 3.01 0 0 1 523.92 131h-4.73a3.01 3.01 0 0 1-3.135-3.135v-2.53a3.01 3.01 0 0 1 3.135-3.135h4.73z"/></mask><path d="M135.436 40.2c.843 0 1.576.312 2.2.935s.935 1.357.935 2.2v2.53c0 .843-.312 1.577-.935 2.2s-1.357.935-2.2.935h-22.33c-.844 0-1.577-.312-2.2-.935s-.935-1.357-.935-2.2v-2.53c0-2.053.825-3.722 2.475-5.005 6.05-4.62 9.991-8.03 11.825-10.23 1.833-2.237 2.75-4.437 2.75-6.6 0-2.75-1.559-4.125-4.675-4.125-2.2 0-5.06.623-8.58 1.87-.734.257-1.412.183-2.035-.22-.624-.44-.935-1.027-.935-1.76v-3.63c0-.953.275-1.797.825-2.53.55-.77 1.265-1.265 2.145-1.485 3.593-.88 7.003-1.32 10.23-1.32 4.583 0 8.103 1.082 10.56 3.245 2.493 2.127 3.74 5.078 3.74 8.855 0 3.007-.954 5.867-2.86 8.58-1.87 2.713-5.574 6.398-11.11 11.055-.037.037-.055.073-.055.11s.018.055.055.055h11.11z" fill="url(#B)"/><path d="M191.269 6.375c.844 0 1.577.312 2.2.935s.935 1.357.935 2.2v2.53c0 .843-.311 1.577-.935 2.2s-1.356.935-2.2.935h-22.77c-.33 0-.495.165-.495.495l-.165 6.16c0 .33.147.495.44.495h19.14c.844 0 1.577.312 2.2.935s.935 1.357.935 2.2v5.115l-.165 8.03-.44 5.885c-.183 1.723-.495 3.117-.935 4.18-.44 1.027-.916 1.888-1.43 2.585-.476.733-1.173 1.265-2.09 1.595a12.46 12.46 0 0 1-2.805.66c-.953.11-2.181.165-3.685.165-2.273 0-5.353-.11-9.24-.33a3.24 3.24 0 0 1-2.31-1.045c-.586-.623-.916-1.393-.99-2.31l-.22-2.805a2.58 2.58 0 0 1 .77-2.145c.587-.587 1.302-.843 2.145-.77l7.645.33c1.027 0 1.76-.22 2.2-.66s.77-1.467.99-3.08c.257-1.65.385-4.253.385-7.81v-1.705c0-.33-.165-.495-.495-.495h-12.485c-.293 0-.476.165-.55.495-.843 4.803-2.291 8.855-4.345 12.155-2.053 3.263-4.986 6.398-8.8 9.405a3.06 3.06 0 0 1-2.365.66 3.4 3.4 0 0 1-2.255-1.1l-2.585-2.805c-.55-.587-.788-1.302-.715-2.145s.44-1.503 1.1-1.98c4.144-3.153 6.949-6.765 8.415-10.835 1.467-4.107 2.219-10.468 2.255-19.085 0-.293-.146-.44-.44-.44h-9.075c-.843 0-1.576-.312-2.2-.935s-.935-1.357-.935-2.2V9.51c0-.843.312-1.577.935-2.2s1.357-.935 2.2-.935h43.23z" fill="url(#B)"/><path d="M245.169 5.55c.844 0 1.577.312 2.2.935s.935 1.357.935 2.2V42.4l-.11 4.4c-.036 1.063-.201 2.053-.495 2.97s-.623 1.577-.99 1.98-.99.752-1.87 1.045c-.843.293-1.741.458-2.695.495l-4.015.11c-1.136 0-3.208-.055-6.215-.165a3.48 3.48 0 0 1-2.31-.99c-.66-.623-1.008-1.375-1.045-2.255l-.11-2.255a2.58 2.58 0 0 1 .77-2.145c.587-.623 1.284-.917 2.09-.88l4.62.165c1.1 0 1.742-.073 1.925-.22.184-.183.275-.752.275-1.705v-8.03c0-.33-.165-.495-.495-.495h-25.96c-.33 0-.495.165-.495.495v15.345c0 .843-.311 1.577-.935 2.2s-1.356.935-2.2.935h-3.905c-.843 0-1.576-.312-2.2-.935s-.935-1.357-.935-2.2V8.685c0-.843.312-1.577.935-2.2s1.357-.935 2.2-.935h41.03zm-25.465 20.13V14.57c0-.33-.165-.495-.495-.495h-7.535c-.33 0-.495.165-.495.495v11.11c0 .33.165.495.495.495h7.535c.33 0 .495-.165.495-.495zm18.425 0V14.57c0-.33-.165-.495-.495-.495h-7.59c-.293 0-.44.165-.44.495v11.11c0 .33.147.495.44.495h7.59c.33 0 .495-.165.495-.495z" fill="url(#B)"/><path d="M283.009 34.205c.257.88.22 1.742-.11 2.585s-.898 1.485-1.705 1.925c-7.443 4.107-15.015 7.645-22.715 10.615-.806.293-1.576.238-2.31-.165-.733-.367-1.228-.953-1.485-1.76l-.715-2.585a3.09 3.09 0 0 1 .22-2.42c.404-.807 1.009-1.357 1.815-1.65l1.32-.495c.294-.11.44-.33.44-.66V8.41c0-.843.312-1.577.935-2.2s1.357-.935 2.2-.935h3.63c.844 0 1.577.312 2.2.935s.935 1.357.935 2.2v26.95c0 .33.147.422.44.275 3.264-1.503 6.784-3.245 10.56-5.225a2.23 2.23 0 0 1 2.145-.11 2.31 2.31 0 0 1 1.485 1.595l.715 2.31zm-8.03-25.19c.624-.587 1.375-.862 2.255-.825.917.037 1.669.367 2.255.99 2.787 2.933 5.574 6.215 8.36 9.845.514.697.715 1.485.605 2.365-.11.843-.513 1.54-1.21 2.09l-2.31 1.815c-.66.513-1.411.733-2.255.66-.843-.11-1.521-.495-2.035-1.155-2.86-3.593-5.555-6.71-8.085-9.35a2.74 2.74 0 0 1-.825-2.145c.037-.843.367-1.558.99-2.145l2.255-2.145zm23.925 28.49c2.457 3.227 4.602 6.197 6.435 8.91.477.733.624 1.522.44 2.365-.183.807-.641 1.448-1.375 1.925l-2.805 1.815a2.85 2.85 0 0 1-2.31.44c-.843-.183-1.503-.623-1.98-1.32-1.723-2.567-3.116-4.547-4.18-5.94-.22-.293-.458-.33-.715-.11-3.373 2.933-8.745 5.812-16.115 8.635-.843.33-1.686.33-2.53 0-.806-.293-1.43-.825-1.87-1.595l-1.595-2.86c-.403-.733-.476-1.485-.22-2.255a2.64 2.64 0 0 1 1.595-1.595c2.567-1.027 4.675-1.907 6.325-2.64s3.264-1.595 4.84-2.585c1.614-1.027 2.842-1.962 3.685-2.805.88-.88 1.724-2.053 2.53-3.52.807-1.503 1.375-2.952 1.705-4.345.367-1.393.697-3.3.99-5.72s.477-4.84.55-7.26.11-5.5.11-9.24c0-.843.312-1.558.935-2.145a3.01 3.01 0 0 1 2.2-.935h3.905c.844 0 1.577.312 2.2.935s.935 1.357.935 2.2c-.073 7.04-.385 12.833-.935 17.38s-1.485 8.378-2.805 11.495c-.11.293-.091.55.055.77z" fill="url(#B)"/><path d="M356.819 44.325c.844 0 1.577.312 2.2.935s.935 1.357.935 2.2v2.53c0 .843-.311 1.577-.935 2.2s-1.356.935-2.2.935h-44.33c-.843 0-1.576-.312-2.2-.935s-.935-1.357-.935-2.2v-2.53c0-.843.312-1.577.935-2.2s1.357-.935 2.2-.935h14.41c.33 0 .495-.165.495-.495V7.86c0-.843.294-1.577.88-2.2a3.01 3.01 0 0 1 2.2-.935h4.235c.844 0 1.577.312 2.2.935s.935 1.357.935 2.2v10.12c0 .33.147.495.44.495h15.785c.844 0 1.577.312 2.2.935s.935 1.357.935 2.2v2.255c0 .843-.311 1.577-.935 2.2s-1.356.935-2.2.935h-15.785c-.293 0-.44.147-.44.44v16.39c0 .33.147.495.44.495h18.535z" fill="url(#B)"/><path d="M379.514 23.4h3.28c.694 0 1.494.093 2.4.28l1.84.4c.32.107.707.453 1.16 1.04s.72 1.093.8 1.52.187 1.24.32 2.44c.134 1.173.2 2.227.2 3.16v4.36c0 5.307-.653 9.107-1.96 11.4-1.28 2.267-3.16 3.4-5.64 3.4-1.786 0-3.986-.32-6.6-.96-.613-.16-1.08-.52-1.4-1.08s-.4-1.147-.24-1.76l.48-2c.16-.587.507-1.04 1.04-1.36s1.107-.413 1.72-.28c1.707.427 2.84.64 3.4.64 1.067 0 1.6-3.067 1.6-9.2 0-2.773-.106-4.4-.32-4.88-.186-.48-.88-.72-2.08-.72h-2.76c-.24 0-.386.107-.44.32-1.44 6.453-3.32 12.96-5.64 19.52-.213.613-.613 1.053-1.2 1.32a2.16 2.16 0 0 1-1.72.16l-1.88-.64c-.586-.187-1.026-.56-1.32-1.12-.266-.533-.293-1.107-.08-1.72 1.92-5.707 3.56-11.533 4.92-17.48.054-.24-.026-.36-.24-.36h-2.56a2.19 2.19 0 0 1-1.6-.68 2.19 2.19 0 0 1-.68-1.6v-1.84a2.19 2.19 0 0 1 .68-1.6 2.19 2.19 0 0 1 1.6-.68h3.88c.214 0 .347-.107.4-.32.187-.933.48-2.613.88-5.04.107-.64.414-1.16.92-1.56.507-.427 1.08-.613 1.72-.56l2.04.16a2.15 2.15 0 0 1 1.52.8c.4.453.56.973.48 1.56-.213 1.6-.453 3.147-.72 4.64-.053.213.04.32.28.32h1.52zm17.16-.24c1.68 4.96 3.24 10.187 4.68 15.68.16.587.08 1.147-.24 1.68a2.08 2.08 0 0 1-1.4 1l-2.56.64c-.613.133-1.186.04-1.72-.28s-.88-.787-1.04-1.4c-1.28-4.88-2.853-10.08-4.72-15.6a2.06 2.06 0 0 1 .16-1.68c.294-.533.734-.867 1.32-1l2.56-.64c.614-.16 1.2-.08 1.76.24a2.32 2.32 0 0 1 1.2 1.36z" fill="url(#B)"/><path d="M426.114 29.8c4.214 0 7.267.813 9.16 2.44 1.894 1.6 2.84 4.12 2.84 7.56 0 3.573-1.533 6.4-4.6 8.48-3.04 2.08-7.373 3.12-13 3.12-2.64 0-5.293-.12-7.96-.36-.613-.053-1.12-.333-1.52-.84-.4-.48-.573-1.027-.52-1.64l.2-1.92a2.02 2.02 0 0 1 .8-1.48c.48-.4 1.027-.573 1.64-.52 2.854.24 5.307.36 7.36.36 2.8 0 5-.48 6.6-1.44 1.6-.987 2.4-2.24 2.4-3.76 0-2.4-1.533-3.6-4.6-3.6-2.16 0-5.226 1.04-9.2 3.12-1.333.72-2.746.933-4.24.64l-2.32-.52a2.26 2.26 0 0 1-1.48-.92 2.33 2.33 0 0 1-.36-1.72l1.28-7.96c.107-.64.4-1.147.88-1.52.507-.4 1.08-.573 1.72-.52l2.84.2c.614.053 1.12.333 1.52.84.4.48.56 1.027.48 1.64-.053.453-.146 1.093-.28 1.92l-.24 1.76v.04h.08c3.787-2.267 7.294-3.4 10.52-3.4zm-10.72-11.36c5.494.56 10.707.88 15.64.96.614 0 1.147.227 1.6.68s.68.987.68 1.6v1.84c0 .613-.226 1.147-.68 1.6s-.986.68-1.6.68c-5.813-.08-11.306-.4-16.48-.96a2.15 2.15 0 0 1-1.52-.8c-.373-.507-.52-1.067-.44-1.68l.24-1.92c.08-.613.374-1.107.88-1.48.507-.4 1.067-.573 1.68-.52z" fill="url(#B)"/><path d="M36.95 111.035l10.835 9.35c.623.587.972 1.32 1.045 2.2.073.843-.183 1.595-.77 2.255l-2.805 3.245c-.55.66-1.265 1.027-2.145 1.1-.843.037-1.577-.238-2.2-.825-3.41-3.117-6.93-6.197-10.56-9.24-.257-.22-.495-.183-.715.11-4.95 5.17-10.78 9.68-17.49 13.53-.77.44-1.595.568-2.475.385a3.28 3.28 0 0 1-2.09-1.375l-2.695-3.74c-.477-.697-.642-1.448-.495-2.255a2.84 2.84 0 0 1 1.375-1.87c6.013-3.667 11.055-7.627 15.125-11.88.22-.183.22-.385 0-.605a388.66 388.66 0 0 0-10.615-8.03c-.697-.513-1.1-1.173-1.21-1.98-.11-.843.11-1.595.66-2.255l2.64-3.135a3.09 3.09 0 0 1 2.09-1.21c.88-.11 1.687.092 2.42.605 3.447 2.493 6.948 5.133 10.505 7.92.073.073.183.11.33.11.147-.037.238-.11.275-.22 2.603-3.923 4.767-8.177 6.49-12.76.293-.807.843-1.43 1.65-1.87.807-.477 1.632-.623 2.475-.44l4.565.99c.843.183 1.485.623 1.925 1.32a2.57 2.57 0 0 1 .275 2.255c-1.943 6.16-4.785 12.027-8.525 17.6-.22.257-.183.495.11.715z" fill="url(#B)"/><path d="M105.095 107.46c.843.11 1.54.513 2.09 1.21.55.66.77 1.412.66 2.255-1.063 7.773-3.557 13.438-7.48 16.995-3.923 3.52-9.643 5.372-17.16 5.555-.843.037-1.577-.257-2.2-.88a3.17 3.17 0 0 1-.88-2.255V91.785c0-.843.312-1.577.935-2.2s1.357-.935 2.2-.935h4.455c.843 0 1.577.312 2.2.935s.935 1.357.935 2.2v30.085c0 .33.147.422.44.275 1.87-.88 3.3-2.273 4.29-4.18 1.027-1.943 1.797-4.712 2.31-8.305.11-.843.495-1.522 1.155-2.035.697-.55 1.467-.77 2.31-.66l3.74.495zM72.59 88.65c.843 0 1.577.312 2.2.935s.935 1.357.935 2.2v8.415c0 7.003-.348 12.54-1.045 16.61-.66 4.07-1.778 7.315-3.355 9.735s-3.868 4.51-6.875 6.27c-.77.44-1.577.55-2.42.33s-1.522-.697-2.035-1.43l-2.365-3.63c-.477-.697-.623-1.448-.44-2.255.22-.807.697-1.43 1.43-1.87 1.503-.953 2.658-1.907 3.465-2.86.843-.99 1.522-2.42 2.035-4.29s.825-3.997.935-6.38c.147-2.42.22-5.83.22-10.23v-8.415c0-.843.312-1.577.935-2.2s1.357-.935 2.2-.935h4.18z" fill="url(#B)"/><path d="M146.235 104.82l15.29 16.28a3.07 3.07 0 0 1 .935 2.255 3.01 3.01 0 0 1-.935 2.2l-3.41 3.465a3.01 3.01 0 0 1-2.2.935c-.807 0-1.522-.293-2.145-.88-4.143-4.29-9.258-9.827-15.345-16.61-2.127-2.42-3.593-4.015-4.4-4.785s-1.467-1.155-1.98-1.155c-.44 0-1.008.458-1.705 1.375-.66.88-1.815 2.585-3.465 5.115l-6.49 9.68c-.477.697-1.155 1.137-2.035 1.32-.88.147-1.668-.018-2.365-.495l-3.63-2.365c-.733-.477-1.173-1.118-1.32-1.925a3.19 3.19 0 0 1 .495-2.365l5.995-8.635c4.07-5.903 6.692-9.46 7.865-10.67 1.32-1.357 2.805-2.108 4.455-2.255.513-.037 1.247-.055 2.2-.055 2.64 0 4.602.44 5.885 1.32s4.052 3.63 8.305 8.25zm3.685-7.37a3.85 3.85 0 0 0 2.75 1.1c1.063 0 1.962-.367 2.695-1.1.77-.77 1.155-1.687 1.155-2.75s-.385-1.962-1.155-2.695c-.733-.77-1.632-1.155-2.695-1.155s-1.98.385-2.75 1.155c-.733.733-1.1 1.632-1.1 2.695a3.85 3.85 0 0 0 1.1 2.75zm-3.465-8.965c1.723-1.723 3.795-2.585 6.215-2.585s4.492.862 6.215 2.585 2.585 3.795 2.585 6.215a8.47 8.47 0 0 1-2.585 6.215 8.47 8.47 0 0 1-6.215 2.585 8.47 8.47 0 0 1-6.215-2.585 8.47 8.47 0 0 1-2.585-6.215c0-2.42.862-4.492 2.585-6.215z" fill="url(#B)"/><path d="M211.355 91.29l2.255 2.695a2.97 2.97 0 0 1 .77 2.31c-.073.88-.44 1.595-1.1 2.145-3.85 3.19-8.048 6.013-12.595 8.47-.293.183-.44.422-.44.715v23.265a3.01 3.01 0 0 1-3.135 3.135h-5.005a3.01 3.01 0 0 1-3.135-3.135v-18.095c0-.11-.055-.202-.165-.275s-.22-.092-.33-.055c-5.243 1.98-10.377 3.41-15.4 4.29-.843.147-1.632-.037-2.365-.55-.697-.513-1.118-1.192-1.265-2.035l-.55-3.465c-.147-.843.018-1.595.495-2.255.513-.697 1.192-1.137 2.035-1.32 6.563-1.173 12.925-3.153 19.085-5.94 6.197-2.823 11.678-6.215 16.445-10.175.66-.55 1.412-.807 2.255-.77.88.037 1.595.385 2.145 1.045z" fill="url(#B)"/><path d="M239.625 114.885l-.165 2.97c-.257 5.647-.623 9.79-1.1 12.43-.44 2.64-1.027 4.327-1.76 5.06-.733.77-1.888 1.155-3.465 1.155-1.32 0-3.685-.055-7.095-.165a3.28 3.28 0 0 1-2.255-.99c-.587-.623-.898-1.375-.935-2.255l-.055-2.255c-.037-.843.257-1.558.88-2.145s1.357-.862 2.2-.825c.44 0 .898.018 1.375.055.513 0 .898.018 1.155.055h.605c.44 0 .715-.202.825-.605.183-.66.367-3.043.55-7.15 0-.33-.165-.495-.495-.495h-.385c-.33 0-.495.147-.495.44-.073.807-.422 1.467-1.045 1.98s-1.338.733-2.145.66l-1.925-.11c-.843-.073-1.558-.44-2.145-1.1-.55-.66-.788-1.412-.715-2.255l1.21-16.83c.073-.88.422-1.613 1.045-2.2a3.07 3.07 0 0 1 2.255-.935h4.345c.33 0 .495-.147.495-.44v-3.19c0-.33-.165-.495-.495-.495h-5.17c-.843 0-1.577-.312-2.2-.935s-.935-1.357-.935-2.2v-1.98c0-.843.312-1.577.935-2.2s1.357-.935 2.2-.935h11.605c.843 0 1.577.312 2.2.935s.935 1.357.935 2.2v14.08a3.01 3.01 0 0 1-.935 2.2 3.01 3.01 0 0 1-2.2.935h-5.775c-.33 0-.495.165-.495.495-.037.367-.073.935-.11 1.705s-.073 1.338-.11 1.705c0 .33.147.495.44.495h6.325c.843 0 1.558.312 2.145.935.623.623.917 1.357.88 2.2zm30.525 6.38a192.78 192.78 0 0 1 2.585 11.55c.183.843.018 1.65-.495 2.42s-1.192 1.228-2.035 1.375l-1.815.385c-.843.183-1.613.018-2.31-.495-.697-.477-1.118-1.118-1.265-1.925-.037-.257-.128-.733-.275-1.43-.073-.33-.238-.477-.495-.44-7.187 1.247-14.245 2.09-21.175 2.53-.843.037-1.595-.238-2.255-.825s-1.027-1.302-1.1-2.145l-.11-1.98c-.037-.843.22-1.577.77-2.2.587-.66 1.302-1.027 2.145-1.1 1.797-.11 4.528-.348 8.195-.715.33 0 .495-.165.495-.495v-4.18c0-.33-.165-.495-.495-.495h-1.32c-.257 0-.385.128-.385.385 0 .66-.238 1.228-.715 1.705-.44.44-.99.66-1.65.66h-2.475a3.01 3.01 0 0 1-3.135-3.135V105.81a3.01 3.01 0 0 1 3.135-3.135h6.545c.33 0 .495-.165.495-.495v-.77c0-.257-.147-.385-.44-.385-1.43.11-3.63.238-6.6.385a3.27 3.27 0 0 1-2.31-.77 3.29 3.29 0 0 1-1.045-2.2l-.165-2.42a2.23 2.23 0 0 1 .605-1.705c.477-.513 1.045-.788 1.705-.825.22 0 .385-.128.495-.385l2.255-5.39c.33-.843.88-1.503 1.65-1.98a3.64 3.64 0 0 1 2.53-.605l3.465.44a2.06 2.06 0 0 1 1.705 1.1c.403.66.458 1.338.165 2.035l-.825 1.87-.77 1.815c-.037.11-.018.202.055.275s.165.11.275.11c1.357-.11 3.392-.312 6.105-.605.293 0 .367-.147.22-.44-.037-.037-.055-.073-.055-.11 0-.073-.018-.128-.055-.165-.33-.77-.33-1.522 0-2.255s.898-1.247 1.705-1.54l2.035-.77c.843-.293 1.668-.257 2.475.11a3.41 3.41 0 0 1 1.87 1.705c.953 2.053 2.237 5.097 3.85 9.13a2.95 2.95 0 0 1-.11 2.365c-.367.77-.953 1.283-1.76 1.54l-2.365.77c0 .037.018.092.055.165h.77a3.01 3.01 0 0 1 3.135 3.135v13.97a1.27 1.27 0 0 1-1.32 1.32c-.11 0-.165.055-.165.165zm-19.14-6.985v-4.785c0-.33-.165-.495-.495-.495h-1.265c-.293 0-.44.165-.44.495v4.785c0 .33.147.495.44.495h1.265c.33 0 .495-.165.495-.495zm9.625-13.805v1.705c0 .33.165.495.495.495h2.86c.293 0 .403-.165.33-.495l-.825-2.145c-.147-.293-.33-.403-.55-.33-.183.037-.477.073-.88.11s-.715.073-.935.11c-.33.073-.495.257-.495.55zm0 9.02v4.785c0 .33.165.495.495.495h1.21c.33 0 .495-.165.495-.495v-4.785c0-.33-.165-.495-.495-.495h-1.21c-.33 0-.495.165-.495.495zm6.435 11.715c.037 0 .055-.018.055-.055s-.018-.055-.055-.055h-5.94c-.33 0-.495.165-.495.495v3.025c0 .11.037.22.11.33.11.11.22.147.33.11.183 0 .44-.037.77-.11.367-.073.642-.11.825-.11.073 0 .147-.037.22-.11.11-.11.147-.202.11-.275-.11-.623 0-1.192.33-1.705.367-.55.843-.898 1.43-1.045l2.31-.495z" fill="url(#B)"/><path d="M294.35 86.56c.843.147 1.503.568 1.98 1.265a2.66 2.66 0 0 1 .55 2.2c-.843 4.033-1.962 7.59-3.355 10.67-.147.367-.22.678-.22.935v31.735a3.01 3.01 0 0 1-3.135 3.135h-3.905a3.01 3.01 0 0 1-3.135-3.135v-18.59c0-.073-.037-.128-.11-.165s-.128-.018-.165.055c-.55.697-1.1 1.357-1.65 1.98-.513.55-1.137.752-1.87.605-.697-.147-1.192-.568-1.485-1.265l-1.815-4.345a4.35 4.35 0 0 1-.165-2.64c.22-.917.66-1.705 1.32-2.365 4.73-4.62 8.103-10.615 10.12-17.985.22-.843.697-1.522 1.43-2.035a3.16 3.16 0 0 1 2.42-.55l3.19.495zm29.7 27.61c.88.11 1.595.495 2.145 1.155.587.623.862 1.375.825 2.255-.11 3.373-.275 6.068-.495 8.085s-.477 3.703-.77 5.06-.77 2.347-1.43 2.97c-.66.66-1.357 1.118-2.09 1.375-.697.257-1.723.458-3.08.605-1.577.183-3.41.275-5.5.275-1.467 0-3.3-.037-5.5-.11-2.53-.11-4.327-.403-5.39-.88-1.063-.44-1.815-1.265-2.255-2.475-.403-1.173-.605-3.135-.605-5.885V89.86c0-.843.312-1.577.935-2.2s1.357-.935 2.2-.935h3.905c.843 0 1.577.312 2.2.935s.935 1.357.935 2.2v9.9c0 .11.055.202.165.275.11.037.202.018.275-.055 3.007-1.833 6.013-4.015 9.02-6.545.66-.55 1.412-.788 2.255-.715.88.037 1.613.367 2.2.99l2.145 2.53c.587.66.843 1.412.77 2.255s-.44 1.54-1.1 2.09c-5.133 4.18-10.248 7.59-15.345 10.23-.257.11-.385.33-.385.66V125.5c0 .697.055 1.137.165 1.32.11.147.422.257.935.33.807.073 1.54.11 2.2.11.88 0 1.613-.037 2.2-.11.403-.037.678-.11.825-.22.183-.147.348-.587.495-1.32.183-.733.293-1.742.33-3.025.073-1.32.147-3.337.22-6.05.037-.843.367-1.54.99-2.09s1.338-.788 2.145-.715l3.465.44z" fill="url(#B)"/><path d="M380.535 129.57c.733.293 1.21.825 1.43 1.595a2.47 2.47 0 0 1-.33 2.145l-1.155 1.705c-.477.733-1.173 1.228-2.09 1.485-.88.257-1.723.202-2.53-.165-4.07-1.76-8.177-3.318-12.32-4.675-.77-.257-1.32-.752-1.65-1.485-.293-.733-.257-1.467.11-2.2l.22-.385c.073-.073.073-.165 0-.275s-.165-.165-.275-.165h-9.9c-.11 0-.202.055-.275.165-.037.073-.018.147.055.22.44.733.55 1.522.33 2.365s-.715 1.448-1.485 1.815c-3.557 1.76-7.975 3.373-13.255 4.84-.88.257-1.742.183-2.585-.22a3.95 3.95 0 0 1-1.87-1.76l-.88-1.65a2.23 2.23 0 0 1-.11-2.145c.33-.733.88-1.192 1.65-1.375a116.99 116.99 0 0 0 7.205-2.09c.037 0 .055-.018.055-.055 0-.073-.018-.11-.055-.11h-2.695a3.01 3.01 0 0 1-3.135-3.135V105.26a3.01 3.01 0 0 1 3.135-3.135h37.73a3.01 3.01 0 0 1 3.135 3.135v18.755a3.01 3.01 0 0 1-3.135 3.135h-1.705c-.037 0-.055.037-.055.11 0 .037.018.055.055.055 1.907.587 4.033 1.338 6.38 2.255zm-35.365-21.175v.715c0 .293.165.44.495.44h22.66c.33 0 .495-.147.495-.44v-.715c0-.33-.165-.495-.495-.495h-22.66c-.33 0-.495.165-.495.495zm0 6.325v.66c0 .33.165.495.495.495h22.66c.33 0 .495-.165.495-.495v-.66c0-.33-.165-.495-.495-.495h-22.66c-.33 0-.495.165-.495.495zm0 6.325v.715c0 .293.165.44.495.44h22.66c.33 0 .495-.147.495-.44v-.715c0-.33-.165-.495-.495-.495h-22.66c-.33 0-.495.165-.495.495zm32.89-34.595c.843 0 1.577.312 2.2.935s.935 1.357.935 2.2v8.03c0 .843-.312 1.577-.935 2.2a3.01 3.01 0 0 1-2.2.935h-42.13a3.01 3.01 0 0 1-2.2-.935c-.623-.623-.935-1.357-.935-2.2v-8.03c0-.843.312-1.577.935-2.2s1.357-.935 2.2-.935h42.13zm-31.515 8.58v-1.54c0-.293-.165-.44-.495-.44h-4.015c-.293 0-.44.147-.44.44v1.54c0 .33.147.495.44.495h4.015c.33 0 .495-.165.495-.495zm13.2 0v-1.54c0-.293-.165-.44-.495-.44h-4.565c-.293 0-.44.147-.44.44v1.54c0 .33.147.495.44.495h4.565c.33 0 .495-.165.495-.495zm12.65 0v-1.54c0-.293-.165-.44-.495-.44h-4.015c-.293 0-.44.147-.44.44v1.54c0 .33.147.495.44.495h4.015c.33 0 .495-.165.495-.495z" fill="url(#B)"/><path d="M435.865 125.775a3.76 3.76 0 0 1 1.485 2.035c.257.807.202 1.613-.165 2.42l-1.65 3.19c-.403.733-1.008 1.21-1.815 1.43-.77.22-1.503.092-2.2-.385a49.48 49.48 0 0 1-6.545-5.5c-.22-.22-.44-.202-.66.055-1.687 1.87-3.612 3.648-5.775 5.335a2.75 2.75 0 0 1-2.255.55 2.86 2.86 0 0 1-1.98-1.32l-1.595-2.53c-.037-.037-.092-.055-.165-.055-.073.037-.11.092-.11.165v2.2a3.01 3.01 0 0 1-3.135 3.135h-3.355a3.01 3.01 0 0 1-3.135-3.135v-3.355c0-.33-.147-.458-.44-.385l-12.925 1.595a3.3 3.3 0 0 1-2.31-.66c-.697-.55-1.082-1.247-1.155-2.09l-.165-2.09c-.073-.843.165-1.595.715-2.255.55-.697 1.247-1.082 2.09-1.155.293-.073.44-.238.44-.495v-26.84c0-.257-.128-.385-.385-.385-.66 0-1.228-.22-1.705-.66-.44-.477-.66-1.045-.66-1.705v-2.75c0-.843.312-1.577.935-2.2s1.357-.935 2.2-.935h23.43c.77 0 1.448.257 2.035.77s.935 1.137 1.045 1.87a.35.35 0 0 0 .495.275 3.28 3.28 0 0 1 1.045-.165h16.28c.843 0 1.577.312 2.2.935s.935 1.357.935 2.2v5.39c-.99 8.58-3.172 15.987-6.545 22.22-.183.257-.147.513.11.77a28.84 28.84 0 0 0 5.39 4.51zm-33.055-5.06v-2.97c0-.33-.165-.495-.495-.495h-3.465c-.293 0-.44.165-.44.495v3.575c0 .11.037.22.11.33.073.073.165.092.275.055.403-.037.99-.11 1.76-.22s1.357-.183 1.76-.22c.33-.073.495-.257.495-.55zm0-10.835v-3.19c0-.293-.165-.44-.495-.44h-3.465c-.293 0-.44.147-.44.44v3.19c0 .33.147.495.44.495h3.465c.33 0 .495-.165.495-.495zm0-11v-3.19c0-.293-.165-.44-.495-.44h-3.465c-.293 0-.44.147-.44.44v3.19c0 .33.147.495.44.495h3.465c.33 0 .495-.165.495-.495zm21.395 11.495c1.247-3.447 2.127-7.333 2.64-11.66 0-.293-.147-.44-.44-.44h-8.91c-.807 0-1.522-.275-2.145-.825-.587-.587-.917-1.302-.99-2.145 0-.22-.147-.293-.44-.22a3.28 3.28 0 0 1-1.045.165c-.293 0-.44.147-.44.44v30.415c0 .073.018.128.055.165.073.037.147.037.22 0l.33-.33c2.017-1.54 3.758-3.208 5.225-5.005.257-.257.293-.532.11-.825-2.493-4.4-4.437-9.662-5.83-15.785-.183-.843-.055-1.632.385-2.365.477-.733 1.137-1.192 1.98-1.375l3.025-.77c.843-.183 1.613-.037 2.31.44.733.44 1.173 1.063 1.32 1.87.733 3.41 1.503 6.142 2.31 8.195.037.073.092.128.165.165.073 0 .128-.037.165-.11z" fill="url(#B)"/><path d="M487.565 93.875c.843 0 1.577.312 2.2.935s.935 1.357.935 2.2v24.53a3.01 3.01 0 0 1-3.135 3.135h-4.125c-.66 0-1.228-.22-1.705-.66-.44-.477-.66-1.045-.66-1.705 0-.257-.128-.385-.385-.385h-8.47c-.33 0-.495.165-.495.495v11.495a3.01 3.01 0 0 1-3.135 3.135h-4.18a3.01 3.01 0 0 1-3.135-3.135V122.42c0-.33-.165-.495-.495-.495h-8.47c-.257 0-.385.128-.385.385 0 .66-.238 1.228-.715 1.705-.44.44-.99.66-1.65.66h-4.125a3.01 3.01 0 0 1-3.135-3.135V97.01c0-.843.312-1.577.935-2.2s1.357-.935 2.2-.935h15.345c.33 0 .495-.165.495-.495v-4.895c0-.843.312-1.577.935-2.2s1.357-.935 2.2-.935h4.18c.843 0 1.577.312 2.2.935s.935 1.357.935 2.2v4.895c0 .33.165.495.495.495h15.345zm-35.145 19.8h8.36c.33 0 .495-.165.495-.495v-10.34c0-.293-.165-.44-.495-.44h-8.36c-.33 0-.495.147-.495.44v10.34c0 .33.165.495.495.495zm28.655-.495v-10.34c0-.293-.165-.44-.495-.44h-8.36c-.33 0-.495.147-.495.44v10.34c0 .33.165.495.495.495h8.36c.33 0 .495-.165.495-.495z" fill="url(#B)"/><path d="M525.02 90.85c.843 0 1.558.312 2.145.935s.862 1.357.825 2.2l-1.32 20.68c-.073.88-.422 1.632-1.045 2.255-.623.587-1.375.88-2.255.88h-3.63c-.88 0-1.632-.293-2.255-.88-.623-.623-.972-1.375-1.045-2.255l-1.32-20.68c-.037-.843.238-1.577.825-2.2s1.302-.935 2.145-.935h6.93zm-1.1 31.35a3.01 3.01 0 0 1 3.135 3.135v2.53A3.01 3.01 0 0 1 523.92 131h-4.73a3.01 3.01 0 0 1-3.135-3.135v-2.53a3.01 3.01 0 0 1 3.135-3.135h4.73z" fill="url(#B)"/><path d="M135.436 40.2c.843 0 1.576.312 2.2.935s.935 1.357.935 2.2v2.53a3.01 3.01 0 0 1-.935 2.2 3.01 3.01 0 0 1-2.2.935h-22.33c-.844 0-1.577-.312-2.2-.935a3.01 3.01 0 0 1-.935-2.2v-2.53c0-2.053.825-3.722 2.475-5.005 6.05-4.62 9.991-8.03 11.825-10.23 1.833-2.237 2.75-4.437 2.75-6.6 0-2.75-1.559-4.125-4.675-4.125-2.2 0-5.06.623-8.58 1.87-.734.257-1.412.183-2.035-.22-.624-.44-.935-1.027-.935-1.76v-3.63c0-.953.275-1.797.825-2.53.55-.77 1.265-1.265 2.145-1.485 3.593-.88 7.003-1.32 10.23-1.32 4.583 0 8.103 1.082 10.56 3.245 2.493 2.127 3.74 5.078 3.74 8.855 0 3.007-.954 5.867-2.86 8.58-1.87 2.713-5.574 6.398-11.11 11.055-.037.037-.055.073-.055.11s.018.055.055.055h11.11zm55.833-33.825c.844 0 1.577.312 2.2.935a3.01 3.01 0 0 1 .935 2.2v2.53c0 .843-.311 1.577-.935 2.2s-1.356.935-2.2.935h-22.77c-.33 0-.495.165-.495.495l-.165 6.16c0 .33.147.495.44.495h19.14c.844 0 1.577.312 2.2.935a3.01 3.01 0 0 1 .935 2.2v5.115l-.165 8.03-.44 5.885c-.183 1.723-.495 3.117-.935 4.18-.44 1.027-.916 1.888-1.43 2.585-.476.733-1.173 1.265-2.09 1.595a12.46 12.46 0 0 1-2.805.66c-.953.11-2.181.165-3.685.165-2.273 0-5.353-.11-9.24-.33a3.24 3.24 0 0 1-2.31-1.045c-.586-.623-.916-1.393-.99-2.31l-.22-2.805a2.58 2.58 0 0 1 .77-2.145c.587-.587 1.302-.843 2.145-.77l7.645.33c1.027 0 1.76-.22 2.2-.66s.77-1.467.99-3.08c.257-1.65.385-4.253.385-7.81v-1.705c0-.33-.165-.495-.495-.495h-12.485c-.293 0-.476.165-.55.495-.843 4.803-2.291 8.855-4.345 12.155-2.053 3.263-4.986 6.398-8.8 9.405a3.06 3.06 0 0 1-2.365.66 3.4 3.4 0 0 1-2.255-1.1l-2.585-2.805c-.55-.587-.788-1.302-.715-2.145s.44-1.503 1.1-1.98c4.144-3.153 6.949-6.765 8.415-10.835 1.467-4.107 2.219-10.468 2.255-19.085 0-.293-.146-.44-.44-.44h-9.075c-.843 0-1.576-.312-2.2-.935s-.935-1.357-.935-2.2V9.51a3.01 3.01 0 0 1 .935-2.2 3.01 3.01 0 0 1 2.2-.935h43.23zm53.9-.825c.844 0 1.577.312 2.2.935a3.01 3.01 0 0 1 .935 2.2V42.4l-.11 4.4c-.036 1.063-.201 2.053-.495 2.97s-.623 1.577-.99 1.98-.99.752-1.87 1.045c-.843.293-1.741.458-2.695.495l-4.015.11c-1.136 0-3.208-.055-6.215-.165a3.48 3.48 0 0 1-2.31-.99c-.66-.623-1.008-1.375-1.045-2.255l-.11-2.255a2.58 2.58 0 0 1 .77-2.145c.587-.623 1.284-.917 2.09-.88l4.62.165c1.1 0 1.742-.073 1.925-.22.184-.183.275-.752.275-1.705v-8.03c0-.33-.165-.495-.495-.495h-25.96c-.33 0-.495.165-.495.495v15.345c0 .843-.311 1.577-.935 2.2s-1.356.935-2.2.935h-3.905c-.843 0-1.576-.312-2.2-.935s-.935-1.357-.935-2.2V8.685a3.01 3.01 0 0 1 .935-2.2 3.01 3.01 0 0 1 2.2-.935h41.03zm-25.465 20.13V14.57c0-.33-.165-.495-.495-.495h-7.535c-.33 0-.495.165-.495.495v11.11c0 .33.165.495.495.495h7.535c.33 0 .495-.165.495-.495zm18.425 0V14.57c0-.33-.165-.495-.495-.495h-7.59c-.293 0-.44.165-.44.495v11.11c0 .33.147.495.44.495h7.59c.33 0 .495-.165.495-.495zm44.88 8.525c.257.88.22 1.742-.11 2.585s-.898 1.485-1.705 1.925c-7.443 4.107-15.015 7.645-22.715 10.615-.806.293-1.576.238-2.31-.165-.733-.367-1.228-.953-1.485-1.76l-.715-2.585a3.09 3.09 0 0 1 .22-2.42c.404-.807 1.009-1.357 1.815-1.65l1.32-.495c.294-.11.44-.33.44-.66V8.41a3.01 3.01 0 0 1 .935-2.2 3.01 3.01 0 0 1 2.2-.935h3.63c.844 0 1.577.312 2.2.935a3.01 3.01 0 0 1 .935 2.2v26.95c0 .33.147.422.44.275 3.264-1.503 6.784-3.245 10.56-5.225a2.23 2.23 0 0 1 2.145-.11 2.31 2.31 0 0 1 1.485 1.595l.715 2.31zm-8.03-25.19c.624-.587 1.375-.862 2.255-.825.917.037 1.669.367 2.255.99 2.787 2.933 5.574 6.215 8.36 9.845.514.697.715 1.485.605 2.365-.11.843-.513 1.54-1.21 2.09l-2.31 1.815a3.11 3.11 0 0 1-2.255.66c-.843-.11-1.521-.495-2.035-1.155-2.86-3.593-5.555-6.71-8.085-9.35a2.74 2.74 0 0 1-.825-2.145c.037-.843.367-1.558.99-2.145l2.255-2.145zm23.925 28.49c2.457 3.227 4.602 6.197 6.435 8.91.477.733.624 1.522.44 2.365-.183.807-.641 1.448-1.375 1.925l-2.805 1.815a2.85 2.85 0 0 1-2.31.44 3.11 3.11 0 0 1-1.98-1.32c-1.723-2.567-3.116-4.547-4.18-5.94-.22-.293-.458-.33-.715-.11-3.373 2.933-8.745 5.812-16.115 8.635-.843.33-1.686.33-2.53 0-.806-.293-1.43-.825-1.87-1.595l-1.595-2.86c-.403-.733-.476-1.485-.22-2.255a2.64 2.64 0 0 1 1.595-1.595l6.325-2.64c1.65-.733 3.264-1.595 4.84-2.585 1.614-1.027 2.842-1.962 3.685-2.805.88-.88 1.724-2.053 2.53-3.52.807-1.503 1.375-2.952 1.705-4.345.367-1.393.697-3.3.99-5.72a80.59 80.59 0 0 0 .55-7.26c.073-2.42.11-5.5.11-9.24 0-.843.312-1.558.935-2.145a3.01 3.01 0 0 1 2.2-.935h3.905c.844 0 1.577.312 2.2.935a3.01 3.01 0 0 1 .935 2.2c-.073 7.04-.385 12.833-.935 17.38s-1.485 8.378-2.805 11.495c-.11.293-.091.55.055.77zm57.915 6.82c.844 0 1.577.312 2.2.935a3.01 3.01 0 0 1 .935 2.2v2.53c0 .843-.311 1.577-.935 2.2s-1.356.935-2.2.935h-44.33c-.843 0-1.576-.312-2.2-.935s-.935-1.357-.935-2.2v-2.53a3.01 3.01 0 0 1 .935-2.2 3.01 3.01 0 0 1 2.2-.935h14.41c.33 0 .495-.165.495-.495V7.86c0-.843.294-1.577.88-2.2a3.01 3.01 0 0 1 2.2-.935h4.235c.844 0 1.577.312 2.2.935a3.01 3.01 0 0 1 .935 2.2v10.12c0 .33.147.495.44.495h15.785c.844 0 1.577.312 2.2.935a3.01 3.01 0 0 1 .935 2.2v2.255c0 .843-.311 1.577-.935 2.2s-1.356.935-2.2.935h-15.785c-.293 0-.44.147-.44.44v16.39c0 .33.147.495.44.495h18.535zM379.514 23.4h3.28c.694 0 1.494.093 2.4.28l1.84.4c.32.107.707.453 1.16 1.04s.72 1.093.8 1.52.187 1.24.32 2.44c.134 1.173.2 2.227.2 3.16v4.36c0 5.307-.653 9.107-1.96 11.4-1.28 2.267-3.16 3.4-5.64 3.4-1.786 0-3.986-.32-6.6-.96-.613-.16-1.08-.52-1.4-1.08s-.4-1.147-.24-1.76l.48-2c.16-.587.507-1.04 1.04-1.36s1.107-.413 1.72-.28c1.707.427 2.84.64 3.4.64 1.067 0 1.6-3.067 1.6-9.2 0-2.773-.106-4.4-.32-4.88-.186-.48-.88-.72-2.08-.72h-2.76c-.24 0-.386.107-.44.32-1.44 6.453-3.32 12.96-5.64 19.52-.213.613-.613 1.053-1.2 1.32a2.16 2.16 0 0 1-1.72.16l-1.88-.64c-.586-.187-1.026-.56-1.32-1.12-.266-.533-.293-1.107-.08-1.72 1.92-5.707 3.56-11.533 4.92-17.48.054-.24-.026-.36-.24-.36h-2.56a2.19 2.19 0 0 1-1.6-.68 2.19 2.19 0 0 1-.68-1.6v-1.84a2.19 2.19 0 0 1 .68-1.6 2.19 2.19 0 0 1 1.6-.68h3.88c.214 0 .347-.107.4-.32.187-.933.48-2.613.88-5.04.107-.64.414-1.16.92-1.56.507-.427 1.08-.613 1.72-.56l2.04.16a2.15 2.15 0 0 1 1.52.8c.4.453.56.973.48 1.56-.213 1.6-.453 3.147-.72 4.64-.053.213.04.32.28.32h1.52zm17.16-.24c1.68 4.96 3.24 10.187 4.68 15.68.16.587.08 1.147-.24 1.68a2.08 2.08 0 0 1-1.4 1l-2.56.64c-.613.133-1.186.04-1.72-.28s-.88-.787-1.04-1.4c-1.28-4.88-2.853-10.08-4.72-15.6a2.06 2.06 0 0 1 .16-1.68c.294-.533.734-.867 1.32-1l2.56-.64c.614-.16 1.2-.08 1.76.24a2.32 2.32 0 0 1 1.2 1.36zm29.44 6.64c4.214 0 7.267.813 9.16 2.44 1.894 1.6 2.84 4.12 2.84 7.56 0 3.573-1.533 6.4-4.6 8.48-3.04 2.08-7.373 3.12-13 3.12-2.64 0-5.293-.12-7.96-.36-.613-.053-1.12-.333-1.52-.84-.4-.48-.573-1.027-.52-1.64l.2-1.92a2.02 2.02 0 0 1 .8-1.48c.48-.4 1.027-.573 1.64-.52 2.854.24 5.307.36 7.36.36 2.8 0 5-.48 6.6-1.44 1.6-.987 2.4-2.24 2.4-3.76 0-2.4-1.533-3.6-4.6-3.6-2.16 0-5.226 1.04-9.2 3.12-1.333.72-2.746.933-4.24.64l-2.32-.52a2.26 2.26 0 0 1-1.48-.92 2.33 2.33 0 0 1-.36-1.72l1.28-7.96c.107-.64.4-1.147.88-1.52.507-.4 1.08-.573 1.72-.52l2.84.2c.614.053 1.12.333 1.52.84.4.48.56 1.027.48 1.64-.053.453-.146 1.093-.28 1.92l-.24 1.76v.04h.08c3.787-2.267 7.294-3.4 10.52-3.4zm-10.72-11.36c5.494.56 10.707.88 15.64.96.614 0 1.147.227 1.6.68a2.19 2.19 0 0 1 .68 1.6v1.84c0 .613-.226 1.147-.68 1.6s-.986.68-1.6.68c-5.813-.08-11.306-.4-16.48-.96a2.15 2.15 0 0 1-1.52-.8c-.373-.507-.52-1.067-.44-1.68l.24-1.92c.08-.613.374-1.107.88-1.48.507-.4 1.067-.573 1.68-.52zM36.95 111.035l10.835 9.35c.623.587.972 1.32 1.045 2.2.073.843-.183 1.595-.77 2.255l-2.805 3.245c-.55.66-1.265 1.027-2.145 1.1-.843.037-1.577-.238-2.2-.825-3.41-3.117-6.93-6.197-10.56-9.24-.257-.22-.495-.183-.715.11-4.95 5.17-10.78 9.68-17.49 13.53-.77.44-1.595.568-2.475.385a3.28 3.28 0 0 1-2.09-1.375l-2.695-3.74c-.477-.697-.642-1.448-.495-2.255a2.84 2.84 0 0 1 1.375-1.87c6.013-3.667 11.055-7.627 15.125-11.88.22-.183.22-.385 0-.605a388.66 388.66 0 0 0-10.615-8.03c-.697-.513-1.1-1.173-1.21-1.98-.11-.843.11-1.595.66-2.255l2.64-3.135a3.09 3.09 0 0 1 2.09-1.21 3.36 3.36 0 0 1 2.42.605c3.447 2.493 6.948 5.133 10.505 7.92.073.073.183.11.33.11.147-.037.238-.11.275-.22 2.603-3.923 4.767-8.177 6.49-12.76.293-.807.843-1.43 1.65-1.87.807-.477 1.632-.623 2.475-.44l4.565.99c.843.183 1.485.623 1.925 1.32a2.57 2.57 0 0 1 .275 2.255c-1.943 6.16-4.785 12.027-8.525 17.6-.22.257-.183.495.11.715zm68.145-3.575c.843.11 1.54.513 2.09 1.21.55.66.77 1.412.66 2.255-1.063 7.773-3.557 13.438-7.48 16.995-3.923 3.52-9.643 5.372-17.16 5.555-.843.037-1.577-.257-2.2-.88a3.17 3.17 0 0 1-.88-2.255V91.785a3.01 3.01 0 0 1 .935-2.2 3.01 3.01 0 0 1 2.2-.935h4.455a3.01 3.01 0 0 1 2.2.935 3.01 3.01 0 0 1 .935 2.2v30.085c0 .33.147.422.44.275 1.87-.88 3.3-2.273 4.29-4.18 1.027-1.943 1.797-4.712 2.31-8.305.11-.843.495-1.522 1.155-2.035.697-.55 1.467-.77 2.31-.66l3.74.495zM72.59 88.65a3.01 3.01 0 0 1 2.2.935 3.01 3.01 0 0 1 .935 2.2v8.415c0 7.003-.348 12.54-1.045 16.61-.66 4.07-1.778 7.315-3.355 9.735s-3.868 4.51-6.875 6.27c-.77.44-1.577.55-2.42.33s-1.522-.697-2.035-1.43l-2.365-3.63c-.477-.697-.623-1.448-.44-2.255.22-.807.697-1.43 1.43-1.87 1.503-.953 2.658-1.907 3.465-2.86.843-.99 1.522-2.42 2.035-4.29s.825-3.997.935-6.38c.147-2.42.22-5.83.22-10.23v-8.415a3.01 3.01 0 0 1 .935-2.2 3.01 3.01 0 0 1 2.2-.935h4.18zm73.645 16.17l15.29 16.28a3.07 3.07 0 0 1 .935 2.255 3.01 3.01 0 0 1-.935 2.2l-3.41 3.465a3.01 3.01 0 0 1-2.2.935c-.807 0-1.522-.293-2.145-.88-4.143-4.29-9.258-9.827-15.345-16.61-2.127-2.42-3.593-4.015-4.4-4.785s-1.467-1.155-1.98-1.155c-.44 0-1.008.458-1.705 1.375-.66.88-1.815 2.585-3.465 5.115l-6.49 9.68c-.477.697-1.155 1.137-2.035 1.32-.88.147-1.668-.018-2.365-.495l-3.63-2.365c-.733-.477-1.173-1.118-1.32-1.925a3.19 3.19 0 0 1 .495-2.365l5.995-8.635c4.07-5.903 6.692-9.46 7.865-10.67 1.32-1.357 2.805-2.108 4.455-2.255.513-.037 1.247-.055 2.2-.055 2.64 0 4.602.44 5.885 1.32s4.052 3.63 8.305 8.25zm3.685-7.37a3.85 3.85 0 0 0 2.75 1.1c1.063 0 1.962-.367 2.695-1.1.77-.77 1.155-1.687 1.155-2.75s-.385-1.962-1.155-2.695c-.733-.77-1.632-1.155-2.695-1.155s-1.98.385-2.75 1.155c-.733.733-1.1 1.632-1.1 2.695a3.85 3.85 0 0 0 1.1 2.75zm-3.465-8.965a8.47 8.47 0 0 1 6.215-2.585 8.47 8.47 0 0 1 6.215 2.585 8.47 8.47 0 0 1 2.585 6.215 8.47 8.47 0 0 1-2.585 6.215 8.47 8.47 0 0 1-6.215 2.585 8.47 8.47 0 0 1-6.215-2.585 8.47 8.47 0 0 1-2.585-6.215 8.47 8.47 0 0 1 2.585-6.215zm64.9 2.805l2.255 2.695a2.97 2.97 0 0 1 .77 2.31c-.073.88-.44 1.595-1.1 2.145-3.85 3.19-8.048 6.013-12.595 8.47-.293.183-.44.422-.44.715v23.265a3.01 3.01 0 0 1-3.135 3.135h-5.005a3.01 3.01 0 0 1-3.135-3.135v-18.095c0-.11-.055-.202-.165-.275s-.22-.092-.33-.055c-5.243 1.98-10.377 3.41-15.4 4.29-.843.147-1.632-.037-2.365-.55-.697-.513-1.118-1.192-1.265-2.035l-.55-3.465c-.147-.843.018-1.595.495-2.255.513-.697 1.192-1.137 2.035-1.32 6.563-1.173 12.925-3.153 19.085-5.94 6.197-2.823 11.678-6.215 16.445-10.175.66-.55 1.412-.807 2.255-.77.88.037 1.595.385 2.145 1.045zm28.27 23.595l-.165 2.97c-.257 5.647-.623 9.79-1.1 12.43-.44 2.64-1.027 4.327-1.76 5.06-.733.77-1.888 1.155-3.465 1.155-1.32 0-3.685-.055-7.095-.165a3.28 3.28 0 0 1-2.255-.99c-.587-.623-.898-1.375-.935-2.255l-.055-2.255c-.037-.843.257-1.558.88-2.145s1.357-.862 2.2-.825c.44 0 .898.018 1.375.055.513 0 .898.018 1.155.055h.605c.44 0 .715-.202.825-.605.183-.66.367-3.043.55-7.15 0-.33-.165-.495-.495-.495h-.385c-.33 0-.495.147-.495.44-.073.807-.422 1.467-1.045 1.98s-1.338.733-2.145.66l-1.925-.11c-.843-.073-1.558-.44-2.145-1.1-.55-.66-.788-1.412-.715-2.255l1.21-16.83c.073-.88.422-1.613 1.045-2.2a3.07 3.07 0 0 1 2.255-.935h4.345c.33 0 .495-.147.495-.44v-3.19c0-.33-.165-.495-.495-.495h-5.17a3.01 3.01 0 0 1-2.2-.935 3.01 3.01 0 0 1-.935-2.2v-1.98a3.01 3.01 0 0 1 .935-2.2 3.01 3.01 0 0 1 2.2-.935h11.605a3.01 3.01 0 0 1 2.2.935 3.01 3.01 0 0 1 .935 2.2v14.08a3.01 3.01 0 0 1-.935 2.2 3.01 3.01 0 0 1-2.2.935h-5.775c-.33 0-.495.165-.495.495-.037.367-.073.935-.11 1.705s-.073 1.338-.11 1.705c0 .33.147.495.44.495h6.325c.843 0 1.558.312 2.145.935.623.623.917 1.357.88 2.2zm30.525 6.38a192.78 192.78 0 0 1 2.585 11.55c.183.843.018 1.65-.495 2.42s-1.192 1.228-2.035 1.375l-1.815.385c-.843.183-1.613.018-2.31-.495-.697-.477-1.118-1.118-1.265-1.925-.037-.257-.128-.733-.275-1.43-.073-.33-.238-.477-.495-.44-7.187 1.247-14.245 2.09-21.175 2.53-.843.037-1.595-.238-2.255-.825s-1.027-1.302-1.1-2.145l-.11-1.98c-.037-.843.22-1.577.77-2.2.587-.66 1.302-1.027 2.145-1.1 1.797-.11 4.528-.348 8.195-.715.33 0 .495-.165.495-.495v-4.18c0-.33-.165-.495-.495-.495h-1.32c-.257 0-.385.128-.385.385 0 .66-.238 1.228-.715 1.705-.44.44-.99.66-1.65.66h-2.475a3.01 3.01 0 0 1-3.135-3.135V105.81a3.01 3.01 0 0 1 3.135-3.135h6.545c.33 0 .495-.165.495-.495v-.77c0-.257-.147-.385-.44-.385-1.43.11-3.63.238-6.6.385a3.27 3.27 0 0 1-2.31-.77 3.29 3.29 0 0 1-1.045-2.2l-.165-2.42a2.23 2.23 0 0 1 .605-1.705c.477-.513 1.045-.788 1.705-.825.22 0 .385-.128.495-.385l2.255-5.39c.33-.843.88-1.503 1.65-1.98a3.64 3.64 0 0 1 2.53-.605l3.465.44a2.06 2.06 0 0 1 1.705 1.1c.403.66.458 1.338.165 2.035l-.825 1.87-.77 1.815c-.037.11-.018.202.055.275s.165.11.275.11c1.357-.11 3.392-.312 6.105-.605.293 0 .367-.147.22-.44-.037-.037-.055-.073-.055-.11 0-.073-.018-.128-.055-.165-.33-.77-.33-1.522 0-2.255s.898-1.247 1.705-1.54l2.035-.77c.843-.293 1.668-.257 2.475.11a3.41 3.41 0 0 1 1.87 1.705c.953 2.053 2.237 5.097 3.85 9.13a2.95 2.95 0 0 1-.11 2.365c-.367.77-.953 1.283-1.76 1.54l-2.365.77c0 .037.018.092.055.165h.77a3.01 3.01 0 0 1 3.135 3.135v13.97a1.27 1.27 0 0 1-1.32 1.32c-.11 0-.165.055-.165.165zm-19.14-6.985v-4.785c0-.33-.165-.495-.495-.495h-1.265c-.293 0-.44.165-.44.495v4.785c0 .33.147.495.44.495h1.265c.33 0 .495-.165.495-.495zm9.625-13.805v1.705c0 .33.165.495.495.495h2.86c.293 0 .403-.165.33-.495l-.825-2.145c-.147-.293-.33-.403-.55-.33-.183.037-.477.073-.88.11s-.715.073-.935.11c-.33.073-.495.257-.495.55zm0 9.02v4.785c0 .33.165.495.495.495h1.21c.33 0 .495-.165.495-.495v-4.785c0-.33-.165-.495-.495-.495h-1.21c-.33 0-.495.165-.495.495zm6.435 11.715c.037 0 .055-.018.055-.055s-.018-.055-.055-.055h-5.94c-.33 0-.495.165-.495.495v3.025c0 .11.037.22.11.33.11.11.22.147.33.11.183 0 .44-.037.77-.11.367-.073.642-.11.825-.11.073 0 .147-.037.22-.11.11-.11.147-.202.11-.275-.11-.623 0-1.192.33-1.705.367-.55.843-.898 1.43-1.045l2.31-.495zm27.28-34.65c.843.147 1.503.568 1.98 1.265a2.66 2.66 0 0 1 .55 2.2c-.843 4.033-1.962 7.59-3.355 10.67-.147.367-.22.678-.22.935v31.735a3.01 3.01 0 0 1-3.135 3.135h-3.905a3.01 3.01 0 0 1-3.135-3.135v-18.59c0-.073-.037-.128-.11-.165s-.128-.018-.165.055c-.55.697-1.1 1.357-1.65 1.98-.513.55-1.137.752-1.87.605-.697-.147-1.192-.568-1.485-1.265l-1.815-4.345a4.35 4.35 0 0 1-.165-2.64c.22-.917.66-1.705 1.32-2.365 4.73-4.62 8.103-10.615 10.12-17.985.22-.843.697-1.522 1.43-2.035a3.16 3.16 0 0 1 2.42-.55l3.19.495zm29.7 27.61c.88.11 1.595.495 2.145 1.155.587.623.862 1.375.825 2.255-.11 3.373-.275 6.068-.495 8.085s-.477 3.703-.77 5.06-.77 2.347-1.43 2.97c-.66.66-1.357 1.118-2.09 1.375-.697.257-1.723.458-3.08.605-1.577.183-3.41.275-5.5.275-1.467 0-3.3-.037-5.5-.11-2.53-.11-4.327-.403-5.39-.88-1.063-.44-1.815-1.265-2.255-2.475-.403-1.173-.605-3.135-.605-5.885V89.86a3.01 3.01 0 0 1 .935-2.2 3.01 3.01 0 0 1 2.2-.935h3.905a3.01 3.01 0 0 1 2.2.935 3.01 3.01 0 0 1 .935 2.2v9.9c0 .11.055.202.165.275.11.037.202.018.275-.055 3.007-1.833 6.013-4.015 9.02-6.545.66-.55 1.412-.788 2.255-.715.88.037 1.613.367 2.2.99l2.145 2.53c.587.66.843 1.412.77 2.255s-.44 1.54-1.1 2.09c-5.133 4.18-10.248 7.59-15.345 10.23-.257.11-.385.33-.385.66V125.5c0 .697.055 1.137.165 1.32.11.147.422.257.935.33.807.073 1.54.11 2.2.11.88 0 1.613-.037 2.2-.11.403-.037.678-.11.825-.22.183-.147.348-.587.495-1.32.183-.733.293-1.742.33-3.025.073-1.32.147-3.337.22-6.05.037-.843.367-1.54.99-2.09s1.338-.788 2.145-.715l3.465.44zm56.485 15.4c.733.293 1.21.825 1.43 1.595a2.47 2.47 0 0 1-.33 2.145l-1.155 1.705c-.477.733-1.173 1.228-2.09 1.485-.88.257-1.723.202-2.53-.165-4.07-1.76-8.177-3.318-12.32-4.675-.77-.257-1.32-.752-1.65-1.485-.293-.733-.257-1.467.11-2.2l.22-.385c.073-.073.073-.165 0-.275s-.165-.165-.275-.165h-9.9c-.11 0-.202.055-.275.165-.037.073-.018.147.055.22.44.733.55 1.522.33 2.365s-.715 1.448-1.485 1.815c-3.557 1.76-7.975 3.373-13.255 4.84-.88.257-1.742.183-2.585-.22a3.95 3.95 0 0 1-1.87-1.76l-.88-1.65a2.23 2.23 0 0 1-.11-2.145c.33-.733.88-1.192 1.65-1.375a116.99 116.99 0 0 0 7.205-2.09c.037 0 .055-.018.055-.055 0-.073-.018-.11-.055-.11h-2.695a3.01 3.01 0 0 1-3.135-3.135V105.26a3.01 3.01 0 0 1 3.135-3.135h37.73a3.01 3.01 0 0 1 3.135 3.135v18.755a3.01 3.01 0 0 1-3.135 3.135h-1.705c-.037 0-.055.037-.055.11 0 .037.018.055.055.055 1.907.587 4.033 1.338 6.38 2.255zm-35.365-21.175v.715c0 .293.165.44.495.44h22.66c.33 0 .495-.147.495-.44v-.715c0-.33-.165-.495-.495-.495h-22.66c-.33 0-.495.165-.495.495zm0 6.325v.66c0 .33.165.495.495.495h22.66c.33 0 .495-.165.495-.495v-.66c0-.33-.165-.495-.495-.495h-22.66c-.33 0-.495.165-.495.495zm0 6.325v.715c0 .293.165.44.495.44h22.66c.33 0 .495-.147.495-.44v-.715c0-.33-.165-.495-.495-.495h-22.66c-.33 0-.495.165-.495.495zm32.89-34.595a3.01 3.01 0 0 1 2.2.935 3.01 3.01 0 0 1 .935 2.2v8.03a3.01 3.01 0 0 1-.935 2.2 3.01 3.01 0 0 1-2.2.935h-42.13a3.01 3.01 0 0 1-2.2-.935 3.01 3.01 0 0 1-.935-2.2v-8.03a3.01 3.01 0 0 1 .935-2.2 3.01 3.01 0 0 1 2.2-.935h42.13zm-31.515 8.58v-1.54c0-.293-.165-.44-.495-.44h-4.015c-.293 0-.44.147-.44.44v1.54c0 .33.147.495.44.495h4.015c.33 0 .495-.165.495-.495zm13.2 0v-1.54c0-.293-.165-.44-.495-.44h-4.565c-.293 0-.44.147-.44.44v1.54c0 .33.147.495.44.495h4.565c.33 0 .495-.165.495-.495zm12.65 0v-1.54c0-.293-.165-.44-.495-.44h-4.015c-.293 0-.44.147-.44.44v1.54c0 .33.147.495.44.495h4.015c.33 0 .495-.165.495-.495zm63.47 30.745a3.76 3.76 0 0 1 1.485 2.035c.257.807.202 1.613-.165 2.42l-1.65 3.19c-.403.733-1.008 1.21-1.815 1.43-.77.22-1.503.092-2.2-.385a49.48 49.48 0 0 1-6.545-5.5c-.22-.22-.44-.202-.66.055-1.687 1.87-3.612 3.648-5.775 5.335a2.75 2.75 0 0 1-2.255.55 2.86 2.86 0 0 1-1.98-1.32l-1.595-2.53c-.037-.037-.092-.055-.165-.055-.073.037-.11.092-.11.165v2.2a3.01 3.01 0 0 1-3.135 3.135h-3.355a3.01 3.01 0 0 1-3.135-3.135v-3.355c0-.33-.147-.458-.44-.385l-12.925 1.595a3.3 3.3 0 0 1-2.31-.66c-.697-.55-1.082-1.247-1.155-2.09l-.165-2.09c-.073-.843.165-1.595.715-2.255.55-.697 1.247-1.082 2.09-1.155.293-.073.44-.238.44-.495v-26.84c0-.257-.128-.385-.385-.385-.66 0-1.228-.22-1.705-.66-.44-.477-.66-1.045-.66-1.705v-2.75a3.01 3.01 0 0 1 .935-2.2 3.01 3.01 0 0 1 2.2-.935h23.43a3 3 0 0 1 2.035.77c.587.513.935 1.137 1.045 1.87a.35.35 0 0 0 .495.275 3.28 3.28 0 0 1 1.045-.165h16.28a3.01 3.01 0 0 1 2.2.935 3.01 3.01 0 0 1 .935 2.2v5.39c-.99 8.58-3.172 15.987-6.545 22.22-.183.257-.147.513.11.77a28.84 28.84 0 0 0 5.39 4.51zm-33.055-5.06v-2.97c0-.33-.165-.495-.495-.495h-3.465c-.293 0-.44.165-.44.495v3.575c0 .11.037.22.11.33.073.073.165.092.275.055.403-.037.99-.11 1.76-.22s1.357-.183 1.76-.22c.33-.073.495-.257.495-.55zm0-10.835v-3.19c0-.293-.165-.44-.495-.44h-3.465c-.293 0-.44.147-.44.44v3.19c0 .33.147.495.44.495h3.465c.33 0 .495-.165.495-.495zm0-11v-3.19c0-.293-.165-.44-.495-.44h-3.465c-.293 0-.44.147-.44.44v3.19c0 .33.147.495.44.495h3.465c.33 0 .495-.165.495-.495zm21.395 11.495c1.247-3.447 2.127-7.333 2.64-11.66 0-.293-.147-.44-.44-.44h-8.91c-.807 0-1.522-.275-2.145-.825-.587-.587-.917-1.302-.99-2.145 0-.22-.147-.293-.44-.22a3.28 3.28 0 0 1-1.045.165c-.293 0-.44.147-.44.44v30.415c0 .073.018.128.055.165.073.037.147.037.22 0l.33-.33c2.017-1.54 3.758-3.208 5.225-5.005.257-.257.293-.532.11-.825-2.493-4.4-4.437-9.662-5.83-15.785-.183-.843-.055-1.632.385-2.365.477-.733 1.137-1.192 1.98-1.375l3.025-.77c.843-.183 1.613-.037 2.31.44.733.44 1.173 1.063 1.32 1.87.733 3.41 1.503 6.142 2.31 8.195.037.073.092.128.165.165.073 0 .128-.037.165-.11zm63.36-16.5a3.01 3.01 0 0 1 2.2.935 3.01 3.01 0 0 1 .935 2.2v24.53a3.01 3.01 0 0 1-3.135 3.135h-4.125c-.66 0-1.228-.22-1.705-.66-.44-.477-.66-1.045-.66-1.705 0-.257-.128-.385-.385-.385h-8.47c-.33 0-.495.165-.495.495v11.495a3.01 3.01 0 0 1-3.135 3.135h-4.18a3.01 3.01 0 0 1-3.135-3.135V122.42c0-.33-.165-.495-.495-.495h-8.47c-.257 0-.385.128-.385.385 0 .66-.238 1.228-.715 1.705-.44.44-.99.66-1.65.66h-4.125a3.01 3.01 0 0 1-3.135-3.135V97.01a3.01 3.01 0 0 1 .935-2.2 3.01 3.01 0 0 1 2.2-.935h15.345c.33 0 .495-.165.495-.495v-4.895a3.01 3.01 0 0 1 .935-2.2 3.01 3.01 0 0 1 2.2-.935h4.18a3.01 3.01 0 0 1 2.2.935 3.01 3.01 0 0 1 .935 2.2v4.895c0 .33.165.495.495.495h15.345zm-35.145 19.8h8.36c.33 0 .495-.165.495-.495v-10.34c0-.293-.165-.44-.495-.44h-8.36c-.33 0-.495.147-.495.44v10.34c0 .33.165.495.495.495zm28.655-.495v-10.34c0-.293-.165-.44-.495-.44h-8.36c-.33 0-.495.147-.495.44v10.34c0 .33.165.495.495.495h8.36c.33 0 .495-.165.495-.495zm43.945-22.33c.843 0 1.558.312 2.145.935s.862 1.357.825 2.2l-1.32 20.68c-.073.88-.422 1.632-1.045 2.255-.623.587-1.375.88-2.255.88h-3.63c-.88 0-1.632-.293-2.255-.88-.623-.623-.972-1.375-1.045-2.255l-1.32-20.68c-.037-.843.238-1.577.825-2.2s1.302-.935 2.145-.935h6.93zm-1.1 31.35a3.01 3.01 0 0 1 3.135 3.135v2.53A3.01 3.01 0 0 1 523.92 131h-4.73a3.01 3.01 0 0 1-3.135-3.135v-2.53a3.01 3.01 0 0 1 3.135-3.135h4.73z" stroke="#000" stroke-width="8" mask="url(#A)"/><defs><linearGradient id="B" x1="52.469" y1="13.008" x2="469.762" y2="25.912" gradientUnits="userSpaceOnUse"><stop stop-color="#ff8c00"/><stop offset="1" stop-color="#ffe500"/></linearGradient></defs></svg>