<svg width="126" height="126" viewBox="0 0 126 126" fill="none" xmlns="http://www.w3.org/2000/svg">
<circle cx="62.6738" cy="62.8228" r="61.5" fill="white" stroke="black" stroke-width="2"/>
<g clip-path="url(#clip0_14_30)">
<path d="M28.6288 61.0587C28.5137 60.9081 27.3345 59.429 27.3345 59.429V68.8027C27.3345 69.5687 27.946 70.19 28.7056 70.19C29.4653 70.19 30.0769 69.5687 30.0769 68.8027L30.0576 62.6241C29.6353 62.2397 29.2349 61.8107 28.6288 61.0587Z" fill="url(#paint0_linear_14_30)"/>
<path d="M41.1288 66.5826C40.6571 66.5826 40.2128 66.4794 39.8124 66.29C39.7823 66.5826 39.9002 67.513 38.4522 68.5882C38.3453 68.6634 32.5478 72.3962 31.3329 73.0174C29.7642 73.8252 28.0118 73.5773 26.9807 73.0396C26.5803 72.8698 21.4959 69.7999 21.2902 69.6495C20.9117 69.3765 20.2892 68.8473 20.0918 68.1648C19.9108 67.5742 19.919 66.6522 19.919 66.6522V58.8524C19.919 57.6462 20.27 55.4818 22.4338 54.5179C24.7593 53.646 26.0236 55.0138 27.233 56.5124C27.3262 56.6294 29.6847 59.7939 30.7241 60.7327C32.0651 61.9473 33.4199 62.5685 35.0516 62.5685C39.4422 62.5685 41.1123 59.0418 41.1123 56.44C41.1096 53.0638 38.3892 50.3228 35.0489 50.3228C32.9756 50.3228 31.0696 51.3897 29.9672 53.1307C30.1701 53.3675 30.6885 54.0165 30.768 54.1112C30.7899 54.1335 31.662 55.2784 31.7086 55.3453C31.8594 55.1586 33.1128 53.1335 35.0461 53.1335C37.0261 53.1335 38.3124 54.699 38.3124 56.44C38.3124 58.259 36.8561 59.7299 35.1009 59.7299C34.0616 59.7299 33.3897 59.3538 32.5642 58.6045C31.7388 57.8551 29.671 55.0695 29.671 55.0695C29.49 54.8243 28.0612 53.0694 27.0383 52.3786C25.7603 51.5039 23.964 50.9802 21.5699 51.7936C19.1758 52.607 17.1738 55.2338 17.1738 58.8524L17.1848 66.6522C17.1848 66.9502 17.1629 67.9224 17.4014 68.8389C17.7909 70.3487 18.5012 71.2011 19.9738 72.1316C20.6759 72.5326 24.7209 74.9924 25.3462 75.3323C26.5337 75.9729 27.713 76.2961 29.2953 76.2989C30.5157 76.3017 31.7031 75.998 32.7096 75.4659C34.3304 74.6275 39.5958 71.2011 39.9276 70.9894C41.4716 69.9309 42.7303 68.2623 42.6015 66.2148C42.1627 66.446 41.6608 66.5826 41.1288 66.5826Z" fill="url(#paint1_linear_14_30)"/>
<path d="M41.1342 65.0782C42.0227 65.0782 42.744 64.3512 42.744 63.4486C42.744 62.5516 42.0227 61.819 41.1342 61.819C40.2456 61.819 39.5244 62.5461 39.5244 63.4486C39.5244 64.3512 40.2456 65.0782 41.1342 65.0782Z" fill="url(#paint2_linear_14_30)"/>
<path d="M52.1532 75.3091C51.2975 75.3091 50.6432 74.5933 50.6432 73.7751V62.4236C50.6432 60.276 52.1029 56.9013 56.4819 56.9013C57.237 56.9013 61.918 56.9013 61.918 63.1395C61.918 69.1731 58.4953 69.5311 57.086 69.5311C55.2236 69.5311 54.0156 68.3551 53.6632 67.6904V73.7751C53.6632 74.5933 53.0089 75.3091 52.1532 75.3091ZM58.7973 63.2418C58.7973 62.0657 58.596 61.1453 58.143 60.4806C57.69 59.8159 57.0356 59.5091 56.2303 59.5091C55.4249 59.5091 54.7706 59.8159 54.3176 60.4806C53.9149 61.043 53.7136 61.9634 53.7136 63.2418C53.7136 64.4178 53.9149 65.2871 54.3679 65.8496C54.8209 66.5143 55.4753 66.8211 56.2806 66.8211C57.0356 66.8211 57.69 66.5143 58.143 65.8496C58.596 65.236 58.7973 64.3667 58.7973 63.2418Z" fill="#1C1C1C"/>
<path d="M79.434 69.3267C78.528 69.3267 77.773 68.6108 77.773 67.7415V58.7933C77.773 57.924 78.528 57.2082 79.434 57.2082C80.34 57.2082 81.0951 57.924 81.0951 58.7933V67.7415C81.0951 68.6108 80.34 69.3267 79.434 69.3267Z" fill="#1C1C1C"/>
<path d="M79.4528 51.6536C78.504 51.6536 77.7218 52.4625 77.7218 53.4436C77.7218 54.4246 78.504 55.2335 79.4528 55.2335C80.4016 55.2335 81.1839 54.4246 81.1839 53.4436C81.1839 52.4625 80.4183 51.6536 79.4528 51.6536Z" fill="#1C1C1C"/>
<path d="M93.5343 51.2768C92.6786 51.2768 92.0243 51.9927 92.0243 52.8108V58.7933C91.6719 58.2309 91.1686 57.7195 90.5646 57.3616C90.0109 57.0548 89.3566 56.9014 88.6015 56.9014C87.1922 56.9014 86.0345 57.515 85.1286 58.691C84.2729 59.8671 83.8199 61.401 83.8199 63.293C83.8199 65.236 84.2729 66.77 85.1286 67.895C85.5815 68.4574 86.1855 68.9176 86.9405 69.1733C87.6955 69.429 88.4505 69.5824 89.2559 69.5824C90.7156 69.5824 92.0243 69.2244 93.2826 68.4574C94.4907 67.6904 95.145 66.2076 95.145 64.06V52.8108C95.0947 51.9415 94.39 51.2768 93.5343 51.2768ZM91.4203 65.9519C90.9672 66.6166 90.3632 66.9234 89.5076 66.9234C88.6519 66.9234 87.9975 66.6166 87.5948 65.9519C87.1418 65.2872 86.9405 64.3668 86.9405 63.1907C86.9405 62.1169 87.1418 61.2477 87.5948 60.6341C88.0479 59.9694 88.6519 59.6626 89.4572 59.6626C90.2626 59.6626 90.9169 59.9694 91.3699 60.583C91.8229 61.2477 92.0243 62.1169 92.0243 63.1907C92.0243 64.3668 91.8229 65.3383 91.4203 65.9519Z" fill="#1C1C1C"/>
<path d="M73.5109 69.3674C74.3666 69.3674 75.0209 68.6516 75.0209 67.8335V62.2599C75.0209 60.1124 73.5612 56.7376 69.1822 56.7376C68.4272 56.7376 63.7461 56.7376 63.7461 62.9758C63.7461 69.0094 67.1689 69.3674 68.5782 69.3674C70.4406 69.3674 71.6486 68.1914 72.0009 67.5267V67.8335C72.0009 68.6516 72.6552 69.3674 73.5109 69.3674ZM66.8668 63.0781C66.8668 61.902 67.0682 60.9816 67.5212 60.3169C67.9742 59.6522 68.6285 59.3454 69.4339 59.3454C70.2392 59.3454 70.8936 59.6522 71.3466 60.3169C71.7492 60.8793 71.9505 61.7997 71.9505 63.0781C71.9505 64.2541 71.7492 65.1234 71.2963 65.6859C70.8433 66.3506 70.1889 66.6574 69.3836 66.6574C68.6285 66.6574 67.9742 66.3506 67.5212 65.6859C67.0682 65.0723 66.8668 64.203 66.8668 63.0781Z" fill="#1C1C1C"/>
<path d="M98.8697 74.3888C98.8697 74.8489 99.2221 75.2069 99.6248 75.258C100.531 75.3603 101.99 75.3603 102.796 74.6956C103.349 74.2354 103.802 73.5707 104.155 72.548L108.081 59.2023C108.433 58.1797 107.678 57.157 106.621 57.157C105.916 57.157 105.312 57.6172 105.161 58.282L103.047 65.7474L100.933 58.3331C100.732 57.6172 100.128 57.157 99.3731 57.157C98.2657 57.157 97.5107 58.282 97.8631 59.3046L101.286 70.8095C101.487 71.4742 101.437 71.9344 101.084 72.1901C100.732 72.4969 100.279 72.6503 99.6751 72.6503C99.2221 72.6503 98.8194 73.0594 98.8194 73.5196V74.3888H98.8697Z" fill="#1C1C1C"/>
</g>
<defs>
<linearGradient id="paint0_linear_14_30" x1="19.2738" y1="73.2293" x2="41.2478" y2="53.3364" gradientUnits="userSpaceOnUse">
<stop stop-color="#A6009C"/>
<stop offset="1" stop-color="#FF009C"/>
</linearGradient>
<linearGradient id="paint1_linear_14_30" x1="19.3816" y1="80.6099" x2="34.4994" y2="54.8316" gradientUnits="userSpaceOnUse">
<stop offset="0.00901231" stop-color="#A6009C"/>
<stop offset="1" stop-color="#FF009C"/>
</linearGradient>
<linearGradient id="paint2_linear_14_30" x1="24.2005" y1="79.2643" x2="47.0141" y2="58.6114" gradientUnits="userSpaceOnUse">
<stop stop-color="#A6009C"/>
<stop offset="1" stop-color="#FF009C"/>
</linearGradient>
<clipPath id="clip0_14_30">
<rect width="91" height="26" fill="white" transform="translate(17.1738 50.3228)"/>
</clipPath>
</defs>
</svg>
