<svg width="180" height="52" viewBox="0 0 180 52" fill="none" xmlns="http://www.w3.org/2000/svg">
<g clip-path="url(#clip0_0_72)">
<path d="M23.2208 21.7357C22.9943 21.4404 20.6748 18.5391 20.6748 18.5391V36.9259C20.6748 38.4285 21.8776 39.6471 23.3719 39.6471C24.8662 39.6471 26.0692 38.4285 26.0692 36.9259L26.0313 24.8064C25.2007 24.0524 24.4131 23.2109 23.2208 21.7357Z" fill="url(#paint0_linear_0_72)"/>
<path d="M47.8087 32.571C46.8809 32.571 46.007 32.3687 45.2194 31.9972C45.1601 32.571 45.392 34.3961 42.5437 36.5052C42.3334 36.6527 30.9296 43.9746 28.5398 45.1931C25.4542 46.7777 22.0072 46.2913 19.9789 45.2368C19.1913 44.9036 9.19006 38.882 8.78549 38.5869C8.04107 38.0514 6.81652 37.0133 6.42813 35.6747C6.07211 34.5162 6.08829 32.7076 6.08829 32.7076V17.408C6.08829 15.042 6.77877 10.7963 11.035 8.90576C15.6094 7.19548 18.0962 9.87837 20.4752 12.8181C20.6585 13.0476 25.2978 19.2548 27.3423 21.0962C29.9801 23.4787 32.645 24.6972 35.8547 24.6972C44.4911 24.6972 47.7763 17.7795 47.7763 12.676C47.7709 6.05348 42.4197 0.676758 35.8493 0.676758C31.7711 0.676758 28.022 2.76953 25.8535 6.18461C26.2527 6.64907 27.2722 7.92221 27.4287 8.10799C27.4717 8.1517 29.1871 10.3975 29.2789 10.5286C29.5755 10.1625 32.0409 6.19008 35.8439 6.19008C39.7386 6.19008 42.2687 9.26093 42.2687 12.676C42.2687 16.2441 39.4041 19.1292 35.9517 19.1292C33.9073 19.1292 32.5857 18.3915 30.9619 16.9217C29.3382 15.4518 25.2708 9.98766 25.2708 9.98766C24.9148 9.5068 22.1043 6.0644 20.0923 4.70929C17.5784 2.99356 14.045 1.96629 9.33572 3.56183C4.6264 5.15735 0.688477 10.31 0.688477 17.408L0.710054 32.7076C0.710054 33.2922 0.666899 35.1992 1.13621 36.9969C1.90222 39.9585 3.29938 41.6305 6.19618 43.4556C7.57714 44.2423 15.5339 49.0673 16.7638 49.7338C19.0996 50.9905 21.4193 51.6244 24.5318 51.6299C26.9323 51.6354 29.2681 51.0398 31.2479 49.996C34.4359 48.3514 44.7931 41.6305 45.4459 41.2151C48.483 39.1389 50.9589 35.8658 50.7056 31.8497C49.8424 32.3032 48.8551 32.571 47.8087 32.571Z" fill="url(#paint1_linear_0_72)"/>
<path d="M47.8194 29.6202C49.567 29.6202 50.9858 28.1941 50.9858 26.4236C50.9858 24.6641 49.567 23.2271 47.8194 23.2271C46.0715 23.2271 44.6527 24.6534 44.6527 26.4236C44.6527 28.1941 46.0715 29.6202 47.8194 29.6202Z" fill="url(#paint2_linear_0_72)"/>
<path d="M69.494 49.6885C67.8109 49.6885 66.5237 48.2843 66.5237 46.6795V24.4131C66.5237 20.2005 69.395 13.5808 78.0088 13.5808C79.494 13.5808 88.7017 13.5808 88.7017 25.8173C88.7017 37.6525 81.9692 38.3546 79.1969 38.3546C75.5336 38.3546 73.1574 36.0479 72.4643 34.744V46.6795C72.4643 48.2843 71.1772 49.6885 69.494 49.6885ZM82.5633 26.0179C82.5633 23.711 82.1672 21.9056 81.2761 20.6017C80.3851 19.2979 79.0979 18.6961 77.5138 18.6961C75.9296 18.6961 74.6425 19.2979 73.7514 20.6017C72.9594 21.705 72.5633 23.5104 72.5633 26.0179C72.5633 28.3248 72.9594 30.0299 73.8504 31.1332C74.7415 32.4371 76.0286 33.0389 77.6128 33.0389C79.0979 33.0389 80.3851 32.4371 81.2761 31.1332C82.1672 29.9296 82.5633 28.2245 82.5633 26.0179Z" fill="#1C1C1C"/>
<path d="M123.156 37.9537C121.374 37.9537 119.889 36.5495 119.889 34.8444V17.2921C119.889 15.587 121.374 14.1829 123.156 14.1829C124.939 14.1829 126.424 15.587 126.424 17.2921V34.8444C126.424 36.5495 124.939 37.9537 123.156 37.9537Z" fill="#1C1C1C"/>
<path d="M123.193 3.28735C121.327 3.28735 119.788 4.87406 119.788 6.79836C119.788 8.72267 121.327 10.3094 123.193 10.3094C125.06 10.3094 126.598 8.72267 126.598 6.79836C126.598 4.87406 125.092 3.28735 123.193 3.28735Z" fill="#1C1C1C"/>
<path d="M150.892 2.5481C149.209 2.5481 147.922 3.95229 147.922 5.55707V17.2921C147.229 16.1888 146.239 15.1858 145.05 14.4837C143.961 13.8819 142.674 13.581 141.189 13.581C138.417 13.581 136.14 14.7846 134.358 17.0914C132.675 19.3983 131.783 22.4072 131.783 26.1183C131.783 29.9297 132.675 32.9387 134.358 35.1453C135.249 36.2486 136.437 37.1513 137.922 37.6528C139.407 38.1543 140.892 38.4552 142.476 38.4552C145.348 38.4552 147.922 37.7531 150.397 36.2486C152.773 34.7441 154.06 31.8354 154.06 27.6228V5.55707C153.961 3.85199 152.575 2.5481 150.892 2.5481ZM146.734 31.3339C145.843 32.6378 144.654 33.2396 142.971 33.2396C141.288 33.2396 140.001 32.6378 139.209 31.3339C138.318 30.03 137.922 28.2246 137.922 25.9177C137.922 23.8114 138.318 22.1065 139.209 20.9029C140.1 19.599 141.288 18.9971 142.872 18.9971C144.456 18.9971 145.744 19.599 146.635 20.8026C147.526 22.1065 147.922 23.8114 147.922 25.9177C147.922 28.2246 147.526 30.1303 146.734 31.3339Z" fill="#1C1C1C"/>
<path d="M111.505 38.0335C113.188 38.0335 114.476 36.6295 114.476 35.0247V24.092C114.476 19.8796 111.604 13.2598 102.991 13.2598C101.506 13.2598 92.2977 13.2598 92.2977 25.4962C92.2977 37.3314 99.0303 38.0335 101.803 38.0335C105.466 38.0335 107.842 35.7268 108.535 34.4229V35.0247C108.535 36.6295 109.822 38.0335 111.505 38.0335ZM98.4363 25.6968C98.4363 23.3899 98.8323 21.5845 99.7234 20.2806C100.614 18.9768 101.902 18.375 103.486 18.375C105.07 18.375 106.357 18.9768 107.248 20.2806C108.04 21.3839 108.436 23.1893 108.436 25.6968C108.436 28.0037 108.04 29.7088 107.149 30.8121C106.258 32.116 104.971 32.7178 103.387 32.7178C101.902 32.7178 100.614 32.116 99.7234 30.8121C98.8323 29.6085 98.4363 27.9034 98.4363 25.6968Z" fill="#1C1C1C"/>
<path d="M161.387 47.8834C161.387 48.7859 162.08 49.488 162.872 49.5883C164.654 49.7889 167.526 49.7889 169.11 48.4852C170.199 47.5825 171.09 46.2786 171.783 44.2726L179.506 18.0945C180.199 16.0885 178.713 14.0825 176.634 14.0825C175.248 14.0825 174.06 14.9852 173.763 16.2891L169.605 30.9328L165.446 16.3894C165.05 14.9852 163.862 14.0825 162.377 14.0825C160.199 14.0825 158.714 16.2891 159.407 18.2951L166.139 40.8624C166.536 42.1663 166.437 43.069 165.743 43.5705C165.05 44.1723 164.159 44.4732 162.971 44.4732C162.08 44.4732 161.288 45.2756 161.288 46.1783V47.8834H161.387Z" fill="#1C1C1C"/>
</g>
<defs>
<linearGradient id="paint0_linear_0_72" x1="4.81918" y1="45.6088" x2="47.9339" y2="6.46818" gradientUnits="userSpaceOnUse">
<stop stop-color="#A6009C"/>
<stop offset="1" stop-color="#FF009C"/>
</linearGradient>
<linearGradient id="paint1_linear_0_72" x1="5.0312" y1="60.0861" x2="34.6448" y2="9.44868" gradientUnits="userSpaceOnUse">
<stop offset="0.00901231" stop-color="#A6009C"/>
<stop offset="1" stop-color="#FF009C"/>
</linearGradient>
<linearGradient id="paint2_linear_0_72" x1="14.5101" y1="57.4467" x2="59.2721" y2="16.8107" gradientUnits="userSpaceOnUse">
<stop stop-color="#A6009C"/>
<stop offset="1" stop-color="#FF009C"/>
</linearGradient>
<clipPath id="clip0_0_72">
<rect width="179" height="51" fill="white" transform="translate(0.688477 0.676758)"/>
</clipPath>
</defs>
</svg>
