<svg width="156" height="63" viewBox="0 0 156 63" fill="none" xmlns="http://www.w3.org/2000/svg">
<g clip-path="url(#clip0_0_82)">
<path d="M149.427 23.5613L143.041 39.3764L136.578 23.5613H130.171L140.163 45.9226L134.904 58.2348H140.427L155.369 23.5613H149.427Z" fill="#222222"/>
<path d="M88.7601 11.7451H80.9068H75.2234V48.2838H80.9068V34.0961H88.7601C96.2259 34.0961 100.685 29.4461 100.685 22.993C100.705 16.4468 96.2466 11.7451 88.7601 11.7451ZM89.7211 28.7331H81.0101V17.1185H89.7418C93.5806 17.1185 94.9446 20.6576 94.9446 23.0085C94.9446 25.3593 93.5754 28.7331 89.7418 28.7331H89.7211Z" fill="#222222"/>
<path d="M114.981 23.2356C107.618 23.2356 102.266 28.5366 102.266 35.8371C102.266 43.2616 107.277 48.4438 114.449 48.4438C117.394 48.4438 120.566 46.6974 121.718 44.5171V48.2888H127.469V35.8371C127.469 28.1801 122.643 23.2356 114.981 23.2356ZM114.929 43.3856C110.703 43.3856 108.068 40.4923 108.068 35.8319C108.068 31.5281 111.023 28.2834 114.929 28.2834C119.094 28.2834 121.646 31.2491 121.646 35.8319C121.667 39.5003 119.383 43.3908 114.929 43.3908V43.3856Z" fill="#222222"/>
<path d="M32.7431 61.5517L56.7268 49.534C57.5568 49.1203 58.255 48.4834 58.7433 47.6949C59.2315 46.9064 59.4904 45.9975 59.4909 45.07V17.0667C59.4904 16.1393 59.2315 15.2303 58.7433 14.4418C58.255 13.6534 57.5568 13.0165 56.7268 12.6027L32.7431 0.585039C32.0425 0.236073 31.2705 0.0544434 30.4878 0.0544434C29.7052 0.0544434 28.9332 0.236073 28.2326 0.585039L4.25409 12.6027C3.42409 13.0165 2.72581 13.6534 2.23756 14.4418C1.74931 15.2303 1.49042 16.1393 1.48992 17.0667V45.07C1.49042 45.9975 1.74931 46.9064 2.23756 47.6949C2.72581 48.4834 3.42409 49.1203 4.25409 49.534L28.2326 61.5517C28.9332 61.9007 29.7052 62.0823 30.4878 62.0823C31.2705 62.0823 32.0425 61.9007 32.7431 61.5517Z" fill="#FF0211"/>
<path d="M50.4854 30.402C57.6648 30.402 63.4848 24.582 63.4848 17.4027C63.4848 10.2233 57.6648 4.40332 50.4854 4.40332C43.3061 4.40332 37.4861 10.2233 37.4861 17.4027C37.4861 24.582 43.3061 30.402 50.4854 30.402Z" fill="#4DC9FF"/>
<path d="M9.46725 41.1536L6.93042 39.8775V32.36C6.93042 30.159 8.17042 27.9631 10.7279 28.2266C13.1201 28.485 14.9646 30.6085 15.5381 31.9983C15.9207 31.6429 16.3839 31.3857 16.8879 31.2489C17.3919 31.1121 17.9216 31.0998 18.4314 31.213C19.7438 31.3886 24.6676 33.2796 24.6676 39.9395V48.8158L21.8828 47.4156V39.1128C21.8828 36.6793 20.3948 34.6436 18.3901 34.4111C17.5634 34.313 16.8401 34.9795 16.8401 36.4106C16.8401 37.8418 16.8401 44.853 16.8401 44.853L14.2826 43.5665V35.7183C14.2826 32.2515 12.0454 31.1561 11.0638 31.0683C10.5109 31.0063 9.48275 31.337 9.48275 33.135L9.46725 41.1536Z" fill="white"/>
</g>
<defs>
<clipPath id="clip0_0_82">
<rect width="155" height="62" fill="white" transform="translate(0.926758 0.0683594)"/>
</clipPath>
</defs>
</svg>
