<svg width="78" height="76" viewBox="0 0 78 76" fill="none" xmlns="http://www.w3.org/2000/svg">
<path d="M4.03027 28.1387C4.03325 29.3618 4.10327 30.5839 4.24003 31.7995L4.35937 33.2924C4.42809 33.7853 4.53658 34.2746 4.62338 34.7639C4.81143 35.7425 4.98502 36.7247 5.19116 37.6925C5.66434 39.615 6.24263 41.5107 6.92345 43.3713C8.30598 47.0437 10.1078 50.5486 12.2939 53.8181L13.9864 56.2003C14.5976 56.961 15.1799 57.736 15.8236 58.4682C17.0641 59.9555 18.4221 61.3432 19.8849 62.6183C17.666 59.5239 15.7215 56.2462 14.0732 52.8216C12.453 49.4571 11.1598 45.9485 10.2108 42.3427C9.72594 40.5699 9.33483 38.7734 9.03909 36.9604C8.91251 36.0532 8.8438 35.1389 8.74254 34.2353C8.69914 33.7817 8.63766 33.3317 8.60873 32.8781L8.57256 31.5138C8.50747 30.6495 8.49662 29.7816 8.5147 28.9208C8.26878 28.9423 8.01925 28.9566 7.76609 28.9566C6.47534 28.9561 5.20028 28.677 4.03027 28.1387Z" fill="#E5BC6C"/>
<path d="M16.5069 21.9958C19.3566 21.7744 22.2064 21.5363 25.0562 21.2815C30.1193 20.8458 35.1462 20.3136 40.1875 19.7743C40.1586 20.3529 40.1441 20.9279 40.1369 21.5137C40.1369 22.8923 40.202 24.2638 40.3503 25.621C41.5847 25.5352 42.8203 25.4543 44.0572 25.3781C44.0246 24.1352 44.0789 22.8994 44.1693 21.6744C44.2758 20.3901 44.4642 19.1137 44.7335 17.8529L45.3663 15.0635L42.4442 15.2278C36.506 15.5599 30.5713 15.8885 24.6439 16.3457C21.8086 16.56 18.9745 16.7873 16.1416 17.0278C16.7469 18.6106 16.8725 20.3331 16.5032 21.9851L16.5069 21.9958Z" fill="#E5BC6C"/>
<path d="M40.3871 25.9814C40.3871 25.8671 40.3617 25.7457 40.3509 25.6242C39.049 25.7135 37.747 25.8028 36.4451 25.9028C30.5189 26.3528 24.5975 26.8588 18.681 27.4207L16.7353 27.61L16.4858 29.3636C15.9252 33.3387 15.5744 37.3674 16.0409 41.3461L16.1603 42.839C16.229 43.3319 16.3375 43.8212 16.4243 44.3105C16.6124 45.2891 16.7859 46.2713 16.9921 47.2392C17.4653 49.1616 18.0435 51.0573 18.7244 52.9179C20.1069 56.5903 21.9087 60.0952 24.0948 63.3647L25.7874 65.7505C26.3985 66.5077 26.9808 67.2827 27.6245 68.0149C28.8643 69.5083 30.2223 70.902 31.6858 72.1828C29.4688 69.0847 27.5268 65.8034 25.8814 62.3754C24.2587 59.0112 22.963 55.5025 22.0118 51.8965C21.5269 50.1237 21.1358 48.3271 20.84 46.5142C20.7134 45.607 20.6447 44.6962 20.5435 43.7891C20.5001 43.3355 20.4386 42.8855 20.4096 42.4319L20.3735 41.0676C20.1529 38.0496 20.5037 35.0495 20.9738 32.0887C26.278 31.7196 31.5725 31.3054 36.8574 30.8458C41.9204 30.4101 46.9473 29.8779 51.9887 29.3422C51.9598 29.9172 51.9453 30.4922 51.9381 31.0815C51.9358 32.5708 52.0191 34.0589 52.1876 35.5388C52.5145 38.4649 53.1298 41.3525 54.0248 44.1605C54.4646 45.5508 54.9789 46.9171 55.5654 48.2535L56.4478 50.2464L57.4423 52.1822C58.0788 53.4822 58.9251 54.6823 59.652 55.9109C60.4476 57.1145 61.3265 58.2645 62.1836 59.411C61.6194 58.0895 60.9901 56.8145 60.444 55.5037C59.8979 54.193 59.3591 52.8965 58.9468 51.5429C57.9559 48.9107 57.3447 46.1856 56.7444 43.4748C56.2415 40.7735 55.9501 38.0379 55.8728 35.2924C55.8316 33.9379 55.8666 32.5822 55.9777 31.2315C56.0847 29.9473 56.2731 28.6709 56.5418 27.41L57.1747 24.6206L54.2526 24.7849C50.8568 24.9778 47.4573 25.1671 44.065 25.3813C44.065 25.4992 44.065 25.6171 44.065 25.7385L40.3871 25.9814Z" fill="#E5BC6C"/>
<path d="M40.387 25.9817L44.065 25.7424C44.065 25.6245 44.065 25.5067 44.065 25.3853C42.8282 25.4591 41.5925 25.54 40.3581 25.6281C40.3472 25.7531 40.3726 25.8674 40.387 25.9817Z" fill="#E5BC6C"/>
<path d="M48.7589 50.5003L41.9925 51.1075L41.8732 49.7967L48.6396 49.1895L48.3503 46.0609L43.3957 46.5073L48.0899 38.7214L47.9705 38.4678L43.4499 38.8714L39.4863 46.1109L34.1231 39.7321L29.5771 40.1393L29.6314 40.4464L35.613 47.2038L30.7091 47.6431L30.9948 50.7717L37.6889 50.1717L37.8119 51.4825L31.1178 52.0825L31.3962 55.1397L38.0903 54.5397L38.4303 58.2398L42.6145 57.8648L42.2746 54.1647L49.041 53.5575L48.7589 50.5003Z" fill="#E5BC6C"/>
<path d="M74.8813 20.2778C73.1279 15.8743 70.6295 11.7971 67.4929 8.22025L72.5559 6.59519L56.8243 0.702148L60.5384 16.9205L62.8638 12.2097C69.3409 18.9134 73.1743 28.2137 72.8923 37.689C72.7729 48.2394 67.7424 58.8111 59.1496 65.5471C54.8755 68.9763 49.8995 71.4498 44.5644 72.7973C39.1661 74.1434 33.5369 74.3213 28.0624 73.3187C17.0792 71.3115 7.08687 64.2363 1.49219 54.4217C4.11299 59.4959 7.81572 63.9492 12.3456 67.4752C16.8756 71.0012 22.1252 73.5163 27.7333 74.8474C33.4617 76.1716 39.4136 76.2463 45.1742 75.0663C50.9348 73.8864 56.3656 71.48 61.0881 68.015C70.7079 61.1577 76.9246 49.7751 77.619 37.8748C78.0442 31.881 77.1089 25.8691 74.8813 20.2778Z" fill="#AE7B52"/>
<path d="M7.67922 26.9422C11.4182 26.9422 14.4493 23.9488 14.4493 20.2562C14.4493 16.5637 11.4182 13.5703 7.67922 13.5703C3.94023 13.5703 0.90918 16.5637 0.90918 20.2562C0.90918 23.9488 3.94023 26.9422 7.67922 26.9422Z" fill="#393526"/>
<path d="M10.518 21.0277H8.43129V23.0813H6.95216V21.0277H4.84375V19.4705H6.95216V17.4312H8.43129V19.4705H10.518V21.0277Z" fill="#E5BC6C"/>
</svg>
