<svg width="163" height="113" viewBox="0 0 163 113" fill="none" xmlns="http://www.w3.org/2000/svg">
<g clip-path="url(#clip0_94_809)">
<path d="M2.84678 91.2229L0.629883 89.3514C1.56684 88.4101 2.34246 87.3244 2.92635 86.1371C3.50779 85.0046 3.89866 83.7863 4.08362 82.5298L7.11784 82.6869C7.06359 83.1405 7.00211 83.5763 6.92617 83.987H12.0182C12.6571 83.987 13.2996 83.6703 13.9457 83.037V84.4656C13.9457 87.1299 13.5515 89.2955 12.7632 90.9622C12.0169 92.5831 10.7441 93.9117 9.14668 94.7373C7.53132 95.5874 5.40122 96.1136 2.75637 96.316L2.2573 93.5552C5.07574 93.2694 7.09976 92.6325 8.32936 91.6444C9.55896 90.6562 10.2919 89.0193 10.5282 86.7335H6.05821C5.28666 88.4181 4.19669 89.9418 2.84678 91.2229Z" fill="#393526"/>
<path d="M29.4135 82.9438L31.2904 85.1332C29.8996 86.3807 28.3568 87.4521 26.6975 88.3226V94.3478C26.6975 94.9835 27.0194 95.6181 27.6631 96.2514H22.3613C23.0051 95.6204 23.3269 94.9859 23.3269 94.3478V89.8441C21.4936 90.5252 19.593 91.0148 17.6563 91.3048L17.1572 88.4655C19.4706 88.1439 21.7243 87.4918 23.8477 86.5297C25.8836 85.6332 27.7623 84.4228 29.4135 82.9438Z" fill="#393526"/>
<path d="M34.8779 86.6549L37.3191 86.0692C37.7458 87.5585 38.1436 89.0157 38.5089 90.43L35.9773 91.0193C35.6012 89.4728 35.2396 88.0192 34.8779 86.6549ZM46.1215 85.9406C46.1215 88.3216 45.8238 90.2264 45.2283 91.6551C44.7031 92.9918 43.7307 94.111 42.4725 94.8266C41.2357 95.5242 39.548 95.9623 37.4095 96.1409L36.8959 93.7158C38.5981 93.5349 39.9072 93.1884 40.8234 92.6765C41.7533 92.1434 42.46 91.2999 42.8161 90.2979C43.2248 89.2264 43.4345 87.7299 43.4345 85.8156L46.1215 85.9406ZM38.3642 86.2763L40.8668 85.687C41.2743 87.1156 41.6709 88.5859 42.0566 90.0979L39.5251 90.6836C39.0791 88.8883 38.6909 87.4192 38.3606 86.2763H38.3642Z" fill="#393526"/>
<path d="M52.1896 91.2229L49.9727 89.3514C50.9085 88.4092 51.684 87.3237 52.2691 86.1371C52.8506 85.0046 53.2414 83.7863 53.4264 82.5298L56.4606 82.6869C56.4064 83.1405 56.3413 83.5763 56.2689 83.987H61.3609C62.0023 83.987 62.6448 83.6703 63.2885 83.037V84.4656C63.2885 87.1299 62.8943 89.2955 62.1059 90.9622C61.3596 92.5831 60.0869 93.9117 58.4895 94.7373C56.8741 95.5874 54.7428 96.1136 52.0955 96.316L51.6001 93.5552C54.4137 93.2694 56.4377 92.6325 57.6721 91.6444C58.9066 90.6562 59.6395 89.0193 59.8709 86.7335H55.401C54.6271 88.4168 53.5374 89.9401 52.1896 91.2229Z" fill="#393526"/>
<path d="M66.7393 87.1336V82.3906C67.383 83.0216 68.0255 83.3383 68.6668 83.3406H78.3843C79.028 83.3406 79.9924 83.024 81.2775 82.3906C80.6337 83.6573 80.3119 84.6097 80.3119 85.2479V86.1836C79.822 87.5217 79.0864 88.7591 78.142 89.8337C77.0791 90.965 75.8369 91.918 74.464 92.6552C75.1873 93.6815 75.6852 94.3958 75.9576 94.7982L73.1621 96.5089C71.6528 94.3184 70.0628 92.0981 68.392 89.848L71.108 88.0622C71.7915 88.973 72.2905 89.6373 72.6016 90.0623C74.6027 88.9742 76.0107 87.6836 76.8256 86.1907H68.6668C68.0255 86.1836 67.383 86.4979 66.7393 87.1336Z" fill="#393526"/>
<path d="M96.3577 87.0833C95.7053 88.0937 94.892 88.9934 93.9491 89.7477C95.0811 90.6263 96.166 91.4692 97.204 92.2728L95.2258 94.555C94.2855 93.7931 93.0486 92.8407 91.5153 91.6978V94.6157C91.5153 95.2515 91.8371 95.886 92.4809 96.5194H87.237C87.8783 95.8884 88.199 95.2538 88.199 94.6157V92.8728C86.5988 93.4673 84.9496 93.9238 83.2697 94.2371L82.5283 91.3799C84.4536 91.0074 86.3312 90.4253 88.1266 89.6441C89.6607 88.9953 91.0929 88.1329 92.3796 87.0833H85.6168C84.973 87.0833 84.3329 87.4012 83.6892 88.0369V83.3725C84.3329 84.0082 84.973 84.3225 85.6168 84.3225H88.2026V84.1189C88.2026 83.4832 87.8819 82.8487 87.2406 82.2153H92.4592C91.8154 82.8463 91.4936 83.4808 91.4936 84.1189V84.3261H94.4193C95.0594 84.3261 96.025 84.0118 97.3125 83.3761C96.6724 84.644 96.3505 85.5976 96.3505 86.2333L96.3577 87.0833Z" fill="#393526"/>
<path d="M99.4756 92.0192V87.019C100.114 87.6548 100.757 87.9727 101.403 87.9727H111.359C112.003 87.9727 112.646 87.6548 113.287 87.019V92.0192C112.648 91.3835 112.005 91.0656 111.359 91.0656H101.421C100.765 91.0656 100.117 91.3835 99.4756 92.0192Z" fill="#393526"/>
<path d="M125.159 86.5941H117.85C117.481 86.6165 117.121 86.7118 116.789 86.8744C116.458 87.0369 116.164 87.2635 115.923 87.5406V82.719C116.163 82.9968 116.458 83.224 116.789 83.3872C117.12 83.5504 117.481 83.6463 117.85 83.6691H125.977C126.054 83.0842 126.346 82.5478 126.798 82.1619C127.278 81.7543 127.899 81.5448 128.531 81.5769C129.164 81.609 129.76 81.8802 130.195 82.3343C130.631 82.7883 130.873 83.3905 130.871 84.016C130.87 84.6415 130.624 85.2424 130.186 85.6941C129.734 86.1535 129.117 86.4179 128.468 86.4299C128.145 89.5895 127.082 91.9634 125.279 93.5515C123.475 95.1397 120.848 96.0659 117.398 96.3302L116.823 93.4729C119.521 93.2586 121.515 92.6289 122.805 91.5836C124.095 90.5383 124.88 88.8752 125.159 86.5941ZM129.174 84.737C129.277 84.6432 129.359 84.5288 129.415 84.4013C129.47 84.2739 129.498 84.1363 129.495 83.9977C129.492 83.7908 129.427 83.5896 129.308 83.4191C129.19 83.2486 129.023 83.1164 128.829 83.0388C128.634 82.9613 128.421 82.942 128.216 82.9832C128.011 83.0244 127.822 83.1244 127.674 83.2707C127.526 83.4169 127.425 83.603 127.383 83.8057C127.342 84.0084 127.361 84.2188 127.44 84.4105C127.518 84.6023 127.652 84.767 127.825 84.8841C127.997 85.0012 128.201 85.0656 128.411 85.0691C128.554 85.0716 128.697 85.0432 128.829 84.9858C128.961 84.9285 129.078 84.8436 129.174 84.737Z" fill="#393526"/>
<path d="M142.215 90.0837H134.458C133.814 90.0837 133.174 90.398 132.53 91.0338V86.3693C133.174 87.005 133.814 87.3229 134.458 87.3229H143.839C144.483 87.3229 145.123 87.005 145.767 86.3693V87.7979C145.767 90.5456 144.923 92.6183 143.235 94.016C141.547 95.4137 138.889 96.1803 135.261 96.3161L134.762 93.5553C136.968 93.4696 138.665 93.1493 139.854 92.5945C140.401 92.359 140.893 92.0144 141.3 91.5824C141.706 91.1503 142.018 90.6402 142.215 90.0837ZM133.688 86.7372V82.0728C134.331 82.7049 134.971 83.0228 135.615 83.0228H142.938C143.582 83.0228 144.222 82.7049 144.866 82.0728V86.7372C144.222 86.1015 143.582 85.7836 142.938 85.7836H135.615C134.971 85.7836 134.331 86.1122 133.688 86.7372Z" fill="#393526"/>
<path d="M150.294 86.973V82.23C150.938 82.8657 151.58 83.1836 152.222 83.1836H159.227C159.867 83.1836 160.833 82.8657 162.12 82.23C161.476 83.4979 161.158 84.4515 161.158 85.0872V86.023C160.403 87.5354 159.458 88.9478 158.344 90.2267C159.791 91.4839 161.221 92.7625 162.634 94.0625L160.5 96.1733C159.15 94.8828 157.742 93.6089 156.276 92.3517C154.486 93.9498 152.439 95.2414 150.218 96.1733L148.822 93.6518C152.706 91.8327 155.641 89.2897 157.625 86.023H152.222C151.582 86.023 150.938 86.3372 150.294 86.973Z" fill="#393526"/>
<path d="M32.3467 112.02C29.4849 112.046 28.0467 110.652 28.0323 107.838C27.9748 106.742 28.3377 105.666 29.0485 104.823C29.808 103.973 30.9074 103.535 32.3467 103.509C33.7861 103.483 34.8891 103.907 35.6558 104.78C36.3615 105.642 36.7196 106.731 36.6612 107.838C36.6612 109.409 36.179 110.542 35.2146 111.238C35.4244 111.238 35.8909 111.263 36.6178 111.277L36.4334 112.706C35.7277 112.711 35.0224 112.674 34.3213 112.595C33.6609 112.509 33.0194 112.316 32.4227 112.024L32.3467 112.02ZM32.3467 105.041C32.0189 105.016 31.6897 105.066 31.384 105.185C31.0782 105.305 30.804 105.491 30.5819 105.73C30.1552 106.205 29.9382 106.916 29.9309 107.873C29.9092 109.626 30.7012 110.506 32.307 110.513C33.1725 110.513 33.7933 110.308 34.1694 109.898C34.5311 109.484 34.7336 108.827 34.7336 107.873C34.7517 105.995 33.9597 105.041 32.3467 105.041Z" fill="#393526"/>
<path d="M43.8866 111.781H42.4039L42.3424 111.366C41.863 111.732 41.274 111.931 40.668 111.931C39.747 111.931 39.084 111.766 38.6789 111.438C38.2232 111.081 37.999 110.463 37.999 109.595V106.084H39.6264L39.6047 109.595C39.593 109.724 39.6081 109.854 39.6491 109.976C39.6902 110.099 39.7563 110.212 39.8434 110.309C40.0668 110.473 40.3435 110.551 40.621 110.527C40.9796 110.532 41.3342 110.453 41.6553 110.295C41.9031 110.182 42.1092 109.996 42.2448 109.763V106.084H43.8866V111.781Z" fill="#393526"/>
<path d="M45.4268 105.398V103.777H47.1012V105.398H45.4268ZM45.4485 111.727V106.13H47.0723V111.727H45.4485Z" fill="#393526"/>
<path d="M51.8536 111.948C50.7566 111.963 49.9127 111.725 49.322 111.234C49.0046 110.949 48.7553 110.598 48.592 110.207C48.4288 109.815 48.3557 109.393 48.3781 108.97C48.3542 108.566 48.4148 108.161 48.556 107.782C48.6972 107.402 48.9161 107.055 49.1991 106.762C49.5367 106.441 49.9383 106.192 50.3784 106.031C50.8185 105.871 51.2876 105.802 51.7559 105.83C52.6356 105.817 53.4987 106.066 54.2332 106.545L53.6871 107.745L53.4846 107.766C53.0367 107.377 52.4642 107.157 51.868 107.145C51.3901 107.12 50.9211 107.279 50.5589 107.587C50.3767 107.766 50.2346 107.98 50.1417 108.217C50.0489 108.453 50.0074 108.706 50.02 108.959C50.02 110.068 50.6228 110.623 51.8283 110.623C52.1463 110.643 52.4653 110.601 52.7664 110.498C53.0676 110.395 53.3449 110.233 53.5822 110.023H53.7378L54.2549 111.173C53.9109 111.439 53.5248 111.647 53.1121 111.788C52.7028 111.901 52.2788 111.956 51.8536 111.948Z" fill="#393526"/>
<path d="M59.4451 111.738L57.456 109.024L56.8991 109.434V111.738H55.2861V103.581H56.8991V107.831L59.0183 106.116H60.917L60.9459 106.284L58.6603 108.191L61.3003 111.577V111.738H59.4451Z" fill="#393526"/>
<path d="M74.1349 111.77V106.345L72.2761 111.345H70.8295L69.0646 106.391V111.749H67.2998V103.73H69.6035L71.56 109.352L73.5093 103.741H75.8564V111.77H74.1349Z" fill="#393526"/>
<path d="M80.4457 112.009C79.6049 112.069 78.7723 111.814 78.113 111.295C77.4943 110.673 77.1443 109.839 77.1368 108.967C77.1294 108.096 77.4652 107.255 78.0733 106.623C78.7218 106.077 79.5543 105.792 80.4059 105.823C81.2578 105.773 82.0972 106.045 82.753 106.584C83.0727 106.874 83.3233 107.23 83.4866 107.627C83.6498 108.025 83.7216 108.453 83.6969 108.881C83.6969 109.933 83.3822 110.728 82.753 111.266C82.0983 111.778 81.2799 112.042 80.4457 112.009ZM80.4167 107.184C80.2034 107.162 79.9878 107.191 79.7882 107.269C79.5886 107.347 79.411 107.471 79.2703 107.631C79.0002 108.012 78.8724 108.474 78.9087 108.938C78.9231 110.078 79.4342 110.64 80.442 110.624C81.4619 110.624 81.9718 110.041 81.9646 108.898C81.9573 107.756 81.4474 107.184 80.4167 107.184Z" fill="#393526"/>
<path d="M89.1868 111.749V108.256C89.1868 107.577 88.8504 107.234 88.1705 107.234C87.8203 107.23 87.4751 107.316 87.1688 107.484C86.9225 107.616 86.7155 107.809 86.5684 108.045V111.745H84.9121V106.073H86.3949L86.4961 106.466C86.9628 106.099 87.5455 105.907 88.1416 105.923C89.0964 105.923 89.7907 106.13 90.2319 106.545C90.6732 106.959 90.8106 107.509 90.8106 108.331V111.749H89.1868Z" fill="#393526"/>
<path d="M93.7545 109.363C93.7834 110.227 94.3368 110.652 95.4181 110.645C95.786 110.643 96.1516 110.588 96.503 110.48C96.8156 110.4 97.106 110.251 97.3529 110.045L97.5337 110.073L98.0003 111.177C97.4409 111.653 96.5549 111.91 95.3421 111.948C94.6532 111.999 93.9638 111.857 93.3531 111.538C92.4634 111.016 92.0355 110.16 92.0692 108.97C92.0982 107.934 92.4032 107.145 92.9842 106.602C93.5996 106.069 94.3979 105.789 95.2156 105.82C96.5175 105.82 97.4035 106.227 97.8773 107.084C98.1578 107.598 98.2974 108.175 98.2823 108.759C98.2823 108.938 98.2823 109.138 98.2534 109.359L93.7545 109.363ZM95.259 107.087C95.0854 107.081 94.9123 107.109 94.75 107.171C94.5878 107.232 94.4399 107.325 94.3151 107.445C94.0975 107.626 93.9558 107.88 93.9172 108.159H96.5971C96.5647 107.861 96.4202 107.585 96.192 107.388C95.9314 107.183 95.6059 107.077 95.2734 107.087H95.259Z" fill="#393526"/>
<path d="M102.198 112.692H100.444L101.428 110.788L98.7881 106.145H100.658L102.332 109.263L103.916 106.145H105.782L102.198 112.692Z" fill="#393526"/>
<path d="M115.887 108.841H113.663V111.77H111.765V103.73H115.743C116.492 103.681 117.231 103.922 117.804 104.402C118.039 104.629 118.223 104.902 118.342 105.205C118.461 105.507 118.513 105.831 118.495 106.155C118.522 106.823 118.31 107.479 117.898 108.009C117.65 108.291 117.34 108.513 116.991 108.657C116.642 108.801 116.265 108.864 115.887 108.841ZM115.584 105.223H113.663V107.366H115.526C115.679 107.374 115.832 107.351 115.975 107.297C116.118 107.244 116.248 107.161 116.358 107.055C116.573 106.813 116.683 106.495 116.661 106.173C116.676 105.545 116.314 105.223 115.591 105.223H115.584Z" fill="#393526"/>
<path d="M119.691 111.731V103.613H121.333V111.734L119.691 111.731Z" fill="#393526"/>
<path d="M128.827 111.781H127.344L127.283 111.366C126.803 111.732 126.214 111.931 125.608 111.931C124.685 111.931 124.022 111.766 123.619 111.438C123.164 111.081 122.939 110.463 122.939 109.595V106.084H124.567L124.545 109.595C124.533 109.724 124.549 109.854 124.59 109.976C124.631 110.099 124.697 110.212 124.784 110.309C125.007 110.473 125.284 110.551 125.561 110.527C125.92 110.532 126.275 110.453 126.596 110.295C126.844 110.182 127.05 109.996 127.185 109.763V106.084H128.827V111.781Z" fill="#393526"/>
<path d="M132.479 112.031C131.552 112.064 130.64 111.796 129.883 111.267L130.461 110.145H130.642C130.873 110.356 131.152 110.509 131.456 110.588C131.77 110.696 132.097 110.76 132.429 110.777C132.736 110.795 133.044 110.75 133.333 110.645C133.418 110.606 133.492 110.549 133.552 110.478C133.611 110.407 133.654 110.324 133.676 110.234C133.686 110.188 133.685 110.141 133.673 110.095C133.662 110.05 133.641 110.007 133.611 109.97C133.557 109.884 133.478 109.815 133.384 109.774C133.043 109.663 132.693 109.583 132.338 109.534C131.961 109.481 131.587 109.401 131.221 109.295C130.883 109.201 130.58 109.013 130.349 108.752C130.12 108.442 130.005 108.064 130.024 107.681C130.006 107.372 130.077 107.065 130.229 106.794C130.382 106.524 130.609 106.303 130.885 106.156C131.441 105.871 132.068 105.747 132.693 105.799C133.526 105.816 134.338 106.063 135.036 106.513L134.418 107.634L134.255 107.656C134.06 107.476 133.83 107.336 133.579 107.245C133.325 107.132 133.051 107.07 132.772 107.063C132.442 107.049 132.112 107.112 131.81 107.245C131.619 107.345 131.521 107.456 131.514 107.574C131.496 107.672 131.515 107.773 131.569 107.858C131.622 107.942 131.706 108.004 131.803 108.031C132.189 108.134 132.58 108.216 132.975 108.277C133.37 108.338 133.758 108.438 134.132 108.577C134.468 108.691 134.756 108.911 134.952 109.203C135.148 109.495 135.241 109.842 135.217 110.192C135.227 111.418 134.314 112.031 132.479 112.031Z" fill="#393526"/>
<path d="M46.6602 28.1387C46.6631 29.3618 46.7332 30.5839 46.8699 31.7995L46.9893 33.2924C47.058 33.7853 47.1665 34.2746 47.2533 34.7639C47.4413 35.7425 47.6149 36.7247 47.821 37.6925C48.2942 39.615 48.8725 41.5107 49.5533 43.3713C50.9359 47.0437 52.7376 50.5486 54.9238 53.8181L56.6163 56.2003C57.2275 56.961 57.8097 57.736 58.4535 58.4682C59.694 59.9555 61.052 61.3432 62.5148 62.6183C60.2958 59.5239 58.3514 56.2462 56.7031 52.8216C55.0829 49.4571 53.7897 45.9485 52.8407 42.3427C52.3558 40.5699 51.9647 38.7734 51.669 36.9604C51.5424 36.0532 51.4737 35.1389 51.3724 34.2353C51.329 33.7817 51.2675 33.3317 51.2386 32.8781L51.2024 31.5138C51.1374 30.6495 51.1265 29.7816 51.1446 28.9208C50.8987 28.9423 50.6491 28.9566 50.396 28.9566C49.1052 28.9561 47.8302 28.677 46.6602 28.1387Z" fill="#E5BC6C"/>
<path d="M59.1367 21.9958C61.9865 21.7744 64.8363 21.5363 67.6861 21.2815C72.7492 20.8458 77.7761 20.3136 82.8174 19.7743C82.7885 20.3529 82.774 20.9279 82.7668 21.5137C82.7668 22.8923 82.8319 24.2638 82.9802 25.621C84.2146 25.5352 85.4502 25.4543 86.6871 25.3781C86.6545 24.1352 86.7088 22.8994 86.7992 21.6744C86.9057 20.3901 87.0941 19.1137 87.3633 17.8529L87.9962 15.0635L85.0741 15.2278C79.1358 15.5599 73.2012 15.8885 67.2738 16.3457C64.4385 16.56 61.6044 16.7873 58.7715 17.0278C59.3767 18.6106 59.5024 20.3331 59.1331 21.9851L59.1367 21.9958Z" fill="#E5BC6C"/>
<path d="M83.0169 25.9814C83.0169 25.8671 82.9916 25.7457 82.9808 25.6242C81.6788 25.7135 80.3769 25.8028 79.075 25.9028C73.1488 26.3528 67.2274 26.8588 61.3109 27.4207L59.3652 27.61L59.1157 29.3636C58.5551 33.3387 58.2043 37.3674 58.6708 41.3461L58.7902 42.839C58.8589 43.3319 58.9674 43.8212 59.0542 44.3105C59.2422 45.2891 59.4158 46.2713 59.622 47.2392C60.0952 49.1616 60.6734 51.0573 61.3543 52.9179C62.7368 56.5903 64.5386 60.0952 66.7247 63.3647L68.4172 65.7505C69.0284 66.5077 69.6107 67.2827 70.2544 68.0149C71.4942 69.5083 72.8522 70.902 74.3157 72.1828C72.0987 69.0847 70.1567 65.8034 68.5113 62.3754C66.8886 59.0112 65.5929 55.5025 64.6416 51.8965C64.1567 50.1237 63.7656 48.3271 63.4699 46.5142C63.3433 45.607 63.2746 44.6962 63.1733 43.7891C63.1299 43.3355 63.0685 42.8855 63.0395 42.4319L63.0034 41.0676C62.7828 38.0496 63.1336 35.0495 63.6037 32.0887C68.9079 31.7196 74.2024 31.3054 79.4873 30.8458C84.5503 30.4101 89.5772 29.8779 94.6186 29.3422C94.5897 29.9172 94.5752 30.4922 94.568 31.0815C94.5656 32.5708 94.649 34.0589 94.8175 35.5388C95.1444 38.4649 95.7597 41.3525 96.6547 44.1605C97.0945 45.5508 97.6087 46.9171 98.1953 48.2535L99.0777 50.2464L100.072 52.1822C100.709 53.4822 101.555 54.6823 102.282 55.9109C103.078 57.1145 103.956 58.2645 104.813 59.411C104.249 58.0895 103.62 56.8145 103.074 55.5037C102.528 54.193 101.989 52.8965 101.577 51.5429C100.586 48.9107 99.9746 46.1856 99.3743 43.4748C98.8713 40.7735 98.5799 38.0379 98.5027 35.2924C98.4614 33.9379 98.4965 32.5822 98.6076 31.2315C98.7146 29.9473 98.903 28.6709 99.1717 27.41L99.8046 24.6206L96.8825 24.7849C93.4866 24.9778 90.0871 25.1671 86.6949 25.3813C86.6949 25.4992 86.6949 25.6171 86.6949 25.7385L83.0169 25.9814Z" fill="#E5BC6C"/>
<path d="M83.0169 25.9817L86.6949 25.7424C86.6949 25.6245 86.6949 25.5067 86.6949 25.3853C85.458 25.4591 84.2224 25.54 82.988 25.6281C82.9771 25.7531 83.0024 25.8674 83.0169 25.9817Z" fill="#E5BC6C"/>
<path d="M91.3888 50.5003L84.6224 51.1075L84.503 49.7967L91.2695 49.1895L90.9802 46.0609L86.0256 46.5073L90.7198 38.7214L90.6004 38.4678L86.0798 38.8714L82.1162 46.1109L76.7529 39.7321L72.207 40.1393L72.2613 40.4464L78.2429 47.2038L73.339 47.6431L73.6247 50.7717L80.3188 50.1717L80.4417 51.4825L73.7476 52.0825L74.0261 55.1397L80.7202 54.5397L81.0602 58.2398L85.2444 57.8648L84.9045 54.1647L91.6709 53.5575L91.3888 50.5003Z" fill="#E5BC6C"/>
<path d="M117.511 20.2778C115.758 15.8743 113.259 11.7971 110.123 8.22025L115.186 6.59519L99.4541 0.702148L103.168 16.9205L105.494 12.2097C111.971 18.9134 115.804 28.2137 115.522 37.689C115.403 48.2394 110.372 58.8111 101.78 65.5471C97.5054 68.9763 92.5294 71.4498 87.1943 72.7973C81.7959 74.1434 76.1668 74.3213 70.6923 73.3187C59.7091 71.3115 49.7168 64.2363 44.1221 54.4217C46.7429 59.4959 50.4456 63.9492 54.9755 67.4752C59.5055 71.0012 64.7551 73.5163 70.3632 74.8474C76.0916 76.1716 82.0435 76.2463 87.8041 75.0663C93.5647 73.8864 98.9955 71.48 103.718 68.015C113.338 61.1577 119.555 49.7751 120.249 37.8748C120.674 31.881 119.739 25.8691 117.511 20.2778Z" fill="#AE7B52"/>
<path d="M50.3091 26.9422C54.0481 26.9422 57.0791 23.9488 57.0791 20.2562C57.0791 16.5637 54.0481 13.5703 50.3091 13.5703C46.5701 13.5703 43.5391 16.5637 43.5391 20.2562C43.5391 23.9488 46.5701 26.9422 50.3091 26.9422Z" fill="#393526"/>
<path d="M53.1479 21.0277H51.0612V23.0813H49.582V21.0277H47.4736V19.4705H49.582V17.4312H51.0612V19.4705H53.1479V21.0277Z" fill="#E5BC6C"/>
</g>
<defs>
<clipPath id="clip0_94_809">
<rect width="162" height="112" fill="white" transform="translate(0.629883 0.702148)"/>
</clipPath>
</defs>
</svg>
