<svg width="456" height="122" viewBox="0 0 456 122" fill="none" xmlns="http://www.w3.org/2000/svg">
<path d="M413.37 30.9829H428.37L390.37 103.983H375.37L413.37 30.9829ZM413.07 69.3829C416.604 65.7829 421.537 63.9829 427.87 63.9829C434.204 63.9829 439.104 65.7829 442.57 69.3829C446.104 72.9829 447.87 78.0162 447.87 84.4829C447.87 90.9496 446.104 95.9829 442.57 99.5829C439.104 103.183 434.204 104.983 427.87 104.983C421.537 104.983 416.604 103.183 413.07 99.5829C409.604 95.9829 407.87 90.9496 407.87 84.4829C407.87 78.0162 409.604 72.9829 413.07 69.3829ZM361.07 35.3829C364.604 31.7829 369.537 29.9829 375.87 29.9829C382.204 29.9829 387.104 31.7829 390.57 35.3829C394.104 38.9829 395.87 44.0162 395.87 50.4829C395.87 56.9496 394.104 61.9829 390.57 65.5829C387.104 69.1829 382.204 70.9829 375.87 70.9829C369.537 70.9829 364.604 69.1829 361.07 65.5829C357.604 61.9829 355.87 56.9496 355.87 50.4829C355.87 44.0162 357.604 38.9829 361.07 35.3829ZM424.07 91.3829C424.937 92.7162 426.204 93.3829 427.87 93.3829C429.537 93.3829 430.77 92.7162 431.57 91.3829C432.437 90.0496 432.87 87.7496 432.87 84.4829C432.87 81.2162 432.437 78.9162 431.57 77.5829C430.77 76.2496 429.537 75.5829 427.87 75.5829C426.204 75.5829 424.937 76.2496 424.07 77.5829C423.27 78.9162 422.87 81.2162 422.87 84.4829C422.87 87.7496 423.27 90.0496 424.07 91.3829ZM372.07 57.3829C372.937 58.7162 374.204 59.3829 375.87 59.3829C377.537 59.3829 378.77 58.7162 379.57 57.3829C380.437 56.0496 380.87 53.7496 380.87 50.4829C380.87 47.2162 380.437 44.9162 379.57 43.5829C378.77 42.2496 377.537 41.5829 375.87 41.5829C374.204 41.5829 372.937 42.2496 372.07 43.5829C371.27 44.9162 370.87 47.2162 370.87 50.4829C370.87 53.7496 371.27 56.0496 372.07 57.3829Z" fill="#FFE500"/>
<path fill-rule="evenodd" clip-rule="evenodd" d="M408.516 22.9829H441.554L424.29 56.1479C425.464 56.0368 426.659 55.9829 427.87 55.9829C435.75 55.9829 442.956 58.2668 448.306 63.8064C453.67 69.2882 455.87 76.5507 455.87 84.4829C455.87 92.4151 453.67 99.6776 448.306 105.159C442.956 110.699 435.75 112.983 427.87 112.983C419.97 112.983 412.762 110.689 407.361 105.187L407.334 105.159L407.308 105.132C405.252 102.998 403.671 100.597 402.506 97.9954L395.225 111.983H362.187L379.451 78.8176C378.276 78.929 377.081 78.9829 375.87 78.9829C367.97 78.9829 360.762 76.6893 355.361 71.1867L355.334 71.1595L355.308 71.132C350.02 65.6413 347.87 58.3877 347.87 50.4829C347.87 42.5781 350.02 35.3245 355.308 29.8338L355.334 29.8063L355.361 29.7792C360.762 24.2765 367.97 21.9829 375.87 21.9829C383.75 21.9829 390.956 24.2668 396.306 29.8064C398.41 31.9557 400.026 34.3787 401.215 37.0085L408.516 22.9829ZM375.37 103.983H390.37L428.37 30.9829H413.37L375.37 103.983ZM390.57 65.5829C394.104 61.9829 395.87 56.9496 395.87 50.4829C395.87 49.4625 395.826 48.4779 395.738 47.5289C395.269 42.4635 393.546 38.4149 390.57 35.3829C387.104 31.7829 382.204 29.9829 375.87 29.9829C369.537 29.9829 364.604 31.7829 361.07 35.3829C357.604 38.9829 355.87 44.0162 355.87 50.4829C355.87 56.9496 357.604 61.9829 361.07 65.5829C364.604 69.1829 369.537 70.9829 375.87 70.9829C379.003 70.9829 381.786 70.5424 384.217 69.6614C386.701 68.7615 388.819 67.402 390.57 65.5829ZM379.57 43.5829C378.77 42.2496 377.537 41.5829 375.87 41.5829C374.204 41.5829 372.937 42.2496 372.07 43.5829C371.27 44.9162 370.87 47.2162 370.87 50.4829C370.87 53.7496 371.27 56.0496 372.07 57.3829C372.937 58.7162 374.204 59.3829 375.87 59.3829C377.537 59.3829 378.77 58.7162 379.57 57.3829C380.437 56.0496 380.87 53.7496 380.87 50.4829C380.87 47.2162 380.437 44.9162 379.57 43.5829ZM408 87.441C408.461 92.5045 410.151 96.5518 413.07 99.5829C416.604 103.183 421.537 104.983 427.87 104.983C434.204 104.983 439.104 103.183 442.57 99.5829C446.104 95.9829 447.87 90.9496 447.87 84.4829C447.87 78.0162 446.104 72.9829 442.57 69.3829C439.104 65.7829 434.204 63.9829 427.87 63.9829C424.75 63.9829 421.969 64.4198 419.529 65.2937C417.016 66.1935 414.863 67.5565 413.07 69.3829C409.604 72.9829 407.87 78.0162 407.87 84.4829C407.87 85.5047 407.914 86.4908 408 87.441ZM431.57 77.5829C430.77 76.2496 429.537 75.5829 427.87 75.5829C426.204 75.5829 424.937 76.2496 424.07 77.5829C423.27 78.9162 422.87 81.2162 422.87 84.4829C422.87 87.7496 423.27 90.0496 424.07 91.3829C424.937 92.7162 426.204 93.3829 427.87 93.3829C429.537 93.3829 430.77 92.7162 431.57 91.3829C432.437 90.0496 432.87 87.7496 432.87 84.4829C432.87 81.2162 432.437 78.9162 431.57 77.5829Z" fill="black"/>
<path d="M280.296 46.8998H280.576C284.589 45.4998 288.462 44.7998 292.196 44.7998C303.022 44.7998 311.329 47.5998 317.116 53.1998C322.902 58.7065 325.796 66.6398 325.796 76.9998C325.796 101.266 310.862 113.4 280.996 113.4C270.262 113.4 259.996 111.533 250.196 107.8L255.796 85.6798C265.316 89.4131 273.249 91.2798 279.596 91.2798C292.196 91.2798 298.496 86.5198 298.496 76.9998C298.496 69.5331 294.529 65.7998 286.596 65.7998C283.609 65.7998 280.342 67.4331 276.796 70.6998H252.996L255.796 9.7998H320.896V32.1998H280.996L280.296 46.8998Z" fill="url(#paint0_linear_36_112)"/>
<path d="M199.412 112V82.6001H230.212V112H199.412Z" fill="url(#paint1_linear_36_112)"/>
<path d="M172.51 105.42C165.137 110.74 154.823 113.4 141.57 113.4C128.317 113.4 118.003 110.74 110.63 105.42C103.257 100.1 99.5701 92.9599 99.5701 83.9999C99.5701 79.1466 100.97 74.8999 103.77 71.2599C106.57 67.5266 111.423 63.9332 118.33 60.4799V60.1999C107.69 53.5732 102.37 45.1732 102.37 34.9999C102.37 27.3466 105.823 20.9999 112.73 15.9599C119.73 10.9199 129.343 8.3999 141.57 8.3999C153.797 8.3999 163.363 10.9199 170.27 15.9599C177.27 20.9999 180.77 27.3466 180.77 34.9999C180.77 43.3066 174.983 50.5866 163.41 56.8399V57.1199C176.85 63.0932 183.57 72.0532 183.57 83.9999C183.57 92.9599 179.883 100.1 172.51 105.42ZM142.97 50.1199C147.357 48.0666 150.297 46.1532 151.79 44.3799C153.377 42.6066 154.17 40.4132 154.17 37.7999C154.17 34.8132 153.003 32.3399 150.67 30.3799C148.337 28.3266 145.303 27.2999 141.57 27.2999C137.837 27.2999 134.803 28.3266 132.47 30.3799C130.137 32.3399 128.97 34.8132 128.97 37.7999C128.97 40.4132 129.903 42.6532 131.77 44.5199C133.73 46.2932 137.463 48.1599 142.97 50.1199ZM138.35 68.4599C133.683 70.8866 130.603 73.1266 129.11 75.1799C127.617 77.2332 126.87 79.7066 126.87 82.5999C126.87 85.8666 128.27 88.6666 131.07 90.9999C133.963 93.3332 137.463 94.4999 141.57 94.4999C145.677 94.4999 149.13 93.3332 151.93 90.9999C154.823 88.6666 156.27 85.8666 156.27 82.5999C156.27 79.5199 155.243 77.0932 153.19 75.3199C151.137 73.4532 146.19 71.1666 138.35 68.4599Z" fill="url(#paint2_linear_36_112)"/>
<path d="M35.1482 44.0999C35.1482 49.1399 36.3616 53.1066 38.7882 55.9999C41.3082 58.7999 44.7616 60.1999 49.1482 60.1999C53.5349 60.1999 56.9415 58.7999 59.3682 55.9999C61.8882 53.1066 63.1482 49.1399 63.1482 44.0999C63.1482 38.9666 61.8882 34.9999 59.3682 32.1999C56.8482 29.3999 53.4415 27.9999 49.1482 27.9999C44.8549 27.9999 41.4482 29.3999 38.9282 32.1999C36.4082 34.9999 35.1482 38.9666 35.1482 44.0999ZM49.1482 8.3999C61.7482 8.3999 71.6416 11.8999 78.8282 18.8999C86.1082 25.8999 89.7482 35.6999 89.7482 48.2999C89.7482 68.5532 84.1949 84.4666 73.0882 96.0399C62.0749 107.613 47.0949 113.4 28.1482 113.4L23.2482 90.9999C33.3282 90.9999 41.3082 89.6466 47.1882 86.9399C53.1616 84.2332 57.5949 80.0332 60.4882 74.3399L60.2082 74.0599C54.4216 76.9532 48.4015 78.3999 42.1482 78.3999C19.7482 78.3999 8.54822 66.9666 8.54822 44.0999C8.54822 33.6466 12.2816 25.1066 19.7482 18.4799C27.3082 11.7599 37.1082 8.3999 49.1482 8.3999Z" fill="url(#paint3_linear_36_112)"/>
<path fill-rule="evenodd" clip-rule="evenodd" d="M255.796 9.7998H320.896V32.1998H280.996L280.296 46.8998H280.576C283.244 45.9692 285.85 45.3479 288.394 45.0359C289.677 44.8785 290.944 44.7998 292.196 44.7998C303.023 44.7998 311.329 47.5998 317.116 53.1998C322.903 58.7065 325.796 66.6398 325.796 76.9998C325.796 101.266 310.863 113.4 280.996 113.4C270.263 113.4 259.996 111.533 250.196 107.8L255.796 85.6798C258.443 86.7179 260.968 87.6117 263.369 88.3612C269.605 90.3069 275.014 91.2798 279.596 91.2798C292.196 91.2798 298.496 86.5198 298.496 76.9998C298.496 69.5331 294.529 65.7998 286.596 65.7998C283.609 65.7998 280.343 67.4331 276.796 70.6998H252.996L255.796 9.7998ZM322.655 47.4275C330.447 54.8567 333.796 65.1453 333.796 76.9998C333.796 90.8563 329.451 102.538 319.641 110.509C310.148 118.222 296.806 121.4 280.996 121.4C269.313 121.4 258.079 119.364 247.348 115.276L240.693 112.74L249.311 78.6998H244.62L248.155 1.7998H328.896V40.1998H311.471C315.64 41.9025 319.399 44.2832 322.655 47.4275ZM259.928 78.6998C268.418 81.9265 274.894 83.2798 279.596 83.2798C285.117 83.2798 287.797 82.1968 288.948 81.3269C289.677 80.7763 290.496 79.8299 290.496 76.9998C290.496 75.8194 290.337 75.1248 290.211 74.7706C290.151 74.6006 290.1 74.5113 290.077 74.4753C290.062 74.4518 290.052 74.4394 290.045 74.4322C290.042 74.4291 290.04 74.427 290.038 74.4254C290.032 74.4194 289.999 74.3887 289.914 74.3408C289.826 74.2912 289.666 74.2142 289.407 74.133C288.873 73.9652 287.977 73.7998 286.596 73.7998C286.541 73.7998 285.145 73.8861 282.216 76.5842L279.919 78.6998H259.928Z" fill="black"/>
<path fill-rule="evenodd" clip-rule="evenodd" d="M199.412 112H230.212V82.6001H199.412V112ZM191.412 120V74.6001H238.212V120H191.412Z" fill="black"/>
<path fill-rule="evenodd" clip-rule="evenodd" d="M108.035 9.48253L108.056 9.46762C116.879 3.11456 128.343 0.399902 141.57 0.399902C154.778 0.399902 166.215 3.10664 174.964 9.48198C183.734 15.8035 188.77 24.4261 188.77 34.9999C188.77 43.6323 184.614 50.7305 178.023 56.5183C180.662 58.5965 182.982 60.9222 184.93 63.5199C189.4 69.4798 191.57 76.4185 191.57 83.9999C191.57 95.5748 186.612 105.11 177.191 111.908C167.96 118.568 155.768 121.4 141.57 121.4C127.372 121.4 115.18 118.568 105.949 111.908C96.5281 105.11 91.5701 95.5748 91.5701 83.9999C91.5701 77.5058 93.4801 71.5333 97.3996 66.4206C99.299 63.8977 101.732 61.5892 104.584 59.4583C98.0565 52.7809 94.3701 44.6182 94.3701 34.9999C94.3701 24.4645 99.323 15.8399 108.014 9.49757L108.035 9.48253ZM111.497 55.0377C113.407 56.8158 115.617 58.4941 118.126 60.0724C118.194 60.115 118.262 60.1575 118.33 60.1999V60.4799C118.245 60.5223 118.161 60.5648 118.076 60.6073C115.34 61.9867 112.931 63.3885 110.849 64.8125C107.778 66.9132 105.418 69.0623 103.77 71.2599C100.97 74.8999 99.5701 79.1466 99.5701 83.9999C99.5701 92.9599 103.257 100.1 110.63 105.42C118.003 110.74 128.317 113.4 141.57 113.4C154.823 113.4 165.137 110.74 172.51 105.42C179.883 100.1 183.57 92.9599 183.57 83.9999C183.57 74.68 179.48 67.1777 171.301 61.4931C169.047 59.9271 166.484 58.4991 163.609 57.209C163.543 57.1792 163.477 57.1495 163.41 57.1199V56.8399C163.465 56.8103 163.519 56.7807 163.574 56.751C166.404 55.2122 168.885 53.6114 171.016 51.9487C177.519 46.8759 180.77 41.2263 180.77 34.9999C180.77 27.3466 177.27 20.9999 170.27 15.9599C163.363 10.9199 153.797 8.3999 141.57 8.3999C129.343 8.3999 119.73 10.9199 112.73 15.9599C105.823 20.9999 102.37 27.3466 102.37 34.9999C102.37 42.6933 105.413 49.3726 111.497 55.0377ZM145.748 39.135L145.828 39.0456C145.969 38.8877 146.17 38.654 146.17 37.7999C146.17 37.3765 146.094 37.1918 146.06 37.1179C146.023 37.0395 145.909 36.8282 145.525 36.5056L145.454 36.4464L145.385 36.3856C144.794 35.8653 143.769 35.2999 141.57 35.2999C139.371 35.2999 138.346 35.8653 137.755 36.3856L137.686 36.4464L137.616 36.5056C137.231 36.8282 137.117 37.0395 137.081 37.1179C137.046 37.1918 136.97 37.3765 136.97 37.7999C136.97 38.2024 137.024 38.4157 137.284 38.7119C137.935 39.2319 139.514 40.1648 142.512 41.3892C143.12 41.0515 143.648 40.7346 144.101 40.4398C144.629 40.0964 145.014 39.8096 145.284 39.5851C145.417 39.4745 145.513 39.3868 145.578 39.323C145.644 39.259 145.671 39.2264 145.671 39.2268L145.748 39.135ZM142.97 50.1199C137.463 48.1599 133.73 46.2932 131.77 44.5199C129.903 42.6532 128.97 40.4132 128.97 37.7999C128.97 34.8132 130.137 32.3399 132.47 30.3799C134.803 28.3266 137.837 27.2999 141.57 27.2999C145.303 27.2999 148.337 28.3266 150.67 30.3799C153.003 32.3399 154.17 34.8132 154.17 37.7999C154.17 40.4132 153.377 42.6066 151.79 44.3799C150.297 46.1532 147.357 48.0666 142.97 50.1199ZM146.858 84.813L146.908 84.7726C148.211 83.7218 148.27 83.0946 148.27 82.5999C148.27 81.9522 148.164 81.6619 148.132 81.587C148.112 81.5381 148.087 81.4836 147.961 81.3745L147.884 81.3079L147.809 81.2394C147.833 81.2613 147.63 81.0798 147.025 80.7213C146.449 80.3792 145.649 79.9593 144.583 79.4666C143.122 78.7913 141.297 78.0409 139.081 77.2171C136.778 78.6243 135.823 79.5508 135.58 79.8853C135.216 80.3851 134.87 81.1516 134.87 82.5999C134.87 83.1905 134.974 83.8244 136.141 84.8121C137.454 85.8535 139.118 86.4999 141.57 86.4999C144.057 86.4999 145.629 85.8374 146.809 84.8541L146.858 84.813ZM131.07 90.9999C128.27 88.6666 126.87 85.8666 126.87 82.5999C126.87 79.7066 127.617 77.2332 129.11 75.1799C130.603 73.1266 133.683 70.8866 138.35 68.4599C146.19 71.1666 151.137 73.4532 153.19 75.3199C155.243 77.0932 156.27 79.5199 156.27 82.5999C156.27 85.8666 154.823 88.6666 151.93 90.9999C149.13 93.3332 145.677 94.4999 141.57 94.4999C137.463 94.4999 133.963 93.3332 131.07 90.9999Z" fill="black"/>
<path fill-rule="evenodd" clip-rule="evenodd" d="M23.2482 90.9999C26.1249 90.9999 28.8305 90.8897 31.3651 90.6693C37.7119 90.1173 42.9863 88.8741 47.1882 86.9399C47.9363 86.601 48.6602 86.2386 49.3599 85.8528C54.2024 83.1829 57.8883 79.3914 60.4174 74.4783C60.4411 74.4323 60.4647 74.3861 60.4882 74.3399L60.2082 74.0599C60.1626 74.0827 60.117 74.1054 60.0713 74.1281C55.7397 76.2755 51.2774 77.6133 46.6846 78.1414C45.1864 78.3138 43.6742 78.3999 42.1482 78.3999C19.7482 78.3999 8.54822 66.9666 8.54822 44.0999C8.54822 33.6466 12.2816 25.1066 19.7482 18.4799C27.3082 11.7599 37.1082 8.3999 49.1482 8.3999C61.7482 8.3999 71.6416 11.8999 78.8282 18.8999C86.1082 25.8999 89.7482 35.6999 89.7482 48.2999C89.7482 68.5532 84.1949 84.4666 73.0882 96.0399C62.0749 107.613 47.0949 113.4 28.1482 113.4L23.2482 90.9999ZM78.8717 101.567C66.0703 115.012 48.838 121.4 28.1482 121.4H21.709L13.309 82.9999H22.6474C18.3385 81.2408 14.4938 78.7515 11.2333 75.4231C3.64026 67.6719 0.548218 56.7254 0.548218 44.0999C0.548218 31.4837 5.16962 20.7244 14.4333 12.5006C14.4341 12.4999 14.4349 12.4992 14.4356 12.4986C23.7291 4.23884 35.5432 0.399902 49.1482 0.399902C63.2633 0.399902 75.3547 4.35954 84.3916 13.1511C93.5972 22.0135 97.7482 34.1063 97.7482 48.2999C97.7482 70.0443 91.7498 88.141 78.8717 101.567ZM53.3291 50.753L53.3356 50.7457C54.2335 49.7146 55.1482 47.8248 55.1482 44.0999C55.1482 40.2195 54.2048 38.4215 53.4219 37.5516C52.6387 36.6814 51.5242 35.9999 49.1482 35.9999C46.7723 35.9999 45.6578 36.6814 44.8746 37.5516C44.0917 38.4215 43.1482 40.2195 43.1482 44.0999C43.1482 47.7646 43.9917 49.6935 44.8296 50.7508C45.5796 51.5384 46.7241 52.1999 49.1482 52.1999C51.6843 52.1999 52.6982 51.481 53.3227 50.7605L53.3291 50.753ZM38.7882 55.9999C36.3615 53.1066 35.1482 49.1399 35.1482 44.0999C35.1482 38.9666 36.4082 34.9999 38.9282 32.1999C41.4482 29.3999 44.8549 27.9999 49.1482 27.9999C53.4416 27.9999 56.8482 29.3999 59.3682 32.1999C61.8882 34.9999 63.1482 38.9666 63.1482 44.0999C63.1482 49.1399 61.8882 53.1066 59.3682 55.9999C56.9416 58.7999 53.5349 60.1999 49.1482 60.1999C44.7616 60.1999 41.3082 58.7999 38.7882 55.9999Z" fill="black"/>
<defs>
<linearGradient id="paint0_linear_36_112" x1="44.7016" y1="9.2033" x2="359.35" y2="108.472" gradientUnits="userSpaceOnUse">
<stop stop-color="#FF8C00"/>
<stop offset="1" stop-color="#FFE500"/>
</linearGradient>
<linearGradient id="paint1_linear_36_112" x1="44.7017" y1="9.2036" x2="359.35" y2="108.472" gradientUnits="userSpaceOnUse">
<stop stop-color="#FF8C00"/>
<stop offset="1" stop-color="#FFE500"/>
</linearGradient>
<linearGradient id="paint2_linear_36_112" x1="44.7017" y1="9.20339" x2="359.35" y2="108.472" gradientUnits="userSpaceOnUse">
<stop stop-color="#FF8C00"/>
<stop offset="1" stop-color="#FFE500"/>
</linearGradient>
<linearGradient id="paint3_linear_36_112" x1="44.7017" y1="9.20338" x2="359.35" y2="108.472" gradientUnits="userSpaceOnUse">
<stop stop-color="#FF8C00"/>
<stop offset="1" stop-color="#FFE500"/>
</linearGradient>
</defs>
</svg>
