<svg width="721" height="167" viewBox="0 0 721 167" fill="none" xmlns="http://www.w3.org/2000/svg">
<path fill-rule="evenodd" clip-rule="evenodd" d="M504.053 33.7773H498.428V41.2773C498.428 41.698 498.426 42.1146 498.423 42.5273C498.413 43.9049 498.385 45.2382 498.34 46.5273C498.226 49.8147 497.999 52.8147 497.66 55.5273C497.643 55.6623 497.626 55.7966 497.608 55.9302C497.445 57.1793 497.258 58.3662 497.046 59.4909C497.044 59.5031 497.042 59.5152 497.04 59.5273C497 59.7368 496.96 59.9441 496.918 60.1492C496.914 60.1691 496.91 60.189 496.906 60.2089C496.607 61.6861 496.264 63.0505 495.878 64.3023C496.74 64.2009 497.585 64.0985 498.415 63.995C499.014 63.9202 499.605 63.8448 500.188 63.7689C500.649 63.7087 501.106 63.6482 501.556 63.5873C503.628 63.3078 505.585 63.0211 507.428 62.7273C506.695 62.2946 505.999 61.8508 505.339 61.3959C504.463 60.7926 503.65 60.1697 502.901 59.5273C502.847 59.4804 502.792 59.4333 502.738 59.3862C502.414 59.1036 502.102 58.8174 501.803 58.5273L509.078 55.5273H500.678V46.5273H546.428V55.5273C545.355 56.7863 544.25 57.9583 543.112 59.0433C541.81 60.2853 540.465 61.4133 539.078 62.4273C540.592 62.6946 542.364 62.9817 544.395 63.2886C545.831 63.5058 547.397 63.733 549.092 63.97C550.38 64.1501 551.741 64.3358 553.178 64.5273L548.678 75.7773C539.478 74.4273 531.203 72.5273 523.853 70.0773C517.603 72.2273 509.253 74.1273 498.803 75.7773L495.128 66.5523C494.903 67.1961 494.655 67.8472 494.384 68.5056C493.947 69.5686 493.45 70.6506 492.893 71.7517C492.72 72.0931 492.542 72.4363 492.358 72.7813C491.704 74.0069 490.977 75.2556 490.178 76.5273L480.803 64.1523C482.753 59.8023 483.978 55.7273 484.478 51.9273C485.028 48.0773 485.303 40.9023 485.303 30.4023V10.9023H512.678V5.27734H526.928V10.9023H552.053V21.7773H543.428V24.4023H552.053V33.7773H543.428V44.2773H504.053V33.7773ZM547.428 42.5273H550.428V57.0001L549.473 58.1212C548.99 58.6878 548.5 59.2394 548.003 59.776C549.745 60.0256 551.646 60.2877 553.706 60.5624L558.8 61.2416L551.219 80.1932L548.097 79.735C539.231 78.434 531.149 76.6243 523.866 74.2901C517.481 76.365 509.31 78.1678 499.426 79.7284L496.269 80.2269L494.818 76.5829C494.419 77.2704 494.001 77.9614 493.564 78.656L490.484 83.556L476.183 64.6787L476.419 64.1523H477.803V61.0075C479.243 57.5209 480.128 54.3243 480.512 51.4055L480.515 51.3836L480.518 51.3617C481.022 47.8321 481.303 40.9276 481.303 30.4023V6.90234H508.678V1.27734H530.928V6.90234H556.053V37.7773H547.428V42.5273ZM529.553 21.7773H517.553V24.4023H529.553V21.7773ZM517.553 36.7773V33.7773H529.553V36.7773H517.553ZM504.053 21.7773H498.428V24.4023H504.053V21.7773ZM531.353 55.5273H516.803C518.553 56.8773 521.053 58.0773 524.303 59.1273C527.303 58.1273 529.653 56.9273 531.353 55.5273Z" fill="white"/>
<path fill-rule="evenodd" clip-rule="evenodd" d="M432.728 12.7776C432.83 12.4973 432.951 12.1521 433.092 11.742C433.227 11.3473 433.381 10.8925 433.553 10.3776C433.75 9.75658 433.916 9.22325 434.05 8.77755C434.153 8.43373 434.237 8.14206 434.303 7.90255L420.803 5.27755C417.849 14.2696 414.002 23.1062 409.262 31.7874C408.625 32.9536 407.972 34.117 407.303 35.2775L418.178 40.9025V52.5275H407.303V64.1525H439.928V75.7775H454.178V64.1525H477.803V52.5275H454.178V43.1525H472.553V31.9026H454.178V24.0275H474.803V12.7776H432.728ZM438.21 8.77755L439.295 4.79843L418.103 0.677734L417.002 4.02942C413.742 13.9551 409.358 23.7048 403.837 33.2797L401.746 36.9069L414.178 43.337V48.5275H403.303V68.1525H435.928V79.7775H458.178V68.1525H481.803V65.4725L480.803 64.1525C481.16 63.3545 481.494 62.5658 481.803 61.7863V48.5275H458.178V47.1525H476.553V28.0275H478.803V8.77755H438.21ZM428.378 24.0275C427.809 25.3131 427.228 26.6048 426.635 27.9026C426.029 29.2295 425.41 30.5628 424.778 31.9026H439.928V24.0275H428.378ZM439.928 52.5275H431.678V43.1525H439.928V52.5275ZM435.928 47.1525H435.678V48.5275H435.928V47.1525Z" fill="white"/>
<path fill-rule="evenodd" clip-rule="evenodd" d="M376.241 44.1273C372.891 47.1773 367.866 51.2273 361.166 56.2773V68.2773H400.166V56.2773H380.666V56.1273C382.25 54.7846 383.725 53.5013 385.091 52.2773C390.236 47.6677 393.836 43.9011 395.891 40.9773C398.491 37.2773 399.791 33.3773 399.791 29.2773C399.791 24.1273 398.091 20.1023 394.691 17.2023C391.341 14.2523 386.541 12.7773 380.291 12.7773C376.891 12.7773 373.241 13.3523 369.341 14.5023C365.441 15.6523 362.216 17.0773 359.666 18.7773L363.416 30.7773C364.645 30.0094 365.826 29.3201 366.96 28.7094C371.365 26.338 375.059 25.1523 378.041 25.1523C382.291 25.1523 384.416 27.0273 384.416 30.7773C384.416 32.8773 383.891 34.8523 382.841 36.7023C381.791 38.5523 379.591 41.0273 376.241 44.1273ZM397.31 14.1794C392.986 10.3843 387.114 8.77734 380.291 8.77734C376.442 8.77734 372.407 9.42785 368.21 10.6657C364.042 11.8947 360.421 13.4666 357.447 15.4491L354.954 17.1109L361.143 36.9148L365.536 34.1693C371.376 30.519 375.453 29.1523 378.041 29.1523C379.664 29.1523 380.134 29.5212 380.176 29.5579L380.177 29.5592C380.191 29.5713 380.228 29.6034 380.276 29.73C380.334 29.8851 380.416 30.2079 380.416 30.7773C380.416 32.1758 380.075 33.4717 379.362 34.7279C378.639 36.0019 376.841 38.1211 373.536 41.1801C370.324 44.1035 365.419 48.0623 358.758 53.0831L357.166 54.2833V72.2773H404.166V52.2773H390.997C394.617 48.8423 397.366 45.8356 399.164 43.2771C402.186 38.9762 403.791 34.285 403.791 29.2773C403.791 23.1659 401.726 17.9578 397.31 14.1794Z" fill="white"/>
<path fill-rule="evenodd" clip-rule="evenodd" d="M326.729 44.1273C323.379 47.1773 318.354 51.2273 311.654 56.2773V68.2773H350.654V56.2773H331.154V56.1273C332.738 54.7846 334.213 53.5013 335.579 52.2773C340.725 47.6677 344.325 43.9011 346.379 40.9773C348.979 37.2773 350.279 33.3773 350.279 29.2773C350.279 24.1273 348.579 20.1023 345.179 17.2023C341.829 14.2523 337.029 12.7773 330.779 12.7773C327.379 12.7773 323.729 13.3523 319.829 14.5023C315.929 15.6523 312.704 17.0773 310.154 18.7773L313.904 30.7773C315.133 30.0094 316.314 29.3201 317.449 28.7094C321.854 26.338 325.547 25.1523 328.529 25.1523C332.779 25.1523 334.904 27.0273 334.904 30.7773C334.904 32.8773 334.379 34.8523 333.329 36.7023C332.279 38.5523 330.079 41.0273 326.729 44.1273ZM347.799 14.1794C343.474 10.3843 337.602 8.77734 330.779 8.77734C326.93 8.77734 322.896 9.42785 318.698 10.6657C314.53 11.8947 310.909 13.4666 307.935 15.4491L305.443 17.1109L311.631 36.9148L316.024 34.1693C321.865 30.519 325.941 29.1523 328.529 29.1523C330.152 29.1523 330.622 29.5212 330.664 29.5579L330.665 29.5592C330.679 29.5713 330.716 29.6034 330.764 29.73C330.822 29.8851 330.904 30.2079 330.904 30.7773C330.904 32.1758 330.563 33.4717 329.85 34.7279C329.127 36.0019 327.329 38.1211 324.025 41.1801C320.812 44.1035 315.908 48.0623 309.247 53.0831L307.654 54.2833V72.2773H354.654V52.2773H341.485C345.105 48.8423 347.854 45.8356 349.652 43.2771C352.674 38.9762 354.279 34.285 354.279 29.2773C354.279 23.1659 352.214 17.9578 347.799 14.1794Z" fill="white"/>
<path fill-rule="evenodd" clip-rule="evenodd" d="M281.267 69.0273C288.867 69.0273 294.517 66.8273 298.217 62.4273C301.917 58.0273 303.767 50.8523 303.767 40.9023C303.767 30.9523 301.917 23.7773 298.217 19.3773C294.517 14.9773 288.867 12.7773 281.267 12.7773C273.667 12.7773 268.017 14.9773 264.317 19.3773C260.617 23.7773 258.767 30.9523 258.767 40.9023C258.767 50.8523 260.617 58.0273 264.317 62.4273C268.017 66.8273 273.667 69.0273 281.267 69.0273ZM281.267 57.7773C278.767 57.7773 276.942 56.5773 275.792 54.1773C274.692 51.7273 274.142 47.3023 274.142 40.9023C274.142 34.5023 274.692 30.1023 275.792 27.7023C276.942 25.2523 278.767 24.0273 281.267 24.0273C283.767 24.0273 285.567 25.2523 286.667 27.7023C287.817 30.1023 288.392 34.5023 288.392 40.9023C288.392 47.3023 287.817 51.7273 286.667 54.1773C285.567 56.5773 283.767 57.7773 281.267 57.7773ZM283.039 52.4942L283.046 52.4777C283.78 50.915 284.392 47.3067 284.392 40.9023C284.392 34.485 283.776 30.9257 283.06 29.4308L283.039 29.386L283.018 29.3407C282.701 28.6333 282.402 28.362 282.242 28.2529C282.1 28.1565 281.837 28.0273 281.267 28.0273C280.699 28.0273 280.418 28.1561 280.253 28.2673C280.069 28.3905 279.756 28.6777 279.421 29.385C278.727 30.9156 278.142 34.5041 278.142 40.9023C278.142 47.2509 278.717 50.8818 279.422 52.4941C279.743 53.1484 280.041 53.4166 280.221 53.5351C280.39 53.6464 280.682 53.7773 281.267 53.7773C281.854 53.7773 282.128 53.646 282.274 53.5491C282.433 53.4431 282.722 53.185 283.031 52.5107L283.039 52.4942ZM301.279 65.0017C296.592 70.5756 289.643 73.0273 281.267 73.0273C272.892 73.0273 265.943 70.5756 261.256 65.0017C256.642 59.5153 254.767 51.1694 254.767 40.9023C254.767 30.6353 256.642 22.2894 261.256 16.8029C265.943 11.2291 272.892 8.77734 281.267 8.77734C289.643 8.77734 296.592 11.2291 301.279 16.8029C305.892 22.2894 307.767 30.6353 307.767 40.9023C307.767 51.1694 305.892 59.5153 301.279 65.0017Z" fill="white"/>
<path fill-rule="evenodd" clip-rule="evenodd" d="M227.706 44.1273C224.356 47.1773 219.331 51.2273 212.631 56.2773V68.2773H251.631V56.2773H232.131V56.1273C233.715 54.7846 235.19 53.5013 236.556 52.2773C241.701 47.6677 245.301 43.9011 247.356 40.9773C249.956 37.2773 251.256 33.3773 251.256 29.2773C251.256 24.1273 249.556 20.1023 246.156 17.2023C242.806 14.2523 238.006 12.7773 231.756 12.7773C228.356 12.7773 224.706 13.3523 220.806 14.5023C216.906 15.6523 213.681 17.0773 211.131 18.7773L214.881 30.7773C216.109 30.0094 217.291 29.3201 218.425 28.7094C222.83 26.338 226.524 25.1523 229.506 25.1523C233.756 25.1523 235.881 27.0273 235.881 30.7773C235.881 32.8773 235.356 34.8523 234.306 36.7023C233.256 38.5523 231.056 41.0273 227.706 44.1273ZM225.001 41.1803C221.789 44.1037 216.884 48.0624 210.223 53.0831L208.631 54.2833V72.2773H255.631V52.2773H242.462C246.082 48.8423 248.831 45.8356 250.628 43.2771C253.651 38.9762 255.256 34.285 255.256 29.2773C255.256 23.1659 253.191 17.9578 248.775 14.1794C244.451 10.3843 238.578 8.77734 231.756 8.77734C227.906 8.77734 223.872 9.42785 219.674 10.6657C215.506 11.8947 211.886 13.4666 208.912 15.4491L206.419 17.1109L212.608 36.9148L217.001 34.1693C222.841 30.519 226.918 29.1523 229.506 29.1523C231.129 29.1523 231.599 29.5212 231.64 29.5579L231.642 29.5592C231.656 29.5713 231.693 29.6034 231.74 29.73C231.799 29.8851 231.881 30.2079 231.881 30.7773C231.881 32.1758 231.54 33.4717 230.827 34.7279C230.104 36.0019 228.306 38.1212 225.001 41.1803Z" fill="white"/>
<path d="M517.553 24.4023H529.553V21.7773H517.553V24.4023ZM517.553 33.7773V36.7773H529.553V33.7773H517.553ZM498.428 24.4023H504.053V21.7773H498.428V24.4023ZM524.303 59.1273C527.303 58.1273 529.653 56.9273 531.353 55.5273H516.803C518.553 56.8773 521.053 58.0773 524.303 59.1273ZM500.678 55.5273V46.5273H546.428V55.5273C544.128 58.2273 541.678 60.5273 539.078 62.4273C542.478 63.0273 547.178 63.7273 553.178 64.5273L548.678 75.7773C539.478 74.4273 531.203 72.5273 523.853 70.0773C517.603 72.2273 509.253 74.1273 498.803 75.7773L495.128 66.5523C494.028 69.7023 492.378 73.0273 490.178 76.5273L480.803 64.1523C482.753 59.8023 483.978 55.7273 484.478 51.9273C485.028 48.0773 485.303 40.9023 485.303 30.4023V10.9023H512.678V5.27734H526.928V10.9023H552.053V21.7773H543.428V24.4023H552.053V33.7773H543.428V44.2773H504.053V33.7773H498.428V41.2773C498.428 51.1273 497.578 58.8023 495.878 64.3023C500.128 63.8023 503.978 63.2773 507.428 62.7273C505.228 61.4273 503.353 60.0273 501.803 58.5273L509.078 55.5273H500.678Z" fill="#FF8C00"/>
<path d="M418.178 40.9023L407.303 35.2773C412.953 25.4773 417.453 15.4773 420.803 5.27734L434.303 7.90234C434.153 8.45234 433.903 9.27734 433.553 10.3773C433.203 11.4273 432.928 12.2273 432.728 12.7773H474.803V24.0273H454.178V31.9023H472.553V43.1523H454.178V52.5273H477.803V64.1523H454.178V75.7773H439.928V64.1523H407.303V52.5273H418.178V40.9023ZM424.778 31.9023H439.928V24.0273H428.378C427.228 26.6273 426.028 29.2523 424.778 31.9023ZM431.678 52.5273H439.928V43.1523H431.678V52.5273Z" fill="#FF8C00"/>
<path d="M361.166 56.2773C367.866 51.2273 372.891 47.1773 376.241 44.1273C379.591 41.0273 381.791 38.5523 382.841 36.7023C383.891 34.8523 384.416 32.8773 384.416 30.7773C384.416 27.0273 382.291 25.1523 378.041 25.1523C374.291 25.1523 369.416 27.0273 363.416 30.7773L359.666 18.7773C362.216 17.0773 365.441 15.6523 369.341 14.5023C373.241 13.3523 376.891 12.7773 380.291 12.7773C386.541 12.7773 391.341 14.2523 394.691 17.2023C398.091 20.1023 399.791 24.1273 399.791 29.2773C399.791 33.3773 398.491 37.2773 395.891 40.9773C393.291 44.6773 388.216 49.7273 380.666 56.1273V56.2773H400.166V68.2773H361.166V56.2773Z" fill="#FF8C00"/>
<path d="M311.654 56.2773C318.354 51.2273 323.379 47.1773 326.729 44.1273C330.079 41.0273 332.279 38.5523 333.329 36.7023C334.379 34.8523 334.904 32.8773 334.904 30.7773C334.904 27.0273 332.779 25.1523 328.529 25.1523C324.779 25.1523 319.904 27.0273 313.904 30.7773L310.154 18.7773C312.704 17.0773 315.929 15.6523 319.829 14.5023C323.729 13.3523 327.379 12.7773 330.779 12.7773C337.029 12.7773 341.829 14.2523 345.179 17.2023C348.579 20.1023 350.279 24.1273 350.279 29.2773C350.279 33.3773 348.979 37.2773 346.379 40.9773C343.779 44.6773 338.704 49.7273 331.154 56.1273V56.2773H350.654V68.2773H311.654V56.2773Z" fill="#FF8C00"/>
<path d="M298.218 62.4273C294.518 66.8273 288.868 69.0273 281.268 69.0273C273.668 69.0273 268.018 66.8273 264.318 62.4273C260.618 58.0273 258.768 50.8523 258.768 40.9023C258.768 30.9523 260.618 23.7773 264.318 19.3773C268.018 14.9773 273.668 12.7773 281.268 12.7773C288.868 12.7773 294.518 14.9773 298.218 19.3773C301.918 23.7773 303.768 30.9523 303.768 40.9023C303.768 50.8523 301.918 58.0273 298.218 62.4273ZM275.793 54.1773C276.943 56.5773 278.768 57.7773 281.268 57.7773C283.768 57.7773 285.568 56.5773 286.668 54.1773C287.818 51.7273 288.393 47.3023 288.393 40.9023C288.393 34.5023 287.818 30.1023 286.668 27.7023C285.568 25.2523 283.768 24.0273 281.268 24.0273C278.768 24.0273 276.943 25.2523 275.793 27.7023C274.693 30.1023 274.143 34.5023 274.143 40.9023C274.143 47.3023 274.693 51.7273 275.793 54.1773Z" fill="#FF8C00"/>
<path d="M212.631 56.2773C219.331 51.2273 224.356 47.1773 227.706 44.1273C231.056 41.0273 233.256 38.5523 234.306 36.7023C235.356 34.8523 235.881 32.8773 235.881 30.7773C235.881 27.0273 233.756 25.1523 229.506 25.1523C225.756 25.1523 220.881 27.0273 214.881 30.7773L211.131 18.7773C213.681 17.0773 216.906 15.6523 220.806 14.5023C224.706 13.3523 228.356 12.7773 231.756 12.7773C238.006 12.7773 242.806 14.2523 246.156 17.2023C249.556 20.1023 251.256 24.1273 251.256 29.2773C251.256 33.3773 249.956 37.2773 247.356 40.9773C244.756 44.6773 239.681 49.7273 232.131 56.1273V56.2773H251.631V68.2773H212.631V56.2773Z" fill="#FF8C00"/>
<g filter="url(#filter0_d_51_50)">
<path d="M240.345 156.663L238.42 147.313C242.673 146.91 246.138 146.287 248.815 145.443C251.492 144.563 253.673 143.298 255.36 141.648C257.046 139.998 258.22 138 258.88 135.653C259.54 133.307 259.87 130.318 259.87 126.688V110.463H271.145V126.413C271.145 136.057 268.596 143.353 263.5 148.303C258.44 153.217 250.721 156.003 240.345 156.663ZM233.195 135.763V110.463H244.195V135.763H233.195Z" fill="white"/>
</g>
<g filter="url(#filter1_d_51_50)">
<path d="M204.925 118.438H199.645V121.738H200.8C202.23 120.675 203.605 119.575 204.925 118.438ZM201.46 132.188H218.62V158.313H208.445V156.663H190.295V158.313H180.12V143.023C177.883 143.867 175.958 144.563 174.345 145.113L171.045 136.038C176.802 134.425 182.357 132.317 187.71 129.713H171.32V121.738H189.195V118.438H175.72V110.738H189.195V106.888H199.645V110.738H208.72V114.863C210.81 112.7 212.735 110.408 214.495 107.988L222.195 113.488C220.325 116.055 217.868 118.805 214.825 121.738H223.02V129.713H205.09C203.917 130.52 202.707 131.345 201.46 132.188ZM190.295 141.538H208.445V139.063H190.295V141.538ZM190.295 147.588V150.063H208.445V147.588H190.295Z" fill="white"/>
</g>
<g filter="url(#filter2_d_51_50)">
<path d="M147.395 125.588C147.981 124.342 148.476 123.15 148.88 122.013H135.845C135.918 122.197 136.12 122.728 136.45 123.608C136.78 124.452 137.018 125.112 137.165 125.588H147.395ZM166.37 140.438V147.313H154.93C158.926 148.487 163.656 149.587 169.12 150.613L164.72 158.313C158.083 156.48 152.308 154.335 147.395 151.878V158.313H136.945V151.878C132.031 154.335 126.256 156.48 119.62 158.313L115.22 150.613C120.683 149.587 125.413 148.487 129.41 147.313H117.97V140.438H136.945V138.788H120.17V133.288H136.945V131.638H118.52V125.588H126.99C126.403 123.975 125.963 122.783 125.67 122.013H117.42V114.313H121.71C121.05 112.957 120.353 111.673 119.62 110.463L127.87 108.263C129.116 110.353 130.18 112.37 131.06 114.313H132.27V107.438H141.07V114.313H143.27V107.438H152.07V114.313H153.61C154.82 111.967 155.773 109.95 156.47 108.263L164.72 109.913C164.06 111.49 163.4 112.957 162.74 114.313H166.92V122.013H159C158.413 123.627 157.955 124.818 157.625 125.588H165.82V131.638H147.395V133.288H164.17V138.788H147.395V140.438H166.37Z" fill="white"/>
</g>
<g filter="url(#filter3_d_51_50)">
<path d="M76.4449 127.788V130.538H97.3449V127.788H76.4449ZM76.4449 121.188H97.3449V118.438H76.4449V121.188ZM88.4899 147.313C85.7766 144.6 83.6133 141.575 81.9999 138.238H76.4449V148.743C80.2216 148.377 84.2366 147.9 88.4899 147.313ZM96.9049 143.133C98.7016 141.74 100.682 140.108 102.845 138.238H92.2299C93.5499 140.108 95.1083 141.74 96.9049 143.133ZM104.99 147.643C107.3 148.597 110.343 149.587 114.12 150.613L109.445 158.313C102.295 156.883 96.0433 153.895 90.6899 149.348L91.2949 155.013C81.5416 156.627 71.7333 157.635 61.8699 158.038L61.0449 149.788C62.1816 149.752 63.9233 149.66 66.2699 149.513V110.463H81.9449V106.613H92.3949V110.463H107.52V135.983L112.745 140.988C109.995 143.482 107.41 145.7 104.99 147.643Z" fill="white"/>
</g>
<g filter="url(#filter4_d_51_50)">
<path d="M38.4948 148.578C39.7782 148.248 41.2082 147.735 42.7848 147.038H33.5448C34.9015 147.588 36.5515 148.102 38.4948 148.578ZM28.3198 138.568C27.4398 139.705 26.5232 140.713 25.5698 141.593C27.0365 141.007 28.0998 140.567 28.7598 140.273C28.5398 139.907 28.3932 139.338 28.3198 138.568ZM49.6598 139.503C49.2565 140.457 48.4132 141.043 47.1298 141.263C45.8832 141.447 43.2798 141.538 39.3198 141.538H37.8348C37.7248 141.648 37.5415 141.795 37.2848 141.978C37.0648 142.162 36.8998 142.29 36.7898 142.363H51.5298C50.4298 140.677 49.8065 139.723 49.6598 139.503ZM40.3648 136.863C38.4582 135.983 37.0098 135.342 36.0198 134.938V136.038C36.0198 136.442 36.1482 136.68 36.4048 136.753C36.6982 136.827 37.6698 136.863 39.3198 136.863H40.3648ZM35.7998 132.463H27.4948V134.553L28.3198 135.103V133.563H35.1398L35.7998 132.463ZM49.7698 133.783V132.463H43.8298L41.1348 136.863C42.0515 136.827 42.6015 136.662 42.7848 136.368C43.0048 136.038 43.1332 135.287 43.1698 134.113L48.7248 134.553L49.7698 133.783ZM42.6198 116.513H55.5448V128.613H58.2948V136.863H55.3248C56.1682 138.11 57.1582 139.668 58.2948 141.538L53.3448 145.388C53.1615 145.095 52.8865 144.618 52.5198 143.958V147.038C51.1998 148.322 49.8432 149.385 48.4498 150.228C51.5665 150.558 55.0315 150.778 58.8448 150.888L56.9198 158.313C50.2832 157.983 44.0498 156.847 38.2198 154.903C33.0865 156.59 27.1282 157.727 20.3448 158.313L18.4198 151.163C21.9398 151.017 25.2582 150.76 28.3748 150.393C27.9715 150.137 27.4032 149.752 26.6698 149.238L28.4848 147.533C25.8082 148.89 23.0948 149.917 20.3448 150.613L18.1448 145.333V158.313H9.34482V137.908C8.20816 139.852 7.29149 141.245 6.59482 142.088L4.94482 128.888C8.35482 123.388 10.8298 116.238 12.3698 107.438L20.0698 109.858V108.538H58.0198V115.413H42.9498C42.9132 115.56 42.8582 115.743 42.7848 115.963C42.7115 116.183 42.6565 116.367 42.6198 116.513ZM21.7198 128.613V116.513H32.3348C32.3715 116.367 32.4265 116.183 32.4998 115.963C32.5732 115.743 32.6282 115.56 32.6648 115.413H20.3448C19.7215 118.567 18.9882 121.353 18.1448 123.773V143.903C18.6582 143.793 19.9782 143.408 22.1048 142.748L18.6948 139.338C19.7215 138.495 20.6382 137.67 21.4448 136.863H18.9698V128.613H21.7198ZM31.8948 127.238V128.613H45.3698V127.238H31.8948ZM31.8948 123.388V124.763H45.3698V123.388H31.8948ZM31.8948 120.913H45.3698V119.538H31.8948V120.913Z" fill="white"/>
</g>
<g filter="url(#filter5_d_51_50)">
<path d="M384.88 137.963V128.613H405.505V122.288C402.058 122.471 397.2 122.563 390.93 122.563V113.213C399.877 113.213 406.898 112.883 411.995 112.223C417.092 111.563 421.803 110.426 426.13 108.813L429.155 117.888C425.048 119.465 420.74 120.601 416.23 121.298V128.613H433.28V137.963H415.735C414.928 143.72 412.93 148.01 409.74 150.833C406.587 153.62 401.783 155.563 395.33 156.663L392.305 147.588C396.485 146.818 399.492 145.773 401.325 144.453C403.158 143.096 404.368 140.933 404.955 137.963H384.88Z" fill="white"/>
</g>
<g filter="url(#filter6_d_51_50)">
<path d="M330.98 138.238V127.788H377.18V138.238H330.98Z" fill="white"/>
</g>
<g filter="url(#filter7_d_51_50)">
<path d="M285 146.763C288.997 146.396 292.187 145.901 294.57 145.278C296.99 144.618 298.952 143.646 300.455 142.363C301.958 141.043 302.967 139.448 303.48 137.578C304.03 135.708 304.305 133.269 304.305 130.263V127.513H293.305V137.413H283.13V127.513H274.88V118.163H283.13V109.363H293.305V118.163H304.305V109.363H315.03V118.163H323.28V127.513H315.03V130.263C315.03 138.733 312.867 144.966 308.54 148.963C304.25 152.923 297.063 155.306 286.98 156.113L285 146.763Z" fill="white"/>
</g>
<g filter="url(#filter8_d_51_50)">
<path d="M703.171 108.162H716.371L714.721 135.112H704.821L703.171 108.162ZM704.271 148.312V139.512H715.271V148.312H704.271Z" fill="white"/>
</g>
<g filter="url(#filter9_d_51_50)">
<path d="M656.146 117.237V119.162H667.971V117.237H656.146ZM656.146 113.112H667.971V111.187H656.146V113.112ZM656.586 141.162C658.199 142.812 659.757 144.426 661.261 146.002C662.801 146.076 663.662 146.112 663.846 146.112C665.056 146.112 665.771 146.039 665.991 145.892C666.211 145.709 666.321 145.141 666.321 144.187V141.162H656.586ZM666.321 131.537H644.871V126.587C644.687 126.844 644.412 127.211 644.046 127.687C643.679 128.127 643.404 128.457 643.221 128.677V153.812H633.596V136.432C632.386 137.899 631.194 139.109 630.021 140.062L627.821 129.612C630.644 127.486 632.972 125.451 634.806 123.507C636.639 121.564 638.619 119.016 640.746 115.862L646.521 119.272V107.997C644.284 110.747 642.139 113.021 640.086 114.817C638.069 116.577 635.539 118.392 632.496 120.262L628.646 111.737C631.102 110.271 633.156 108.859 634.806 107.502C636.456 106.109 638.252 104.312 640.196 102.112L646.521 106.897V104.037H678.146V123.837H656.146H646.796C646.686 123.984 646.557 124.149 646.411 124.332C646.301 124.516 646.154 124.736 645.971 124.992C645.824 125.212 645.714 125.377 645.641 125.487H680.621V131.537H676.221V133.187H680.896V141.162H676.221V142.812C676.221 144.682 676.184 146.149 676.111 147.212C676.074 148.276 675.909 149.266 675.616 150.182C675.322 151.099 674.992 151.759 674.626 152.162C674.259 152.566 673.617 152.914 672.701 153.207C671.821 153.501 670.886 153.666 669.896 153.702C668.906 153.776 667.531 153.812 665.771 153.812C664.744 153.812 662.544 153.721 659.171 153.537L658.841 148.532L655.046 152.162C652.369 149.302 649.619 146.552 646.796 143.912L649.656 141.162H644.871V133.187H666.321V131.537Z" fill="white"/>
</g>
<g filter="url(#filter10_d_51_50)">
<path d="M597.021 113.112V112.287H592.071V110.582C590.861 112.086 589.394 113.699 587.671 115.422C588.184 117.256 588.643 119.309 589.046 121.582C590.623 118.502 591.814 115.587 592.621 112.837L597.021 113.112ZM608.681 114.762C608.754 114.542 608.828 114.212 608.901 113.772C609.011 113.332 609.084 113.021 609.121 112.837L611.596 113.002V112.287H605.821V113.662H602.191C602.154 113.809 602.081 113.992 601.971 114.212C601.898 114.432 601.843 114.616 601.806 114.762H608.681ZM607.471 120.537V119.437H601.971V120.537H607.471ZM607.471 125.212V124.112H601.971V125.212H607.471ZM607.471 128.787H601.971V129.887H607.471V128.787ZM608.681 143.472C610.771 142.886 612.604 142.207 614.181 141.437H602.686C604.153 142.061 606.151 142.739 608.681 143.472ZM590.971 141.437V135.662H624.521V141.437C622.944 142.977 620.928 144.407 618.471 145.727C621.698 146.277 624.356 146.681 626.446 146.937L624.246 153.812C619.296 153.299 613.759 152.052 607.636 150.072C602.356 151.686 596.801 152.932 590.971 153.812L589.156 148.147C588.606 150.347 587.763 151.832 586.626 152.602C585.526 153.409 583.949 153.812 581.896 153.812C580.246 153.812 578.229 153.537 575.846 152.987L575.296 144.737C577.459 145.287 578.926 145.562 579.696 145.562C580.759 145.562 581.309 142.684 581.346 136.927C579.769 138.394 577.936 139.714 575.846 140.887L572.546 132.912C575.369 131.189 578.083 128.897 580.686 126.037C580.429 124.351 580.191 123.012 579.971 122.022C578.944 122.756 577.569 123.636 575.846 124.662L572.546 116.412C574.306 115.386 575.864 114.341 577.221 113.277C576.524 111.517 575.608 109.629 574.471 107.612L582.721 103.212C583.381 104.459 583.968 105.596 584.481 106.622C585.874 105.046 587.029 103.634 587.946 102.387L592.731 105.137H597.021V102.662H605.821V105.137H611.596V102.662H620.396V105.137H625.621V112.287H620.396V113.662H618.966C618.929 113.846 618.838 114.212 618.691 114.762H625.346V119.437H617.371V120.537H624.521V124.112H617.371V125.212H624.521V128.787H617.371V129.887H625.346V134.562H591.796V126.642L589.706 126.367C589.999 129.007 590.146 132.106 590.146 135.662C590.146 140.612 589.908 144.352 589.431 146.882C590.898 146.736 593.428 146.406 597.021 145.892C595.481 145.159 594.179 144.499 593.116 143.912L595.921 141.437H590.971Z" fill="white"/>
</g>
<g filter="url(#filter11_d_51_50)">
<path d="M521.542 116.815V153.005H511.917V131.005C510.377 133.498 509.094 135.24 508.067 136.23L506.417 123.58C510.707 118.153 513.732 111.003 515.492 102.13L524.842 103.78C524.146 108.4 523.046 112.745 521.542 116.815ZM547.117 107.63H559.217V116.155H524.567V107.63H536.942V101.58H547.117V107.63ZM525.392 120.005L535.017 117.805C536.704 124.955 538.171 132.196 539.417 139.53L529.792 141.18C528.582 134.103 527.116 127.045 525.392 120.005ZM523.467 151.905V143.105H540.462C543.689 135.515 546.182 127.081 547.942 117.805L557.842 119.73C556.339 127.906 554.029 135.698 550.912 143.105H559.767V151.905H523.467Z" fill="#FF8C00"/>
</g>
<path fill-rule="evenodd" clip-rule="evenodd" d="M521.542 153.005H511.917V131.005C511.778 131.23 511.641 131.45 511.506 131.663C510.147 133.807 509.001 135.329 508.067 136.23L506.417 123.58C510.707 118.153 513.732 111.003 515.492 102.13L524.842 103.78C524.757 104.347 524.665 104.91 524.567 105.47C524.456 106.106 524.337 106.736 524.21 107.361C524.192 107.451 524.174 107.54 524.155 107.63C524.149 107.659 524.143 107.688 524.137 107.717C523.526 110.648 522.741 113.461 521.782 116.155C521.707 116.363 521.632 116.571 521.556 116.778C521.551 116.79 521.547 116.802 521.542 116.815V153.005ZM529.43 139.105C529.538 139.711 529.644 140.318 529.749 140.925C529.763 141.01 529.778 141.095 529.792 141.18L539.417 139.53C539.393 139.388 539.369 139.246 539.345 139.105C539.313 138.92 539.281 138.735 539.25 138.551C539.118 137.79 538.984 137.03 538.848 136.271C538.807 136.044 538.766 135.817 538.725 135.59C537.782 130.398 536.728 125.253 535.563 120.155C535.384 119.37 535.202 118.587 535.017 117.805L525.392 120.005C525.405 120.055 525.417 120.105 525.429 120.155C525.467 120.31 525.505 120.465 525.542 120.62C525.807 121.712 526.066 122.804 526.318 123.896C527.488 128.956 528.525 134.026 529.43 139.105ZM539.665 120.155C540.274 122.85 540.851 125.558 541.398 128.278C542.132 125.658 542.796 122.95 543.39 120.155H539.665ZM559.217 116.155V107.63H547.117V101.58H536.942V107.63H524.567V116.155H559.217ZM528.91 103.63L529.379 100.518L512.331 97.5098L511.569 101.351C509.896 109.787 507.074 116.298 503.279 121.099L502.233 122.423L505.128 144.621L507.917 141.931V157.005H525.542V155.905H563.767V139.105H556.765C558.923 133.111 560.593 126.892 561.776 120.453L561.831 120.155H563.217V103.63H551.117V97.5795H532.942V103.63H528.91ZM557.763 120.155C557.79 120.013 557.816 119.871 557.842 119.73L547.942 117.805C547.856 118.257 547.769 118.708 547.679 119.157C547.613 119.491 547.546 119.823 547.477 120.155C546.274 125.984 544.772 131.47 542.972 136.613C542.681 137.443 542.382 138.265 542.076 139.078C541.56 140.445 541.022 141.788 540.462 143.105H523.467V151.905H559.767V143.105H550.912C551.468 141.783 551.999 140.45 552.503 139.105C554.372 134.121 555.888 128.97 557.053 123.651C557.164 123.145 557.272 122.637 557.376 122.128C557.511 121.472 557.64 120.815 557.763 120.155Z" fill="white"/>
<path d="M478.037 117.007H477.962L464.162 127.882L459.287 115.132L478.037 100.132H493.787V154.882H478.037V117.007Z" fill="#FF8C00"/>
<path fill-rule="evenodd" clip-rule="evenodd" d="M459.287 115.132L478.037 100.132H493.787V154.882H478.037V117.007H477.962L464.162 127.882L459.287 115.132ZM474.037 125.193L462.367 134.389L454.508 113.833L476.634 96.1323H497.787V158.882H474.037V125.193Z" fill="white"/>
<defs>
<filter id="filter0_d_51_50" x="229.195" y="110.463" width="45.95" height="54.2002" filterUnits="userSpaceOnUse" color-interpolation-filters="sRGB">
<feFlood flood-opacity="0" result="BackgroundImageFix"/>
<feColorMatrix in="SourceAlpha" type="matrix" values="0 0 0 0 0 0 0 0 0 0 0 0 0 0 0 0 0 0 127 0" result="hardAlpha"/>
<feOffset dy="4"/>
<feGaussianBlur stdDeviation="2"/>
<feComposite in2="hardAlpha" operator="out"/>
<feColorMatrix type="matrix" values="0 0 0 0 0 0 0 0 0 0 0 0 0 0 0 0 0 0 0.25 0"/>
<feBlend mode="normal" in2="BackgroundImageFix" result="effect1_dropShadow_51_50"/>
<feBlend mode="normal" in="SourceGraphic" in2="effect1_dropShadow_51_50" result="shape"/>
</filter>
<filter id="filter1_d_51_50" x="167.045" y="106.888" width="59.9751" height="59.4248" filterUnits="userSpaceOnUse" color-interpolation-filters="sRGB">
<feFlood flood-opacity="0" result="BackgroundImageFix"/>
<feColorMatrix in="SourceAlpha" type="matrix" values="0 0 0 0 0 0 0 0 0 0 0 0 0 0 0 0 0 0 127 0" result="hardAlpha"/>
<feOffset dy="4"/>
<feGaussianBlur stdDeviation="2"/>
<feComposite in2="hardAlpha" operator="out"/>
<feColorMatrix type="matrix" values="0 0 0 0 0 0 0 0 0 0 0 0 0 0 0 0 0 0 0.25 0"/>
<feBlend mode="normal" in2="BackgroundImageFix" result="effect1_dropShadow_51_50"/>
<feBlend mode="normal" in="SourceGraphic" in2="effect1_dropShadow_51_50" result="shape"/>
</filter>
<filter id="filter2_d_51_50" x="111.22" y="107.438" width="61.8999" height="58.875" filterUnits="userSpaceOnUse" color-interpolation-filters="sRGB">
<feFlood flood-opacity="0" result="BackgroundImageFix"/>
<feColorMatrix in="SourceAlpha" type="matrix" values="0 0 0 0 0 0 0 0 0 0 0 0 0 0 0 0 0 0 127 0" result="hardAlpha"/>
<feOffset dy="4"/>
<feGaussianBlur stdDeviation="2"/>
<feComposite in2="hardAlpha" operator="out"/>
<feColorMatrix type="matrix" values="0 0 0 0 0 0 0 0 0 0 0 0 0 0 0 0 0 0 0.25 0"/>
<feBlend mode="normal" in2="BackgroundImageFix" result="effect1_dropShadow_51_50"/>
<feBlend mode="normal" in="SourceGraphic" in2="effect1_dropShadow_51_50" result="shape"/>
</filter>
<filter id="filter3_d_51_50" x="57.0449" y="106.613" width="61.075" height="59.7002" filterUnits="userSpaceOnUse" color-interpolation-filters="sRGB">
<feFlood flood-opacity="0" result="BackgroundImageFix"/>
<feColorMatrix in="SourceAlpha" type="matrix" values="0 0 0 0 0 0 0 0 0 0 0 0 0 0 0 0 0 0 127 0" result="hardAlpha"/>
<feOffset dy="4"/>
<feGaussianBlur stdDeviation="2"/>
<feComposite in2="hardAlpha" operator="out"/>
<feColorMatrix type="matrix" values="0 0 0 0 0 0 0 0 0 0 0 0 0 0 0 0 0 0 0.25 0"/>
<feBlend mode="normal" in2="BackgroundImageFix" result="effect1_dropShadow_51_50"/>
<feBlend mode="normal" in="SourceGraphic" in2="effect1_dropShadow_51_50" result="shape"/>
</filter>
<filter id="filter4_d_51_50" x="0.944824" y="107.438" width="61.8999" height="58.875" filterUnits="userSpaceOnUse" color-interpolation-filters="sRGB">
<feFlood flood-opacity="0" result="BackgroundImageFix"/>
<feColorMatrix in="SourceAlpha" type="matrix" values="0 0 0 0 0 0 0 0 0 0 0 0 0 0 0 0 0 0 127 0" result="hardAlpha"/>
<feOffset dy="4"/>
<feGaussianBlur stdDeviation="2"/>
<feComposite in2="hardAlpha" operator="out"/>
<feColorMatrix type="matrix" values="0 0 0 0 0 0 0 0 0 0 0 0 0 0 0 0 0 0 0.25 0"/>
<feBlend mode="normal" in2="BackgroundImageFix" result="effect1_dropShadow_51_50"/>
<feBlend mode="normal" in="SourceGraphic" in2="effect1_dropShadow_51_50" result="shape"/>
</filter>
<filter id="filter5_d_51_50" x="380.88" y="108.813" width="56.3999" height="55.8501" filterUnits="userSpaceOnUse" color-interpolation-filters="sRGB">
<feFlood flood-opacity="0" result="BackgroundImageFix"/>
<feColorMatrix in="SourceAlpha" type="matrix" values="0 0 0 0 0 0 0 0 0 0 0 0 0 0 0 0 0 0 127 0" result="hardAlpha"/>
<feOffset dy="4"/>
<feGaussianBlur stdDeviation="2"/>
<feComposite in2="hardAlpha" operator="out"/>
<feColorMatrix type="matrix" values="0 0 0 0 0 0 0 0 0 0 0 0 0 0 0 0 0 0 0.25 0"/>
<feBlend mode="normal" in2="BackgroundImageFix" result="effect1_dropShadow_51_50"/>
<feBlend mode="normal" in="SourceGraphic" in2="effect1_dropShadow_51_50" result="shape"/>
</filter>
<filter id="filter6_d_51_50" x="326.98" y="127.788" width="54.2" height="18.4502" filterUnits="userSpaceOnUse" color-interpolation-filters="sRGB">
<feFlood flood-opacity="0" result="BackgroundImageFix"/>
<feColorMatrix in="SourceAlpha" type="matrix" values="0 0 0 0 0 0 0 0 0 0 0 0 0 0 0 0 0 0 127 0" result="hardAlpha"/>
<feOffset dy="4"/>
<feGaussianBlur stdDeviation="2"/>
<feComposite in2="hardAlpha" operator="out"/>
<feColorMatrix type="matrix" values="0 0 0 0 0 0 0 0 0 0 0 0 0 0 0 0 0 0 0.25 0"/>
<feBlend mode="normal" in2="BackgroundImageFix" result="effect1_dropShadow_51_50"/>
<feBlend mode="normal" in="SourceGraphic" in2="effect1_dropShadow_51_50" result="shape"/>
</filter>
<filter id="filter7_d_51_50" x="270.88" y="109.363" width="56.3999" height="54.75" filterUnits="userSpaceOnUse" color-interpolation-filters="sRGB">
<feFlood flood-opacity="0" result="BackgroundImageFix"/>
<feColorMatrix in="SourceAlpha" type="matrix" values="0 0 0 0 0 0 0 0 0 0 0 0 0 0 0 0 0 0 127 0" result="hardAlpha"/>
<feOffset dy="4"/>
<feGaussianBlur stdDeviation="2"/>
<feComposite in2="hardAlpha" operator="out"/>
<feColorMatrix type="matrix" values="0 0 0 0 0 0 0 0 0 0 0 0 0 0 0 0 0 0 0.25 0"/>
<feBlend mode="normal" in2="BackgroundImageFix" result="effect1_dropShadow_51_50"/>
<feBlend mode="normal" in="SourceGraphic" in2="effect1_dropShadow_51_50" result="shape"/>
</filter>
<filter id="filter8_d_51_50" x="699.171" y="108.162" width="21.2" height="48.1499" filterUnits="userSpaceOnUse" color-interpolation-filters="sRGB">
<feFlood flood-opacity="0" result="BackgroundImageFix"/>
<feColorMatrix in="SourceAlpha" type="matrix" values="0 0 0 0 0 0 0 0 0 0 0 0 0 0 0 0 0 0 127 0" result="hardAlpha"/>
<feOffset dy="4"/>
<feGaussianBlur stdDeviation="2"/>
<feComposite in2="hardAlpha" operator="out"/>
<feColorMatrix type="matrix" values="0 0 0 0 0 0 0 0 0 0 0 0 0 0 0 0 0 0 0.25 0"/>
<feBlend mode="normal" in2="BackgroundImageFix" result="effect1_dropShadow_51_50"/>
<feBlend mode="normal" in="SourceGraphic" in2="effect1_dropShadow_51_50" result="shape"/>
</filter>
<filter id="filter9_d_51_50" x="623.821" y="102.112" width="61.075" height="59.7002" filterUnits="userSpaceOnUse" color-interpolation-filters="sRGB">
<feFlood flood-opacity="0" result="BackgroundImageFix"/>
<feColorMatrix in="SourceAlpha" type="matrix" values="0 0 0 0 0 0 0 0 0 0 0 0 0 0 0 0 0 0 127 0" result="hardAlpha"/>
<feOffset dy="4"/>
<feGaussianBlur stdDeviation="2"/>
<feComposite in2="hardAlpha" operator="out"/>
<feColorMatrix type="matrix" values="0 0 0 0 0 0 0 0 0 0 0 0 0 0 0 0 0 0 0.25 0"/>
<feBlend mode="normal" in2="BackgroundImageFix" result="effect1_dropShadow_51_50"/>
<feBlend mode="normal" in="SourceGraphic" in2="effect1_dropShadow_51_50" result="shape"/>
</filter>
<filter id="filter10_d_51_50" x="568.546" y="102.387" width="61.8999" height="59.4248" filterUnits="userSpaceOnUse" color-interpolation-filters="sRGB">
<feFlood flood-opacity="0" result="BackgroundImageFix"/>
<feColorMatrix in="SourceAlpha" type="matrix" values="0 0 0 0 0 0 0 0 0 0 0 0 0 0 0 0 0 0 127 0" result="hardAlpha"/>
<feOffset dy="4"/>
<feGaussianBlur stdDeviation="2"/>
<feComposite in2="hardAlpha" operator="out"/>
<feColorMatrix type="matrix" values="0 0 0 0 0 0 0 0 0 0 0 0 0 0 0 0 0 0 0.25 0"/>
<feBlend mode="normal" in2="BackgroundImageFix" result="effect1_dropShadow_51_50"/>
<feBlend mode="normal" in="SourceGraphic" in2="effect1_dropShadow_51_50" result="shape"/>
</filter>
<filter id="filter11_d_51_50" x="502.417" y="101.58" width="61.3501" height="59.4248" filterUnits="userSpaceOnUse" color-interpolation-filters="sRGB">
<feFlood flood-opacity="0" result="BackgroundImageFix"/>
<feColorMatrix in="SourceAlpha" type="matrix" values="0 0 0 0 0 0 0 0 0 0 0 0 0 0 0 0 0 0 127 0" result="hardAlpha"/>
<feOffset dy="4"/>
<feGaussianBlur stdDeviation="2"/>
<feComposite in2="hardAlpha" operator="out"/>
<feColorMatrix type="matrix" values="0 0 0 0 0 0 0 0 0 0 0 0 0 0 0 0 0 0 0.25 0"/>
<feBlend mode="normal" in2="BackgroundImageFix" result="effect1_dropShadow_51_50"/>
<feBlend mode="normal" in="SourceGraphic" in2="effect1_dropShadow_51_50" result="shape"/>
</filter>
</defs>
</svg>
