<svg width="104" height="104" viewBox="0 0 104 104" fill="none" xmlns="http://www.w3.org/2000/svg">
<ellipse cx="51.89" cy="52.4273" rx="51.5" ry="51.5777" fill="white"/>
<g clip-path="url(#clip0_0_226)">
<path d="M62.578 33.3423C65.505 33.3423 66.884 34.5812 67.6439 35.5251C69.3888 37.6489 70.4583 41.336 70.4583 45.3771C70.4583 49.4182 69.2762 53.5183 67.3625 55.6421C66.4337 56.6745 65.3643 57.3529 62.8876 57.3529C61.8711 57.3319 60.8565 57.2531 59.8481 57.117C57.3814 56.8221 54.9008 56.6744 52.4182 56.6745H52.3619C49.8792 56.6744 47.3986 56.8221 44.9319 57.117C43.9234 57.2516 42.9088 57.3304 41.8924 57.3529C39.4158 57.3529 38.3182 56.6745 37.3894 55.6421C35.5038 53.5183 34.3218 49.5657 34.3218 45.3771C34.3218 41.1886 35.3631 37.6489 37.1361 35.5251C37.896 34.5812 39.2469 33.3423 42.1738 33.3423C42.7101 33.3535 43.2455 33.3929 43.778 33.4603C46.6244 33.8486 49.4915 34.0456 52.3619 34.0503H52.4182C55.2792 34.0456 58.1369 33.8485 60.9738 33.4603C61.5367 33.4013 62.0715 33.3423 62.578 33.3423ZM62.578 27.6494C61.8057 27.6494 61.0344 27.7086 60.2703 27.8264C57.6665 28.1802 55.0437 28.3576 52.4182 28.3573H52.3619C49.727 28.3575 47.0948 28.1801 44.4816 27.8264C43.7175 27.7086 42.9462 27.6494 42.1738 27.6494C38.684 27.6494 35.4475 28.8588 33.0271 31.8085C30.0439 35.4071 28.89 40.7166 28.89 45.3771C28.89 50.0377 30.1846 55.8781 33.4212 59.5062C35.8697 62.2789 38.7403 63.0459 41.8924 63.0459C43.1064 63.0282 44.3184 62.9396 45.5229 62.7804C47.7937 62.5116 50.0767 62.3737 52.3619 62.3674H52.4182C54.694 62.3707 56.9679 62.5086 59.2289 62.7804C60.4429 62.9397 61.6643 63.0283 62.8876 63.0459C66.0116 63.0459 68.9104 62.2789 71.3589 59.5062C74.5954 55.8781 75.89 50.2147 75.89 45.3771C75.89 40.5396 74.7361 35.4071 71.7529 31.8085C69.3325 28.8588 66.0679 27.6494 62.578 27.6494Z" fill="#C0CCE8"/>
<path d="M62.6625 45.6721H42.1176C41.3413 45.676 40.5953 45.3566 40.0438 44.784C39.4922 44.2115 39.1803 43.4328 39.1765 42.6192C39.1728 41.8056 39.4776 41.0237 40.0239 40.4457C40.5701 39.8676 41.3131 39.5406 42.0894 39.5367H62.6625C63.4385 39.5297 64.1856 39.8456 64.7396 40.4152C65.2936 40.9848 65.6094 41.7616 65.6176 42.5749V42.6044C65.6101 43.4207 65.2955 44.201 64.7421 44.7754C64.1888 45.3499 63.4414 45.6722 62.6625 45.6721Z" fill="#F5C33B"/>
</g>
<g clip-path="url(#clip1_0_226)">
<path d="M17.6807 67.7519C17.7318 67.6071 17.7567 67.4527 17.754 67.2972C17.7514 67.1418 17.7212 66.9885 17.6652 66.846C17.6092 66.7035 17.5286 66.5747 17.4278 66.4669C17.3271 66.3592 17.2082 66.2745 17.078 66.2178C17.0314 66.1986 16.9839 66.1823 16.9356 66.169C16.3502 66.0063 15.8712 66.4205 15.6717 66.9974L13.5562 73.5065C13.5434 73.561 13.5137 73.6088 13.4723 73.6413C13.4309 73.6738 13.3805 73.689 13.33 73.684C13.2817 73.6858 13.234 73.673 13.1918 73.6469C13.1496 73.6209 13.1146 73.5826 13.0905 73.5361L10.975 66.9974C10.935 66.8465 10.8686 66.7057 10.7797 66.5833C10.6908 66.4609 10.581 66.3591 10.4567 66.2838C10.3324 66.2086 10.196 66.1612 10.0553 66.1446C9.91455 66.1279 9.77224 66.1422 9.63648 66.1867C9.61253 66.1936 9.58858 66.2025 9.56463 66.2134C9.43452 66.2703 9.31578 66.3553 9.2152 66.4633C9.11462 66.5713 9.03417 66.7003 8.97844 66.8429C8.92272 66.9855 8.89281 67.1389 8.89043 67.2944C8.88805 67.4498 8.91324 67.6043 8.96457 67.7489L11.8119 75.8557C11.9316 76.1907 12.1388 76.4782 12.4067 76.6812C12.6747 76.8842 12.9911 76.9934 13.3153 76.9948C13.641 76.9926 13.9589 76.8832 14.2288 76.6805C14.4987 76.4778 14.7087 76.1908 14.8321 75.8557L17.6807 67.7519Z" fill="#334666"/>
<path d="M39.4345 76.0362V67.2193C39.4345 66.5684 39.7538 66.2134 40.3259 66.2134H42.2152C46.1402 66.2134 47.6703 68.0773 47.6703 71.6277C47.6703 75.1782 46.1402 77.0273 42.2152 77.0273H40.3259C39.7538 77.0273 39.4345 76.6723 39.4345 76.0362ZM42.2951 74.9267C44.7432 74.9267 45.5415 73.8615 45.5415 71.613C45.5415 69.3644 44.7432 68.2992 42.2818 68.2992H41.5633V74.9267H42.2951Z" fill="#334666"/>
<path d="M57.9285 76.0362V67.2193C57.9268 67.0892 57.9481 66.9599 57.9913 66.8389C58.0345 66.7179 58.0986 66.6075 58.1802 66.5141C58.2617 66.4207 58.359 66.3461 58.4665 66.2945C58.574 66.2429 58.6896 66.2153 58.8067 66.2134H63.4235C63.6741 66.2134 63.9143 66.324 64.0915 66.521C64.2687 66.718 64.3682 66.9851 64.3682 67.2637C64.3682 67.5423 64.2687 67.8094 64.0915 68.0064C63.9143 68.2034 63.6741 68.314 63.4235 68.314H60.0573V70.6366H63.224C63.8094 70.6366 64.1287 70.962 64.1287 71.5538C64.1287 72.1455 63.8094 72.4562 63.224 72.4562H60.0573V74.8971H63.4235C63.6741 74.8971 63.9143 75.0077 64.0915 75.2047C64.2687 75.4017 64.3682 75.6688 64.3682 75.9474C64.3682 76.226 64.2687 76.4931 64.0915 76.6901C63.9143 76.8871 63.6741 76.9977 63.4235 76.9977H58.8333C58.7162 76.9997 58.5999 76.976 58.4911 76.928C58.3823 76.88 58.283 76.8086 58.199 76.7179C58.115 76.6273 58.0479 76.5191 58.0015 76.3996C57.9551 76.28 57.9303 76.1515 57.9285 76.0214V76.0066" fill="#334666"/>
<path d="M35.9619 66.2282C35.8223 66.2124 35.6812 66.2276 35.5469 66.2727C35.4126 66.3177 35.2876 66.3919 35.1792 66.4909C35.0708 66.5899 34.981 66.7117 34.9151 66.8494C34.8491 66.9871 34.8083 67.138 34.795 67.2933V67.3598V73.329L30.9858 66.8791C30.3205 65.6512 28.5376 66.2577 28.5376 67.6779V75.7995C28.535 76.0989 28.6309 76.389 28.8074 76.6152C28.9838 76.8414 29.2286 76.988 29.4956 77.0273C29.6347 77.0428 29.7751 77.0278 29.909 76.983C30.0428 76.9381 30.1674 76.8645 30.2757 76.7661C30.3839 76.6677 30.4736 76.5466 30.5398 76.4097C30.6059 76.2728 30.6471 76.1227 30.6611 75.9681C30.6631 75.9267 30.6631 75.8852 30.6611 75.8438V69.8969L34.4664 76.3616C35.1316 77.5895 36.9012 76.9829 36.9012 75.5628V67.4412C36.9065 67.1449 36.8129 66.857 36.6384 66.6329C36.464 66.4089 36.221 66.2647 35.9565 66.2282" fill="#334666"/>
<path d="M56.1723 75.8143C56.1323 75.3113 55.6667 74.9267 55.2409 74.9267H51.8747V67.3968C51.8747 67.083 51.7626 66.782 51.563 66.56C51.3634 66.3381 51.0926 66.2134 50.8103 66.2134C50.5316 66.2134 50.2642 66.3365 50.0671 66.5557C49.87 66.7748 49.7592 67.0721 49.7592 67.3821V76.0362C49.7592 76.6723 50.0652 77.0273 50.6507 77.0273H55.2409C55.3667 77.0248 55.4908 76.9948 55.6062 76.9389C55.7216 76.8831 55.8259 76.8025 55.9133 76.7018C56.0006 76.6011 56.0693 76.4823 56.1153 76.3521C56.1614 76.2219 56.1839 76.0828 56.1816 75.943C56.1805 75.8999 56.1773 75.857 56.1723 75.8143Z" fill="#334666"/>
<path d="M75.3981 73.2844C74.959 73.033 74.5199 73.2992 74.3204 73.7578C73.7749 74.9857 72.8967 75.5922 71.7392 75.5922C69.9297 75.5922 68.7588 74.1129 68.7588 71.6572C68.7588 69.2015 69.9563 67.6778 71.7392 67.6778C72.8701 67.6778 73.7349 68.2843 74.2938 69.4382C74.5066 69.9116 74.959 70.237 75.4114 69.9411C75.8637 69.6453 75.9037 69.2015 75.7041 68.7577C74.8925 66.805 73.256 66.0801 71.7392 66.0801C69.4108 66.0801 67.1622 67.8109 67.1622 71.6572C67.1622 75.5034 69.4108 77.2047 71.7392 77.2047C73.2693 77.2047 74.9457 76.465 75.7307 74.4679C75.8904 74.0093 75.8238 73.5211 75.3981 73.2844Z" fill="#334666"/>
<path d="M92.6814 73.1367C94.1715 72.6781 94.89 71.5982 94.89 69.7934C94.89 67.1897 93.6127 66.2134 90.5925 66.2134H88.2508C88.0743 66.2134 87.9051 66.2913 87.7804 66.43C87.6556 66.5687 87.5855 66.7569 87.5855 66.953V76.1101C87.5805 76.3328 87.6498 76.5497 87.78 76.719C87.9101 76.8884 88.0921 76.9982 88.2907 77.0273C88.3952 77.0371 88.5004 77.0238 88.6003 76.9883C88.7001 76.9528 88.7928 76.8958 88.8728 76.8206C88.9529 76.7453 89.0188 76.6532 89.0669 76.5496C89.1149 76.446 89.1441 76.3328 89.1529 76.2166C89.1529 76.1959 89.1529 76.1752 89.1529 76.1545V67.7075H90.5632C92.3993 67.7075 93.3307 68.1365 93.3307 69.8673C93.3307 71.5982 92.6281 71.968 90.792 71.968H90.7388C90.5659 71.968 90.4001 72.0444 90.2778 72.1803C90.1556 72.3162 90.0869 72.5006 90.0869 72.6929V72.7225C90.1004 72.9147 90.1797 73.0939 90.3084 73.2232C90.437 73.3525 90.6053 73.4221 90.7787 73.4177C91.0848 73.4177 91.1247 73.4325 91.2178 73.5509L93.2136 76.5391C93.4398 76.8942 93.8256 77.1457 94.2115 76.9386C94.2974 76.8983 94.3753 76.8394 94.4407 76.7653C94.506 76.6913 94.5574 76.6035 94.5919 76.5072C94.6265 76.4108 94.6434 76.3078 94.6419 76.2041C94.6403 76.1003 94.6201 75.998 94.5827 75.903C94.5621 75.8503 94.5357 75.8006 94.5042 75.7551L92.6814 73.1367Z" fill="#334666"/>
<path d="M26.8479 75.5034L23.8675 67.2191C23.3753 65.8729 21.4992 65.8877 21.0203 67.2339L18.0532 75.5034C18.0036 75.6425 17.9791 75.7912 17.9812 75.9409C17.9833 76.0906 18.0119 76.2384 18.0654 76.3758C18.119 76.5132 18.1963 76.6375 18.2931 76.7417C18.3898 76.8458 18.5041 76.9277 18.6293 76.9827C18.6728 77.001 18.7172 77.0163 18.7624 77.0285C19.023 77.093 19.2959 77.0448 19.5257 76.8937C19.7555 76.7426 19.925 76.4999 19.9998 76.2149L20.4122 74.9723H24.4969L24.9093 76.2149C25.0956 76.8066 25.6012 77.2061 26.1733 77.0138C26.4348 76.932 26.6564 76.7383 26.7896 76.4751C26.9228 76.2119 26.9566 75.9008 26.8838 75.6099C26.8745 75.5744 26.8638 75.5389 26.8519 75.5048M20.9803 73.2252L22.2044 69.4973C22.2372 69.4278 22.2935 69.3757 22.3609 69.3524C22.4282 69.3291 22.5012 69.3365 22.5636 69.373C22.5959 69.3918 22.6244 69.4178 22.6473 69.4493C22.6702 69.4809 22.687 69.5173 22.6967 69.5564L23.9075 73.2252H20.9803Z" fill="#334666"/>
<path d="M85.8958 75.8586L82.5562 67.0122C82.4658 66.7771 82.3157 66.5763 82.1243 66.4344C81.9329 66.2926 81.7085 66.2158 81.4785 66.2134C81.25 66.2148 81.027 66.2915 80.8375 66.4336C80.6481 66.5758 80.5008 66.7771 80.4141 67.0122L77.0878 75.8586C77.0502 75.9634 77.0315 76.0753 77.0328 76.188C77.0341 76.3008 77.0554 76.4121 77.0955 76.5157C77.1355 76.6193 77.1935 76.7131 77.2662 76.7917C77.3388 76.8704 77.4247 76.9323 77.5189 76.9741L77.5801 76.9977C77.7687 77.0478 77.9672 77.0198 78.1385 76.9191C78.3099 76.8184 78.4425 76.6518 78.5115 76.4504L79.1102 74.7935H83.8734L84.4588 76.4504C84.5329 76.6509 84.6684 76.8158 84.8413 76.9159C85.0141 77.0161 85.2133 77.0451 85.4035 76.9977C85.5016 76.9625 85.5925 76.9061 85.671 76.8318C85.7494 76.7574 85.8139 76.6666 85.8608 76.5645C85.9076 76.4624 85.9359 76.351 85.9439 76.2367C85.952 76.1225 85.9397 76.0076 85.9078 75.8986L85.8958 75.8586ZM79.6025 73.4029L81.3189 68.5655C81.3365 68.5184 81.3702 68.4811 81.4127 68.4617C81.4551 68.4422 81.5027 68.4424 81.545 68.462C81.566 68.4714 81.5851 68.4855 81.6011 68.5032C81.6171 68.521 81.6297 68.5422 81.6382 68.5655L83.3678 73.4029H79.6025Z" fill="#334666"/>
</g>
<defs>
<clipPath id="clip0_0_226">
<rect width="47" height="35.3965" fill="white" transform="translate(28.89 27.6494)"/>
</clipPath>
<clipPath id="clip1_0_226">
<rect width="86" height="11.1246" fill="white" transform="translate(8.89001 66.0801)"/>
</clipPath>
</defs>
</svg>
