<svg width="103" height="104" viewBox="0 0 103 104" fill="none" xmlns="http://www.w3.org/2000/svg">
<ellipse cx="51.1693" cy="52.4273" rx="51" ry="51.5777" fill="white"/>
<g clip-path="url(#clip0_0_357)">
<path d="M50.5585 55.0417L61.7776 49.1633C62.166 48.9611 62.4928 48.6497 62.7212 48.2639C62.9497 47.8782 63.0706 47.4335 63.0706 46.9797V33.282C63.0706 32.8283 62.9497 32.3835 62.7212 31.9978C62.4928 31.612 62.166 31.3006 61.7776 31.0984L50.5585 25.22C50.2308 25.0493 49.8696 24.9604 49.5035 24.9604C49.1374 24.9604 48.7763 25.0493 48.4486 25.22L37.2319 31.0984C36.8434 31.3006 36.5166 31.612 36.2882 31.9978C36.0598 32.3835 35.9388 32.8283 35.9388 33.282V46.9797C35.9388 47.4335 36.0598 47.8782 36.2882 48.2639C36.5166 48.6497 36.8434 48.9611 37.2319 49.1633L48.4486 55.0417C48.7763 55.2124 49.1374 55.3013 49.5035 55.3013C49.8696 55.3013 50.2308 55.2124 50.5585 55.0417Z" fill="#FF0211"/>
<path d="M58.858 39.8046C62.2164 39.8046 64.9388 36.9578 64.9388 33.446C64.9388 29.9342 62.2164 27.0874 58.858 27.0874C55.4996 27.0874 52.7772 29.9342 52.7772 33.446C52.7772 36.9578 55.4996 39.8046 58.858 39.8046Z" fill="#4DC9FF"/>
<path d="M39.6705 45.0637L38.4838 44.4395V40.7623C38.4838 39.6857 39.0639 38.6116 40.2602 38.7405C41.3792 38.8669 42.242 39.9056 42.5103 40.5854C42.6893 40.4116 42.906 40.2858 43.1417 40.2188C43.3775 40.1519 43.6253 40.1459 43.8638 40.2013C44.4776 40.2872 46.7809 41.2122 46.7809 44.4698V48.8117L45.4782 48.1268V44.0655C45.4782 42.8751 44.7822 41.8794 43.8444 41.7657C43.4577 41.7176 43.1194 42.0437 43.1194 42.7437V46.8733L41.923 46.244V42.4051C41.923 40.7093 40.8765 40.1735 40.4173 40.1305C40.1587 40.1002 39.6777 40.2619 39.6777 41.1414L39.6705 45.0637Z" fill="white"/>
</g>
<g clip-path="url(#clip1_0_357)">
<path d="M68.7977 63.9146L65.5308 71.7824L62.2243 63.9146H58.9468L64.0586 75.039L61.3679 81.1641H64.1934L71.8373 63.9146H68.7977Z" fill="#222222"/>
<path d="M37.7622 58.0361H30.8373V76.2136H33.7447V69.1554H37.7622C41.5815 69.1554 43.8626 66.8421 43.8626 63.6318C43.8731 60.3751 41.5921 58.0361 37.7622 58.0361ZM38.2539 66.4874H33.7976V60.7093H38.2644C40.2283 60.7093 40.934 62.47 40.934 63.6395C40.934 64.809 40.2336 66.4874 38.2724 66.4874H38.2539Z" fill="#222222"/>
<path d="M51.176 63.7524C47.4096 63.7524 44.6713 66.3896 44.6713 70.0215C44.6713 73.7151 47.2352 76.2931 50.9038 76.2931C52.4104 76.2931 54.0333 75.4244 54.6227 74.3397V76.216H57.5645V70.0215C57.5645 66.2123 55.0958 63.7524 51.176 63.7524ZM51.1496 73.7768C48.9875 73.7768 47.6396 72.3374 47.6396 70.0189C47.6396 67.8778 49.1514 66.2637 51.1496 66.2637C53.28 66.2637 54.5857 67.739 54.5857 70.0189C54.5857 71.8439 53.428 73.7793 51.1496 73.7793V73.7768Z" fill="#222222"/>
</g>
<defs>
<clipPath id="clip0_0_357">
<rect width="29" height="30.3398" fill="white" transform="translate(35.9388 24.9595)"/>
</clipPath>
<clipPath id="clip1_0_357">
<rect width="41" height="23.1279" fill="white" transform="translate(30.8373 58.0361)"/>
</clipPath>
</defs>
</svg>
