<svg width="861" height="180" viewBox="0 0 861 180" fill="none" xmlns="http://www.w3.org/2000/svg">
<g filter="url(#filter0_d_52_92)">
<path d="M841.055 114.896H856.655L854.705 146.746H843.005L841.055 114.896ZM842.355 162.346V151.946H855.355V162.346H842.355Z" fill="white"/>
</g>
<g filter="url(#filter1_d_52_92)">
<path d="M785.48 125.622V127.897H799.455V125.622H785.48ZM785.48 120.747H799.455V118.472H785.48V120.747ZM786 153.897C787.907 155.847 789.748 157.753 791.525 159.617C793.345 159.703 794.363 159.747 794.58 159.747C796.01 159.747 796.855 159.66 797.115 159.487C797.375 159.27 797.505 158.598 797.505 157.472V153.897H786ZM797.505 142.522H772.155V136.672C771.938 136.975 771.613 137.408 771.18 137.972C770.747 138.492 770.422 138.882 770.205 139.142V168.847H758.83V148.307C757.4 150.04 755.992 151.47 754.605 152.597L752.005 140.247C755.342 137.733 758.093 135.328 760.26 133.032C762.427 130.735 764.767 127.723 767.28 123.997L774.105 128.027V114.702C771.462 117.952 768.927 120.638 766.5 122.762C764.117 124.842 761.127 126.987 757.53 129.197L752.98 119.122C755.883 117.388 758.31 115.72 760.26 114.117C762.21 112.47 764.333 110.347 766.63 107.747L774.105 113.402V110.022H811.48V133.422H785.48H774.43C774.3 133.595 774.148 133.79 773.975 134.007C773.845 134.223 773.672 134.483 773.455 134.787C773.282 135.047 773.152 135.242 773.065 135.372H814.405V142.522H809.205V144.472H814.73V153.897H809.205V155.847C809.205 158.057 809.162 159.79 809.075 161.047C809.032 162.303 808.837 163.473 808.49 164.557C808.143 165.64 807.753 166.42 807.32 166.897C806.887 167.373 806.128 167.785 805.045 168.132C804.005 168.478 802.9 168.673 801.73 168.717C800.56 168.803 798.935 168.847 796.855 168.847C795.642 168.847 793.042 168.738 789.055 168.522L788.665 162.607L784.18 166.897C781.017 163.517 777.767 160.267 774.43 157.147L777.81 153.897H772.155V144.472H797.505V142.522Z" fill="white"/>
</g>
<g filter="url(#filter2_d_52_92)">
<path d="M715.605 120.747V119.772H709.755V117.757C708.325 119.533 706.592 121.44 704.555 123.477C705.162 125.643 705.704 128.07 706.18 130.757C708.044 127.117 709.452 123.672 710.405 120.422L715.605 120.747ZM729.385 122.697C729.472 122.437 729.559 122.047 729.645 121.527C729.775 121.007 729.862 120.638 729.905 120.422L732.83 120.617V119.772H726.005V121.397H721.715C721.672 121.57 721.585 121.787 721.455 122.047C721.369 122.307 721.304 122.523 721.26 122.697H729.385ZM727.955 129.522V128.222H721.455V129.522H727.955ZM727.955 135.047V133.747H721.455V135.047H727.955ZM727.955 139.272H721.455V140.572H727.955V139.272ZM729.385 156.627C731.855 155.933 734.022 155.132 735.885 154.222H722.3C724.034 154.958 726.395 155.76 729.385 156.627ZM708.455 154.222V147.397H748.105V154.222C746.242 156.042 743.859 157.732 740.955 159.292C744.769 159.942 747.91 160.418 750.38 160.722L747.78 168.847C741.93 168.24 735.387 166.767 728.15 164.427C721.91 166.333 715.345 167.807 708.455 168.847L706.31 162.152C705.66 164.752 704.664 166.507 703.32 167.417C702.02 168.37 700.157 168.847 697.73 168.847C695.78 168.847 693.397 168.522 690.58 167.872L689.93 158.122C692.487 158.772 694.22 159.097 695.13 159.097C696.387 159.097 697.037 155.695 697.08 148.892C695.217 150.625 693.05 152.185 690.58 153.572L686.68 144.147C690.017 142.11 693.224 139.402 696.3 136.022C695.997 134.028 695.715 132.447 695.455 131.277C694.242 132.143 692.617 133.183 690.58 134.397L686.68 124.647C688.76 123.433 690.602 122.198 692.205 120.942C691.382 118.862 690.299 116.63 688.955 114.247L698.705 109.047C699.485 110.52 700.179 111.863 700.785 113.077C702.432 111.213 703.797 109.545 704.88 108.072L710.535 111.322H715.605V108.397H726.005V111.322H732.83V108.397H743.23V111.322H749.405V119.772H743.23V121.397H741.54C741.497 121.613 741.389 122.047 741.215 122.697H749.08V128.222H739.655V129.522H748.105V133.747H739.655V135.047H748.105V139.272H739.655V140.572H749.08V146.097H709.43V136.737L706.96 136.412C707.307 139.532 707.48 143.193 707.48 147.397C707.48 153.247 707.199 157.667 706.635 160.657C708.369 160.483 711.359 160.093 715.605 159.487C713.785 158.62 712.247 157.84 710.99 157.147L714.305 154.222H708.455Z" fill="white"/>
</g>
<g filter="url(#filter3_d_52_92)">
<path d="M462.738 147.22V136.17H487.113V128.695C483.039 128.911 477.298 129.02 469.888 129.02V117.97C480.461 117.97 488.759 117.58 494.783 116.8C500.806 116.02 506.374 114.676 511.488 112.77L515.063 123.495C510.209 125.358 505.118 126.701 499.788 127.525V136.17H519.938V147.22H499.203C498.249 154.023 495.888 159.093 492.118 162.43C488.391 165.723 482.714 168.02 475.088 169.32L471.513 158.595C476.453 157.685 480.006 156.45 482.173 154.89C484.339 153.286 485.769 150.73 486.463 147.22H462.738Z" fill="white"/>
</g>
<g filter="url(#filter4_d_52_92)">
<path d="M399.038 147.544V135.194H453.638V147.544H399.038Z" fill="white"/>
</g>
<g filter="url(#filter5_d_52_92)">
<path d="M344.698 157.619C349.421 157.186 353.191 156.601 356.008 155.864C358.868 155.084 361.186 153.936 362.963 152.419C364.739 150.859 365.931 148.974 366.538 146.764C367.188 144.554 367.513 141.673 367.513 138.119V134.869H354.513V146.569H342.488V134.869H332.738V123.819H342.488V113.419H354.513V123.819H367.513V113.419H380.188V123.819H389.938V134.869H380.188V138.119C380.188 148.129 377.631 155.496 372.518 160.219C367.448 164.899 358.954 167.716 347.038 168.669L344.698 157.619Z" fill="white"/>
</g>
<g filter="url(#filter6_d_52_92)">
<path d="M282.363 169.319L280.088 158.269C285.114 157.793 289.21 157.056 292.373 156.059C295.536 155.019 298.114 153.524 300.108 151.574C302.101 149.624 303.488 147.263 304.268 144.489C305.048 141.716 305.438 138.184 305.438 133.894V114.719H318.763V133.569C318.763 144.966 315.751 153.589 309.728 159.439C303.748 165.246 294.626 168.539 282.363 169.319ZM273.913 144.619V114.719H286.913V144.619H273.913Z" fill="white"/>
</g>
<g filter="url(#filter7_d_52_92)">
<path d="M240.503 124.145H234.263V128.045H235.628C237.318 126.788 238.943 125.488 240.503 124.145ZM236.408 140.395H256.688V171.27H244.663V169.32H223.213V171.27H211.188V153.2C208.545 154.196 206.27 155.02 204.363 155.67L200.463 144.945C207.266 143.038 213.831 140.546 220.158 137.47H200.788V128.045H221.913V124.145H205.988V115.045H221.913V110.495H234.263V115.045H244.988V119.92C247.458 117.363 249.733 114.655 251.813 111.795L260.913 118.295C258.703 121.328 255.8 124.578 252.203 128.045H261.888V137.47H240.698C239.311 138.423 237.881 139.398 236.408 140.395ZM223.213 151.445H244.663V148.52H223.213V151.445ZM223.213 158.595V161.52H244.663V158.595H223.213Z" fill="white"/>
</g>
<g filter="url(#filter8_d_52_92)">
<path d="M172.513 132.595C173.206 131.121 173.791 129.713 174.268 128.37H158.863C158.949 128.586 159.188 129.215 159.578 130.255C159.968 131.251 160.249 132.031 160.423 132.595H172.513ZM194.938 150.145V158.27H181.418C186.141 159.656 191.731 160.956 198.188 162.17L192.988 171.27C185.144 169.103 178.319 166.568 172.513 163.665V171.27H160.163V163.665C154.356 166.568 147.531 169.103 139.688 171.27L134.488 162.17C140.944 160.956 146.534 159.656 151.258 158.27H137.738V150.145H160.163V148.195H140.338V141.695H160.163V139.745H138.388V132.595H148.398C147.704 130.688 147.184 129.28 146.838 128.37H137.088V119.27H142.158C141.378 117.666 140.554 116.15 139.688 114.72L149.438 112.12C150.911 114.59 152.168 116.973 153.208 119.27H154.638V111.145H165.038V119.27H167.638V111.145H178.038V119.27H179.858C181.288 116.496 182.414 114.113 183.238 112.12L192.988 114.07C192.208 115.933 191.428 117.666 190.648 119.27H195.588V128.37H186.228C185.534 130.276 184.993 131.685 184.603 132.595H194.288V139.745H172.513V141.695H192.338V148.195H172.513V150.145H194.938Z" fill="white"/>
</g>
<g filter="url(#filter9_d_52_92)">
<path d="M88.6629 135.194V138.444H113.363V135.194H88.6629ZM88.6629 127.394H113.363V124.144H88.6629V127.394ZM102.898 158.269C99.6912 155.063 97.1346 151.488 95.2279 147.544H88.6629V159.959C93.1262 159.526 97.8712 158.963 102.898 158.269ZM112.843 153.329C114.966 151.683 117.306 149.754 119.863 147.544H107.318C108.878 149.754 110.72 151.683 112.843 153.329ZM122.398 158.659C125.128 159.786 128.725 160.956 133.188 162.169L127.663 171.269C119.213 169.579 111.825 166.048 105.498 160.674L106.213 167.369C94.6862 169.276 83.0946 170.468 71.4379 170.944L70.4629 161.194C71.8062 161.151 73.8646 161.043 76.6379 160.869V114.719H95.1629V110.169H107.513V114.719H125.388V144.879L131.563 150.794C128.313 153.741 125.258 156.363 122.398 158.659Z" fill="white"/>
</g>
<g filter="url(#filter10_d_52_92)">
<path d="M43.8129 159.765C45.3295 159.375 47.0195 158.768 48.8828 157.945H37.9628C39.5662 158.595 41.5162 159.201 43.8129 159.765ZM31.7878 147.935C30.7478 149.278 29.6645 150.47 28.5378 151.51C30.2712 150.816 31.5278 150.296 32.3078 149.95C32.0478 149.516 31.8745 148.845 31.7878 147.935ZM57.0078 149.04C56.5312 150.166 55.5345 150.86 54.0179 151.12C52.5445 151.336 49.4678 151.445 44.7878 151.445H43.0329C42.9029 151.575 42.6862 151.748 42.3828 151.965C42.1228 152.181 41.9278 152.333 41.7979 152.42H59.2178C57.9178 150.426 57.1812 149.3 57.0078 149.04ZM46.0228 145.92C43.7695 144.88 42.0578 144.121 40.8878 143.645V144.945C40.8878 145.421 41.0395 145.703 41.3428 145.79C41.6895 145.876 42.8378 145.92 44.7878 145.92H46.0228ZM40.6279 140.72H30.8129V143.19L31.7878 143.84V142.02H39.8478L40.6279 140.72ZM57.1378 142.28V140.72H50.1178L46.9328 145.92C48.0162 145.876 48.6662 145.681 48.8828 145.335C49.1428 144.945 49.2945 144.056 49.3378 142.67L55.9028 143.19L57.1378 142.28ZM48.6879 121.87H63.9628V136.17H67.2128V145.92H63.7029C64.6995 147.393 65.8695 149.235 67.2128 151.445L61.3629 155.995C61.1462 155.648 60.8212 155.085 60.3878 154.305V157.945C58.8278 159.461 57.2245 160.718 55.5779 161.715C59.2612 162.105 63.3562 162.365 67.8629 162.495L65.5878 171.27C57.7445 170.88 50.3778 169.536 43.4878 167.24C37.4212 169.233 30.3795 170.576 22.3629 171.27L20.0878 162.82C24.2478 162.646 28.1695 162.343 31.8528 161.91C31.3762 161.606 30.7045 161.151 29.8378 160.545L31.9828 158.53C28.8195 160.133 25.6129 161.346 22.3629 162.17L19.7628 155.93V171.27H9.36284V147.155C8.01951 149.451 6.93617 151.098 6.11284 152.095L4.16284 136.495C8.19284 129.995 11.1179 121.545 12.9379 111.145L22.0378 114.005V112.445H66.8878V120.57H49.0779C49.0345 120.743 48.9695 120.96 48.8828 121.22C48.7962 121.48 48.7312 121.696 48.6879 121.87ZM23.9878 136.17V121.87H36.5329C36.5762 121.696 36.6412 121.48 36.7278 121.22C36.8145 120.96 36.8795 120.743 36.9229 120.57H22.3629C21.6262 124.296 20.7595 127.59 19.7628 130.45V154.24C20.3695 154.11 21.9295 153.655 24.4428 152.875L20.4128 148.845C21.6262 147.848 22.7095 146.873 23.6628 145.92H20.7378V136.17H23.9878ZM36.0128 134.545V136.17H51.9379V134.545H36.0128ZM36.0128 129.995V131.62H51.9379V129.995H36.0128ZM36.0128 127.07H51.9379V125.445H36.0128V127.07Z" fill="white"/>
</g>
<path d="M565.245 121.896H565.155L548.595 134.946L542.745 119.646L565.245 101.646H584.145V167.346H565.245V121.896Z" fill="#FF8C00"/>
<path fill-rule="evenodd" clip-rule="evenodd" d="M542.745 119.646L565.245 101.646H584.145V167.346H565.245V121.896H565.155L548.595 134.946L542.745 119.646ZM561.245 130.07L546.801 141.452L537.966 118.346L563.842 97.6455H588.145V171.346H561.245V130.07Z" fill="white"/>
<path d="M617.006 119.908V165.968H604.756V137.968C602.796 141.141 601.163 143.358 599.856 144.618L597.756 128.518C603.216 121.611 607.066 112.511 609.306 101.218L621.206 103.318C620.32 109.198 618.92 114.728 617.006 119.908ZM649.556 108.218H664.956V119.068H620.856V108.218H636.606V100.518H649.556V108.218ZM621.906 123.968L634.156 121.168C636.303 130.268 638.17 139.485 639.756 148.818L627.506 150.918C625.966 141.911 624.1 132.928 621.906 123.968ZM619.456 164.568V153.368H641.086C645.193 143.708 648.366 132.975 650.606 121.168L663.206 123.618C661.293 134.025 658.353 143.941 654.386 153.368H665.656V164.568H619.456Z" fill="#FF8C00"/>
<path fill-rule="evenodd" clip-rule="evenodd" d="M617.006 165.968H604.756V137.968C604.255 138.78 603.775 139.529 603.316 140.216C602.372 141.629 601.519 142.776 600.756 143.659C600.441 144.024 600.141 144.344 599.856 144.618L597.756 128.518C603.216 121.611 607.066 112.511 609.306 101.218L621.206 103.318C621.161 103.619 621.114 103.919 621.066 104.218C620.999 104.637 620.929 105.054 620.856 105.469C620.695 106.394 620.52 107.311 620.332 108.218C619.551 111.989 618.544 115.606 617.311 119.068C617.211 119.349 617.109 119.629 617.006 119.908V165.968ZM621.006 138.102V149.368H623.176C622.511 145.609 621.787 141.853 621.006 138.102ZM627.238 149.368C627.309 149.776 627.38 150.183 627.45 150.591C627.469 150.7 627.488 150.809 627.506 150.918L639.756 148.818C639.686 148.403 639.615 147.988 639.543 147.573C639.498 147.315 639.454 147.058 639.409 146.8C639.297 146.159 639.183 145.518 639.069 144.878C637.754 137.535 636.264 130.265 634.6 123.068C634.453 122.434 634.306 121.801 634.156 121.168L621.906 123.968C622.224 125.264 622.534 126.561 622.838 127.858C624.512 135.013 625.979 142.183 627.238 149.368ZM664.956 119.068V108.218H649.556V100.518H636.606V108.218H620.856V119.068H664.956ZM625.115 104.218C625.131 104.117 625.146 104.016 625.162 103.914L625.743 100.057L606.145 96.5983L605.383 100.44C603.229 111.296 599.583 119.757 594.618 126.037L593.572 127.362L596.917 153.009L600.756 149.307V169.968H621.006V168.568H669.656V149.368H660.273C663.259 141.348 665.548 133.005 667.14 124.341L667.374 123.068H668.956V104.218H653.556V96.5181H632.606V104.218H625.115ZM650.607 121.168C650.497 121.745 650.385 122.318 650.272 122.89C650.26 122.949 650.248 123.009 650.236 123.068C648.51 131.69 646.276 139.728 643.535 147.182C643.404 147.537 643.272 147.891 643.14 148.243C642.584 149.716 642.009 151.166 641.413 152.592C641.305 152.852 641.196 153.11 641.086 153.368H619.456V164.568H665.656V153.368H654.386C654.943 152.044 655.48 150.711 655.997 149.368C658.693 142.356 660.838 135.081 662.431 127.542C662.493 127.252 662.553 126.961 662.613 126.67C662.821 125.658 663.018 124.64 663.206 123.618L650.607 121.168ZM642.062 139.072C643.643 134.004 645.008 128.67 646.155 123.068H638.705C639.917 128.364 641.037 133.699 642.062 139.072Z" fill="white"/>
<path d="M376.496 28.3499H390.896V25.1999H376.496V28.3499ZM376.496 39.5999V43.1999H390.896V39.5999H376.496ZM353.546 28.3499H360.296V25.1999H353.546V28.3499ZM384.596 70.0199C388.196 68.8199 391.016 67.3799 393.056 65.6999H375.596C377.696 67.3199 380.696 68.7599 384.596 70.0199ZM356.246 65.6999V54.8999H411.146V65.6999C408.386 68.9399 405.446 71.6999 402.326 73.9799C406.406 74.6999 412.046 75.5399 419.246 76.4999L413.846 89.9999C402.806 88.3799 392.876 86.0999 384.056 83.1599C376.556 85.7399 366.536 88.0199 353.996 89.9999L349.586 78.9299C348.266 82.7099 346.286 86.6999 343.646 90.8999L332.396 76.0499C334.736 70.8299 336.206 65.9399 336.806 61.3799C337.466 56.7599 337.796 48.1499 337.796 35.5499V12.1499H370.646V5.3999H387.746V12.1499H417.896V25.1999H407.546V28.3499H417.896V39.5999H407.546V52.1999H360.296V39.5999H353.546V48.5999C353.546 60.4199 352.526 69.6299 350.486 76.2299C355.586 75.6299 360.206 74.9999 364.346 74.3399C361.706 72.7799 359.456 71.0999 357.596 69.2999L366.326 65.6999H356.246Z" fill="#FF8C00"/>
<path d="M257.246 48.1499L244.196 41.3999C250.976 29.6399 256.376 17.6399 260.396 5.3999L276.596 8.5499C276.416 9.2099 276.116 10.1999 275.696 11.5199C275.276 12.7799 274.946 13.7399 274.706 14.3999H325.196V27.8999H300.446V37.3499H322.496V50.8499H300.446V62.0999H328.796V76.0499H300.446V89.9999H283.346V76.0499H244.196V62.0999H257.246V48.1499ZM265.166 37.3499H283.346V27.8999H269.486C268.106 31.0199 266.666 34.1699 265.166 37.3499ZM273.446 62.0999H283.346V50.8499H273.446V62.0999Z" fill="#FF8C00"/>
<path d="M188.832 66.5999C196.872 60.5399 202.902 55.6799 206.922 52.0199C210.942 48.2999 213.582 45.3299 214.842 43.1099C216.102 40.8899 216.732 38.5199 216.732 35.9999C216.732 31.4999 214.182 29.2499 209.082 29.2499C204.582 29.2499 198.732 31.4999 191.532 35.9999L187.032 21.5999C190.092 19.5599 193.962 17.8499 198.642 16.4699C203.322 15.0899 207.702 14.3999 211.782 14.3999C219.282 14.3999 225.042 16.1699 229.062 19.7099C233.142 23.1899 235.182 28.0199 235.182 34.1999C235.182 39.1199 233.622 43.7999 230.502 48.2399C227.382 52.6799 221.292 58.7399 212.232 66.4199V66.5999H235.632V80.9999H188.832V66.5999Z" fill="#FF8C00"/>
<path d="M129.418 67.5999C137.458 61.5399 143.488 56.6799 147.508 53.0199C151.528 49.2999 154.168 46.3299 155.428 44.1099C156.688 41.8899 157.318 39.5199 157.318 36.9999C157.318 32.4999 154.768 30.2499 149.668 30.2499C145.168 30.2499 139.318 32.4999 132.118 36.9999L127.618 22.5999C130.678 20.5599 134.548 18.8499 139.228 17.4699C143.908 16.0899 148.288 15.3999 152.368 15.3999C159.868 15.3999 165.628 17.1699 169.648 20.7099C173.728 24.1899 175.768 29.0199 175.768 35.1999C175.768 40.1199 174.208 44.7999 171.088 49.2399C167.968 53.6799 161.878 59.7399 152.818 67.4199V67.5999H176.218V81.9999H129.418V67.5999Z" fill="#FF8C00"/>
<path d="M113.294 73.9799C108.854 79.2599 102.074 81.8999 92.9539 81.8999C83.8339 81.8999 77.0539 79.2599 72.6139 73.9799C68.1739 68.6999 65.9539 60.0899 65.9539 48.1499C65.9539 36.2099 68.1739 27.5999 72.6139 22.3199C77.0539 17.0399 83.8339 14.3999 92.9539 14.3999C102.074 14.3999 108.854 17.0399 113.294 22.3199C117.734 27.5999 119.954 36.2099 119.954 48.1499C119.954 60.0899 117.734 68.6999 113.294 73.9799ZM86.3839 64.0799C87.7639 66.9599 89.9539 68.3999 92.9539 68.3999C95.9539 68.3999 98.1139 66.9599 99.4339 64.0799C100.814 61.1399 101.504 55.8299 101.504 48.1499C101.504 40.4699 100.814 35.1899 99.4339 32.3099C98.1139 29.3699 95.9539 27.8999 92.9539 27.8999C89.9539 27.8999 87.7639 29.3699 86.3839 32.3099C85.0639 35.1899 84.4039 40.4699 84.4039 48.1499C84.4039 55.8299 85.0639 61.1399 86.3839 64.0799Z" fill="#FF8C00"/>
<path d="M10.5898 66.5999C18.6298 60.5399 24.6598 55.6799 28.6798 52.0199C32.6998 48.2999 35.3398 45.3299 36.5998 43.1099C37.8598 40.8899 38.4898 38.5199 38.4898 35.9999C38.4898 31.4999 35.9398 29.2499 30.8398 29.2499C26.3398 29.2499 20.4898 31.4999 13.2898 35.9999L8.78979 21.5999C11.8498 19.5599 15.7198 17.8499 20.3998 16.4699C25.0798 15.0899 29.4598 14.3999 33.5398 14.3999C41.0398 14.3999 46.7998 16.1699 50.8198 19.7099C54.8998 23.1899 56.9398 28.0199 56.9398 34.1999C56.9398 39.1199 55.3798 43.7999 52.2598 48.2399C49.1398 52.6799 43.0498 58.7399 33.9898 66.4199V66.5999H57.3898V80.9999H10.5898V66.5999Z" fill="#FF8C00"/>
<path fill-rule="evenodd" clip-rule="evenodd" d="M359.539 71.0217C359.007 70.5887 358.5 70.1481 358.018 69.6999C357.875 69.5672 357.735 69.4339 357.596 69.2999L366.326 65.6999H356.246V54.8999H411.146V65.6999C409.628 67.4823 408.055 69.1195 406.428 70.6114C405.097 71.8314 403.73 72.9542 402.326 73.9799C403.88 74.2541 405.66 74.5457 407.666 74.8547C409.887 75.1967 412.385 75.5601 415.16 75.9448C416.461 76.1251 417.823 76.3102 419.246 76.4999L413.846 89.9999C402.806 88.3799 392.876 86.0999 384.056 83.1599C376.556 85.7399 366.536 88.0199 353.996 89.9999L349.586 78.9299C349.413 79.4258 349.228 79.9253 349.032 80.4285C348.551 81.6654 348.001 82.9242 347.382 84.2048C346.909 85.1827 346.396 86.1734 345.844 87.1768C345.171 88.3989 344.438 89.64 343.646 90.8999L332.396 76.0499C334.736 70.8299 336.206 65.9399 336.806 61.3799C337.466 56.7599 337.796 48.1499 337.796 35.5499V12.1499H370.646V5.3999H387.746V12.1499H417.896V25.1999H407.546V28.3499H417.896V39.5999H407.546V52.1999H360.296V39.5999H353.546V48.5999C353.546 49.3779 353.542 50.1445 353.533 50.8999C353.517 52.2705 353.486 53.6038 353.441 54.8999C353.304 58.8447 353.032 62.4447 352.625 65.6999C352.566 66.1739 352.503 66.6406 352.438 67.1C352.377 67.5353 352.313 67.9639 352.246 68.386C352.186 68.7656 352.124 69.1398 352.06 69.5088C351.906 70.394 351.74 71.2488 351.563 72.0729C351.516 72.2915 351.468 72.5079 351.419 72.7222C351.136 73.9636 350.825 75.1328 350.486 76.2299C351.238 76.1415 351.979 76.0524 352.71 75.9627C353.417 75.8759 354.114 75.7885 354.801 75.7004C356.041 75.5417 357.248 75.381 358.424 75.2184C360.497 74.9317 362.471 74.6389 364.346 74.3399C363.176 73.6487 362.083 72.9339 361.066 72.1956C360.537 71.8107 360.027 71.4194 359.539 71.0217ZM411.546 50.8999H415.146V67.1727L414.191 68.2938C413.279 69.3645 412.345 70.3896 411.39 71.3684C413.889 71.7339 416.683 72.1228 419.775 72.535L424.869 73.2142L416.388 94.4157L413.265 93.9575C402.562 92.3869 392.825 90.1979 384.071 87.3743C376.43 89.8793 366.588 92.0613 354.62 93.951L351.463 94.4494L349.34 89.1203C348.629 90.4109 347.859 91.7137 347.033 93.0286L343.953 97.9286L327.777 76.5763L328.013 76.0499H328.796V74.3018C330.984 69.3974 332.306 64.9221 332.84 60.8581L332.843 60.8361L332.846 60.8142C333.461 56.5147 333.796 48.1752 333.796 35.5499V8.1499H366.646V1.3999H391.746V8.1499H421.896V43.5999H411.546V50.8999ZM390.896 25.1999H376.496V28.3499H390.896V25.1999ZM390.896 39.5999H376.496V43.1999H390.896V39.5999ZM360.296 25.1999H353.546V28.3499H360.296V25.1999ZM393.056 65.6999H375.596C377.52 67.1844 380.2 68.5177 383.636 69.6999C383.95 69.8078 384.27 69.9145 384.596 70.0199C384.911 69.9151 385.219 69.8084 385.522 69.6999C388.683 68.5665 391.194 67.2331 393.056 65.6999Z" fill="white"/>
<path fill-rule="evenodd" clip-rule="evenodd" d="M274.706 14.4001C274.887 13.902 275.12 13.233 275.403 12.3931C275.496 12.1201 275.593 11.8291 275.696 11.5201C275.825 11.1158 275.942 10.7425 276.048 10.4001C276.289 9.62463 276.471 9.00796 276.596 8.5501L260.396 5.40011C256.773 16.4329 252.028 27.2707 246.162 37.9135C245.52 39.078 244.865 40.2402 244.196 41.4001L257.246 48.1501V62.1001H244.196V76.0501H283.346V90.0001H300.446V76.0501H328.796V62.1001H300.446V50.8501H322.496V37.3501H300.446V27.9001H325.196V14.4001H274.706ZM280.228 10.4001C280.315 10.1039 280.391 9.83771 280.455 9.60257L281.589 5.44598L257.697 0.800293L256.596 4.15198C252.666 16.1177 247.381 27.8673 240.731 39.4022L238.64 43.0294L253.246 50.5845V58.1001H240.196V80.0501H279.346V94.0001H304.446V80.0501H332.796V76.5781L332.396 76.0501C332.532 75.7461 332.666 75.4432 332.796 75.1414V58.1001H304.446V54.8501H326.496V33.3501H304.446V31.9001H329.196V10.4001H280.228ZM283.346 37.3501H265.166C265.798 36.0115 266.418 34.6781 267.029 33.3501C267.868 31.5234 268.687 29.7067 269.486 27.9001H283.346V37.3501ZM279.346 31.9001H272.082C271.865 32.3828 271.646 32.8661 271.426 33.3501H279.346V31.9001ZM283.346 62.1001H273.446V50.8501H283.346V62.1001ZM279.346 54.8501H277.446V58.1001H279.346V54.8501Z" fill="white"/>
<path fill-rule="evenodd" clip-rule="evenodd" d="M206.922 52.0199C202.902 55.6799 196.872 60.5399 188.832 66.5999V80.9999H235.632V66.5999H212.232V66.4199C213.791 65.0986 215.262 63.8253 216.644 62.5999C223.3 56.7027 227.919 51.916 230.502 48.2399C233.622 43.7999 235.182 39.1199 235.182 34.1999C235.182 28.0199 233.142 23.1899 229.062 19.7099C225.042 16.1699 219.282 14.3999 211.782 14.3999C207.702 14.3999 203.322 15.0899 198.642 16.4699C193.962 17.8499 190.092 19.5599 187.032 21.5999L191.532 35.9999C192.75 35.2388 193.929 34.542 195.07 33.9096C200.672 30.8031 205.343 29.2499 209.082 29.2499C214.182 29.2499 216.732 31.4999 216.732 35.9999C216.732 38.5199 216.102 40.8899 214.842 43.1099C213.582 45.3299 210.942 48.2999 206.922 52.0199ZM231.682 16.6869C226.687 12.3017 219.854 10.3999 211.782 10.3999C207.253 10.3999 202.489 11.1654 197.511 12.6332C192.563 14.0923 188.297 15.9492 184.813 18.2717L182.321 19.9335L189.259 42.1374L193.652 39.3919C200.693 34.9916 205.744 33.2499 209.082 33.2499C211.13 33.2499 211.919 33.7125 212.173 33.9368C212.332 34.0767 212.732 34.5054 212.732 35.9999C212.732 37.8184 212.286 39.5093 211.363 41.1355C210.43 42.7794 208.192 45.3935 204.218 49.0726C200.335 52.606 194.426 57.3748 186.424 63.4056L184.832 64.6059V84.9999H239.632V62.5999H222.606C227.662 57.9181 231.421 53.889 233.775 50.5397C237.317 45.4988 239.182 40.0275 239.182 34.1999C239.182 27.0585 236.777 21.0453 231.682 16.6869Z" fill="white"/>
<path fill-rule="evenodd" clip-rule="evenodd" d="M147.508 52.0199C143.488 55.6799 137.458 60.5399 129.418 66.5999V80.9999H176.218V66.5999H152.818V66.4199C154.377 65.0986 155.847 63.8253 157.23 62.5999C163.886 56.7027 168.505 51.916 171.088 48.2399C174.208 43.7999 175.768 39.1199 175.768 34.1999C175.768 28.0199 173.728 23.1899 169.648 19.7099C165.628 16.1699 159.868 14.3999 152.368 14.3999C148.288 14.3999 143.908 15.0899 139.228 16.4699C134.548 17.8499 130.678 19.5599 127.618 21.5999L132.118 35.9999C133.336 35.2388 134.515 34.542 135.656 33.9096C141.258 30.8031 145.929 29.2499 149.668 29.2499C154.768 29.2499 157.318 31.4999 157.318 35.9999C157.318 38.5199 156.688 40.8899 155.428 43.1099C154.168 45.3299 151.528 48.2999 147.508 52.0199ZM172.268 16.6869C167.273 12.3017 160.44 10.3999 152.368 10.3999C147.839 10.3999 143.075 11.1654 138.097 12.6332C133.149 14.0923 128.883 15.9492 125.399 18.2717L122.906 19.9335L129.845 42.1374L134.238 39.3919C141.278 34.9916 146.33 33.2499 149.668 33.2499C151.716 33.2499 152.505 33.7125 152.759 33.9368C152.918 34.0767 153.318 34.5054 153.318 35.9999C153.318 37.8184 152.872 39.5093 151.949 41.1355C151.016 42.7794 148.778 45.3935 144.804 49.0726C140.921 52.606 135.012 57.3748 127.01 63.4056L125.418 64.6059V84.9999H180.218V62.5999H163.192C168.248 57.9181 172.007 53.889 174.361 50.5397C177.903 45.4988 179.768 40.0275 179.768 34.1999C179.768 27.0585 177.363 21.0453 172.268 16.6869Z" fill="white"/>
<path fill-rule="evenodd" clip-rule="evenodd" d="M92.9539 81.8999C102.074 81.8999 108.854 79.2599 113.294 73.9799C117.734 68.6999 119.954 60.0899 119.954 48.1499C119.954 36.2099 117.734 27.5999 113.294 22.3199C108.854 17.0399 102.074 14.3999 92.9539 14.3999C83.8339 14.3999 77.0539 17.0399 72.6139 22.3199C68.1739 27.5999 65.9539 36.2099 65.9539 48.1499C65.9539 60.0899 68.1739 68.6999 72.6139 73.9799C77.0539 79.2599 83.8339 81.8999 92.9539 81.8999ZM92.9539 68.3999C89.9539 68.3999 87.7639 66.9599 86.3839 64.0799C85.0639 61.1399 84.4039 55.8299 84.4039 48.1499C84.4039 40.4699 85.0639 35.1899 86.3839 32.3099C87.7639 29.3699 89.9539 27.8999 92.9539 27.8999C95.9539 27.8999 98.1139 29.3699 99.4339 32.3099C100.814 35.1899 101.504 40.4699 101.504 48.1499C101.504 55.8299 100.814 61.1399 99.4339 64.0799C98.1139 66.9599 95.9539 68.3999 92.9539 68.3999ZM95.8052 62.3967L95.8129 62.3803C96.7764 60.3275 97.5039 55.8343 97.5039 48.1499C97.5039 40.4526 96.7729 36.0132 95.8266 34.0384L95.8051 33.9936L95.7848 33.9483C95.3572 32.9958 94.9135 32.5408 94.5734 32.3093C94.2516 32.0903 93.7738 31.8999 92.9539 31.8999C92.1353 31.8999 91.6387 32.0899 91.2906 32.3236C90.9253 32.5688 90.463 33.0394 90.0127 33.9927C89.099 36.0021 88.4039 40.4699 88.4039 48.1499C88.4039 55.783 89.0895 60.2974 90.013 62.3966C90.4503 63.2936 90.8982 63.7405 91.259 63.9777C91.6107 64.2089 92.1188 64.3999 92.9539 64.3999C93.7903 64.3999 94.2798 64.2085 94.6051 63.9917C94.9442 63.7656 95.3785 63.3276 95.7976 62.4133L95.8052 62.3967ZM116.355 76.5543C110.928 83.0082 102.849 85.8999 92.9539 85.8999C83.0583 85.8999 74.9795 83.0082 69.5524 76.5543C64.1988 70.1879 61.9539 60.407 61.9539 48.1499C61.9539 35.8928 64.1988 26.1119 69.5524 19.7455C74.9795 13.2916 83.0583 10.3999 92.9539 10.3999C102.849 10.3999 110.928 13.2916 116.355 19.7455C121.709 26.1119 123.954 35.8928 123.954 48.1499C123.954 60.407 121.709 70.1879 116.355 76.5543Z" fill="white"/>
<path fill-rule="evenodd" clip-rule="evenodd" d="M28.6799 52.0199C24.6599 55.6799 18.6299 60.5399 10.5899 66.5999V80.9999H57.3899V66.5999H33.9899V66.4199C35.5486 65.0986 37.0194 63.8253 38.4023 62.5999C45.0574 56.7027 49.6767 51.916 52.2599 48.2399C55.3799 43.7999 56.9399 39.1199 56.9399 34.1999C56.9399 28.0199 54.8999 23.1899 50.8199 19.7099C46.7999 16.1699 41.0399 14.3999 33.5399 14.3999C29.4599 14.3999 25.0799 15.0899 20.3999 16.4699C15.7199 17.8499 11.8499 19.5599 8.78988 21.5999L13.2899 35.9999C14.5077 35.2388 15.6869 34.542 16.8274 33.9096C22.4302 30.8031 27.101 29.2499 30.8399 29.2499C35.9399 29.2499 38.4899 31.4999 38.4899 35.9999C38.4899 38.5199 37.8599 40.8899 36.5999 43.1099C35.3399 45.3299 32.6999 48.2999 28.6799 52.0199ZM25.9752 49.0728C22.093 52.6062 16.1834 57.375 8.18226 63.4056L6.58988 64.6059V84.9999H61.3899V62.5999H44.3637C49.4194 57.9181 53.1791 53.889 55.5327 50.5397C59.0749 45.4988 60.9399 40.0275 60.9399 34.1999C60.9399 27.0586 58.535 21.0454 53.4396 16.687C48.4449 12.3017 41.6123 10.3999 33.5399 10.3999C29.0106 10.3999 24.2464 11.1654 19.2686 12.6332C14.3205 14.0923 10.0549 15.9492 6.57108 18.2717L4.07837 19.9335L11.0171 42.1374L15.4099 39.3919C22.4504 34.9916 27.5018 33.2499 30.8399 33.2499C32.8879 33.2499 33.6768 33.7125 33.9309 33.9368C34.0895 34.0767 34.4899 34.5054 34.4899 35.9999C34.4899 37.8184 34.0441 39.5093 33.1211 41.1355C32.1881 42.7794 29.9499 45.3936 25.9752 49.0728Z" fill="white"/>
<defs>
<filter id="filter0_d_52_92" x="837.055" y="114.896" width="23.6001" height="55.4502" filterUnits="userSpaceOnUse" color-interpolation-filters="sRGB">
<feFlood flood-opacity="0" result="BackgroundImageFix"/>
<feColorMatrix in="SourceAlpha" type="matrix" values="0 0 0 0 0 0 0 0 0 0 0 0 0 0 0 0 0 0 127 0" result="hardAlpha"/>
<feOffset dy="4"/>
<feGaussianBlur stdDeviation="2"/>
<feComposite in2="hardAlpha" operator="out"/>
<feColorMatrix type="matrix" values="0 0 0 0 0 0 0 0 0 0 0 0 0 0 0 0 0 0 0.25 0"/>
<feBlend mode="normal" in2="BackgroundImageFix" result="effect1_dropShadow_52_92"/>
<feBlend mode="normal" in="SourceGraphic" in2="effect1_dropShadow_52_92" result="shape"/>
</filter>
<filter id="filter1_d_52_92" x="748.005" y="107.747" width="70.7251" height="69.1001" filterUnits="userSpaceOnUse" color-interpolation-filters="sRGB">
<feFlood flood-opacity="0" result="BackgroundImageFix"/>
<feColorMatrix in="SourceAlpha" type="matrix" values="0 0 0 0 0 0 0 0 0 0 0 0 0 0 0 0 0 0 127 0" result="hardAlpha"/>
<feOffset dy="4"/>
<feGaussianBlur stdDeviation="2"/>
<feComposite in2="hardAlpha" operator="out"/>
<feColorMatrix type="matrix" values="0 0 0 0 0 0 0 0 0 0 0 0 0 0 0 0 0 0 0.25 0"/>
<feBlend mode="normal" in2="BackgroundImageFix" result="effect1_dropShadow_52_92"/>
<feBlend mode="normal" in="SourceGraphic" in2="effect1_dropShadow_52_92" result="shape"/>
</filter>
<filter id="filter2_d_52_92" x="682.68" y="108.072" width="71.7" height="68.7749" filterUnits="userSpaceOnUse" color-interpolation-filters="sRGB">
<feFlood flood-opacity="0" result="BackgroundImageFix"/>
<feColorMatrix in="SourceAlpha" type="matrix" values="0 0 0 0 0 0 0 0 0 0 0 0 0 0 0 0 0 0 127 0" result="hardAlpha"/>
<feOffset dy="4"/>
<feGaussianBlur stdDeviation="2"/>
<feComposite in2="hardAlpha" operator="out"/>
<feColorMatrix type="matrix" values="0 0 0 0 0 0 0 0 0 0 0 0 0 0 0 0 0 0 0.25 0"/>
<feBlend mode="normal" in2="BackgroundImageFix" result="effect1_dropShadow_52_92"/>
<feBlend mode="normal" in="SourceGraphic" in2="effect1_dropShadow_52_92" result="shape"/>
</filter>
<filter id="filter3_d_52_92" x="458.738" y="112.77" width="65.2" height="64.5498" filterUnits="userSpaceOnUse" color-interpolation-filters="sRGB">
<feFlood flood-opacity="0" result="BackgroundImageFix"/>
<feColorMatrix in="SourceAlpha" type="matrix" values="0 0 0 0 0 0 0 0 0 0 0 0 0 0 0 0 0 0 127 0" result="hardAlpha"/>
<feOffset dy="4"/>
<feGaussianBlur stdDeviation="2"/>
<feComposite in2="hardAlpha" operator="out"/>
<feColorMatrix type="matrix" values="0 0 0 0 0 0 0 0 0 0 0 0 0 0 0 0 0 0 0.25 0"/>
<feBlend mode="normal" in2="BackgroundImageFix" result="effect1_dropShadow_52_92"/>
<feBlend mode="normal" in="SourceGraphic" in2="effect1_dropShadow_52_92" result="shape"/>
</filter>
<filter id="filter4_d_52_92" x="395.038" y="135.194" width="62.5999" height="20.3501" filterUnits="userSpaceOnUse" color-interpolation-filters="sRGB">
<feFlood flood-opacity="0" result="BackgroundImageFix"/>
<feColorMatrix in="SourceAlpha" type="matrix" values="0 0 0 0 0 0 0 0 0 0 0 0 0 0 0 0 0 0 127 0" result="hardAlpha"/>
<feOffset dy="4"/>
<feGaussianBlur stdDeviation="2"/>
<feComposite in2="hardAlpha" operator="out"/>
<feColorMatrix type="matrix" values="0 0 0 0 0 0 0 0 0 0 0 0 0 0 0 0 0 0 0.25 0"/>
<feBlend mode="normal" in2="BackgroundImageFix" result="effect1_dropShadow_52_92"/>
<feBlend mode="normal" in="SourceGraphic" in2="effect1_dropShadow_52_92" result="shape"/>
</filter>
<filter id="filter5_d_52_92" x="328.738" y="113.419" width="65.2" height="63.25" filterUnits="userSpaceOnUse" color-interpolation-filters="sRGB">
<feFlood flood-opacity="0" result="BackgroundImageFix"/>
<feColorMatrix in="SourceAlpha" type="matrix" values="0 0 0 0 0 0 0 0 0 0 0 0 0 0 0 0 0 0 127 0" result="hardAlpha"/>
<feOffset dy="4"/>
<feGaussianBlur stdDeviation="2"/>
<feComposite in2="hardAlpha" operator="out"/>
<feColorMatrix type="matrix" values="0 0 0 0 0 0 0 0 0 0 0 0 0 0 0 0 0 0 0.25 0"/>
<feBlend mode="normal" in2="BackgroundImageFix" result="effect1_dropShadow_52_92"/>
<feBlend mode="normal" in="SourceGraphic" in2="effect1_dropShadow_52_92" result="shape"/>
</filter>
<filter id="filter6_d_52_92" x="269.913" y="114.719" width="52.8499" height="62.6001" filterUnits="userSpaceOnUse" color-interpolation-filters="sRGB">
<feFlood flood-opacity="0" result="BackgroundImageFix"/>
<feColorMatrix in="SourceAlpha" type="matrix" values="0 0 0 0 0 0 0 0 0 0 0 0 0 0 0 0 0 0 127 0" result="hardAlpha"/>
<feOffset dy="4"/>
<feGaussianBlur stdDeviation="2"/>
<feComposite in2="hardAlpha" operator="out"/>
<feColorMatrix type="matrix" values="0 0 0 0 0 0 0 0 0 0 0 0 0 0 0 0 0 0 0.25 0"/>
<feBlend mode="normal" in2="BackgroundImageFix" result="effect1_dropShadow_52_92"/>
<feBlend mode="normal" in="SourceGraphic" in2="effect1_dropShadow_52_92" result="shape"/>
</filter>
<filter id="filter7_d_52_92" x="196.463" y="110.495" width="69.425" height="68.7749" filterUnits="userSpaceOnUse" color-interpolation-filters="sRGB">
<feFlood flood-opacity="0" result="BackgroundImageFix"/>
<feColorMatrix in="SourceAlpha" type="matrix" values="0 0 0 0 0 0 0 0 0 0 0 0 0 0 0 0 0 0 127 0" result="hardAlpha"/>
<feOffset dy="4"/>
<feGaussianBlur stdDeviation="2"/>
<feComposite in2="hardAlpha" operator="out"/>
<feColorMatrix type="matrix" values="0 0 0 0 0 0 0 0 0 0 0 0 0 0 0 0 0 0 0.25 0"/>
<feBlend mode="normal" in2="BackgroundImageFix" result="effect1_dropShadow_52_92"/>
<feBlend mode="normal" in="SourceGraphic" in2="effect1_dropShadow_52_92" result="shape"/>
</filter>
<filter id="filter8_d_52_92" x="130.488" y="111.145" width="71.7" height="68.125" filterUnits="userSpaceOnUse" color-interpolation-filters="sRGB">
<feFlood flood-opacity="0" result="BackgroundImageFix"/>
<feColorMatrix in="SourceAlpha" type="matrix" values="0 0 0 0 0 0 0 0 0 0 0 0 0 0 0 0 0 0 127 0" result="hardAlpha"/>
<feOffset dy="4"/>
<feGaussianBlur stdDeviation="2"/>
<feComposite in2="hardAlpha" operator="out"/>
<feColorMatrix type="matrix" values="0 0 0 0 0 0 0 0 0 0 0 0 0 0 0 0 0 0 0.25 0"/>
<feBlend mode="normal" in2="BackgroundImageFix" result="effect1_dropShadow_52_92"/>
<feBlend mode="normal" in="SourceGraphic" in2="effect1_dropShadow_52_92" result="shape"/>
</filter>
<filter id="filter9_d_52_92" x="66.4629" y="110.169" width="70.7251" height="69.1001" filterUnits="userSpaceOnUse" color-interpolation-filters="sRGB">
<feFlood flood-opacity="0" result="BackgroundImageFix"/>
<feColorMatrix in="SourceAlpha" type="matrix" values="0 0 0 0 0 0 0 0 0 0 0 0 0 0 0 0 0 0 127 0" result="hardAlpha"/>
<feOffset dy="4"/>
<feGaussianBlur stdDeviation="2"/>
<feComposite in2="hardAlpha" operator="out"/>
<feColorMatrix type="matrix" values="0 0 0 0 0 0 0 0 0 0 0 0 0 0 0 0 0 0 0.25 0"/>
<feBlend mode="normal" in2="BackgroundImageFix" result="effect1_dropShadow_52_92"/>
<feBlend mode="normal" in="SourceGraphic" in2="effect1_dropShadow_52_92" result="shape"/>
</filter>
<filter id="filter10_d_52_92" x="0.162842" y="111.145" width="71.7" height="68.125" filterUnits="userSpaceOnUse" color-interpolation-filters="sRGB">
<feFlood flood-opacity="0" result="BackgroundImageFix"/>
<feColorMatrix in="SourceAlpha" type="matrix" values="0 0 0 0 0 0 0 0 0 0 0 0 0 0 0 0 0 0 127 0" result="hardAlpha"/>
<feOffset dy="4"/>
<feGaussianBlur stdDeviation="2"/>
<feComposite in2="hardAlpha" operator="out"/>
<feColorMatrix type="matrix" values="0 0 0 0 0 0 0 0 0 0 0 0 0 0 0 0 0 0 0.25 0"/>
<feBlend mode="normal" in2="BackgroundImageFix" result="effect1_dropShadow_52_92"/>
<feBlend mode="normal" in="SourceGraphic" in2="effect1_dropShadow_52_92" result="shape"/>
</filter>
</defs>
</svg>
