<svg width="103" height="104" viewBox="0 0 103 104" fill="none" xmlns="http://www.w3.org/2000/svg">
<ellipse cx="51.9492" cy="52.4273" rx="51" ry="51.5777" fill="white"/>
<g clip-path="url(#clip0_0_214)">
<path d="M24.2643 50.5777C24.1706 50.4548 23.2117 49.2466 23.2117 49.2466V56.9034C23.2117 57.5291 23.709 58.0366 24.3267 58.0366C24.9445 58.0366 25.4418 57.5291 25.4418 56.9034L25.4262 51.8565C25.0827 51.5425 24.7571 51.1921 24.2643 50.5777Z" fill="url(#paint0_linear_0_214)"/>
<path d="M34.4291 55.0898C34.0455 55.0898 33.6842 55.0056 33.3586 54.8508C33.3341 55.0898 33.43 55.8498 32.2525 56.7281C32.1656 56.7895 27.4511 59.8386 26.4632 60.346C25.1876 61.0059 23.7625 60.8033 22.924 60.3642C22.5984 60.2254 18.4638 57.7179 18.2966 57.595C17.9888 57.372 17.4826 56.9397 17.322 56.3822C17.1749 55.8998 17.1815 55.1467 17.1815 55.1467V48.7755C17.1815 47.7902 17.467 46.0222 19.2265 45.2349C21.1177 44.5227 22.1457 45.6399 23.1292 46.8641C23.205 46.9597 25.1229 49.5446 25.9681 50.3114C27.0586 51.3035 28.1603 51.8109 29.4872 51.8109C33.0576 51.8109 34.4157 48.9302 34.4157 46.8049C34.4135 44.0471 32.2012 41.8081 29.485 41.8081C27.799 41.8081 26.2491 42.6796 25.3526 44.1017C25.5177 44.2951 25.9391 44.8253 26.0038 44.9027C26.0216 44.9209 26.7308 45.8561 26.7687 45.9107C26.8914 45.7582 27.9106 44.104 29.4827 44.104C31.0929 44.104 32.1388 45.3828 32.1388 46.8049C32.1388 48.2908 30.9546 49.4922 29.5273 49.4922C28.6822 49.4922 28.1358 49.185 27.4645 48.573C26.7932 47.9609 25.1117 45.6854 25.1117 45.6854C24.9646 45.4852 23.8027 44.0517 22.9709 43.4874C21.9316 42.7729 20.4709 42.3451 18.5241 43.0095C16.5772 43.674 14.9492 45.8197 14.9492 48.7755L14.9581 55.1467C14.9581 55.3901 14.9403 56.1843 15.1343 56.9329C15.451 58.1661 16.0286 58.8624 17.2261 59.6224C17.797 59.9501 21.0864 61.9593 21.5949 62.2369C22.5605 62.7602 23.5195 63.0242 24.8063 63.0265C25.7986 63.0288 26.7642 62.7807 27.5827 62.3461C28.9007 61.6612 33.1824 58.8624 33.4523 58.6895C34.7078 57.8248 35.7314 56.4618 35.6267 54.7894C35.2699 54.9783 34.8617 55.0898 34.4291 55.0898Z" fill="url(#paint1_linear_0_214)"/>
<path d="M34.4335 53.861C35.156 53.861 35.7425 53.2671 35.7425 52.5299C35.7425 51.7972 35.156 51.1987 34.4335 51.1987C33.7109 51.1987 33.1244 51.7927 33.1244 52.5299C33.1244 53.2671 33.7109 53.861 34.4335 53.861Z" fill="url(#paint2_linear_0_214)"/>
<path d="M43.394 62.2179C42.6981 62.2179 42.166 61.6332 42.166 60.9649V51.6925C42.166 49.9383 43.353 47.1816 46.9141 47.1816C47.528 47.1816 51.3346 47.1816 51.3346 52.2773C51.3346 57.2058 48.5513 57.4982 47.4052 57.4982C45.8908 57.4982 44.9084 56.5376 44.6219 55.9946V60.9649C44.6219 61.6332 44.0898 62.2179 43.394 62.2179ZM48.7969 52.3608C48.7969 51.4001 48.6332 50.6483 48.2648 50.1053C47.8964 49.5624 47.3643 49.3118 46.7094 49.3118C46.0545 49.3118 45.5224 49.5624 45.154 50.1053C44.8266 50.5648 44.6628 51.3166 44.6628 52.3608C44.6628 53.3215 44.8266 54.0315 45.1949 54.491C45.5633 55.0339 46.0954 55.2845 46.7503 55.2845C47.3643 55.2845 47.8964 55.0339 48.2648 54.491C48.6332 53.9897 48.7969 53.2797 48.7969 52.3608Z" fill="#1C1C1C"/>
<path d="M65.5784 57.3315C64.8416 57.3315 64.2277 56.7467 64.2277 56.0367V48.7274C64.2277 48.0174 64.8416 47.4326 65.5784 47.4326C66.3152 47.4326 66.9291 48.0174 66.9291 48.7274V56.0367C66.9291 56.7467 66.3152 57.3315 65.5784 57.3315Z" fill="#1C1C1C"/>
<path d="M65.5937 42.895C64.8221 42.895 64.186 43.5558 64.186 44.3571C64.186 45.1584 64.8221 45.8192 65.5937 45.8192C66.3652 45.8192 67.0014 45.1584 67.0014 44.3571C67.0014 43.5558 66.3788 42.895 65.5937 42.895Z" fill="#1C1C1C"/>
<path d="M77.0446 42.5874C76.3487 42.5874 75.8166 43.1721 75.8166 43.8404V48.7272C75.5301 48.2678 75.1208 47.8501 74.6296 47.5577C74.1794 47.3071 73.6473 47.1818 73.0333 47.1818C71.8872 47.1818 70.9458 47.683 70.2091 48.6437C69.5133 49.6043 69.1449 50.8573 69.1449 52.4027C69.1449 53.9899 69.5133 55.2429 70.2091 56.1618C70.5774 56.6213 71.0686 56.9972 71.6826 57.206C72.2965 57.4149 72.9105 57.5402 73.5654 57.5402C74.7524 57.5402 75.8166 57.2478 76.8399 56.6213C77.8222 55.9948 78.3544 54.7835 78.3544 53.0292V43.8404C78.3134 43.1304 77.7404 42.5874 77.0446 42.5874ZM75.3254 54.5746C74.9571 55.1176 74.4659 55.3682 73.7701 55.3682C73.0742 55.3682 72.5421 55.1176 72.2147 54.5746C71.8463 54.0317 71.6826 53.2798 71.6826 52.3192C71.6826 51.4421 71.8463 50.7321 72.2147 50.2309C72.583 49.6879 73.0742 49.4373 73.7291 49.4373C74.384 49.4373 74.9161 49.6879 75.2845 50.1891C75.6529 50.7321 75.8166 51.4421 75.8166 52.3192C75.8166 53.2798 75.6529 54.0734 75.3254 54.5746Z" fill="#1C1C1C"/>
<path d="M60.7618 57.3644C61.4576 57.3644 61.9897 56.7797 61.9897 56.1114V51.5587C61.9897 49.8045 60.8027 47.0479 57.2418 47.0479C56.6278 47.0479 52.8212 47.0479 52.8212 52.1435C52.8212 57.072 55.6045 57.3644 56.7506 57.3644C58.265 57.3644 59.2474 56.4038 59.5338 55.8608V56.1114C59.5338 56.7797 60.0659 57.3644 60.7618 57.3644ZM55.3589 52.227C55.3589 51.2663 55.5227 50.5145 55.891 49.9715C56.2594 49.4286 56.7915 49.178 57.4464 49.178C58.1013 49.178 58.6334 49.4286 59.0018 49.9715C59.3292 50.431 59.4929 51.1828 59.4929 52.227C59.4929 53.1877 59.3292 53.8977 58.9609 54.3571C58.5925 54.9001 58.0604 55.1507 57.4055 55.1507C56.7915 55.1507 56.2594 54.9001 55.891 54.3571C55.5227 53.8559 55.3589 53.1459 55.3589 52.227Z" fill="#1C1C1C"/>
<path d="M81.3833 61.4663C81.3833 61.8421 81.6698 62.1345 81.9972 62.1762C82.734 62.2598 83.921 62.2598 84.5758 61.7169C85.0261 61.341 85.3944 60.798 85.681 59.9626L88.8736 49.0613C89.1601 48.226 88.5461 47.3906 87.6866 47.3906C87.1136 47.3906 86.6224 47.7665 86.4996 48.3095L84.7805 54.4076L83.0614 48.3513C82.8977 47.7665 82.4065 47.3906 81.7926 47.3906C80.8921 47.3906 80.2781 48.3095 80.5646 49.1449L83.348 58.5425C83.5117 59.0855 83.4708 59.4614 83.1842 59.6703C82.8977 59.9209 82.5293 60.0462 82.0382 60.0462C81.6698 60.0462 81.3423 60.3803 81.3423 60.7562V61.4663H81.3833Z" fill="#1C1C1C"/>
</g>
<defs>
<linearGradient id="paint0_linear_0_214" x1="16.6569" y1="60.5192" x2="34.598" y2="44.3499" gradientUnits="userSpaceOnUse">
<stop stop-color="#A6009C"/>
<stop offset="1" stop-color="#FF009C"/>
</linearGradient>
<linearGradient id="paint1_linear_0_214" x1="16.7445" y1="66.5479" x2="29.1203" y2="45.5395" gradientUnits="userSpaceOnUse">
<stop offset="0.00901231" stop-color="#A6009C"/>
<stop offset="1" stop-color="#FF009C"/>
</linearGradient>
<linearGradient id="paint2_linear_0_214" x1="20.6632" y1="65.4488" x2="39.2898" y2="48.6618" gradientUnits="userSpaceOnUse">
<stop stop-color="#A6009C"/>
<stop offset="1" stop-color="#FF009C"/>
</linearGradient>
<clipPath id="clip0_0_214">
<rect width="74" height="21.2379" fill="white" transform="translate(14.9492 41.8081)"/>
</clipPath>
</defs>
</svg>
